<?xml version="1.0" encoding="utf-8"?>
<!-- Generator: Adobe Illustrator 24.2.1, SVG Export Plug-In . SVG Version: 6.00 Build 0)  -->
<svg version="1.1" id="Layer_1" xmlns="http://www.w3.org/2000/svg" xmlns:xlink="http://www.w3.org/1999/xlink" x="0px" y="0px"
	 viewBox="0 0 283 104.8" style="enable-background:new 0 0 283 104.8;" xml:space="preserve">
<style type="text/css">
	.st0{fill:#CE1FC3;stroke:#CE1FC3;stroke-width:2;stroke-miterlimit:10;}
	.st1{fill:#4F95A5;stroke:#CE1FC3;stroke-width:2;stroke-miterlimit:10;}
	.st2{fill:none;stroke:#ED1C24;stroke-width:2;stroke-miterlimit:10;}
</style>
<path class="st0" d="M211.4,100.3l-1.6-2.4c-3-4.4-6-8.8-9.1-13.2c-0.5-0.7-0.6-1.2,0.5-1.3c0.3-0.1,0.7-0.2,1-0.3
	c2.9-0.8,4.8-3.5,4.7-6.5c0-8.1,0-16.2,0-24.3c0-1.9-0.6-3.8-1.9-5.3c-1-1.5-2.6-2.5-4.4-2.9c-1.8-0.3-3.6-0.4-5.4-0.3h-25.5
	c-6.4,0-12.8,0-19.2,0c-1.1,0-1.3,0.3-1.3,1.3c0,15.7,0,31.4,0,47.1c0,2.6,0,5.2,0,7.8c0,0.5-0.1,1.1,0.8,0.9c5.1,0,10.3,0,15.4,0.1
	c1,0,1.3-0.3,1.1-1.2l0.1-0.9c0.2-4.7,0.2-9.5,0.2-14.2c0-0.6-0.1-1.1,0.8-1.1c3.8,0,7.6,0,11.4,0c1,0,1.9,0.5,2.3,1.3
	c2.9,4.4,5.8,8.7,8.7,13c0.6,1.1,1.4,2.1,2.2,3.1h18.6C211.7,101.2,211.9,100.9,211.4,100.3z M189.4,71.1c0,0.5,0.1,1-0.7,1
	c-6.9-0.1-13.9,0.2-20.8-0.2c-1,0-1.2-0.4-1.2-1.3c0-4.3,0-8.7,0-13c0-1.8,0.1-1.8,1.8-1.8l19.8-0.1c0.9,0,1.2,0.1,1.2,1.2
	C189.3,61.6,189.4,66.3,189.4,71.1L189.4,71.1z"/>
<path class="st1" d="M79.6,101.2c0-0.4-0.1-0.8-0.1-1.2c0-17.8,0-35.6,0-53.4c0-2.5,0-2.5,2.5-2.5c17.8-0.1,35.5-0.1,53.3,0
	c0.9,0,1.1,0.3,1.1,1.1c-0.1,3.4-0.1,6.9,0,10.3c0,1-0.3,1.2-1.2,1.2c-12.2,0-24.5,0.1-36.7,0.1c-1.3,0-1.6,0.3-1.6,1.6
	c0.1,2,0.1,4.1,0,6.1c0,0.8,0.3,1.1,1.1,1.1c5.8,0,11.7,0.1,17.5,0.2c0.8,0,1.1,0,0.9,1c-0.7,3.1-1.3,6.2-1.8,9.4
	c-0.1,0.7-0.5,1-1.2,1c-5.1,0.1-10.2,0.3-15.3,0.4c-0.9,0-1.1,0.3-1.1,1.1c0,3,0,6.1,0,9.1c0,1,0.3,1.1,1.2,1.1
	c11.6,0,23.2,0.1,34.8,0.2c0.4,0,0.9,0,1.3,0c0.2,0.1,0.4,0.2,0.5,0.2c1.2-0.2,1.4,0.4,1.4,1.5c-0.1,3-0.1,6.1,0,9.1
	c0,1.2-0.4,1.4-1.5,1.4C116.3,101.2,98,101.2,79.6,101.2z"/>
<path class="st1" d="M16.4,74.4c0,2.5,0,5.1,0,7.6c0,6.3-0.1,12.5,0,18.8c0,0.7-0.2,0.9-0.9,0.9c-4.5,0-9,0-13.5,0
	c-0.7,0-0.9-0.2-0.9-0.9C1,94.5,1,88.3,1,82s0-12.8,0-19.2c0-6.2,0.1-12.4,0.1-18.6c0-1.5,0-1.5,1.3-0.8l48.9,28.6l1.4,0.8v-1.4
	c0.1-8.9,0.2-17.7,0.2-26.6c0-0.9,0.2-1.1,1.1-1.2c4.2-0.2,8.3-0.2,12.5-0.1c0.9,0,1.1,0.3,1.1,1.2c0.2,14.8,0.2,29.5,0.1,44.3
	c0,4.6-0.1,9.1-0.1,13.7c0,1.1-0.2,1.2-1.1,0.7c-13-7.7-26.1-15.4-39.1-23.1l-10.2-6C17,74.3,16.7,74.3,16.4,74.4z"/>
<path class="st1" d="M189.7,20.7c0-3.2,0-6.3,0-9.5c0-0.8,0.2-1.2,1.1-1.2c6.4,0,12.8,0,19.2,0c0.7,0,0.9,0.2,0.9,0.9
	c-0.1,1.3,0.4,2.8-0.2,3.6s-2.3,0.2-3.5,0.3c-3.2,0-6.3,0.1-9.5,0c-0.9,0-1.3,0.2-1.3,1.2c0,2.3,0,2.3,2.3,2.3
	c1.4,0,2.8,0.1,4.1,0.1c0.6,0,0.8,0.3,0.7,0.8c-0.2,0.9-0.4,1.8-0.5,2.7c-0.1,0.7-0.6,0.9-1.3,0.9c-1.5,0-2.9,0.1-4.4,0.1
	c-0.7,0-1,0.3-1,1c0,2.5,0,2.5,2.4,2.5c3.6,0,7.3,0.1,11,0c0.8,0,1.2,0.2,1.1,1.1s0,1.9,0,2.9c0,0.6-0.1,0.9-0.8,0.9
	c-6.6,0.1-13.2,0.1-19.7,0c-0.8,0-0.7-0.4-0.7-0.9L189.7,20.7L189.7,20.7z"/>
<path class="st1" d="M88.5,31.3c-2.5,0-4.9,0-7.4,0c-2.1-0.1-3.5-0.5-3.6-3.3c-0.2-5.2-0.2-10.5,0.1-15.7c0-1.2,1-2.1,2.1-2.2
	c0.7-0.1,1.4-0.2,2.1-0.2h13.4c1.9,0,1.9,0,1.9,1.9c0,0.5,0,1,0,1.4c0.2,1.2-0.4,1.5-1.5,1.5c-3.4,0-6.8,0.1-10.2,0.1
	c-1,0-1.2,0.3-1.2,1.2c0.1,3,0.1,6.1,0,9.1c0,1.1,0.3,1.3,1.3,1.3c3.3,0,6.6,0,9.9,0c1.8,0,1.8,0.1,1.8,1.9c0,3,0,3-3,3L88.5,31.3
	L88.5,31.3z"/>
<path class="st1" d="M137.6,20.6c0-3.2,0-6.4,0-9.6c0-0.8,0.2-1.1,1-1c5.8,0,11.6,0,17.4,0c0.9,0,1.1,0.3,1.1,1.1
	c-0.1,1.2,0.5,2.6-0.2,3.4s-2.2,0.2-3.4,0.3c-2.7,0.1-5.4,0.1-8.2,0c-0.8,0-1.1,0.2-1.1,1.1c0,2.3,0,2.3,2.2,2.4
	c1.4,0.1,2.8,0.1,4.3,0.1c0.6,0,0.8,0.1,0.7,0.9c-0.6,3.5-0.6,3.5-4.1,3.6c-3,0-3,0-3.1,3c0,1.5,0,3,0,4.5c0,0.7-0.1,1-0.9,1
	c-1.5-0.1-3.1-0.1-4.6,0c-0.9,0-1.1-0.3-1-1.1C137.6,27,137.6,23.8,137.6,20.6L137.6,20.6z"/>
<path class="st1" d="M105.7,21.6c0-2.8,0-5.6,0-8.4c0-1.9,0.8-2.8,2.7-3c3.7-0.2,7.4-0.3,11.1-0.2c2.2-0.1,4.5-0.1,6.7,0.2
	c1.5,0.1,2.7,1.4,2.7,2.9c0,5.8,0,11.7,0,17.5c0,0.7-0.2,0.8-0.9,0.8c-1.7,0-3.3,0-5,0c-0.8,0-1-0.3-1-1.1c0.1-1.4,0-2.8,0-4.1
	c0-0.6,0-0.8-0.8-0.7c-2.5,0.5-5.1,0.9-7.7,1.2c-0.8,0.1-0.9,0.5-1,1.1c0,0.9-0.1,1.9-0.1,2.8c0,0.6-0.2,0.9-0.8,0.9
	c-1.7,0-3.4,0-5.1,0c-0.7,0-0.9-0.2-0.9-0.9C105.7,27.5,105.7,24.5,105.7,21.6z M112.6,18.5c0,0.9,0.1,1.9,0,2.8s0.4,1.2,1.2,1.1
	c2.4-0.4,4.8-0.8,7.2-1.2c0.5,0,0.9-0.4,0.9-0.9c0,0,0-0.1,0-0.1c0-1.5,0-2.9,0.1-4.4c0-0.7-0.2-0.9-0.9-0.9c-1.7,0-3.4,0-5.1,0.1
	c-1.1,0-2.6-0.4-3.3,0.3S112.6,17.4,112.6,18.5L112.6,18.5z"/>
<path class="st1" d="M163.4,20.5c0-3.2,0-6.4,0-9.6c0-0.8,0.2-0.9,0.9-0.9c5.6,0,11.1,0,16.7,0.1c1.9,0,1.9,0,1.9,1.8
	c-0.1,3.3,0.6,2.9-2.9,3c-2.9,0.1-5.8,0.1-8.8,0.1c-0.8,0-1,0.2-1.1,1c-0.2,2.5-0.2,2.5,2.3,2.5c1.3,0,2.7,0,4,0c0.8,0,1,0.3,0.9,1
	s-0.3,1.7-0.5,2.5c-0.1,0.6-0.6,1.1-1.2,1c0,0,0,0-0.1,0c-1.4,0-2.8,0.1-4.3,0.1c-0.9,0-1.3,0.3-1.2,1.3c0.1,1.9-0.1,3.9,0,5.8
	c0,1.1-0.4,1.4-1.4,1.3c-1.3-0.1-2.6-0.1-3.9,0c-1,0.1-1.4-0.3-1.3-1.3C163.4,26.9,163.4,23.7,163.4,20.5L163.4,20.5z"/>
<path class="st1" d="M205.5,6h-4.1c-2.8,0-3.8-2.4-3.7-4.4c0.1-1,0.9-0.4,1.3-0.4c2.7,0.7,5.3,1.5,8,2.3c1,0.3,1.9,0.6,2.9,0.9
	c0.6,0.2,1,0.6,0.9,1.2S210.1,6,209.6,6C208.3,6,206.9,6,205.5,6L205.5,6z"/>
<path class="st2" d="M265,65.3v14.3c0,4.1-3.3,7.4-7.4,7.4H239V58h18.6C261.7,58,265,61.3,265,65.3z"/>
<path class="st1" d="M267.6,44H222v57h45.6c7.9,0,14.4-6.4,14.4-14.4l0,0V58.4C282,50.4,275.6,44,267.6,44L267.6,44z M265,79.6
	c0,4.1-3.3,7.4-7.4,7.4H239V58h18.6c4.1,0,7.4,3.3,7.4,7.4V79.6z"/>
</svg>
