<svg xmlns="http://www.w3.org/2000/svg" viewBox="0 0 374.19 459.5"><defs><style>.cls-1{fill:#ffeea5;}.cls-1,.cls-2,.cls-3,.cls-4,.cls-5,.cls-6{stroke:#1d1d1b;stroke-miterlimit:10;}.cls-1,.cls-2,.cls-4,.cls-5{stroke-width:3px;}.cls-2{fill:#fffae1;}.cls-3,.cls-6{fill:none;}.cls-3{stroke-width:9px;}.cls-4{fill:#3056a3;}.cls-5{fill:#17428d;}</style></defs><g id="Layer_2" data-name="Layer 2"><g id="Layer_1-2" data-name="Layer 1"><rect class="cls-1" x="40.94" y="25.86" width="323.08" height="416.67"/><polygon class="cls-2" points="372.52 49.29 330.56 396.77 254.96 456.08 1.67 425.5 51.77 10.56 372.52 49.29"/><polygon class="cls-1" points="330.56 396.77 254.96 456.08 263.1 388.62 330.56 396.77"/><line class="cls-3" x1="94.79" y1="115.6" x2="312.74" y2="141.24"/><line class="cls-3" x1="85.81" y1="170.73" x2="303.76" y2="196.37"/><line class="cls-3" x1="75.56" y1="225.86" x2="293.5" y2="251.5"/><path class="cls-4" d="M258.88,34.83a22.68,22.68,0,0,1-1.19,7.31,23.07,23.07,0,1,1-21.88-30.38H236a23.09,23.09,0,0,1,22.89,23.07Z"/><circle class="cls-5" cx="253.76" cy="22.01" r="20.51"/><path class="cls-6" d="M221,52.53l-11.06,7.53a50.58,50.58,0,0,1-5.22-6L215,44.86A23.29,23.29,0,0,0,221,52.53Z"/></g></g></svg>