<svg xmlns="http://www.w3.org/2000/svg" viewBox="0 0 1231.37 1072.93"><defs><style>.cls-1,.cls-17{fill:#fff;}.cls-10,.cls-12,.cls-18,.cls-2{fill:#290d00;}.cls-3{fill:#009fa7;}.cls-4{fill:#603813;}.cls-10,.cls-12,.cls-13,.cls-17,.cls-18,.cls-4,.cls-6,.cls-7{stroke:#290d00;}.cls-10,.cls-12,.cls-13,.cls-14,.cls-17,.cls-18,.cls-4,.cls-6,.cls-7,.cls-9{stroke-miterlimit:10;}.cls-14,.cls-4,.cls-6,.cls-7,.cls-9{stroke-width:5px;}.cls-5{fill:#42210b;}.cls-13,.cls-14,.cls-6{fill:none;}.cls-7{fill:#b0262c;}.cls-8{fill:#8a1c20;}.cls-9{fill:#8fba55;stroke:#000;}.cls-10{stroke-width:8px;}.cls-11{fill:#4f3124;}.cls-13,.cls-17,.cls-18{stroke-width:3px;}.cls-14{stroke:#4c9e98;}.cls-15{fill:#ffdbd2;}.cls-16{fill:#e09fa7;}.cls-19{fill:#009245;}.cls-20{font-size:28px;fill:#008a9c;font-family:MVBoli, MV Boli;letter-spacing:-0.03em;}</style></defs><g id="Layer_2" data-name="Layer 2"><g id="Layer_1-2" data-name="Layer 1"><polygon class="cls-1" points="307.27 1070.6 1.15 535.13 309.57 1 924.1 2.33 1230.22 537.8 921.8 1071.93 307.27 1070.6"/><path class="cls-2" d="M310.15,2,923.52,3.33,1229.07,537.8,921.23,1070.93l-613.38-1.33L2.31,535.13,310.15,2M309,0,0,535.13,306.69,1071.6l615.69,1.33,309-535.13L924.68,1.34,309,0Z"/><polygon class="cls-3" points="907.99 1045.24 323.22 1043.97 31.93 534.45 325.41 26.19 910.17 27.46 1201.46 536.99 907.99 1045.24"/><path class="cls-1" d="M80.36,534.21l21.19-37.58a5.89,5.89,0,0,1,3-3,3.83,3.83,0,0,1,3.15.37,3.73,3.73,0,0,1,1.85,2.48,5.89,5.89,0,0,1-1,4.1L87.33,538.19l45.85,26.1a14.34,14.34,0,0,0,12.72.87q6.73-2.52,12-11.84A70.47,70.47,0,0,0,164.35,537a59.19,59.19,0,0,0,2.44-15.38,6.15,6.15,0,0,1,.47-3.32,3.54,3.54,0,0,1,2.32-1.73,3.87,3.87,0,0,1,3,.39,3.72,3.72,0,0,1,1.69,2.38q1.23,4.19-1.36,16.16a75.34,75.34,0,0,1-7.83,21.28q-6.84,12.12-16.54,16.07t-19.29-1.52l-45.85-26.1L76.18,558a5.92,5.92,0,0,1-3,3,3.77,3.77,0,0,1-3.14-.38,3.67,3.67,0,0,1-1.86-2.47,6,6,0,0,1,1-4.11l7.21-12.77L44.07,522.64a5.89,5.89,0,0,1-3-3,3.71,3.71,0,0,1,.33-3.08,3.8,3.8,0,0,1,2.5-1.95,5.93,5.93,0,0,1,4.09,1Z"/><path class="cls-1" d="M196.15,415.91l-39.78,70.54q14.38,5.81,27.87,1t21.34-18.72a65.09,65.09,0,0,0,6.61-17.68,48.46,48.46,0,0,0,1.08-17.68,5.46,5.46,0,0,1,.3-3.42,3.55,3.55,0,0,1,2.33-1.72,3.87,3.87,0,0,1,3,.39,4.44,4.44,0,0,1,2,2.86q1.88,6.28-.26,18.42a70.74,70.74,0,0,1-8.12,22.76q-10,17.79-28.35,23.1a43.35,43.35,0,0,1-34.81-4.08q-15-8.55-19.46-25.84t4.85-33.76q9.57-17,26.79-21.66T196.15,415.91Zm-10.92,3a34.33,34.33,0,0,0-24.65.29q-12.09,4.71-18.92,16.83a37,37,0,0,0-4.7,24.86,34.92,34.92,0,0,0,12.48,21.48Z"/><path class="cls-1" d="M269.62,365l-9.93-5.65q4.14,22.28-5.53,39.41-7,12.45-17.25,15.88a22.74,22.74,0,0,1-19.32-1.75q-10-5.7-12.27-19.18t7.73-31.19a110.78,110.78,0,0,1,6.47-10q3.78-5.25,8.76-11l-11.15-6.35q-5.67-3.22-12.82-.33t-13.1,13.45q-4.56,8.07-8.11,25.32a18.12,18.12,0,0,1-1.08,3.85,3.44,3.44,0,0,1-2.27,1.7,3.89,3.89,0,0,1-3-.45,3.46,3.46,0,0,1-1.75-2.08q-.58-1.86,1.89-11.23,3.81-14.82,7.52-21.41,7.4-13.11,18-16.78t18.7,1l45.6,26,5.2-9.23a6.31,6.31,0,0,1,3-3.09,3.64,3.64,0,0,1,3.11.35,3.71,3.71,0,0,1,1.85,2.48c.26,1.08-.1,2.48-1.06,4.18Zm-34.28-19.52a75.35,75.35,0,0,0-7.86,9.13,110.21,110.21,0,0,0-7.12,11.09q-8.51,15.07-6.81,27.26,1.22,9.18,7.94,13A15.36,15.36,0,0,0,234.75,407q7-2.47,12.33-11.87a44.91,44.91,0,0,0,5.84-18.72q.78-9.74-2.41-22.33Z"/><path class="cls-1" d="M260.13,231.72l-2.3-1.31q-2.53-1.46-3-3a3.71,3.71,0,0,1,.33-3.08,3.77,3.77,0,0,1,2.5-1.95c1.09-.26,2.48.1,4.17,1.06l15.58,8.88a6.58,6.58,0,0,1,3,3.08,3.66,3.66,0,0,1-.35,3.12,3.62,3.62,0,0,1-2.27,1.81,5.56,5.56,0,0,1-3.78-.68q-6.11-2.82-15.42,1.4t-16.19,16.42q-8.69,15.42-3.6,28.87a38.57,38.57,0,0,0,17.47,20.51q13.37,7.6,27,3.74t21.57-17.88a56.41,56.41,0,0,0,6.32-18.12,47.66,47.66,0,0,0-1-20.54,5.61,5.61,0,0,1,.08-4,3.68,3.68,0,0,1,5.14-1.43q3.53,2,4.25,13.41a61.5,61.5,0,0,1-8.1,34.91q-9.44,16.74-26.12,21.44t-33-4.58Q235.78,304.3,231,287t4.65-34Q244.61,237.15,260.13,231.72Z"/><path class="cls-1" d="M240.61,172.47,284,197.61Q280.6,187,281.1,179.24A35.66,35.66,0,0,1,285.83,164q4.56-8.09,10.57-12.12a27.51,27.51,0,0,1,14-4.48,25.8,25.8,0,0,1,14.48,3.23L367.63,175l4.37-7.74c1-1.71,1.94-2.72,3-3.05a3.69,3.69,0,0,1,3.08.39,3.76,3.76,0,0,1,1.88,2.43c.27,1.06-.07,2.45-1,4.15l-12.69,22.5q-1.44,2.55-3,3.06a3.59,3.59,0,0,1-3.06-.33,3.64,3.64,0,0,1-1.9-2.49c-.23-1.07.14-2.46,1.1-4.16l4.37-7.75L321.44,158a18.71,18.71,0,0,0-15.51-1.7q-8.06,2.55-13.49,12.19a25.56,25.56,0,0,0-3.6,15q.44,5.37,5.18,19.83l43.64,24.84,4.41-7.83a6,6,0,0,1,2.94-3,3.64,3.64,0,0,1,3.11.35,3.69,3.69,0,0,1,1.85,2.47,5.92,5.92,0,0,1-1,4.11l-12.73,22.58a5.9,5.9,0,0,1-3,3,3.93,3.93,0,0,1-5-2.82,6.2,6.2,0,0,1,1.06-4.09l4.41-7.82-90.07-51.72-5.25,9.32a5.93,5.93,0,0,1-3,3,4,4,0,0,1-5-2.85,6,6,0,0,1,1-4.1Z"/><path class="cls-4" d="M758.2,180.93c-11,6.76-20,130.76-97.29,216.34-14.32,15.07-23.22,19.7-22.77,20.8C652.21,423.69,793,272.44,830.55,220.36c10.66-13.67-.18-18.13-4-18.63C796.69,193.3,773.21,173.69,758.2,180.93Z"/><path class="cls-5" d="M809.94,198.05,830.37,205c11.23,4-2,16-22.3,42.08C741,325.29,699.33,365.43,704.4,358.41,753.56,296,817.79,224.32,809.94,198.05Z"/><path class="cls-6" d="M758.2,180.93c-11,6.76-20,130.76-97.29,216.34-14.32,15.07-23.22,19.7-22.77,20.8C652.21,423.69,793,272.44,830.55,220.36c10.66-13.67-.18-18.13-4-18.63C796.69,193.3,773.21,173.69,758.2,180.93Z"/><path class="cls-7" d="M612.92,379.62c24,10,73.21-7.58,77.91-10.46,1-.59,70.38-38.47,143.93-47.34,0,0,195.88-20,269,68.92,148.68,160-88.19,651.34-359.59,651.34-25-.39-42-22.39-141-2.39-162.84,17.79-464.66-364.41-264-644.51C398.5,322.09,508,310.44,594,330.71c28.32,6.67,96.76,37.8,96.76,37.8C655.73,383.91,632.42,384.21,612.92,379.62Z"/><ellipse class="cls-8" cx="614.21" cy="355.69" rx="75.5" ry="26.5"/><path class="cls-9" d="M477.74,83.76C751,98.32,691,366.66,691,366.66S413.57,397.86,477.74,83.76Z"/><path class="cls-10" d="M929.71,743.81c0,24-20.15,43.53-45,43.53s-49-19.49-49-43.53c-1-25.62,18-47.62,49-47.62C909.56,696.19,929.71,719.77,929.71,743.81Z"/><path class="cls-11" d="M929.71,743.81c0,24-20.15,43.53-45,43.53s-49-19.49-49-43.53c-1-25.62,18-47.62,49-47.62C909.56,696.19,929.71,719.77,929.71,743.81Z"/><path class="cls-12" d="M918.71,747.75c0,21.48-18,38.9-40.21,38.9s-43.79-17.42-43.79-38.9c-.9-22.9,16.08-42.56,43.79-42.56C900.71,705.19,918.71,726.26,918.71,747.75Z"/><polygon class="cls-12" points="1097.61 355.31 1151.47 417.86 1020.35 461.92 966.49 399.37 1097.61 355.31"/><ellipse class="cls-2" cx="994.66" cy="469.59" rx="4.39" ry="11.85" transform="translate(-21.27 47.99) rotate(-2.73)"/><path class="cls-2" d="M994.37,470.23a33.85,33.85,0,0,1,5.7,9.18c2.86,6.75,4.82,13.48,3.13,15.56-5.26-.75-7.06,1.88-9.73.77-1.3-1.54-2-4.67-1.42-9.16-.78,3.4-1.36,4-.56,8.77a8.44,8.44,0,0,1-3-1.11h0C988.93,481.45,994.62,479,994.37,470.23Z"/><path class="cls-13" d="M994.2,470.24c1.81-17.17-5.39-31-4-43.53"/><path class="cls-14" d="M1123.21,414.69c-9.23-21.32-57-27-80-8"/><circle class="cls-2" cx="1082.71" cy="454.19" r="58"/><path class="cls-15" d="M883.62,705.13c95.22-52,124.2-172.65,143-231.09,2.34-7.26,15.52-34.64,42.91-48.64,5.89-3,25.26-12.91,43.9-5.25,3.28,1.34,8.15,3.9,14.49,10.4,16.5,16.92,38.12,55.65,20.84,84.18-2.69,4.43-10.4,15.38-29.12,21.91,8.28,41.6-138.7,262.1-236,251.7C815.71,775.19,835.71,716.19,883.62,705.13Z"/><path class="cls-16" d="M1117.71,539.19c-11.5,2.54-34-4.5-34-4.5s2,6.5,18,10.5c18,1-75,181-169,230C1009.71,739.19,1118.21,591.73,1117.71,539.19Z"/><path class="cls-6" d="M1154.22,477.69c9.41,43.05-31.73,71-65.45,57-20.87-11.41-56-22-57-54.75-1.06-33.53,26.39-58.43,58.76-60.75C1121.49,415.69,1141.88,439.83,1154.22,477.69Z"/><path class="cls-15" d="M1144.31,511.36c-12.6,27.83-41.6,28.83-70.69,19.92-38.37-13.86-49.91-35.09-43.91-59.09,22-44,40.43-42.69,71.46-20.26C1128.14,471.42,1153.23,490,1144.31,511.36Z"/><ellipse cx="1112.61" cy="506.56" rx="24.65" ry="22.11" transform="translate(-96.41 687.6) rotate(-33)"/><ellipse class="cls-15" cx="1110.68" cy="492.21" rx="34.18" ry="35.71" transform="translate(-18.11 941.34) rotate(-45.6)"/><path class="cls-6" d="M877.21,707.69c89-32,130.61-175.21,149.38-233.65,2.34-7.26,15.52-34.64,42.91-48.64,5.89-3,25.26-12.91,43.9-5.25,3.28,1.34,8.15,3.9,14.49,10.4,16.5,16.92,38.12,55.65,20.84,84.18-2.69,4.43-10.4,15.38-29.12,21.91,1.47,52.82-141.9,263.55-242.9,251.55-49-10-33.5-54.5-33.5-54.5C848.21,718.69,869.21,710.69,877.21,707.69Z"/><ellipse class="cls-17" cx="1137.21" cy="471.11" rx="15.53" ry="15.6"/><ellipse class="cls-17" cx="1091.66" cy="477.35" rx="15.53" ry="15.6"/><ellipse class="cls-18" cx="1088.56" cy="474.23" rx="8.28" ry="8.32"/><ellipse class="cls-18" cx="1134.1" cy="467.99" rx="8.28" ry="8.32"/><path class="cls-1" d="M331.64,602.84c-.47,1.28-.53,1.41-.6,1.4-2.56-.23,6-118.19,54.24-182,10.56-14,14.53-22.29,27.87-13.11s-10,26-29.75,59.26S337.15,573.07,331.64,602.84Z"/><path class="cls-8" d="M1093.71,647.19c17,20-3.24,102.27-67,193C957.94,938.07,852,1030.43,759.92,1025.87c-26.21-3.68-33.21-20.68-89.21-19.68-44,0-51,21-89.41,22.4-61.53-6.68-158.21-83-155.53-102,3.34-23.85,162,7.72,162,7.72s129.9,21.93,186.9,14.93c8-2,90.88.91,192-118C1070.71,710.19,1086.71,639.19,1093.71,647.19Z"/><path class="cls-19" d="M488.71,100.19,676.71,355c-55.85-50-75-64.69-112-115.66C529,190.19,507.46,140.15,488.71,100.19Z"/><path class="cls-2" d="M488.71,100.19c25,28,170,229,188,255-39.2-48.56-51.08-62.65-88.61-113.69C551.89,192.24,516.87,141,488.71,100.19Z"/><path class="cls-2" d="M468.19,65.32l-9.05,12.23-31.4-11.4c-28-9.93-43.72-4.92-52.86,4.48,7.61-20.63,1.43-32.18-14.69-40.71a30.54,30.54,0,0,0-13.55-3.66l.07-.07H325L310.63,51.33c-.88,1.38-1.74,2.81-2.56,4.27L297.29,74.72l-2.81,5-10.77,18.5,8.92,4.62,6.81-9.46c16.3,8.88,32.52,18.11,48.61,27.27l9.35,5.32c16.94,9.65,16.49,9.19,28,16.1l-5.17,11,7.55,4.44,20.89-36.89-7.56-4-6.5,9.43c-12.13-6.52-11.88-6.58-30.12-17l-5.61-3.2-.19-.1L366,92.69c8.23-14.59,32.37-17,49.51-11.9L448.8,94.45c9.8,2.79,15.47-.25,21.62-11.15a43.8,43.8,0,0,0,5.26-13.72ZM360.57,82.62,350.23,101C335,92.29,321.42,84.49,307.74,76.34l8.84-15.66C327.71,44.19,337.71,36.19,354,45,365.71,52.19,372.71,61.19,360.57,82.62Z"/><text class="cls-20" transform="translate(408.29 186.32) rotate(-61.34)">©mival</text></g></g></svg>