<svg xmlns="http://www.w3.org/2000/svg" viewBox="0 0 180 135.73"><defs><style>.cls-1{fill:#eb7804;}.cls-2{fill:#2489c5;}</style></defs><g id="Layer_2" data-name="Layer 2"><g id="Layer_1-2" data-name="Layer 1"><path class="cls-1" d="M0,0V134.05a1.68,1.68,0,0,0,1.68,1.68H34.53a1.68,1.68,0,0,0,1.68-1.68V1.68A1.68,1.68,0,0,0,34.53,0Z"/><path class="cls-1" d="M143.79,1.68V134.05a1.68,1.68,0,0,0,1.68,1.68h32.85a1.68,1.68,0,0,0,1.68-1.68V0H145.47A1.68,1.68,0,0,0,143.79,1.68Z"/><path class="cls-2" d="M36.71.74,90,79.21,143.29.74A1.68,1.68,0,0,1,144.68,0H180L91.4,133.62a1.68,1.68,0,0,1-2.8,0L0,0H35.32A1.68,1.68,0,0,1,36.71.74Z"/></g></g></svg>