<svg id="Layer_1" data-name="Layer 1" xmlns="http://www.w3.org/2000/svg" viewBox="0 0 120 120"><defs><style>.cls-1{fill:#e27524;}.cls-2{fill:#2c5169;opacity:0.8;}.cls-3{fill:#3b6d8f;}</style></defs><path class="cls-1" d="M0,14.76v89.37a1.12,1.12,0,0,0,1.12,1.12H23a1.12,1.12,0,0,0,1.12-1.12V15.29c0-.62-.5-.53-1.12-.53H0Z"/><path class="cls-1" d="M95.86,104.13A1.12,1.12,0,0,0,97,105.25h21.9a1.12,1.12,0,0,0,1.12-1.12V14.76H96.37a.51.51,0,0,0-.51.51Z"/><path class="cls-2" d="M24.14,15.29V51.53L0,14.76H23.69a.77.77,0,0,1,.24.06A.49.49,0,0,1,24.14,15.29Z"/><path class="cls-3" d="M96.17,14.8a.5.5,0,0,0-.31.46V51.42L60.93,104.48a1.12,1.12,0,0,1-1.55.32,1.34,1.34,0,0,1-.31-.32L24.14,51.42V15.29a.49.49,0,0,0-.21-.45,1.09,1.09,0,0,1,.54.41L60,68l35.52-52.7A1.13,1.13,0,0,1,96.17,14.8Z"/><path class="cls-2" d="M120,14.76,95.86,51.53V15.26a.5.5,0,0,1,.31-.46h0l.24,0Z"/><path class="cls-1" d="M99.83,118a.59.59,0,0,0-.23,0,.28.28,0,0,1,.15,0Z"/><path class="cls-2" d="M29.27,118a.22.22,0,0,1,.14,0,.92.92,0,0,0-.29,0Z"/></svg>