<svg xmlns="http://www.w3.org/2000/svg" viewBox="0 0 170.35 134.84"><defs><style>.cls-1,.cls-2,.cls-4{fill:#fff;}.cls-1{opacity:0.5;}.cls-2,.cls-5{opacity:0.7;}.cls-3{opacity:0.9;}.cls-5{fill:none;stroke:#fff;stroke-miterlimit:10;stroke-width:2px;}</style></defs><g id="Layer_2" data-name="Layer 2"><g id="Layer_1-2" data-name="Layer 1"><path class="cls-1" d="M38.81,12.79V99.28a1.08,1.08,0,0,0,1.08,1.09h21.2a1.08,1.08,0,0,0,1.08-1.09V13.87a1.08,1.08,0,0,0-1.08-1.08H38.81Z"/><path class="cls-1" d="M131.59,13.87V99.28a1.08,1.08,0,0,0,1.08,1.09h21.2A1.08,1.08,0,0,0,155,99.28V12.79H132.67a1.08,1.08,0,0,0-1.08,1.08Z"/><path class="cls-2" d="M62.49,13.27,96.88,63.9l34.38-50.63a1.1,1.1,0,0,1,.9-.48H155L97.78,99a1.09,1.09,0,0,1-1.5.3A1.07,1.07,0,0,1,96,99L38.81,12.79H61.6A1.07,1.07,0,0,1,62.49,13.27Z"/><path class="cls-1" d="M0,13.22H3.78l4.58,7.64h0L13,13.22h3.8V28.74H13.4v-7c0-1,.12-3,.15-4.16H13.4c-.29.65-1,2.16-1.34,2.79L8.87,25.72h-1L4.7,20.4c-.39-.63-1.05-2.14-1.36-2.79H3.19c.05,1.18.15,3.16.15,4.16v7H0Z"/><path class="cls-1" d="M9.57,34.29V49.81H6.36V34.29Z"/><path class="cls-1" d="M13.93,68.07v3.17H2V55.37H5.59v12.7Z"/><path class="cls-1" d="M16.76,91.8l-.13.16H13.05l-1.34-3.6H5.05L3.69,92H.13L0,91.8,6.19,76.44h4.38ZM10.8,86l-.15-.4c-.75-1.88-1.47-4-2.19-6.2H8.28c-.7,2.18-1.42,4.32-2.17,6.2L6,86Z"/><path class="cls-1" d="M.43,97.52H4.76l5.08,6.73a38.41,38.41,0,0,1,3.4,4.28l.2,0c-.22-1.65-.53-4.27-.53-5V97.52h3.85V113H12.88l-6.22-7.22c-.54-.7-1.74-2.7-2.52-4l-.16,0c.11.91.27,3.23.27,4.39V113H.43Z"/><g class="cls-3"><path class="cls-4" d="M.56,119.12H4.18l2.62,6.94c.15.42,1.21,3.86,1.7,5.53h.16c.52-1.67,1.58-5.11,1.73-5.53L13,119.12h3.62l.13.16L10.7,134.63H6.49L.43,119.28Z"/><path class="cls-4" d="M36.05,134.47l-.13.16h-3.6L31,131H24.29l-1.37,3.6H19.35l-.13-.16,6.21-15.35h4.4Zm-6-5.83-.16-.39c-.75-1.89-1.47-4-2.2-6.21h-.18c-.7,2.19-1.42,4.32-2.17,6.21l-.16.39Z"/><path class="cls-4" d="M53,131.82v2.81H41.82V119.12h3.36v12.7Z"/><path class="cls-4" d="M74.38,134.47l-.13.16h-3.6L69.31,131H62.63l-1.37,3.6H57.69l-.13-.16,6.21-15.35h4.4Zm-6-5.83-.15-.39c-.75-1.89-1.48-4-2.2-6.21h-.18c-.7,2.19-1.43,4.32-2.18,6.21l-.15.39Z"/><path class="cls-4" d="M87,118.91a28.85,28.85,0,0,1,4.32.35v2.57l-.13.14a32.26,32.26,0,0,0-4.17-.3c-3.1,0-3.93.49-3.93,1.67v.28c0,.82.28,1.19,2.35,1.56l2.39.44c3.05.58,4.5,1.93,4.5,4.32,0,2.93-1.71,4.9-7.45,4.9a30.65,30.65,0,0,1-5.23-.39v-2.7l.13-.09a33.85,33.85,0,0,0,5,.42c3.08,0,4-.4,4-1.93v-.26c0-.95-.28-1.37-2.85-1.85l-2.43-.47c-2.56-.46-3.93-1.69-3.93-4C79.51,120.86,81.29,118.91,87,118.91Z"/><path class="cls-4" d="M110.7,131.91v2.72h-12V119.12h11.6v2.71h-8.23v3.65h7.71v2.46h-7.71v4Z"/><path class="cls-4" d="M131.59,134.47l-.11.16h-4.4l-6-6.45h-.44v6.45H117V119.12h3.55v6.76H121l6.21-6.76h4.09l.1.16-7,7.57Z"/></g><rect class="cls-5" x="23.32" y="1" width="146.03" height="111.16"/></g></g></svg>