<svg xmlns="http://www.w3.org/2000/svg" viewBox="0 0 142.04 33.72"><defs><style>.cls-1{fill:#517aa1;}.cls-2{fill:none;stroke:#517aa1;stroke-miterlimit:10;stroke-width:0.5px;}.cls-3{fill:#75aadb;}</style></defs><g id="Layer_2" data-name="Layer 2"><g id="Layer_1-2" data-name="Layer 1"><path class="cls-1" d="M51.14,10.88V33.36a.36.36,0,0,1-.37.36H49.44a.37.37,0,0,1-.37-.36V24a8.89,8.89,0,0,1-3,2.41,8.25,8.25,0,0,1-9.49-1.7,8.44,8.44,0,0,1-2.45-6.42,8.4,8.4,0,0,1,2.17-5.38,8.09,8.09,0,0,1,6.24-2.82,7.66,7.66,0,0,1,3.63.86,7.94,7.94,0,0,1,2.22,1.75.36.36,0,0,0,.63-.25V10.88a.37.37,0,0,1,.37-.37h1.33A.36.36,0,0,1,51.14,10.88Zm-8.38,1.23a6.3,6.3,0,0,0-5.58,3.28,6.56,6.56,0,0,0,0,6.58,6.46,6.46,0,0,0,2.37,2.44,6.11,6.11,0,0,0,3.19.88A6.53,6.53,0,0,0,46,24.42a6,6,0,0,0,2.37-2.35,6.74,6.74,0,0,0,.83-3.33A6.49,6.49,0,0,0,47.35,14,6.19,6.19,0,0,0,42.76,12.11Z"/><path class="cls-1" d="M93,10.79V26.52a.29.29,0,0,1-.28.28H91.25a.29.29,0,0,1-.28-.28V24a9,9,0,0,1-3,2.41,8.26,8.26,0,0,1-9.5-1.7,8.46,8.46,0,0,1-2.44-6.45,8.43,8.43,0,0,1,2.15-5.33,8.11,8.11,0,0,1,6.26-2.84,7.66,7.66,0,0,1,3.63.86A8.25,8.25,0,0,1,91,13.5V10.79a.29.29,0,0,1,.28-.28h1.51A.29.29,0,0,1,93,10.79Zm-8.38,1.32a6.3,6.3,0,0,0-5.58,3.28,6.52,6.52,0,0,0-.88,3.29A6.64,6.64,0,0,0,79.09,22a6.37,6.37,0,0,0,2.36,2.44,6.17,6.17,0,0,0,3.2.88,6.56,6.56,0,0,0,3.26-.87,6.15,6.15,0,0,0,2.37-2.35,6.74,6.74,0,0,0,.83-3.33A6.49,6.49,0,0,0,89.25,14,6.21,6.21,0,0,0,84.66,12.11Z"/><path class="cls-1" d="M98.47,10.51h1.46a.34.34,0,0,1,.34.34v2a7.41,7.41,0,0,1,2-2.1,4,4,0,0,1,2.21-.7h1.14a.34.34,0,0,1,.34.34V11.7a.33.33,0,0,1-.36.33,11.48,11.48,0,0,0-1.24.08,3.56,3.56,0,0,0-2.24.88,5.4,5.4,0,0,0-1.48,2.67,25.63,25.63,0,0,0-.39,5.63v5.17a.34.34,0,0,1-.34.34H98.47a.34.34,0,0,1-.34-.34V10.85A.34.34,0,0,1,98.47,10.51Z"/><path class="cls-1" d="M128.57,10.09a8.06,8.06,0,0,1,6.24,2.73,8.45,8.45,0,0,1,2.25,5.88,8.47,8.47,0,0,1-2.38,6,8.61,8.61,0,0,1-12.23,0,8.47,8.47,0,0,1-2.38-6,8.46,8.46,0,0,1,2.25-5.87A8,8,0,0,1,128.57,10.09Zm0,2.05a6.07,6.07,0,0,0-4.49,1.93,6.48,6.48,0,0,0-1.88,4.67,6.66,6.66,0,0,0,.86,3.3,6.1,6.1,0,0,0,2.31,2.36,6.58,6.58,0,0,0,6.4,0A6.05,6.05,0,0,0,134.08,22a6.65,6.65,0,0,0,.85-3.3,6.44,6.44,0,0,0-1.88-4.67A6.09,6.09,0,0,0,128.56,12.14Z"/><path class="cls-1" d="M69.05,10.51a.2.2,0,0,0-.2.2v7.41a15.58,15.58,0,0,1-.32,4,4.37,4.37,0,0,1-1.68,2.23,5.69,5.69,0,0,1-6,0A4.25,4.25,0,0,1,59.13,22a16.24,16.24,0,0,1-.3-3.83V10.71a.2.2,0,0,0-.2-.2H56.94a.2.2,0,0,0-.2.2v7.65a13.25,13.25,0,0,0,.78,5.2,6,6,0,0,0,2.38,2.69,7.52,7.52,0,0,0,4,1,7.43,7.43,0,0,0,4-1,6.52,6.52,0,0,0,1-.79V27a.2.2,0,0,0,.2.2h1.74A.2.2,0,0,0,71,27V10.71a.2.2,0,0,0-.2-.2Z"/><path class="cls-1" d="M113.49,24V11.9h3.32V10.09h-3.32V4h-2.1v6.05h-2.86V11.9h2.86V22c0,.91,0,.94,0,1.53,0,3.92,5.14,3.41,6,3.39V25.1C115.28,25.13,113.82,25.26,113.49,24Z"/><path class="cls-1" d="M139.69,7.25h-.93a14.8,14.8,0,0,0-.68-1.47,1.32,1.32,0,0,0-.61-.59,3.06,3.06,0,0,0-1-.1h-.73q0,1.26.06,2.16h-.89c0-.8.07-1.68.07-2.65s0-1.71-.07-2.4h1.22l.77,0c1.4,0,2.11.4,2.11,1.18s-.4,1.1-1.19,1.37v0a1.43,1.43,0,0,1,.86.59A16.33,16.33,0,0,1,139.69,7.25Zm-1.48-3.64c0-.61-.51-.92-1.55-.92a6.19,6.19,0,0,0-.93.05q0,.67,0,1.83h.56C137.58,4.58,138.21,4.26,138.21,3.61Z"/><circle class="cls-2" cx="137.19" cy="4.85" r="4.6"/><path class="cls-3" d="M12.49,16.65V5.15A.12.12,0,0,0,12.37,5,13.16,13.16,0,0,0,.09,16.64a.12.12,0,0,0,.11.13H12.37A.12.12,0,0,0,12.49,16.65Z"/><path class="cls-3" d="M14,16.77H26.1a.11.11,0,0,0,.11-.13A13.15,13.15,0,0,0,14,5a.12.12,0,0,0-.13.11v11.5A.12.12,0,0,0,14,16.77Z"/><path class="cls-3" d="M12.37,18.16H.12a.12.12,0,0,0-.12.12,13.16,13.16,0,0,0,12.37,13,.12.12,0,0,0,.12-.12V18.28A.12.12,0,0,0,12.37,18.16Z"/><path class="cls-3" d="M14,31.28a13.15,13.15,0,0,0,12.29-13,.12.12,0,0,0-.12-.12H14a.12.12,0,0,0-.12.12V31.16A.12.12,0,0,0,14,31.28Z"/></g></g></svg>