<svg id="Layer_1" data-name="Layer 1" xmlns="http://www.w3.org/2000/svg" viewBox="0 0 75 92"><defs><style>.cls-1{fill:#fe667a;}.cls-2,.cls-5{fill:none;}.cls-2{stroke:#e2425d;stroke-miterlimit:10;}.cls-3{fill:#b77261;}.cls-4{fill:#1a1a1a;}.cls-5{stroke:#844e3f;stroke-linecap:round;stroke-linejoin:round;stroke-width:0.74px;}</style></defs><path class="cls-1" d="M3.89,67.07C3.13,83,1.42,102.31,1.18,105.12h0l16.31,2.48,3.65-39.54a8.64,8.64,0,0,0-8.57-9.21h0A8.63,8.63,0,0,0,3.89,67.07Z"/><path class="cls-1" d="M72.62,67.07c.76,15.88,2.47,35.24,2.71,38.05h0L59,107.6,55.37,68.06a8.64,8.64,0,0,1,8.57-9.21h0A8.63,8.63,0,0,1,72.62,67.07Z"/><polygon class="cls-1" points="37.89 54.85 11.36 58.88 14.04 139.68 37.89 139.68 61.73 139.68 64.41 58.88 37.89 54.85"/><line class="cls-2" x1="12.97" y1="107.28" x2="11.85" y2="73.53"/><line class="cls-2" x1="62.84" y1="107.28" x2="63.96" y2="73.53"/><path class="cls-3" d="M37.63,65h0a8.77,8.77,0,0,1-8.77-8.77V43.82H46.4V56.25A8.77,8.77,0,0,1,37.63,65Z"/><path class="cls-4" d="M28.86,44.93S31,50.28,35.41,52.8A7.34,7.34,0,0,0,45,50.93c1.09-1.49,1.43-3.37,1.43-6.59a11.64,11.64,0,0,1-8.34,4.57C32.77,49.13,28.86,44.93,28.86,44.93Z"/><path class="cls-3" d="M50.25,37.14c2.84,2.1,7.75-7.44,5-9.7S50,29.55,50,29.55l-.69,3.13-1.23,2.88,1,.82Z"/><path class="cls-5" d="M54.47,30.32s-2.06-.69-3.52,2.34"/><path class="cls-5" d="M52,31.18s2.24,1.19.76,3"/><path class="cls-3" d="M25.19,37.14c-2.84,2.1-7.75-7.44-5-9.7s5,2.37,5,2.37l-.36,3,.4,3.28.78.56Z"/><path class="cls-5" d="M21,30.32s2.06-.69,3.52,2.34"/><path class="cls-5" d="M23.49,31.18s-2.24,1.19-.76,3"/><path class="cls-3" d="M50.91,24.84a69.19,69.19,0,0,1-1.57,14.61c-.76,3.54-2.92,5.46-6,7.45l-.56.36a10,10,0,0,1-10.68.13h0c-3.3-2-5.62-4.19-6.33-8a101.45,101.45,0,0,1-1.44-14.56S23.13,9.93,37.45,10.22,50.91,24.84,50.91,24.84Z"/><path class="cls-5" d="M36.21,31.18v2.93a1.34,1.34,0,0,0,.1.49,1.28,1.28,0,0,0,1.53.71l1.82-.53"/><path class="cls-4" d="M32.61,28.76a1.32,1.32,0,1,1-1.32-1.32A1.32,1.32,0,0,1,32.61,28.76Z"/><path class="cls-4" d="M45.19,28.76a1.32,1.32,0,1,1-1.32-1.32A1.32,1.32,0,0,1,45.19,28.76Z"/><path class="cls-5" d="M31.77,37.63s1.54,1.18,5.6,1.18a14.25,14.25,0,0,0,6-1.18"/><path class="cls-4" d="M34.26,24.68l.4-.84c.12-.26,0-.54-.39-.64A9,9,0,0,0,30,22.83a6.7,6.7,0,0,0-3.32,2.39.3.3,0,0,0,0,.36h0a.72.72,0,0,0,.86.21L29.38,25a4.27,4.27,0,0,1,2.17-.29c.55.07,1.21.17,1.8.3A.82.82,0,0,0,34.26,24.68Z"/><path class="cls-4" d="M40.08,24.68l-.4-.84c-.12-.26,0-.54.4-.64a9,9,0,0,1,4.31-.37,6.75,6.75,0,0,1,3.32,2.39.3.3,0,0,1,0,.36h0a.73.73,0,0,1-.86.21L45,25a4.29,4.29,0,0,0-2.17-.29c-.55.07-1.21.17-1.81.3A.83.83,0,0,1,40.08,24.68Z"/><path class="cls-4" d="M24.54,28.69s-.36-8,3.35-9.08l1-3.7H23.49S23.3,18.86,24.54,28.69Z"/><path class="cls-4" d="M50.76,28.69s-.08-8-3.78-9.08l-1.07-4,5-.43S52,18.86,50.76,28.69Z"/><path class="cls-4" d="M48.3,16.51A34.82,34.82,0,0,1,40,17.79c-4.76.18-2.78,4.5-2.78,4.5s-5.16.58-5.06-6.75c0,0-1.49,4.55-6.06,5.11A7.91,7.91,0,0,0,27,16.5s-4.76,1-5.66,3.13c0,0-2.4-4.32,2.17-9.3,0,0-1.39-1.3-3.18.73,0,0,2-5.62,12.32-4.7A6.51,6.51,0,0,0,38,5.62c2.58-1.66,5.92-1.2,7.25.92A11.65,11.65,0,0,1,46.39,9s1.59.18,1.69-2.59a3.57,3.57,0,0,1,0,4.89s6.39,1.38,3.28,8.8Z"/></svg>