<svg id="Layer_1" data-name="Layer 1" xmlns="http://www.w3.org/2000/svg" viewBox="0 0 75 92"><defs><style>.cls-1{fill:#fe667a;}.cls-2,.cls-6{fill:none;}.cls-2{stroke:#e2425d;stroke-miterlimit:10;}.cls-3{fill:#1a1a1a;}.cls-4{fill:#b77261;}.cls-5{fill:#a86356;}.cls-6{stroke:#844e3f;stroke-linecap:round;stroke-linejoin:round;stroke-width:0.89px;}</style></defs><path class="cls-1" d="M3.89,66.07C3.13,82,1.42,101.31,1.18,104.12h0l16.31,2.48,3.65-39.54a8.64,8.64,0,0,0-8.57-9.21h0A8.63,8.63,0,0,0,3.89,66.07Z"/><path class="cls-1" d="M72.62,66.07c.76,15.88,2.47,35.24,2.71,38.05h0L59,106.6,55.37,67.06a8.64,8.64,0,0,1,8.57-9.21h0A8.63,8.63,0,0,1,72.62,66.07Z"/><polygon class="cls-1" points="37.89 53.85 11.36 57.88 14.04 138.68 37.89 138.68 61.73 138.68 64.41 57.88 37.89 53.85"/><line class="cls-2" x1="12.97" y1="106.28" x2="11.85" y2="72.53"/><line class="cls-2" x1="62.84" y1="106.28" x2="63.96" y2="72.53"/><polygon class="cls-3" points="25.03 16.44 26.54 29.92 30.56 29.92 30.46 14.72 25.03 16.44"/><path class="cls-4" d="M30.87,43H48.21a0,0,0,0,1,0,0V57a8,8,0,0,1-8,8H38.9a8,8,0,0,1-8-8V43a0,0,0,0,1,0,0Z"/><path class="cls-3" d="M30.56,42.68S33,50.42,37.35,52.91a7.26,7.26,0,0,0,9.45-1.84c1.08-1.48,1.41-3.33,1.41-6.52a13,13,0,0,1-8.12,3C34.86,47.81,30.56,42.68,30.56,42.68Z"/><path class="cls-5" d="M51.27,37.43c2.8,2.07,7.66-7.35,4.92-9.58S51,29.92,51,29.92L50.35,33l-1.22,2.85,1,.81Z"/><path class="cls-4" d="M27.73,37.43c-2.8,2.07-7.66-7.35-4.92-9.58s5,2.34,5,2.34l.68,3,.44,3-.31.8Z"/><path class="cls-6" d="M26.06,31.54s-2.22,1.18-.75,3"/><path class="cls-6" d="M23.57,30.69S25.6,30,27,33"/><path class="cls-4" d="M53.65,25.27A68.58,68.58,0,0,1,52.1,39.72c-.75,3.5-1.91,5.39-4.92,7.36l-.55.36a9.86,9.86,0,0,1-10.56.12h0c-3.26-2-6.54-4.14-7.24-7.89a101,101,0,0,1-1.42-14.4S26.19,10.53,40.34,10.82,53.65,25.27,53.65,25.27Z"/><path class="cls-6" d="M44.13,31.54v2.9a1.22,1.22,0,0,1-1.61,1.18l-1.79-.52"/><path class="cls-3" d="M37.53,29.15a1.31,1.31,0,0,1-2.61,0,1.31,1.31,0,1,1,2.61,0Z"/><path class="cls-3" d="M50,29.15a1.31,1.31,0,1,1-1.31-1.31A1.31,1.31,0,0,1,50,29.15Z"/><line class="cls-6" x1="37.66" y1="39.08" x2="46.93" y2="39.08"/><path class="cls-3" d="M39.16,23.9l.4-.83c.12-.25-.05-.53-.39-.63a8.88,8.88,0,0,0-4.26-.36,6.67,6.67,0,0,0-3.29,2.35.34.34,0,0,0,0,.36h0a.7.7,0,0,0,.86.21l1.88-.8a4.21,4.21,0,0,1,2.15-.28,15.39,15.39,0,0,1,1.78.3A.81.81,0,0,0,39.16,23.9Z"/><path class="cls-3" d="M44.89,23.9l-.37-.83c-.12-.25,0-.53.37-.63a8,8,0,0,1,4-.36A6.34,6.34,0,0,1,52,24.43a.34.34,0,0,1,0,.36h0a.64.64,0,0,1-.81.21l-1.79-.8a3.87,3.87,0,0,0-2-.29,16.14,16.14,0,0,0-1.7.31A.75.75,0,0,1,44.89,23.9Z"/><path class="cls-3" d="M27.58,29.08s-.35-7.87,3.31-9l1-3.66h-5.3S26.36,19.36,27.58,29.08Z"/><path class="cls-3" d="M53.51,29.08s-.08-7.87-3.75-9l-1-3.94,5.94-.42A107.85,107.85,0,0,1,53.51,29.08Z"/><path class="cls-3" d="M51.07,17A34.72,34.72,0,0,1,42.9,18.3c-4.71.19-2.75,4.45-2.75,4.45s-5.1.58-5-6.67c0,0-1.48,4.5-6,5.05a7.84,7.84,0,0,0,.89-4.1s-4.7,1-5.58,3.1c0,0-2.38-4.28,2.14-9.2,0,0-1.38-1.28-3.14.72,0,0,2-5.56,12.17-4.65a6.44,6.44,0,0,0,5.2-.73c2.55-1.64,5.86-1.18,7.16.92a10.82,10.82,0,0,1,1.18,2.42s1.57.18,1.67-2.55a3.52,3.52,0,0,1,0,4.83s6.62,1.42,3.55,8.75Z"/></svg>