<svg id="Layer_1" data-name="Layer 1" xmlns="http://www.w3.org/2000/svg" viewBox="0 0 75 92"><defs><style>.cls-1{fill:#fe667a;}.cls-2,.cls-5{fill:none;}.cls-2{stroke:#e2425d;stroke-miterlimit:10;}.cls-3{fill:#b77261;}.cls-4{fill:#1a1a1a;}.cls-5{stroke:#844e3f;stroke-linecap:round;stroke-linejoin:round;stroke-width:0.89px;}.cls-6{fill:#fff;}</style></defs><path class="cls-1" d="M2.89,66.07C2.13,82,.42,101.31.18,104.12h0l16.31,2.48,3.65-39.54a8.64,8.64,0,0,0-8.57-9.21h0A8.63,8.63,0,0,0,2.89,66.07Z"/><path class="cls-1" d="M71.62,66.07c.76,15.88,2.47,35.24,2.71,38.05h0L58,106.6,54.37,67.06a8.64,8.64,0,0,1,8.57-9.21h0A8.63,8.63,0,0,1,71.62,66.07Z"/><polygon class="cls-1" points="36.89 53.85 10.36 57.88 13.04 138.68 36.89 138.68 60.73 138.68 63.41 57.88 36.89 53.85"/><line class="cls-2" x1="11.97" y1="106.28" x2="10.85" y2="72.53"/><line class="cls-2" x1="61.84" y1="106.28" x2="62.96" y2="72.53"/><path class="cls-3" d="M38.48,64h0a8.68,8.68,0,0,1-8.68-8.68V43H47.16V55.32A8.68,8.68,0,0,1,38.48,64Z"/><path class="cls-4" d="M29.8,44.11s2.11,5.3,6.49,7.79a7.26,7.26,0,0,0,9.46-1.84c1.08-1.48,1.41-3.34,1.41-6.53a11.48,11.48,0,0,1-8.26,4.52C33.67,48.27,29.8,44.11,29.8,44.11Z"/><path class="cls-3" d="M51,36.4c2.81,2.08,7.67-7.36,4.93-9.6s-5.18,2.09-5.18,2.09L50.06,32l-1.23,2.86,1,.81Z"/><path class="cls-5" d="M55.15,29.65s-2-.68-3.48,2.32"/><path class="cls-5" d="M52.66,30.5s2.21,1.19.75,3"/><path class="cls-3" d="M26.17,36.4c-2.81,2.08-7.68-7.36-4.94-9.6s5,2.35,5,2.35l-.36,3,.4,3.25.77.54Z"/><path class="cls-5" d="M22,29.65S24,29,25.47,32"/><path class="cls-5" d="M24.49,30.5s-2.22,1.19-.76,3"/><path class="cls-3" d="M51.63,24.22a69.39,69.39,0,0,1-1.55,14.47c-.76,3.51-2.9,5.4-5.92,7.37l-.55.36A9.85,9.85,0,0,1,33,46.55h0c-3.27-2-5.56-4.15-6.27-7.91a101.18,101.18,0,0,1-1.42-14.42S24.13,9.47,38.3,9.75,51.63,24.22,51.63,24.22Z"/><path class="cls-5" d="M37.08,30.5v2.9a1.33,1.33,0,0,0,.09.49,1.28,1.28,0,0,0,1.52.7l1.8-.52"/><path class="cls-4" d="M33.52,28.11a1.31,1.31,0,1,1-1.31-1.31A1.31,1.31,0,0,1,33.52,28.11Z"/><path class="cls-4" d="M46,28.11a1.31,1.31,0,1,1-1.31-1.31A1.3,1.3,0,0,1,46,28.11Z"/><path class="cls-4" d="M35.15,24.07l.39-.84c.12-.25,0-.52-.39-.63a8.87,8.87,0,0,0-4.26-.36A6.67,6.67,0,0,0,27.6,24.6a.3.3,0,0,0,0,.36h0a.71.71,0,0,0,.85.21l1.89-.81a4.32,4.32,0,0,1,2.15-.28,17.59,17.59,0,0,1,1.79.3A.81.81,0,0,0,35.15,24.07Z"/><path class="cls-4" d="M40.91,24.07l-.4-.84c-.11-.25.05-.52.4-.63a8.87,8.87,0,0,1,4.26-.36,6.67,6.67,0,0,1,3.29,2.36.32.32,0,0,1,0,.36h0a.72.72,0,0,1-.86.21l-1.89-.81a4.27,4.27,0,0,0-2.14-.28,17.59,17.59,0,0,0-1.79.3A.81.81,0,0,1,40.91,24.07Z"/><path class="cls-6" d="M33,36.7H44.56s-.77,3.84-5.92,3.84S33,36.7,33,36.7Z"/><path class="cls-4" d="M25.52,28s-.35-7.88,3.32-9l1-3.66H24.49S24.3,18.31,25.52,28Z"/><path class="cls-4" d="M51.48,28s-.08-7.88-3.75-9l-1-4,5-.42S52.71,18.31,51.48,28Z"/><path class="cls-4" d="M49,16a34.41,34.41,0,0,1-8.18,1.27c-4.72.18-2.75,4.45-2.75,4.45s-5.11.58-5-6.68c0,0-1.48,4.51-6,5.06A7.92,7.92,0,0,0,28,16s-4.71,1-5.6,3.1c0,0-2.37-4.28,2.15-9.21,0,0-1.38-1.28-3.15.73,0,0,2-5.57,12.19-4.66A6.42,6.42,0,0,0,38.8,5.2C41.35,3.56,44.66,4,46,6.12a10.82,10.82,0,0,1,1.18,2.42s1.57.19,1.67-2.55a3.53,3.53,0,0,1,0,4.84s6.33,1.36,3.26,8.7Z"/></svg>