<svg id="Layer_1" data-name="Layer 1" xmlns="http://www.w3.org/2000/svg" viewBox="0 0 75 92"><defs><style>.cls-1{fill:#fe667a;}.cls-2,.cls-5{fill:none;}.cls-2{stroke:#e2425d;stroke-miterlimit:10;}.cls-3{fill:#b77261;}.cls-4{fill:#1a1a1a;}.cls-5{stroke:#844e3f;stroke-linecap:round;stroke-linejoin:round;stroke-width:0.74px;}</style></defs><path class="cls-1" d="M3.89,66.07C3.13,82,1.42,101.31,1.18,104.12h0l16.31,2.48,3.65-39.54a8.64,8.64,0,0,0-8.57-9.21h0A8.63,8.63,0,0,0,3.89,66.07Z"/><path class="cls-1" d="M72.62,66.07c.76,15.88,2.47,35.24,2.71,38.05h0L59,106.6,55.37,67.06a8.64,8.64,0,0,1,8.57-9.21h0A8.63,8.63,0,0,1,72.62,66.07Z"/><polygon class="cls-1" points="37.89 53.85 11.36 57.88 14.04 138.68 37.89 138.68 61.73 138.68 64.41 57.88 37.89 53.85"/><line class="cls-2" x1="12.97" y1="106.28" x2="11.85" y2="72.53"/><line class="cls-2" x1="62.84" y1="106.28" x2="63.96" y2="72.53"/><path class="cls-3" d="M39.63,64h0a8.77,8.77,0,0,1-8.77-8.77V42.82H48.4V55.25A8.77,8.77,0,0,1,39.63,64Z"/><path class="cls-4" d="M30.86,43.93S33,49.28,37.41,51.8A7.34,7.34,0,0,0,47,49.93c1.09-1.49,1.43-3.37,1.43-6.59a11.64,11.64,0,0,1-8.34,4.57C34.77,48.13,30.86,43.93,30.86,43.93Z"/><path class="cls-3" d="M52.25,36.14c2.84,2.1,7.75-7.44,5-9.7S52,28.55,52,28.55l-.69,3.13-1.23,2.88,1,.82Z"/><path class="cls-5" d="M56.47,29.32s-2.06-.69-3.52,2.34"/><path class="cls-5" d="M54,30.18s2.24,1.19.76,3"/><path class="cls-3" d="M27.19,36.14c-2.84,2.1-7.75-7.44-5-9.7s5,2.37,5,2.37l-.36,3,.4,3.28.78.56Z"/><path class="cls-5" d="M23,29.32s2.06-.69,3.52,2.34"/><path class="cls-5" d="M25.49,30.18s-2.24,1.19-.76,3"/><path class="cls-3" d="M52.91,23.84a69.19,69.19,0,0,1-1.57,14.61c-.76,3.54-2.92,5.46-6,7.45l-.56.36a10,10,0,0,1-10.68.13h0c-3.3-2-5.62-4.19-6.33-8a101.45,101.45,0,0,1-1.44-14.56S25.13,8.93,39.45,9.22,52.91,23.84,52.91,23.84Z"/><path class="cls-5" d="M38.21,30.18v2.93a1.34,1.34,0,0,0,.1.49,1.28,1.28,0,0,0,1.53.71l1.82-.53"/><path class="cls-4" d="M34.61,27.76a1.32,1.32,0,1,1-1.32-1.32A1.32,1.32,0,0,1,34.61,27.76Z"/><path class="cls-4" d="M47.19,27.76a1.32,1.32,0,1,1-1.32-1.32A1.32,1.32,0,0,1,47.19,27.76Z"/><path class="cls-5" d="M45.39,40s-1.69-1-5.71-.39a14.19,14.19,0,0,0-5.77,2"/><path class="cls-4" d="M36,24.74l.63-.69c.19-.2.11-.52-.19-.72a8.85,8.85,0,0,0-4-1.63A6.65,6.65,0,0,0,28.54,23a.32.32,0,0,0-.14.34h0a.72.72,0,0,0,.76.46l2.07-.21a4.29,4.29,0,0,1,2.15.37,16.71,16.71,0,0,1,1.63.83A.83.83,0,0,0,36,24.74Z"/><path class="cls-4" d="M42.41,24.84l-.65-.67c-.2-.2-.13-.52.17-.73a8.92,8.92,0,0,1,4-1.75,6.79,6.79,0,0,1,3.92,1.17.33.33,0,0,1,.15.34h0a.73.73,0,0,1-.75.48l-2.07-.15A4.21,4.21,0,0,0,45,24a18.21,18.21,0,0,0-1.6.87A.82.82,0,0,1,42.41,24.84Z"/><path class="cls-4" d="M26.54,27.69s-.36-8,3.35-9.08l1-3.7H25.49S25.3,17.86,26.54,27.69Z"/><path class="cls-4" d="M52.76,27.69s-.08-8-3.78-9.08l-1.07-4,5-.43S54,17.86,52.76,27.69Z"/><path class="cls-4" d="M50.3,15.51A34.82,34.82,0,0,1,42,16.79c-4.76.18-2.78,4.5-2.78,4.5s-5.16.58-5.06-6.75c0,0-1.49,4.55-6.06,5.11A7.91,7.91,0,0,0,29,15.5s-4.76,1-5.66,3.13c0,0-2.4-4.32,2.17-9.3,0,0-1.39-1.3-3.18.73,0,0,2-5.62,12.32-4.7A6.51,6.51,0,0,0,40,4.62c2.58-1.66,5.92-1.2,7.25.92A11.65,11.65,0,0,1,48.39,8s1.59.18,1.69-2.59a3.57,3.57,0,0,1,0,4.89s6.39,1.38,3.28,8.8Z"/></svg>