<?xml version="1.0" encoding="utf-8"?>
<!-- Generator: Adobe Illustrator 24.2.1, SVG Export Plug-In . SVG Version: 6.00 Build 0)  -->
<svg version="1.1" id="Layer_1" xmlns="http://www.w3.org/2000/svg" xmlns:xlink="http://www.w3.org/1999/xlink" x="0px" y="0px"
	 viewBox="0 0 75 92" style="enable-background:new 0 0 75 92;" xml:space="preserve">
<style type="text/css">
	.st0{fill:#33130C;}
	.st1{fill:#280C0C;}
	.st2{fill:#77423E;}
	.st3{fill:#FCBC4F;}
	.st4{fill:#3D131C;}
	.st5{fill:#633734;}
	.st6{fill:#341624;}
	.st7{fill:#F0D5CD;}
	.st8{opacity:0.12;}
	.st9{fill:#301009;}
	.st10{fill:#F69345;}
</style>
<path class="st0" d="M73.8,57.9c0-1.6-0.7-3-2-3.9c2.1-1.7,2.5-4.8,0.8-6.9c-0.9-1.2-2.3-1.9-3.8-1.9h-0.1c0.1-0.4,0.2-0.9,0.2-1.3
	c0-2.5-1.9-4.7-4.5-4.9c1.1-2.5,0-5.4-2.5-6.5c-0.1-0.1-0.3-0.1-0.4-0.2c1.8-2,1.7-5.1-0.4-6.9c-0.5-0.5-1.2-0.8-1.9-1.1
	c1.2-2.4,0.2-5.4-2.3-6.6c-0.1,0-0.2-0.1-0.3-0.1c0.1-0.5,0.2-1,0.2-1.5c0-2.7-2.2-4.9-4.9-4.9c0,0,0,0,0,0c-0.4,0-0.8,0-1.2,0.1
	c-0.7-1.9-2.6-3.2-4.6-3.2c-0.4,0-0.7,0-1.1,0.1c-0.6-2.6-3.3-4.3-5.9-3.6c-1.6,0.4-2.8,1.5-3.4,2.9c-1.8-2-4.9-2.3-6.9-0.5
	c-1,0.9-1.6,2.1-1.7,3.4c-0.5-0.1-1-0.2-1.5-0.2c-2.3,0-4.3,1.6-4.8,3.8c-0.5-0.2-1-0.2-1.6-0.3c-2.7,0-4.9,2.1-5,4.8
	c0,1.7,0.8,3.2,2.2,4.2c-2.6,0.7-4.2,3.4-3.5,6c0.2,0.8,0.6,1.5,1.2,2.1h-0.4C11.2,31,9,33.2,9,35.9c0,1.4,0.6,2.8,1.7,3.7
	c-2.1,0.6-3.6,2.5-3.6,4.7c0,0.3,0,0.5,0.1,0.8C6.9,45.1,6.5,45,6.1,45c-2.7,0-4.9,2.2-4.9,4.9c0,1.9,1.1,3.6,2.8,4.4
	c-2.3,1.5-2.9,4.6-1.4,6.8C3.2,62,4,62.6,5,63c-2.1,1.7-2.4,4.8-0.7,6.9c0.9,1.1,2.3,1.8,3.8,1.8c1.2,0,2.4-0.5,3.3-1.3
	c0.7,0.3,1.5,0.5,2.3,0.4c0,0,36.7,5.4,47.3-1c0.6-0.3,1.1-0.7,1.7-1.1c1.4,2.3,4.4,3.1,6.7,1.8c2.3-1.4,3.1-4.4,1.8-6.7
	c-0.3-0.4-0.6-0.8-0.9-1.2C72.3,62,73.8,60.1,73.8,57.9z"/>
<path class="st1" d="M63.2,63c0-1.1-0.5-2.1-1.3-2.7c1.5-1.2,1.7-3.3,0.5-4.8c-0.6-0.8-1.6-1.3-2.7-1.3l0,0c0.5-1.8-0.6-3.7-2.4-4.2
	C57.1,50,56.9,50,56.7,50c0.2-0.4,0.3-0.9,0.3-1.4c0-1.5-0.9-2.7-2.3-3.2c1.3-1.4,1.2-3.6-0.2-4.8c-0.4-0.3-0.8-0.6-1.3-0.7
	c0.8-1.7,0.1-3.7-1.5-4.6c-0.1,0-0.1-0.1-0.2-0.1c0.6-1.8-0.5-3.7-2.3-4.3c-0.3-0.1-0.6-0.1-1-0.1c-0.3,0-0.6,0-0.8,0.1
	c-0.5-1.3-1.8-2.2-3.2-2.2c-0.3,0-0.5,0-0.8,0.1c-0.4-1.8-2.3-3-4.1-2.5c-1.1,0.3-2,1-2.4,2c-1.2-1.4-3.4-1.6-4.8-0.4
	c-0.7,0.6-1.1,1.5-1.2,2.4c-1.8-0.6-3.7,0.5-4.3,2.3c0,0.1,0,0.2-0.1,0.2c-0.4-0.1-0.7-0.2-1.1-0.2c-1.9,0-3.4,1.5-3.4,3.4
	c0,1.1,0.6,2.1,1.5,2.8c-1.8,0.5-2.9,2.4-2.4,4.2c0.1,0.6,0.4,1.1,0.8,1.5h-0.3c-1.9,0-3.4,1.6-3.4,3.4c0,1,0.4,1.9,1.2,2.6
	c-1.5,0.4-2.5,1.8-2.5,3.3c0,0.2,0,0.4,0,0.6c-0.3-0.1-0.5-0.1-0.8-0.1c-1.9,0-3.4,1.5-3.4,3.4c0,1.3,0.7,2.5,1.9,3.1
	c-1.6,1-2,3.2-0.9,4.7c0.4,0.6,0.9,1,1.6,1.3c-1.4,1.2-1.6,3.4-0.3,4.8c1.2,1.4,3.4,1.6,4.8,0.3l0,0c0.5,0.2,1,0.3,1.6,0.3
	c0,0,25.5,3.8,32.8-0.6c0.4-0.3,0.8-0.5,1.1-0.8c0.9,1.6,3,2.2,4.7,1.3c1.6-0.9,2.2-3,1.3-4.7c-0.2-0.3-0.4-0.6-0.7-0.8
	C62.2,66,63.2,64.6,63.2,63z"/>
<path class="st2" d="M77,91.6H-0.3c-0.1-3.1,0.2-6.3,1-9.3c0.2-0.7,0.4-1.4,0.6-2c0.8-2.2,2-4.3,3.5-6.1c3.9-4.7,9.3-7.1,14-8.7
	l0.2-0.1c0.8-0.3,1.6-0.5,2.4-0.7c1.6-0.5,3.1-0.9,4.3-1.3c0.4-0.1,0.7-0.3,1-0.4l0.5-0.2l0.3-0.1c0.6-0.3,1.2-0.7,1.6-1.2
	c1.2-1.3,1.9-3,2-4.8c0.1-1.4,0.1-2.8-0.1-4.1c-0.2-1-0.4-1.9-0.7-2.9h16c-0.9,2.7-1.1,5.5-0.7,8.2c0.3,1.3,0.9,2.5,1.8,3.5
	c0.5,0.5,1,0.9,1.6,1.2h0.1l0.1,0.1c0.5,0.3,1.1,0.5,1.7,0.7c1.7,0.6,3.8,1.1,6.1,1.9c0.8,0.3,1.7,0.6,2.6,0.9l0.2,0.1
	c4.1,1.4,7.9,3.7,11,6.8c1.3,1.4,2.5,3,3.3,4.7c0.5,1,1,2.1,1.4,3.2C76.6,84.3,77.1,87.9,77,91.6z"/>
<path class="st3" d="M77,91.6H-0.3c-0.1-3.1,0.2-6.3,1-9.3c0.2-0.7,0.4-1.4,0.6-2l1-0.7c0,0,48.5,2.8,49.4,2.8
	c0.7,0,16-3.3,22.4-4.7c0.5,1,1,2.1,1.4,3.2C76.7,84.3,77.2,88,77,91.6z"/>
<path class="st3" d="M56,32.4c0,0.8,0,1.6-0.1,2.4c-1.2,9.9-8.9,19.8-18.2,19.8c-7.8,0-14.4-6.9-17.1-14.9c-0.5-1.6-0.9-3.2-1.1-4.9
	v-0.3c-0.1-0.7-0.1-1.5-0.1-2.2c0-10.6,8.2-19.2,18.3-19.2S56,21.8,56,32.4z"/>
<path class="st4" d="M56.1,40.2c0,0-0.4-7.3-2.8-11.2s0.6,12.8,0.6,12.8L56.1,40.2z"/>
<path class="st4" d="M21.1,41.8l-0.6-0.4c-0.5-1.6-0.9-3.3-1.1-5V36c0.3-2.5,1.1-4.9,2.3-7C24.2,25.1,21.1,41.8,21.1,41.8z"/>
<circle class="st2" cx="22.3" cy="41.2" r="4.3"/>
<circle class="st5" cx="22.3" cy="41.2" r="2.7"/>
<circle class="st2" cx="53.1" cy="41.2" r="4.3"/>
<circle class="st5" cx="53.1" cy="41.2" r="2.7"/>
<path class="st5" d="M45.7,57.9c-1,1-2.3,1.7-3.7,2c-4.8,1-8.7-1.4-10.8-3.3c0.1-1.4,0.1-2.7-0.2-4.1c1.5-1.2,3.2-2.2,5-2.9h10.4
	C45.5,52.3,45.2,55.1,45.7,57.9z"/>
<path class="st2" d="M54.3,34.6v0.3c0,0.7-0.1,1.4-0.1,2.1c-1,9.7-8,19.5-16.6,19.5s-15.5-9.7-16.6-19.4c0-0.5-0.1-1.1-0.1-1.6
	c0-0.3,0-0.5,0-0.8c0-10.4,7.5-18.9,16.7-18.9S54.3,24.2,54.3,34.6z"/>
<ellipse class="st6" cx="30.2" cy="36.2" rx="1.1" ry="1.9"/>
<ellipse class="st6" cx="44.7" cy="36.2" rx="1.1" ry="1.9"/>
<path class="st5" d="M34.5,40c0,0,1.5-4.4,2.7-4.3s4,5.7,4,5.7L34.5,40z"/>
<path class="st7" d="M54.3,36.8c0,0.6-0.1,1.3-0.1,1.9c-0.2,1.4-0.5,2.8-0.9,4.1c-0.1,0.3-0.2,0.6-0.3,0.9L52.9,44l-0.1,0.3
	c-0.1,0.2-0.2,0.5-0.3,0.7s-0.2,0.5-0.3,0.7l0,0c0,0.1-0.1,0.1-0.1,0.2L52,46.1c-1,1.9-2.2,3.7-3.6,5.3c-1.2,1.3-2.7,2.5-4.2,3.4
	c-2,1.1-4.2,1.8-6.5,1.8c-1.7,0-3.4-0.3-4.9-1c-1.7-0.7-3.3-1.7-4.6-3c-1.5-1.3-2.8-2.9-3.8-4.6l0,0l-0.2-0.3
	c-0.3-0.5-0.5-0.9-0.8-1.4l-0.2-0.3c-0.3-0.6-0.6-1.2-0.8-1.9c-0.7-1.7-1.1-3.5-1.3-5.3c0-0.5-0.1-1-0.1-1.5
	c1.6,1.9,3.8,3.3,6.2,3.8c2.7,0.5,6.7-2.3,10.4-2.3c0.6,0,1.1,0.1,1.7,0.2l0.4,0.1l0.6,0.2l0,0l0.4,0.1l0,0c2.1,0.8,4.1,1.9,6.3,1.5
	C49.5,40.6,51.6,38.2,54.3,36.8z"/>
<g class="st8">
	<path d="M19,91.6h-2.3c0.3-3,1-8.3,1.2-8.3S18.7,88,19,91.6z"/>
</g>
<g class="st8">
	<polygon points="64.2,91.6 62,91.6 62.8,83.3 	"/>
</g>
<path class="st9" d="M21.3,38.1c0,0,5.1,0,3.5-9c0,0,8-2,8.5-8.5c0,0,3.5,4.7,11.4,1.5c0,2.8,2.2,5.2,5.1,5.2c0,0,0.1,0,0.1,0
	c0,0-1.6,7.8,4.5,9.5c0.9-5.3-0.5-10.7-3.8-15c-5.7-7.5-15.8-8.9-22.8-2.8S19.9,33.4,21.3,38.1z"/>
<path class="st3" d="M24.2,42.2c0-0.1,0.1-0.2,0.2-0.3c0.1-0.1,0.3-0.1,0.4,0l4.7,3.4c0.1,0.1,0.2,0.2,0.1,0.4
	c0,0.1-0.1,0.2-0.3,0.3L25,46.7c-0.1,0-0.2,0-0.3-0.1c-0.1-0.1-0.1-0.1-0.1-0.2L24.2,42.2L24.2,42.2z M28.4,45.5L25,43l0.3,3
	L28.4,45.5z"/>
<path class="st3" d="M31.8,44.2c-0.1,0-0.2-0.1-0.2-0.2c0-0.1,0-0.3,0.1-0.4l4.4-3.7c0.1-0.1,0.3-0.1,0.4,0c0.1,0.1,0.2,0.2,0.2,0.3
	l-0.3,4.3c0,0.2-0.2,0.3-0.3,0.3c0,0,0,0-0.1,0L31.8,44.2L31.8,44.2z M35.9,40.9l-3.2,2.7l3,0.4L35.9,40.9z"/>
<path class="st3" d="M46.2,45.3c-0.1,0-0.2-0.1-0.2-0.2c0-0.1,0-0.3,0.1-0.4l4.4-3.7c0.1-0.1,0.3-0.1,0.4,0c0.1,0.1,0.2,0.2,0.2,0.3
	l-0.3,4.3c0,0.1-0.1,0.2-0.1,0.2C50.6,46,50.5,46,50.4,46L46.2,45.3L46.2,45.3z M50.4,42l-3.2,2.7l3,0.4L50.4,42z"/>
<path class="st3" d="M40.4,47.5c-0.1,0-0.2,0-0.3,0c-0.1-0.1-0.2-0.2-0.2-0.3l0.6-5.8c0-0.1,0.1-0.3,0.2-0.3c0.1,0,0.3,0,0.4,0.1
	l2.8,3.3c0.1,0.1,0.1,0.2,0.1,0.3c0,0.1-0.1,0.2-0.1,0.2L40.4,47.5L40.4,47.5z M41.1,42.3l-0.4,4.2l2.5-1.8L41.1,42.3z"/>
<path class="st3" d="M30.9,52.2c-0.1,0-0.2,0-0.3,0c-0.1-0.1-0.2-0.2-0.2-0.3l0.6-5.8c0-0.1,0.1-0.3,0.2-0.3c0.1,0,0.3,0,0.4,0.1
	l2.8,3.3c0.1,0.1,0.1,0.2,0.1,0.3c0,0.1-0.1,0.2-0.1,0.2L30.9,52.2L30.9,52.2z M31.6,46.9l-0.4,4.2l2.5-1.8L31.6,46.9z"/>
<path class="st3" d="M42,53c0,0.1,0,0.2,0,0.3c0,0.1-0.2,0.2-0.3,0.2l-5.8,0.3c-0.1,0-0.3-0.1-0.3-0.2c-0.1-0.1,0-0.3,0-0.4l2.9-3.2
	c0.1-0.1,0.1-0.1,0.2-0.1c0.1,0,0.2,0.1,0.2,0.1L42,53z M36.7,53.1l4.2-0.2l-2.1-2.2L36.7,53.1z"/>
<path class="st3" d="M43,48.4c0-0.1,0-0.2,0-0.3c0.1-0.1,0.2-0.2,0.3-0.2l5.8,0.5c0.1,0,0.3,0.1,0.3,0.2c0,0.1,0,0.3-0.1,0.4
	L46,51.9c-0.1,0.1-0.2,0.1-0.3,0.1c-0.1,0-0.2-0.1-0.2-0.1L43,48.4L43,48.4z M48.3,49L44,48.7l1.8,2.4L48.3,49z"/>
<g class="st8">
	<path d="M46.1,43.5c0,0-9.1,3.7-16.3,0.9C29.7,44.4,35.2,53.3,46.1,43.5z"/>
</g>
<path class="st10" d="M21.5,64.6v15.2h-2.6V65.4l0.2-0.1C19.9,65.1,20.7,64.9,21.5,64.6z"/>
<path class="st10" d="M59.7,66.1v13.4h-2.6V65.2C57.9,65.5,58.8,65.8,59.7,66.1z"/>
<path class="st10" d="M75.6,80.9c-32.6,9.5-66,3.4-74.9,1.4c0.8-3,2.2-5.8,4.1-8.2c35,7.4,58.1,1.5,66-1.2
	C73,75.2,74.6,77.9,75.6,80.9z"/>
<path class="st6" d="M42.4,30.7c1.2-0.6,2.6-0.5,3.6,0.4c0.3,0.2,0.7,0.1,0.9-0.2s0.1-0.7-0.2-0.9l0,0c-1-0.8-2.3-1.1-3.6-1
	c-0.5,0.1-1.1,0.3-1.5,0.6c0,0-0.7,0.4-0.3,0.9S42.4,30.7,42.4,30.7L42.4,30.7z"/>
<path class="st6" d="M31.5,32.7c-1.2-0.4-2.6,0-3.5,1c-0.3,0.3-0.7,0.3-0.9,0c-0.3-0.3-0.3-0.7,0-0.9l0,0c0.9-1,2.1-1.5,3.3-1.6
	c0.6,0,1.1,0.1,1.6,0.3c0,0,0.7,0.3,0.5,0.8S31.5,32.6,31.5,32.7L31.5,32.7z"/>
</svg>
