<svg id="Layer_1" data-name="Layer 1" xmlns="http://www.w3.org/2000/svg" viewBox="0 0 75 92"><defs><style>.cls-1{fill:#ff9300;}.cls-2{fill:#cf691f;}.cls-3{fill:#85441d;}.cls-4{fill:#965326;}.cls-5{fill:#b5693c;}.cls-6{fill:#fff0e7;}.cls-7{fill:#fdbd8e;}.cls-8{fill:#fb9988;}.cls-9{fill:#ffdaba;}.cls-10{fill:#fd7d6f;}.cls-11{fill:#161818;}.cls-12{fill:#fc5b68;}.cls-13{fill:#cf4a57;}.cls-14{fill:#ffb800;}</style></defs><path class="cls-1" d="M25.37,63c2.21,11.49,7.08,28.54,7.75,33.9A8.42,8.42,0,0,1,33.2,98s13.8,8.29,25-1.09c0,0,0-1.52,0-3.67.06-4.41.21-11.44.58-13.18.54-2.58,3.57-22.17-3.22-27.88a25.24,25.24,0,0,0-7.4-4.6,9.43,9.43,0,0,0-1.09-.34h0A6.69,6.69,0,0,0,45.43,47H36.15a39.87,39.87,0,0,0-3.87,1.14c-2.16.77-7.92,4.15-8.59,5.48C23.22,54.56,24,55.71,25.37,63Z"/><path class="cls-2" d="M33.12,96.84v0A8.42,8.42,0,0,1,33.2,98s13.8,8.29,25-1.09c0,0,0-1.52,0-3.67l-8.39-1.46Z"/><path class="cls-2" d="M56.37,75.55l-.93,0-2.52-.16a25.33,25.33,0,0,0-7.9.52c-.75.2-1.49.43-2.24.63a18.9,18.9,0,0,1-2.23.47,17.61,17.61,0,0,1-3.84.12,6.27,6.27,0,0,1-1.49-.28,3.52,3.52,0,0,1-1-.52,2.43,2.43,0,0,1-.49-.52l-.12-.21.18.15a2.23,2.23,0,0,0,.58.33,4.77,4.77,0,0,0,2.35.12,29,29,0,0,0,3.55-.72c.65-.18,1.32-.39,2-.64s1.47-.51,2.29-.72a13.46,13.46,0,0,1,4.78-.36,20.67,20.67,0,0,1,3.75.72c1,.29,1.85.58,2.41.79S56.37,75.55,56.37,75.55Z"/><path class="cls-3" d="M60.93,32.44c0-.22-.11-.53-.21-.9a8.18,8.18,0,0,0-.48-1.3,5.56,5.56,0,0,0-1-1.44,5.2,5.2,0,0,0-1.39-1,6.45,6.45,0,0,0-1.29-.51l-.45-.12-.26-.24.08.2L55.69,27,55.36,27l.79.52.38.9A16.36,16.36,0,0,1,57.65,32a21.16,21.16,0,0,1,.18,3.75c0,.5,0,.92,0,1.2v.45l.18-.41c.11-.27.27-.65.43-1.14A11.64,11.64,0,0,0,58.86,34a7.33,7.33,0,0,0,0-2.29,7,7,0,0,0-.76-2.17,10.07,10.07,0,0,0-1-1.43,10.13,10.13,0,0,1,1.5,1.29,15.62,15.62,0,0,1,1.69,2.29l.5.76.19.28Z"/><path class="cls-3" d="M31.63,38.78a17.84,17.84,0,0,1-2.5,4.14c-2.23,2.81-5.35,5.21-8.93,5.44a12.28,12.28,0,0,0,4.72-3.16c-.22.14-.44.28-.66.4A12,12,0,0,1,16,46.92a10.26,10.26,0,0,0,2.3-4.36,15.24,15.24,0,0,0,.51-3.49A50.19,50.19,0,0,0,18,30.62a82.62,82.62,0,0,1-.92-13.87c.13-3.7,1.33-7.7,4.13-10.26a6.29,6.29,0,0,1,9.39,1,6.79,6.79,0,0,1,.55.94,1.23,1.23,0,0,1,.05,1.35A9.94,9.94,0,0,1,30.06,11a8.27,8.27,0,0,0-2,4,5.24,5.24,0,0,1,.5.44,10.91,10.91,0,0,1,2.19,3.59A31.3,31.3,0,0,1,33,30.19,20.85,20.85,0,0,1,31.63,38.78Z"/><path class="cls-4" d="M30.58,7.53a5.62,5.62,0,0,1-.76,1.67,4.55,4.55,0,0,0-4,2.68,11.31,11.31,0,0,0-.9,5,45.11,45.11,0,0,0,.56,7.61,46.88,46.88,0,0,1,1,8c0,2.68-.89,5.51-3,7.23A10.76,10.76,0,0,0,22.77,35a10.19,10.19,0,0,1-4.47,7.56,15.24,15.24,0,0,0,.51-3.49,35.58,35.58,0,0,0-.5-6.17L18,30.62a82.62,82.62,0,0,1-.92-13.87c.13-3.7,1.33-7.7,4.13-10.26A6.42,6.42,0,0,1,26.66,5a6.13,6.13,0,0,1,1.54.54A6.36,6.36,0,0,1,30.58,7.53Z"/><path class="cls-5" d="M28.2,5.51c-1.69,1.17-3.41,2.33-4.26,4.16a11.1,11.1,0,0,0-.72,2.61,25.18,25.18,0,0,0-.51,3.66,61,61,0,0,0,.53,6.45,20.51,20.51,0,0,1-.93,7.54,13.48,13.48,0,0,0-1.38-3.3,11.74,11.74,0,0,1-2.62,6.27L18,30.62a82.62,82.62,0,0,1-.92-13.87c.13-3.7,1.33-7.7,4.13-10.26A6.42,6.42,0,0,1,26.66,5,6.13,6.13,0,0,1,28.2,5.51Z"/><circle class="cls-6" cx="30.79" cy="10.33" r="3.67"/><path class="cls-6" d="M48.17,47.55l1,11-4.84-2.46L41.78,53s0-4,0-6h3.67a6.69,6.69,0,0,1,1.65.24h0A9.43,9.43,0,0,1,48.17,47.55Z"/><path class="cls-7" d="M44.31,56.09,36.15,47c0-1.35.13-1.86.25-5.2.13-3.72.27-7.21.27-7.21l10.49,4.15a24.81,24.81,0,0,0-1.87,8.46A68.85,68.85,0,0,1,44.31,56.09Z"/><path class="cls-8" d="M47.16,38.73a24.81,24.81,0,0,0-1.87,8.46l-1,.38c-1.22.42-5.13-3-7.93-5.78.13-3.72.27-7.21.27-7.21Z"/><path class="cls-7" d="M58.17,26.26c-.21,1-.48,2-.82,3.06,0,0,.47,5.25-.08,6.43s-4.09,8.52-7.8,8.07c-3.1-.38-10.68-4.92-13.32-7.63a3.15,3.15,0,0,1-.91-1.35c-.36-2.08-1.61-11.28-1.72-12.05-.32-2.08-1.19-17.88,17.9-13.48a9.18,9.18,0,0,1,6.93,6.9A23,23,0,0,1,58.17,26.26Z"/><path class="cls-3" d="M61.18,16.44a8.29,8.29,0,0,1-.5,2.46,8.82,8.82,0,0,1-2.61,4.27,26.82,26.82,0,0,0-.29-6.39c-4.55,5-14.08,6.67-14.46,6.73,1.8-.55,2.34-4.16,2.34-4.16C43.49,24.42,34,25.47,34,25.47c-2.28-1.86-3.87,1.65-3.87,1.65-.77-1.43-1.41-2.72-1.91-3.92-.14-.31-.26-.61-.37-.91a13.16,13.16,0,0,1-.65-2.46C25.88,12.21,31.57,4.74,38.92,2.61h0c6.94-2,15.14-.17,19,3.67a7.93,7.93,0,0,1,1.65,2.28,2.39,2.39,0,0,1,.15.37,1.17,1.17,0,0,1,0,.11,6.08,6.08,0,0,1,.37,2.25A7.67,7.67,0,0,1,60,12.66,7.5,7.5,0,0,1,61.18,16.44Z"/><path class="cls-4" d="M59.74,8.92a6.09,6.09,0,0,1-1.3.52c-.92.25-1.89.26-2.8.51a5.81,5.81,0,0,0-2.89,1.8c-1.35,1.53-1.94,3.8-3.76,4.72a5.81,5.81,0,0,1-4.13.07,14.75,14.75,0,0,0-4.12-.85A7.8,7.8,0,0,0,35.19,19a6.71,6.71,0,0,1-1.33,1.43,4.29,4.29,0,0,1-2.64.57,10.14,10.14,0,0,1-4.07-1.12,13.61,13.61,0,0,1,.79-7.22,17.14,17.14,0,0,1,11-10h0a22.86,22.86,0,0,1,13.63.47,14.46,14.46,0,0,1,5.37,3.2,7.93,7.93,0,0,1,1.65,2.28A2.39,2.39,0,0,1,59.74,8.92Z"/><path class="cls-5" d="M52.57,3.07c-2.24,1.83-3.38,5-6.1,6-1.57.58-3.31.27-5,.08S38,9,36.66,10c-.69.54-1.16,1.32-1.81,1.91a6.13,6.13,0,0,1-5.24,1.14,10.64,10.64,0,0,1-1.67-.48,17.14,17.14,0,0,1,11-10h0A22.86,22.86,0,0,1,52.57,3.07Z"/><path class="cls-9" d="M57.35,29.32s.47,5.25-.08,6.43-4.09,8.52-7.8,8.07c-3.1-.38-10.68-4.92-13.32-7.63,3.23,2.24,11.84,8,14.36,7.08,3.13-1.08,6.66-8,6.59-8.69s-.27-5.17-.27-5.17.63-1.42,1.34-3.15C58,27.23,57.69,28.25,57.35,29.32Z"/><path class="cls-9" d="M36.09,34.58A7.32,7.32,0,0,1,31,31.78a7,7,0,0,1-.5-.75c-.69-1.25-.88-5.55.88-6.55,1.24-.7,2.13.31,2.56,1h0a4,4,0,0,1,.28.51Z"/><path class="cls-7" d="M36.09,34.58A7.32,7.32,0,0,1,31,31.78c-.08-.12-.15-.24-.21-.35-.68-1.24-.88-5.55.88-6.55a1.7,1.7,0,0,1,2.27.58h0a4,4,0,0,1,.28.51Z"/><path class="cls-8" d="M30.83,27.9a1.86,1.86,0,0,0,.09,1c.48,1.45,1.92,2.55,3.3,3.57a3.63,3.63,0,0,1-.48-2.26,7.53,7.53,0,0,0,.09-.8C33.84,28.36,31.36,25.86,30.83,27.9Z"/><path class="cls-10" d="M34.92,32.92l-.08,0-.23-.13a3.59,3.59,0,0,1-.68-.62A2.81,2.81,0,0,1,33.37,31a2.42,2.42,0,0,1,.18-1.52,1.18,1.18,0,0,1,.1-.19l0,0h0l0,0,0-.08a1.4,1.4,0,0,1-.1-.16,5.19,5.19,0,0,0-.42-.59,4.49,4.49,0,0,0-.44-.51,3.3,3.3,0,0,0-.44-.41,1,1,0,0,0-.45-.2.76.76,0,0,0-.38.07.29.29,0,0,0-.16.15.13.13,0,0,0,0,.07s0,0,0-.08,0-.12.14-.19a.78.78,0,0,1,.43-.14,1.21,1.21,0,0,1,.6.17,3.28,3.28,0,0,1,.53.39,6,6,0,0,1,.54.49,7.68,7.68,0,0,1,.49.61,1.63,1.63,0,0,0,.11.17l.05.09.07.12.05.09-.05.08-.07.12a1.3,1.3,0,0,0-.08.17,2.5,2.5,0,0,0-.23,1.34,2.93,2.93,0,0,0,.89,1.76,2.36,2.36,0,0,0,.18.17Z"/><path class="cls-6" d="M44.31,56.09l-6.19,4.84-5.84-12.8A39.87,39.87,0,0,1,36.15,47Z"/><path class="cls-3" d="M38.43,29.6q-.06-.33-.21-.9a9.06,9.06,0,0,0-.47-1.29,5.74,5.74,0,0,0-1-1.45,5.42,5.42,0,0,0-1.39-1,7.6,7.6,0,0,0-1.29-.51l-.45-.12-.26-.24.08.2-.27-.05-.34-.05.79.51.38.9a16.36,16.36,0,0,1,1.12,3.55,21.16,21.16,0,0,1,.18,3.75c0,.51,0,.92,0,1.2v.45l.18-.41c.11-.26.27-.65.43-1.14a10.31,10.31,0,0,0,.43-1.76,7.63,7.63,0,0,0,0-2.29,7.06,7.06,0,0,0-.77-2.16,10.22,10.22,0,0,0-1-1.44,10.13,10.13,0,0,1,1.5,1.29,16.17,16.17,0,0,1,1.69,2.29l.5.76.19.28Z"/><path class="cls-4" d="M59.91,22.48s-2.44-3.26-3.8-2-.75,1.43-.75,1.43Z"/><path class="cls-4" d="M40.61,23s4.5-5.18,6.34-3.34c1.08,1.07.33,1.81.33,1.81Z"/><path class="cls-11" d="M46.63,23.51a2.92,2.92,0,0,1-1.44,1.24,1.24,1.24,0,0,0-.92-.48c-.88,0-1.59,1.15-1.59,2.55s.71,2.55,1.59,2.55,1.58-1.14,1.58-2.55a3.82,3.82,0,0,0-.19-1.2A4.69,4.69,0,0,0,46.63,23.51Z"/><path class="cls-6" d="M41.16,25.4a3.26,3.26,0,0,0,3.5,1.42,3.56,3.56,0,0,0-1.52-1.27A3.65,3.65,0,0,0,41.16,25.4Z"/><path class="cls-11" d="M57.36,24.87a2,2,0,0,1-1,.85.91.91,0,0,0-.62-.28c-.66,0-1.2.86-1.2,1.92s.54,1.92,1.2,1.92,1.2-.86,1.2-1.92a2.81,2.81,0,0,0-.21-1.08A3.41,3.41,0,0,0,57.36,24.87Z"/><path class="cls-6" d="M58,26.43a2.79,2.79,0,0,1-1.11.84,2.87,2.87,0,0,1-1.38.17,2.86,2.86,0,0,1,1.11-.85A3,3,0,0,1,58,26.43Z"/><path class="cls-8" d="M50.35,32.69a2.85,2.85,0,0,0-1.2-.31,4,4,0,0,0,2.17,2.09.86.86,0,0,0,.23.05.6.6,0,0,0,.27-.1,4.67,4.67,0,0,0,1.36-1.22.85.85,0,0,0,.18-.32c.09-.4-.18-.32-.42-.22a3.68,3.68,0,0,1-2.59,0Z"/><path class="cls-10" d="M51.4,34.24c.25-.22.52-.41.77-.62a5.83,5.83,0,0,0,.85-.87c-1.3-.9-1.29-2.26-1.23-3.8a4.49,4.49,0,0,1,.57-2,4.27,4.27,0,0,1,.64-.89c.13-.13.26-.26.4-.38a1.58,1.58,0,0,1,.46-.25c-.08.09-.14.2-.21.29a8,8,0,0,0-.55.75,4.31,4.31,0,0,0-.42.83,5.55,5.55,0,0,0-.39,1.83A4.68,4.68,0,0,0,52.58,31a3.57,3.57,0,0,0,1.31,1.68s-.89,1-1,1.12a4.11,4.11,0,0,1-.74.58,1.61,1.61,0,0,1-.88.35A.54.54,0,0,1,51,34.6l.15-.13.06-.06Z"/><path class="cls-8" d="M55.25,33.24c.21.56,1.42.62,2.69.14s2.14-1.31,1.94-1.87-1.42-.62-2.69-.15S55,32.68,55.25,33.24Z"/><path class="cls-8" d="M39.19,30.64c-.21.84,1.17,1.92,3.09,2.42s3.67.22,3.89-.62S45,30.52,43.07,30,39.41,29.8,39.19,30.64Z"/><path class="cls-10" d="M49.56,39.56a4.69,4.69,0,0,1-3.89-.36,2,2,0,0,0,1.65,1.17A3.33,3.33,0,0,0,49.56,39.56Z"/><path class="cls-12" d="M43.34,34.79A6.27,6.27,0,0,0,45,37.73,4.83,4.83,0,0,0,47.48,39a4.29,4.29,0,0,0,2.81-.43A6.93,6.93,0,0,0,52.86,36a21.6,21.6,0,0,0-9.52-1.25Z"/><path class="cls-6" d="M43.34,34.79s.08.33.89.77,6.58,1.17,7.26,1.09A3.34,3.34,0,0,0,52.86,36a21.6,21.6,0,0,0-9.52-1.25Z"/><path class="cls-13" d="M45,37.73A4.83,4.83,0,0,0,47.48,39a4.29,4.29,0,0,0,2.81-.43C49.29,37.87,47,36.48,45,37.73Z"/><path class="cls-6" d="M56.73,22.07a4.86,4.86,0,0,0-4.8,4.15,3.21,3.21,0,0,0-2.34.05A5.31,5.31,0,0,0,39.35,25l-7-1.14-.13.81,6.9,1.12A5.91,5.91,0,0,0,39,26.89a5.32,5.32,0,0,0,10.63.26,2.33,2.33,0,0,1,2.26,0,4.86,4.86,0,1,0,4.85-5.07ZM44.31,31.39a4.5,4.5,0,1,1,4.5-4.5A4.51,4.51,0,0,1,44.31,31.39ZM56.73,31a4,4,0,1,1,4-4.05A4.06,4.06,0,0,1,56.73,31Z"/><path class="cls-7" d="M34.48,83.05l-8.49.1h-.77s1.69-3.82,2.76-4,6.34,3.8,6.5,3.92Z"/><path class="cls-9" d="M34.48,83.05c-.18-.07-5.79-2.37-6.34-2.42S26.09,83,26,83.15h-.77s1.69-3.82,2.76-4S34.32,82.93,34.48,83.05Z"/><path class="cls-1" d="M49.82,91.75c-5.76,3.41-17.66,5.84-25.48,6.6h0c-4.95.47-8.83.29-9.78-.71-2.46-2.57.27-26.41,2.59-35.88s13.72-13,13.72-13L28,54.11l-.39,4-2.38,25,22.93-1Z"/><path class="cls-14" d="M24.33,98.35c-4.95.47-8.83.29-9.78-.71-2.46-2.57.27-26.41,2.59-35.88s13.72-13,13.72-13-10.92,6-12.35,12.48c-.73,3.33-4.52,32.12-3.18,34.16S24,98.35,24.33,98.35Z"/><path class="cls-2" d="M48.19,82.17,26.08,84.59s-2.52,3.63-2.73,3.27.6-2.51.62-2.57-3.08,1.57-3.62,1.43,3.51-3.14,3.51-3.14l3.78-25.42-2.38,25Z"/><path class="cls-1" d="M56.89,85.61l1.77-5.56.23-7.65L55.73,52.3a4.54,4.54,0,0,1,1,.79c.6.82,3,1.72,4.69,4.26,3.89,5.84,9.22,33.29,7.23,34.89-3.89,3.12-18.86-.49-18.86-.49l-.7-4.12Z"/><path class="cls-14" d="M68.68,92.24C67.93,76.9,61.24,60,61.14,58.84s-4.74-5.93-4.74-5.93l-.67-.61a17.51,17.51,0,0,1,5.72,5.05C65.34,63.19,70.67,90.64,68.68,92.24Z"/><path class="cls-2" d="M61.34,83.29c-.59-3.58-2.21-13.2-3-14.62,0,0,1,12.84,1,13.87,0,0-7.91.93-11.16-.37l3.58,4.77,8.81-2.08c.6.78,1.3,1.58,1.69,1.65.78.14-.71-1.88-.71-1.88a6.25,6.25,0,0,0,2.24-.29C64.17,84.13,62.56,83.63,61.34,83.29Z"/><path class="cls-7" d="M57,85.72l-.76.17-7.09,1.74-.78-4.57-.15-.9a44.18,44.18,0,0,1,4.86-1C53.71,81.19,57,85.72,57,85.72Z"/><path class="cls-9" d="M57,85.72l-.76.17c-1.22-1.25-3-3.13-3.28-3.35s-3.5.3-4.59.52l-.15-.9a44.18,44.18,0,0,1,4.86-1C53.71,81.19,57,85.72,57,85.72Z"/></svg>