<svg id="Layer_1" data-name="Layer 1" xmlns="http://www.w3.org/2000/svg" viewBox="0 0 75 92"><defs><style>.cls-1{fill:#cf691f;}.cls-2{fill:#ff9300;}.cls-3{fill:#85441d;}.cls-4{fill:#965326;}.cls-5{fill:#b5693c;}.cls-6{fill:#fff0e7;}.cls-7{fill:#fdbd8e;}.cls-8{fill:#fb9988;}.cls-9{fill:#ffdaba;}.cls-10{fill:#fd7d6f;}.cls-11{fill:#161818;}.cls-12{fill:#ffb800;}.cls-13{fill:#006aab;}.cls-14{fill:#005789;}</style></defs><path class="cls-1" d="M63.19,107.67c-.3-.84-.52-1.48-.62-1.84-.68-2.41-2-35.84-2.81-41.84s-9.9-10.93-9.9-10.93l-.41,17.08L43.36,97.75l5.46,9.92Z"/><path class="cls-1" d="M59.65,107.67c-1.5-3.57-2.68-6.18-2.68-6.18l-.55-19.85c1.37-4.08.29-12-.38-15.86C56.24,70.45,55,80.31,55,80.31V99.73l-3.2,7.94Z"/><path class="cls-2" d="M55.2,99.1s.07-14.27.62-16.85,3.57-22.17-3.23-27.88a25.22,25.22,0,0,0-7.39-4.6,10.81,10.81,0,0,0-1.09-.34h0a6.69,6.69,0,0,0-1.65-.24s0,0,0,0H33.18a39.57,39.57,0,0,0-3.88,1.14c-2.15.77-7.92,4.15-8.58,5.48-.48,1,.27,2.1,1.67,9.36,2.41,12.47,7.93,31.47,7.83,35C30.22,100.19,44,108.48,55.2,99.1Z"/><path class="cls-1" d="M53.39,77.77l-.93,0L50,77.56a25.38,25.38,0,0,0-7.91.52c-.74.19-1.48.43-2.23.63a21.7,21.7,0,0,1-2.23.47,17,17,0,0,1-3.84.12,6.36,6.36,0,0,1-1.5-.28,3.46,3.46,0,0,1-1-.52,2.43,2.43,0,0,1-.49-.52,1.65,1.65,0,0,1-.12-.21l.18.15a2.32,2.32,0,0,0,.57.33,4.82,4.82,0,0,0,2.36.12,28.91,28.91,0,0,0,3.54-.72c.66-.18,1.32-.39,2-.64s1.46-.51,2.28-.72a13.5,13.5,0,0,1,4.78-.36,20.67,20.67,0,0,1,3.75.72c1,.29,1.86.58,2.42.79S53.39,77.77,53.39,77.77Z"/><path class="cls-3" d="M58,34.65c-.05-.21-.11-.52-.22-.89a7.19,7.19,0,0,0-.47-1.3,5.56,5.56,0,0,0-1-1.44,5.09,5.09,0,0,0-1.4-1,6,6,0,0,0-1.29-.51l-.45-.12-.26-.24.09.2-.28,0-.34-.06.79.52.38.9a15.8,15.8,0,0,1,1.13,3.55,21.06,21.06,0,0,1,.17,3.75c0,.5,0,.92,0,1.2s0,.45,0,.45.06-.15.18-.41.26-.65.42-1.14a10.55,10.55,0,0,0,.43-1.76,7.32,7.32,0,0,0,0-2.29,6.63,6.63,0,0,0-.77-2.17,8.65,8.65,0,0,0-1-1.43,9.65,9.65,0,0,1,1.5,1.29A14.92,14.92,0,0,1,57.32,34l.5.76L58,35S58,34.87,58,34.65Z"/><path class="cls-3" d="M28.66,41a17.88,17.88,0,0,1-2.51,4.14c-2.22,2.81-5.34,5.21-8.92,5.44A12.36,12.36,0,0,0,22,47.42c-.22.14-.44.28-.67.4A12,12,0,0,1,13,49.14a10.49,10.49,0,0,0,2.3-4.36,15.23,15.23,0,0,0,.5-3.49A50.17,50.17,0,0,0,15,32.84,80.57,80.57,0,0,1,14.09,19c.12-3.7,1.32-7.7,4.13-10.26a6.28,6.28,0,0,1,9.38,1,5.51,5.51,0,0,1,.55.94c.24.5.37.89.06,1.35a9.94,9.94,0,0,1-1.12,1.22,8.19,8.19,0,0,0-2,4,4.06,4.06,0,0,1,.49.44,10.77,10.77,0,0,1,2.2,3.59A31.07,31.07,0,0,1,30,32.41,20.84,20.84,0,0,1,28.66,41Z"/><path class="cls-4" d="M27.6,9.75a5.38,5.38,0,0,1-.76,1.67,4.55,4.55,0,0,0-4,2.68,11.32,11.32,0,0,0-.91,5,46.18,46.18,0,0,0,.57,7.61,46.86,46.86,0,0,1,1,8,9.42,9.42,0,0,1-3,7.23,10.76,10.76,0,0,0-.78-4.66,10.22,10.22,0,0,1-4.47,7.56,15.23,15.23,0,0,0,.5-3.49,34.54,34.54,0,0,0-.49-6.17c-.11-.77-.23-1.52-.33-2.28A80.57,80.57,0,0,1,14.09,19c.12-3.7,1.32-7.7,4.13-10.26a6.4,6.4,0,0,1,5.46-1.52,6.07,6.07,0,0,1,1.55.54A6.33,6.33,0,0,1,27.6,9.75Z"/><path class="cls-5" d="M25.23,7.73c-1.7,1.17-3.41,2.33-4.26,4.16a11.12,11.12,0,0,0-.73,2.61,25.18,25.18,0,0,0-.51,3.66c-.08,2.16.4,4.29.53,6.45a20.5,20.5,0,0,1-.92,7.54A13.13,13.13,0,0,0,18,28.85a11.73,11.73,0,0,1-2.61,6.27c-.11-.77-.23-1.52-.33-2.28A80.57,80.57,0,0,1,14.09,19c.12-3.7,1.32-7.7,4.13-10.26a6.4,6.4,0,0,1,5.46-1.52A6.07,6.07,0,0,1,25.23,7.73Z"/><path class="cls-6" d="M31.49,12.55a3.67,3.67,0,1,1-3.67-3.67A3.67,3.67,0,0,1,31.49,12.55Z"/><path class="cls-6" d="M45.2,49.77l1,11-4.84-2.46-2.53-3.13s0-4,0-6h3.66s0,0,0,0a6.69,6.69,0,0,1,1.65.24h0A10.81,10.81,0,0,1,45.2,49.77Z"/><path class="cls-7" d="M41.33,58.3l-8.15-9.09c0-1.35.13-1.86.25-5.2.13-3.72.26-7.21.26-7.21L44.19,41a24.82,24.82,0,0,0-1.88,8.46A68.47,68.47,0,0,1,41.33,58.3Z"/><path class="cls-8" d="M44.19,41a24.82,24.82,0,0,0-1.88,8.46c-.33.14-.65.27-1,.38-1.21.42-5.13-3-7.92-5.78.13-3.72.26-7.21.26-7.21Z"/><path class="cls-7" d="M55.2,28.48c-.21,1-.48,2-.82,3.06,0,0,.47,5.25-.08,6.43S50.21,46.49,46.49,46c-3.1-.38-10.68-4.92-13.31-7.63a3.1,3.1,0,0,1-.92-1.35c-.36-2.08-1.6-11.28-1.72-12-.31-2.08-1.19-17.88,17.91-13.48a9.18,9.18,0,0,1,6.93,6.9A23.12,23.12,0,0,1,55.2,28.48Z"/><path class="cls-3" d="M58.2,18.66a7.7,7.7,0,0,1-.5,2.46,8.75,8.75,0,0,1-2.61,4.27A26.81,26.81,0,0,0,54.81,19c-4.56,5-14.08,6.66-14.47,6.73,1.81-.55,2.35-4.16,2.35-4.16C40.51,26.64,31,27.69,31,27.69c-2.28-1.86-3.87,1.65-3.87,1.65-.77-1.43-1.42-2.72-1.92-3.92-.13-.31-.25-.61-.36-.91a12.47,12.47,0,0,1-.66-2.46C22.9,14.43,28.6,7,35.94,4.83h0c6.94-2,15.15-.17,19,3.67a7.89,7.89,0,0,1,1.64,2.28c.06.12.11.24.16.37s0,.07,0,.11a5.89,5.89,0,0,1,.38,2.25A7.66,7.66,0,0,1,57,14.88,7.5,7.5,0,0,1,58.2,18.66Z"/><path class="cls-4" d="M56.77,11.14a6,6,0,0,1-1.31.52c-.92.24-1.88.26-2.8.51A5.83,5.83,0,0,0,49.77,14c-1.34,1.53-1.94,3.8-3.75,4.72a5.81,5.81,0,0,1-4.13.07,14.83,14.83,0,0,0-4.12-.85,7.78,7.78,0,0,0-5.55,3.26,6.75,6.75,0,0,1-1.34,1.43,4.26,4.26,0,0,1-2.63.57,10.19,10.19,0,0,1-4.08-1.12,13.66,13.66,0,0,1,.8-7.23,17.11,17.11,0,0,1,11-10h0a22.89,22.89,0,0,1,13.64.47A14.54,14.54,0,0,1,55,8.49a7.89,7.89,0,0,1,1.64,2.28C56.67,10.89,56.72,11,56.77,11.14Z"/><path class="cls-5" d="M49.6,5.29c-2.24,1.83-3.39,5-6.1,6.05-1.57.58-3.32.27-5,.08s-3.51-.2-4.84.84c-.69.54-1.15,1.32-1.81,1.91a6.12,6.12,0,0,1-5.24,1.14A9.85,9.85,0,0,1,25,14.82a17.11,17.11,0,0,1,11-10h0A22.89,22.89,0,0,1,49.6,5.29Z"/><path class="cls-9" d="M54.38,31.54s.47,5.25-.08,6.43S50.21,46.49,46.49,46c-3.1-.38-10.68-4.92-13.31-7.63,3.23,2.24,11.83,8,14.35,7.08,3.13-1.08,6.67-8,6.6-8.69s-.27-5.17-.27-5.17.63-1.42,1.34-3.15C55,29.45,54.72,30.47,54.38,31.54Z"/><path class="cls-9" d="M33.12,36.8A7.3,7.3,0,0,1,28,34a5.17,5.17,0,0,1-.5-.76c-.69-1.24-.89-5.54.88-6.54,1.23-.7,2.13.31,2.56,1h0a4,4,0,0,1,.28.51Z"/><path class="cls-7" d="M33.12,36.8A7.3,7.3,0,0,1,28,34c-.08-.12-.15-.24-.21-.35-.69-1.24-.88-5.55.88-6.55a1.7,1.7,0,0,1,2.27.58h0a4,4,0,0,1,.28.51Z"/><path class="cls-8" d="M27.86,30.12a1.86,1.86,0,0,0,.08,1c.48,1.45,1.93,2.55,3.31,3.57a3.63,3.63,0,0,1-.49-2.26,7.43,7.43,0,0,0,.09-.81C30.86,30.58,28.38,28.08,27.86,30.12Z"/><path class="cls-10" d="M31.94,35.14l-.08,0L31.64,35a3.31,3.31,0,0,1-.68-.62,2.69,2.69,0,0,1-.56-1.15,2.34,2.34,0,0,1,.17-1.52c0-.06.07-.12.1-.19l0,0s0,0,0,0h0l0-.05-.05-.08a1.4,1.4,0,0,0-.1-.16,6.79,6.79,0,0,0-.41-.59c-.15-.19-.3-.36-.44-.51a4,4,0,0,0-.44-.41,1,1,0,0,0-.45-.2.84.84,0,0,0-.38.06.33.33,0,0,0-.17.16.17.17,0,0,0,0,.07.15.15,0,0,1,0-.08.35.35,0,0,1,.14-.19.74.74,0,0,1,.44-.14,1.21,1.21,0,0,1,.59.17,4.8,4.8,0,0,1,.54.38,6.17,6.17,0,0,1,.53.5A5.94,5.94,0,0,1,31,31a1.63,1.63,0,0,1,.11.17l.06.09.07.12,0,.09a.59.59,0,0,0,0,.08l-.07.12a1.4,1.4,0,0,0-.09.17,2.58,2.58,0,0,0-.22,1.34,3,3,0,0,0,.36,1.1,3.43,3.43,0,0,0,.52.66l.19.17Z"/><path class="cls-6" d="M41.34,58.31l-6.2,4.84-5.83-12.8a39,39,0,0,1,3.87-1.14Z"/><path class="cls-3" d="M35.46,31.82c-.05-.22-.11-.52-.21-.9a8.11,8.11,0,0,0-.48-1.29,5.44,5.44,0,0,0-1-1.45,5.09,5.09,0,0,0-1.4-1,7.28,7.28,0,0,0-1.29-.51l-.45-.12-.26-.24.09.2-.28,0-.33-.05.78.51.38.9a15.8,15.8,0,0,1,1.13,3.55,21.06,21.06,0,0,1,.17,3.75c0,.51,0,.92,0,1.2s0,.45,0,.45.06-.15.18-.41.26-.65.42-1.14a10.31,10.31,0,0,0,.43-1.76,7.32,7.32,0,0,0,0-2.29A6.8,6.8,0,0,0,32.62,29a9.43,9.43,0,0,0-1-1.44,9.65,9.65,0,0,1,1.5,1.29,15.42,15.42,0,0,1,1.69,2.29l.5.76.19.28Z"/><path class="cls-4" d="M56.93,24.7s-2.44-3.26-3.8-2-.74,1.43-.74,1.43Z"/><path class="cls-4" d="M37.64,25.2S42.14,20,44,21.86c1.07,1.07.32,1.81.32,1.81Z"/><path class="cls-11" d="M43.66,25.73A2.94,2.94,0,0,1,42.21,27a1.24,1.24,0,0,0-.92-.48c-.88,0-1.59,1.14-1.59,2.55s.71,2.55,1.59,2.55,1.59-1.14,1.59-2.55a3.82,3.82,0,0,0-.19-1.2A4.69,4.69,0,0,0,43.66,25.73Z"/><path class="cls-6" d="M38.19,27.62a3.72,3.72,0,0,0,1.52,1.27,3.65,3.65,0,0,0,2,.15,3.25,3.25,0,0,0-3.5-1.42Z"/><path class="cls-11" d="M54.39,27.09a2,2,0,0,1-1,.85.91.91,0,0,0-.62-.28c-.66,0-1.2.86-1.2,1.92s.54,1.92,1.2,1.92S54,30.64,54,29.58a2.81,2.81,0,0,0-.21-1.08A3.48,3.48,0,0,0,54.39,27.09Z"/><path class="cls-6" d="M55,28.65a2.79,2.79,0,0,1-1.11.84,2.88,2.88,0,0,1-1.38.17,2.88,2.88,0,0,1,1.1-.85A2.84,2.84,0,0,1,55,28.65Z"/><path class="cls-8" d="M47.37,34.91a2.85,2.85,0,0,0-1.19-.31,4,4,0,0,0,2.16,2.09,1,1,0,0,0,.23.05.52.52,0,0,0,.27-.1,4.7,4.7,0,0,0,1.37-1.22.83.83,0,0,0,.17-.32c.1-.4-.18-.32-.42-.22a3.5,3.5,0,0,1-.86.22A3.77,3.77,0,0,1,47.37,34.91Z"/><path class="cls-10" d="M48.43,36.46c.24-.22.52-.41.77-.62a6.36,6.36,0,0,0,.85-.87c-1.31-.9-1.29-2.26-1.23-3.8a4.47,4.47,0,0,1,.56-2,5.16,5.16,0,0,1,.64-.89l.41-.38a1.79,1.79,0,0,1,.45-.25c-.08.09-.13.2-.21.29-.19.25-.38.48-.55.75a5.87,5.87,0,0,0-.42.83,5.76,5.76,0,0,0-.39,1.83,4.51,4.51,0,0,0,.3,1.81,3.55,3.55,0,0,0,1.3,1.68s-.89,1-1,1.12a4.21,4.21,0,0,1-.74.58,1.61,1.61,0,0,1-.87.35.57.57,0,0,1-.29-.08l.16-.13.06-.06A1,1,0,0,1,48.43,36.46Z"/><path class="cls-10" d="M46.18,40.46a3.75,3.75,0,0,0,3.16.09,1.62,1.62,0,0,1-1.44.79A2.69,2.69,0,0,1,46.18,40.46Z"/><path class="cls-10" d="M42.51,37.69a9.51,9.51,0,0,0,8.76,1.21,14.21,14.21,0,0,1-4.78,0A10.9,10.9,0,0,1,42.51,37.69Z"/><path class="cls-8" d="M52.28,35.46c.21.56,1.41.62,2.69.14s2.14-1.31,1.93-1.87-1.41-.62-2.69-.15S52.07,34.9,52.28,35.46Z"/><path class="cls-8" d="M36.22,32.86c-.22.84,1.17,1.92,3.09,2.42s3.66.22,3.88-.62S42,32.74,40.1,32.24,36.44,32,36.22,32.86Z"/><path class="cls-6" d="M53.75,24.29A4.87,4.87,0,0,0,49,28.44a3.21,3.21,0,0,0-2.34,0A5.31,5.31,0,0,0,36.38,27.2l-7-1.14-.13.81L36.14,28A5.19,5.19,0,0,0,36,29.11a5.31,5.31,0,0,0,10.62.26,2.3,2.3,0,0,1,2.26,0,4.86,4.86,0,1,0,4.85-5.07ZM41.34,33.61a4.5,4.5,0,1,1,4.5-4.5A4.51,4.51,0,0,1,41.34,33.61Zm12.41-.41a4,4,0,1,1,4-4.05A4.05,4.05,0,0,1,53.75,33.2Z"/><path class="cls-2" d="M30,114.79l-1.61,1.87-4.22,4.93-.86,1S-.32,106.2-1,102,15.4,60.82,16.68,59.33a61.23,61.23,0,0,1,5.15-4.64L28.2,69.28l-3.42,7.3h0L14,99.54Z"/><path class="cls-1" d="M30,114.79l-1.61,1.87L13.47,101.4s-1.63,1.49-2.85,1.17,1.55-2.36,1.63-2.41c-.1,0-2.46.81-3.13,0s3.4-1.89,3.4-1.89L24,73.55l.81,3h0L14,99.54Z"/><path class="cls-12" d="M24.16,121.59l-.86,1S-.32,106.2-1,102,15.4,60.82,16.68,59.33c0,0-16,40.71-15.58,42.47C1.44,103.26,18.28,116.88,24.16,121.59Z"/><polygon class="cls-6" points="64.49 87.59 36.81 85.82 45.16 48.96 72.84 50.72 64.49 87.59"/><polygon class="cls-13" points="73.82 52.15 66.23 85.64 65.47 89.02 37.78 87.25 41.67 70.09 46.14 50.39 73.82 52.15"/><path class="cls-14" d="M66.23,85.64,65.47,89,37.78,87.25l3.89-17.16C44,76.21,50.17,83.26,66.23,85.64Z"/><path class="cls-7" d="M72.8,69.66a2.45,2.45,0,0,1-1.13,1.1c-.52.25-1.06.53-1.6.73l-.16.06a5.28,5.28,0,0,1-.76.19l-.27,0a2.37,2.37,0,0,1-.89-.1.8.8,0,0,1-.17-1.29A5.19,5.19,0,0,1,69.58,69a7.23,7.23,0,0,1,2.62-.6C72.85,68.45,73.25,68.76,72.8,69.66Z"/><path class="cls-7" d="M71.37,72.68a2.43,2.43,0,0,1-1.12,1.1c-.34.16-.69.34-1,.49a3.65,3.65,0,0,1-.41.18,4.88,4.88,0,0,1-1.08.31l-.21,0a2.3,2.3,0,0,1-1-.1.8.8,0,0,1-.16-1.29A5,5,0,0,1,68.16,72a7.42,7.42,0,0,1,.72-.27,8.59,8.59,0,0,1,1-.25l.19,0C71.08,71.34,72,71.49,71.37,72.68Z"/><path class="cls-7" d="M70.7,75.44a2.41,2.41,0,0,1-1.12,1.09c-.43.21-.86.43-1.3.61l-.41.16a4.88,4.88,0,0,1-.81.22l-.49,0a2.2,2.2,0,0,1-.68-.11c-.46-.15-.55-.81-.16-1.29a5.07,5.07,0,0,1,1.76-1.35h0A7.63,7.63,0,0,1,69,74.32l.22,0C70.29,74.07,71.34,74.17,70.7,75.44Z"/><path class="cls-7" d="M69.34,78.37a2.5,2.5,0,0,1-1.13,1.1l-.2.1a8.56,8.56,0,0,1-2.32.88,2.42,2.42,0,0,1-1.17-.08c-.45-.15-.54-.81-.16-1.28a5.07,5.07,0,0,1,1.76-1.36l.45-.18a8.2,8.2,0,0,1,1.5-.38l.21,0C69.18,77.06,69.89,77.27,69.34,78.37Z"/><path class="cls-9" d="M72.8,69.66a2.45,2.45,0,0,1-1.13,1.1c-.52.25-1.06.53-1.6.73,1-.15,1.9,0,1.3,1.19a2.43,2.43,0,0,1-1.12,1.1c-.34.16-.69.34-1,.49,1.08-.2,2.13-.1,1.49,1.17a2.41,2.41,0,0,1-1.12,1.09c-.43.21-.86.43-1.3.61.9-.08,1.61.13,1.06,1.23a2.5,2.5,0,0,1-1.13,1.1l-.2.1a1,1,0,0,1,.07-.15,2.86,2.86,0,0,0,.31-1.21.94.94,0,0,0-.52-.91h0l.22-.12A2.64,2.64,0,0,0,69.26,76c.28-.63,0-1.57-.58-1.49l.12-.08.19-.13a3.14,3.14,0,0,0,1.07-1.13,1.44,1.44,0,0,0-.15-1.64l0,0-.12-.06a5.11,5.11,0,0,0,2.1-2.12,8.88,8.88,0,0,0,.34-.92C72.85,68.45,73.25,68.76,72.8,69.66Z"/></svg>