<svg id="Layer_1" data-name="Layer 1" xmlns="http://www.w3.org/2000/svg" viewBox="0 0 75 92"><defs><style>.cls-1{fill:#fdbd8e;}.cls-2{fill:#fb9988;}.cls-3{fill:#fd7d6f;}.cls-4{fill:#ffdaba;}.cls-5{fill:#ff9300;}.cls-6{fill:#cf691f;}.cls-7{fill:#ffb800;}.cls-8{fill:#85441d;}.cls-9{fill:#965326;}.cls-10{fill:#b5693c;}.cls-11{fill:#fff0e7;}.cls-12{fill:#ff7d6f;}.cls-13{fill:#161818;}.cls-14{fill:#006aab;}.cls-15{fill:#005789;}</style></defs><path class="cls-1" d="M2.58,40.11c-.63.37,2,10.93,2.79,11.8L6.58,53,7.8,58.2A7.68,7.68,0,0,0,9.89,58a6.77,6.77,0,0,0,2-.78,5.31,5.31,0,0,0,1-.83,16.38,16.38,0,0,0-.31-3s3.38-1.66,3.64-3.73a9.54,9.54,0,0,1,.9-3.54,15.34,15.34,0,0,0,.94-1.68,2.23,2.23,0,0,0,0-1.87.47.47,0,0,0-.14-.17.44.44,0,0,0-.45,0l0,0a8,8,0,0,0-3.45,4S11.6,41,11.45,39.28c0,0-1.24-3.47-1.94-3.37a1.51,1.51,0,0,0-.63.23,1.46,1.46,0,0,0-.41.38s1.62,7.67,1.44,8S6.7,38.43,6.08,38.2a.81.81,0,0,0-.65.15,4.4,4.4,0,0,0-.67.51,6.6,6.6,0,0,0-.61.62l-.24.07a7.38,7.38,0,0,0-.77.29A4.15,4.15,0,0,0,2.58,40.11Z"/><path class="cls-2" d="M2.58,40.11c-.63.37,2,10.93,2.79,11.8L6.58,53,7.8,58.2A7.68,7.68,0,0,0,9.89,58a13.07,13.07,0,0,1-.57-6.59c.38-2.1,1.27-4.1,1.44-6.23a14.11,14.11,0,0,0-.36-4A31.71,31.71,0,0,0,9.27,37.1a9,9,0,0,0-.39-1,1.46,1.46,0,0,0-.41.38s1.62,7.67,1.44,8S6.7,38.43,6.08,38.2a.81.81,0,0,0-.65.15,4.4,4.4,0,0,0-.67.51,6.6,6.6,0,0,0-.61.62l-.24.07a7.38,7.38,0,0,0-.77.29A4.15,4.15,0,0,0,2.58,40.11Z"/><path class="cls-3" d="M4.76,38.86c.07.19.14.39.22.58a16.77,16.77,0,0,0,1.44,2.81c.4.64.7,1,.74,1.08S7,42.8,6.79,42.08s-.59-1.82-1-2.94c-.11-.27-.22-.54-.33-.79A4.4,4.4,0,0,0,4.76,38.86Z"/><path class="cls-3" d="M3.14,39.84A18,18,0,0,0,4.75,43.1a18.28,18.28,0,0,0-.84-3.55A7.38,7.38,0,0,0,3.14,39.84Z"/><path class="cls-4" d="M17.56,42.44c0,.13,0,.27,0,.4a10,10,0,0,1-1.16,3c-.56,1.38-.62,3-1.43,4.21a10.3,10.3,0,0,1-2.82,2.46,1.86,1.86,0,0,0-.77.85,1.91,1.91,0,0,0,0,1c.15,1,.37,1.94.51,2.91a5.31,5.31,0,0,0,1-.83,16.38,16.38,0,0,0-.31-3s3.38-1.66,3.64-3.73a9.54,9.54,0,0,1,.9-3.54,15.34,15.34,0,0,0,.94-1.68,2.23,2.23,0,0,0,0-1.87.47.47,0,0,0-.14-.17A.44.44,0,0,0,17.56,42.44Z"/><path class="cls-3" d="M12.25,46.75a4,4,0,0,0-2.92,1.58A6.87,6.87,0,0,0,8,51.46,25.8,25.8,0,0,0,9.47,49C10,48.36,11.34,46.77,12.25,46.75Z"/><path class="cls-5" d="M4.41,55C4.82,66.73,6.77,95.06,16.18,95c5.29,0,10.92-5.28,15.53-11.1h0a106.46,106.46,0,0,0,9.89-15.33L38,49.89A14.13,14.13,0,0,0,34.21,53a37.84,37.84,0,0,0-3.45,4.29C26,64.09,19.76,75.84,18,78.71c0,0-1.63-16.94-3.05-25.38l-2.4.37-7,1.07Z"/><path class="cls-6" d="M4.41,55C4.82,66.73,6.77,95.06,16.18,95c5.29,0,10.92-5.28,15.53-11.1h0l-.33-3.74s-14.54,19.18-19.09,11c-3.72-6.65-6-28.66-6.76-36.44Z"/><path class="cls-7" d="M14.73,82.36c-.18.75,2.36,0,2.36,0s0,3,1,4,.83-5.26.83-5.26C19.07,79.75,31.77,57.31,34.21,53a37.84,37.84,0,0,0-3.45,4.29C26,64.09,19.76,75.84,18,78.71c0,0-1.63-16.94-3.05-25.38l-2.4.37,4.2,26.63S14.91,81.61,14.73,82.36Z"/><path class="cls-5" d="M42.59,109.43l1.06,2.24,2.79,5.88.57,1.2S74.1,109,75.82,105.05s-5-44.26-5.89-46c-.17-.35-.88-2.14-1.18-2.62a15.41,15.41,0,0,0-2.58-3.23l-10,12.53,1.39,8h0L62,98.76Z"/><path class="cls-6" d="M45.7,113.56l1,2.13,16.9-11.35s1.15,1.76,2.33,1.72-.89-2.57-.94-2.64,2,1.29,2.83.66-2.66-2.51-2.66-2.51L61.05,79.65c-.45.93-.91,1.87-1.37,2.8l3.86,20Z"/><path class="cls-5" d="M66.44,55.69c-.28,1.28-.86,3.43-1.62,7.42-.6,3.09-1.39,6.57-2.23,10.13h0C60,84,56.91,95.45,57,98.11c0,0-13.8,8.28-25-1.09,0,0-.07-14.27-.62-16.85s-2-23.31,3.23-27.88A25.18,25.18,0,0,1,42,47.68c.4-.14.77-.25,1.09-.33h0a7,7,0,0,1,1.65-.23H54a36.77,36.77,0,0,1,3.87,1.14c2,.7,7,3.59,8.31,5.09,0,0,0,0,0,0a1.9,1.9,0,0,1,.27.37C66.7,54.18,66.67,54.64,66.44,55.69Z"/><path class="cls-6" d="M33.82,75.68l.93,0,2.51-.16a25.31,25.31,0,0,1,7.9.52c.75.19,1.49.42,2.24.63a18.82,18.82,0,0,0,2.23.46,17.07,17.07,0,0,0,3.84.13A6.7,6.7,0,0,0,55,76.94a3.3,3.3,0,0,0,1-.53,2,2,0,0,0,.49-.52c.08-.13.12-.21.12-.21l-.18.16a2.34,2.34,0,0,1-.57.32,4.68,4.68,0,0,1-2.36.13A27.31,27.31,0,0,1,50,75.56c-.66-.18-1.32-.39-2-.63s-1.46-.51-2.28-.73a13.73,13.73,0,0,0-4.78-.36,21.13,21.13,0,0,0-3.75.73c-1,.29-1.86.58-2.42.78Z"/><path class="cls-8" d="M29.25,32.57c0-.21.11-.52.21-.89a8.18,8.18,0,0,1,.48-1.3,5.56,5.56,0,0,1,1-1.44,5.34,5.34,0,0,1,1.4-1.05,7.28,7.28,0,0,1,1.29-.51l.44-.11L34.3,27l-.09.2.28-.06.33-.05-.78.52-.39.9a16.36,16.36,0,0,0-1.12,3.55,21,21,0,0,0-.17,3.75c0,.5,0,.91,0,1.2s0,.44,0,.44l-.18-.41c-.11-.26-.26-.64-.42-1.13a10.44,10.44,0,0,1-.43-1.77,7.25,7.25,0,0,1,0-2.28,6.86,6.86,0,0,1,.76-2.17,8.83,8.83,0,0,1,1-1.43,10.12,10.12,0,0,0-1.5,1.28,15.45,15.45,0,0,0-1.69,2.3l-.5.76-.2.28Z"/><path class="cls-8" d="M58.55,38.91a17.7,17.7,0,0,0,2.5,4.15c2.23,2.81,5.35,5.21,8.93,5.44a12.31,12.31,0,0,1-4.72-3.17c.22.15.44.29.66.41a12,12,0,0,0,8.26,1.32,10.37,10.37,0,0,1-2.3-4.36,14.7,14.7,0,0,1-.5-3.49,49.27,49.27,0,0,1,.82-8.46,80.44,80.44,0,0,0,.92-13.87C73,13.19,71.8,9.18,69,6.63a6.28,6.28,0,0,0-9.38,1,5.55,5.55,0,0,0-.56.94A1.23,1.23,0,0,0,59,10a9.94,9.94,0,0,0,1.12,1.22,8.28,8.28,0,0,1,2,4,5.23,5.23,0,0,0-.49.45,10.72,10.72,0,0,0-2.2,3.58,31.39,31.39,0,0,0-2.21,11.09A21,21,0,0,0,58.55,38.91Z"/><path class="cls-9" d="M59.61,7.67a5.46,5.46,0,0,0,.75,1.67,4.54,4.54,0,0,1,4,2.68,11.14,11.14,0,0,1,.9,5,44.91,44.91,0,0,1-.56,7.6,46.12,46.12,0,0,0-1,8c0,2.68.88,5.51,3,7.22a10.72,10.72,0,0,1,.79-4.65,10.24,10.24,0,0,0,4.47,7.56,14.7,14.7,0,0,1-.5-3.49A34.73,34.73,0,0,1,71.87,33c.11-.76.23-1.52.33-2.28a80.44,80.44,0,0,0,.92-13.87C73,13.19,71.8,9.18,69,6.63a6.41,6.41,0,0,0-5.47-1.52A6.53,6.53,0,0,0,62,5.64,6.37,6.37,0,0,0,59.61,7.67Z"/><path class="cls-10" d="M62,5.64c1.7,1.17,3.41,2.34,4.26,4.17A10.64,10.64,0,0,1,67,12.42a23.87,23.87,0,0,1,.51,3.66,61,61,0,0,1-.53,6.45,20.72,20.72,0,0,0,.93,7.54,13.36,13.36,0,0,1,1.39-3.31A11.59,11.59,0,0,0,71.87,33c.11-.76.23-1.52.33-2.28a80.44,80.44,0,0,0,.92-13.87C73,13.19,71.8,9.18,69,6.63a6.41,6.41,0,0,0-5.47-1.52A6.53,6.53,0,0,0,62,5.64Z"/><path class="cls-11" d="M55.72,10.47A3.67,3.67,0,1,0,59.39,6.8,3.67,3.67,0,0,0,55.72,10.47Z"/><path class="cls-11" d="M42,47.68l-1,11,4.84-2.47L48.4,53.1s0-4,0-6H44.75a7,7,0,0,0-1.65.23h0C42.78,47.43,42.41,47.54,42,47.68Z"/><path class="cls-1" d="M45.87,56.22,54,47.13c0-1.35-.13-1.86-.25-5.21-.13-3.72-.27-7.2-.27-7.2L43,38.87a24.58,24.58,0,0,1,1.87,8.46A68.47,68.47,0,0,0,45.87,56.22Z"/><path class="cls-2" d="M43,38.87a24.58,24.58,0,0,1,1.87,8.46c.34.14.66.27,1,.37,1.22.43,5.14-3.05,7.93-5.78-.13-3.72-.27-7.2-.27-7.2Z"/><path class="cls-1" d="M32,26.4c.21,1,.48,2,.82,3.06,0,0-.47,5.25.08,6.43S37,44.41,40.71,44C43.81,43.58,51.39,39,54,36.33A3.1,3.1,0,0,0,55,35c.36-2.08,1.6-11.28,1.72-12C57,20.84,57.86,5.05,38.76,9.44a9.21,9.21,0,0,0-6.93,6.9A23,23,0,0,0,32,26.4Z"/><path class="cls-12" d="M37.56,37.72l1.14-.17a25.42,25.42,0,0,1,2.7-.3,11.22,11.22,0,0,1,2.67.16,8.26,8.26,0,0,1,.82.2l.29.09-.24-.19a5.22,5.22,0,0,0-.75-.45,6.08,6.08,0,0,0-2.82-.54,8.38,8.38,0,0,0-2.77.67c-.33.15-.59.28-.77.38A2.77,2.77,0,0,0,37.56,37.72Z"/><path class="cls-12" d="M43.18,39.33a3.78,3.78,0,0,1-3.14.12,1.62,1.62,0,0,0,1.45.76A2.67,2.67,0,0,0,43.18,39.33Z"/><path class="cls-8" d="M29,16.58A8.06,8.06,0,0,0,29.51,19a8.8,8.8,0,0,0,2.6,4.27,26.82,26.82,0,0,1,.29-6.39c4.55,5,14.08,6.66,14.47,6.73-1.81-.56-2.35-4.17-2.35-4.17,2.18,5.08,11.71,6.12,11.71,6.12,2.28-1.85,3.87,1.66,3.87,1.66.77-1.43,1.41-2.72,1.91-3.92.14-.31.26-.62.37-.91A13.2,13.2,0,0,0,63,20c1.27-7.63-4.43-15.09-11.77-17.22h0c-6.94-2-15.15-.17-19,3.67a8.23,8.23,0,0,0-1.65,2.27l-.15.37a.56.56,0,0,0,0,.12A5.86,5.86,0,0,0,30,11.42a7.88,7.88,0,0,0,.16,1.38A7.6,7.6,0,0,0,29,16.58Z"/><path class="cls-9" d="M30.44,9.05a5.54,5.54,0,0,0,1.31.53c.91.24,1.88.26,2.8.51a5.88,5.88,0,0,1,2.89,1.79c1.34,1.53,1.94,3.8,3.75,4.73a5.81,5.81,0,0,0,4.13.07,14.41,14.41,0,0,1,4.12-.85A7.78,7.78,0,0,1,55,19.09a6.71,6.71,0,0,0,1.33,1.43,4.23,4.23,0,0,0,2.64.56A10,10,0,0,0,63,20a13.76,13.76,0,0,0-.8-7.23,17.06,17.06,0,0,0-11-10h0a22.89,22.89,0,0,0-13.64.47,14.46,14.46,0,0,0-5.37,3.2,8.23,8.23,0,0,0-1.65,2.27Z"/><path class="cls-10" d="M37.61,3.21c2.24,1.83,3.39,5,6.1,6,1.57.59,3.32.28,5,.09s3.51-.2,4.83.84c.69.54,1.16,1.31,1.81,1.9a6.15,6.15,0,0,0,5.25,1.14,9,9,0,0,0,1.66-.48,17.06,17.06,0,0,0-11-10h0A22.89,22.89,0,0,0,37.61,3.21Z"/><path class="cls-4" d="M32.83,29.46s-.47,5.25.08,6.43S37,44.41,40.71,44C43.81,43.58,51.39,39,54,36.33c-3.23,2.24-11.83,8-14.36,7.08-3.12-1.09-6.66-8-6.59-8.69s.27-5.17.27-5.17S32.72,28.13,32,26.4C32.22,27.37,32.49,28.39,32.83,29.46Z"/><path class="cls-4" d="M54.09,34.72a7.32,7.32,0,0,0,5.08-2.8,5.17,5.17,0,0,0,.5-.76c.69-1.24.89-5.55-.88-6.55-1.23-.7-2.13.32-2.56,1h0a5,5,0,0,0-.28.51Z"/><path class="cls-1" d="M54.09,34.72a7.32,7.32,0,0,0,5.08-2.8l.21-.35c.68-1.24.88-5.55-.88-6.55a1.69,1.69,0,0,0-2.27.58h0a5,5,0,0,0-.28.51Z"/><path class="cls-2" d="M59.35,28a1.88,1.88,0,0,1-.08,1c-.48,1.44-1.93,2.55-3.31,3.57a3.63,3.63,0,0,0,.49-2.26,7.43,7.43,0,0,1-.09-.81C56.35,28.5,58.83,26,59.35,28Z"/><path class="cls-3" d="M55.27,33.06a.22.22,0,0,1,.08,0,1.8,1.8,0,0,0,.22-.14,3.18,3.18,0,0,0,.68-.61,2.81,2.81,0,0,0,.56-1.15,2.48,2.48,0,0,0-.17-1.52l-.1-.19,0,0s0,0,0,0h0l0,0,0-.08.09-.16a6.42,6.42,0,0,1,.42-.6c.14-.18.29-.35.44-.51a3.89,3.89,0,0,1,.44-.4,1,1,0,0,1,.45-.2.76.76,0,0,1,.38.06.38.38,0,0,1,.17.16.17.17,0,0,1,0,.07.17.17,0,0,0,0-.08.4.4,0,0,0-.14-.2.85.85,0,0,0-.44-.13,1.15,1.15,0,0,0-.59.17,3.78,3.78,0,0,0-.54.38,6.17,6.17,0,0,0-.53.5,4.85,4.85,0,0,0-.49.61,1.63,1.63,0,0,0-.11.17l-.06.08-.07.13-.05.08a.41.41,0,0,1,.05.09l.07.12a.91.91,0,0,1,.09.17,2.58,2.58,0,0,1,.22,1.34A2.7,2.7,0,0,1,56,32.17a3.12,3.12,0,0,1-.52.67l-.18.16Z"/><path class="cls-11" d="M45.87,56.22l6.2,4.85,5.83-12.8A39.87,39.87,0,0,0,54,47.13Z"/><path class="cls-8" d="M51.75,29.73c0-.21.11-.52.21-.89a8.18,8.18,0,0,1,.48-1.3,5.56,5.56,0,0,1,1-1.44,5.09,5.09,0,0,1,1.4-1,6,6,0,0,1,1.29-.51l.44-.12.27-.24-.09.2.28-.05.33-.06-.78.52-.39.9A16.36,16.36,0,0,0,55,29.25,21.06,21.06,0,0,0,54.86,33c0,.51,0,.92,0,1.2s0,.45,0,.45-.06-.15-.18-.41-.27-.65-.43-1.14a11.58,11.58,0,0,1-.42-1.77,7.25,7.25,0,0,1,0-2.28,7,7,0,0,1,.76-2.17,9.3,9.3,0,0,1,1-1.43,9.65,9.65,0,0,0-1.5,1.29A14.92,14.92,0,0,0,52.39,29l-.5.76-.2.28Z"/><path class="cls-9" d="M29.82,21.48s2.43-3.26,3.79-2,.75,1.43.75,1.43Z"/><path class="cls-9" d="M52,20.53s-4.49-5.17-6.34-3.33c-1.07,1.07-.32,1.8-.32,1.8Z"/><path class="cls-13" d="M43.55,23.65A2.94,2.94,0,0,0,45,24.89a1.22,1.22,0,0,1,.92-.48c.87,0,1.58,1.14,1.58,2.55s-.71,2.55-1.58,2.55S44.33,28.37,44.33,27a3.73,3.73,0,0,1,.19-1.2A4.69,4.69,0,0,1,43.55,23.65Z"/><path class="cls-13" d="M32.77,24.5a2,2,0,0,0,1,.85.87.87,0,0,1,.62-.28c.66,0,1.19.86,1.19,1.92s-.53,1.92-1.19,1.92-1.2-.86-1.2-1.92a2.81,2.81,0,0,1,.21-1.08A3.41,3.41,0,0,1,32.77,24.5Z"/><path class="cls-11" d="M32.16,26.06a2.66,2.66,0,0,0,2.49,1,2.86,2.86,0,0,0-1.11-.85A2.8,2.8,0,0,0,32.16,26.06Z"/><path class="cls-11" d="M49,25.54a3.64,3.64,0,0,1-1.53,1.26,3.51,3.51,0,0,1-2,.15A3.26,3.26,0,0,1,49,25.54Z"/><path class="cls-2" d="M39.84,32.83A2.85,2.85,0,0,1,41,32.52a4,4,0,0,1-2.16,2.08.65.65,0,0,1-.23.06.63.63,0,0,1-.27-.1A4.7,4.7,0,0,1,37,33.34a1,1,0,0,1-.18-.33c-.09-.4.19-.31.42-.22a3.72,3.72,0,0,0,.87.23A3.77,3.77,0,0,0,39.84,32.83Z"/><path class="cls-3" d="M38.78,34.37c-.24-.22-.52-.4-.77-.61a6.35,6.35,0,0,1-.85-.87c1.3-.9,1.29-2.26,1.23-3.8a4.47,4.47,0,0,0-.56-2,4.72,4.72,0,0,0-.65-.89,4.83,4.83,0,0,0-.4-.38,1.53,1.53,0,0,0-.45-.25c.08.09.13.2.2.29.2.25.39.48.56.74a6.58,6.58,0,0,1,.42.84,5.44,5.44,0,0,1,.38,1.83,4.26,4.26,0,0,1-.29,1.8,3.57,3.57,0,0,1-1.3,1.69s.89,1,1,1.12a4.54,4.54,0,0,0,.73.58,1.69,1.69,0,0,0,.88.35.55.55,0,0,0,.28-.09.79.79,0,0,1-.15-.12L39,34.55Z"/><path class="cls-2" d="M34.93,33.38c-.21.56-1.41.62-2.69.14s-2.14-1.32-1.93-1.87S31.72,31,33,31.5,35.14,32.82,34.93,33.38Z"/><path class="cls-2" d="M51,30.77c.22.85-1.17,1.93-3.09,2.43s-3.66.22-3.88-.62,1.16-1.93,3.09-2.42S50.77,29.93,51,30.77Z"/><path class="cls-11" d="M28.6,27.07a4.86,4.86,0,0,0,9.71.21,2.3,2.3,0,0,1,2.26,0A5.31,5.31,0,0,0,51.19,27a5.13,5.13,0,0,0-.12-1.12L58,24.78l-.13-.8-7,1.14a5.31,5.31,0,0,0-10.24,1.29,3.13,3.13,0,0,0-2.33-.05,4.86,4.86,0,0,0-9.66.71Zm12.77,0a4.5,4.5,0,1,1,4.5,4.5A4.51,4.51,0,0,1,41.37,27Zm-12,0a4,4,0,1,1,4.05,4A4.05,4.05,0,0,1,29.41,27.07Z"/><rect class="cls-11" x="31.65" y="68.1" width="33.89" height="41.58" transform="translate(135.68 140.67) rotate(149.4)"/><rect class="cls-14" x="31.01" y="69.98" width="33.89" height="41.58" transform="translate(135.44 144.49) rotate(149.4)"/><rect class="cls-15" x="32.88" y="76.81" width="7.07" height="41.58" transform="translate(117.43 163.07) rotate(149.4)"/><rect class="cls-11" x="33.31" y="79.51" width="3.52" height="31.64" transform="translate(-43.64 31.12) rotate(-30.6)"/><rect class="cls-11" x="35.94" y="75.83" width="17.66" height="5.44" transform="translate(123.28 123.39) rotate(149.4)"/><path class="cls-7" d="M46.44,117.55l.57,1.2S74.1,109,75.82,105.05s-5-44.26-5.89-46c0,0,4.81,43.7,3.95,45.31C73.17,105.65,53.35,114.5,46.44,117.55Z"/></svg>