<svg id="Layer_1" data-name="Layer 1" xmlns="http://www.w3.org/2000/svg" viewBox="0 0 75 92"><defs><style>.cls-1{fill:#ff9300;}.cls-2{fill:#cf691f;}.cls-3{fill:#85441d;}.cls-4{fill:#965326;}.cls-5{fill:#b5693c;}.cls-6{fill:#fff0e7;}.cls-7{fill:#fdbd8e;}.cls-8{fill:#fb9988;}.cls-9{fill:#ffdaba;}.cls-10{fill:#ff7d6f;}.cls-11{fill:#cf4a57;}.cls-12{fill:#fd7d6f;}.cls-13{fill:#161818;}.cls-14{fill:#fc5b68;}.cls-15{fill:#ffb800;}</style></defs><path class="cls-1" d="M76.3,123.54,72.83,125l-6,2.48-9.44-17.14-7.16-13,6.09-27.61.41-17.08s9.11,4.92,9.9,10.92S68.72,103,69.4,105.36,76.3,123.54,76.3,123.54Z"/><path class="cls-2" d="M72.83,125l-6,2.48-9.44-17.14,4.46-11V79.83S63.07,70,62.87,65.3c.66,3.87,1.75,11.79.38,15.86L63.8,101S71.77,118.72,72.83,125Z"/><path class="cls-1" d="M61.25,98s.07-14.24.61-16.82,3.57-22.13-3.22-27.83a25.3,25.3,0,0,0-7.38-4.6c-.4-.15-.76-.25-1.08-.34h0a6.51,6.51,0,0,0-1.65-.23H39.26a37.85,37.85,0,0,0-3.86,1.15c-2.15.76-7.91,4.14-8.57,5.46-.48,1,.27,2.1,1.67,9.35,2.4,12.45,7.91,31.42,7.81,34.93C36.31,99.11,50.09,107.39,61.25,98Z"/><path class="cls-2" d="M59.44,76.73l-.93,0L56,76.53a25.23,25.23,0,0,0-7.89.51c-.74.2-1.48.43-2.23.63a17.35,17.35,0,0,1-6.06.59A6.39,6.39,0,0,1,38.33,78a3.13,3.13,0,0,1-1-.53,2.22,2.22,0,0,1-.49-.52,1.65,1.65,0,0,1-.12-.21l.18.16a2.34,2.34,0,0,0,.57.32,4.76,4.76,0,0,0,2.35.13,27,27,0,0,0,3.54-.73c.65-.18,1.32-.39,2-.63s1.46-.51,2.28-.72a13.44,13.44,0,0,1,4.77-.36,20.67,20.67,0,0,1,3.75.72c1,.29,1.85.58,2.41.78Z"/><path class="cls-3" d="M64,33.7q-.06-.33-.21-.9a8.11,8.11,0,0,0-.48-1.29,5.4,5.4,0,0,0-1-1.44A5,5,0,0,0,61,29a6,6,0,0,0-1.29-.51l-.44-.12L59,28.16l.09.2-.28-.05-.33-.06.78.52.38.9a15.24,15.24,0,0,1,1.12,3.54A21.05,21.05,0,0,1,60.9,37c0,.51,0,.92,0,1.2s0,.45,0,.45l.18-.41c.11-.26.26-.65.42-1.13a10.44,10.44,0,0,0,.43-1.77,7.56,7.56,0,0,0,0-2.28,7.06,7.06,0,0,0-.77-2.16,8.84,8.84,0,0,0-1-1.43,10.12,10.12,0,0,1,1.5,1.28A16.17,16.17,0,0,1,63.37,33l.49.76.2.28S64,33.91,64,33.7Z"/><path class="cls-3" d="M34.75,40a17.78,17.78,0,0,1-2.5,4.13C30,47,26.92,49.36,23.34,49.59a12.34,12.34,0,0,0,4.71-3.15c-.21.14-.43.27-.66.4a11.92,11.92,0,0,1-8.24,1.31,10.28,10.28,0,0,0,2.29-4.34A15.32,15.32,0,0,0,22,40.32a50.07,50.07,0,0,0-.83-8.44A81.27,81.27,0,0,1,20.21,18c.12-3.68,1.32-7.68,4.12-10.23a6.28,6.28,0,0,1,9.37,1,6.79,6.79,0,0,1,.55.94,1.23,1.23,0,0,1,0,1.35,9.94,9.94,0,0,1-1.12,1.22,8.22,8.22,0,0,0-2,4,5.12,5.12,0,0,1,.49.44,10.64,10.64,0,0,1,2.19,3.58,31,31,0,0,1,2.2,11.06A20.79,20.79,0,0,1,34.75,40Z"/><path class="cls-4" d="M33.7,8.83a5.28,5.28,0,0,1-.76,1.67,4.55,4.55,0,0,0-4,2.68,11.24,11.24,0,0,0-.9,4.95,45.93,45.93,0,0,0,.56,7.59,46.9,46.9,0,0,1,1,8c0,2.68-.89,5.5-3,7.21a10.67,10.67,0,0,0-.78-4.64,10.22,10.22,0,0,1-4.47,7.55A15.32,15.32,0,0,0,22,40.32a34.52,34.52,0,0,0-.5-6.16l-.33-2.28A81.27,81.27,0,0,1,20.21,18c.12-3.68,1.32-7.68,4.12-10.23a6.4,6.4,0,0,1,5.46-1.52,6.53,6.53,0,0,1,1.54.53A6.6,6.6,0,0,1,33.7,8.83Z"/><path class="cls-5" d="M31.33,6.81C29.64,8,27.92,9.14,27.08,11a10.65,10.65,0,0,0-.73,2.61,25,25,0,0,0-.51,3.65,63.52,63.52,0,0,0,.53,6.44,20.45,20.45,0,0,1-.92,7.53,13.48,13.48,0,0,0-1.38-3.3,11.71,11.71,0,0,1-2.62,6.26l-.33-2.28A81.27,81.27,0,0,1,20.21,18c.12-3.68,1.32-7.68,4.12-10.23a6.4,6.4,0,0,1,5.46-1.52A6.53,6.53,0,0,1,31.33,6.81Z"/><path class="cls-6" d="M37.58,11.63A3.67,3.67,0,1,1,33.91,8,3.66,3.66,0,0,1,37.58,11.63Z"/><path class="cls-6" d="M51.26,48.78l1,11-4.83-2.45-2.52-3.13s0-4,0-6h3.67a6.51,6.51,0,0,1,1.65.23h0C50.5,48.53,50.86,48.63,51.26,48.78Z"/><path class="cls-7" d="M47.41,57.31l-8.15-9.09c0-1.34.13-1.85.25-5.19.13-3.71.27-7.19.27-7.19L50.26,40a24.77,24.77,0,0,0-1.88,8.45A68,68,0,0,1,47.41,57.31Z"/><path class="cls-8" d="M50.26,40a24.77,24.77,0,0,0-1.88,8.45c-.33.14-.65.26-1,.37-1.22.42-5.13-3-7.92-5.77.13-3.71.27-7.19.27-7.19Z"/><path class="cls-7" d="M61.25,27.53c-.21,1-.49,2-.82,3,0,0,.47,5.25-.08,6.43s-4.09,8.5-7.79,8.05c-3.1-.38-10.67-4.91-13.3-7.61a3.15,3.15,0,0,1-.91-1.35c-.36-2.08-1.6-11.26-1.72-12C36.32,22,35.44,6.22,54.51,10.61a9.16,9.16,0,0,1,6.91,6.88A22.9,22.9,0,0,1,61.25,27.53Z"/><path class="cls-3" d="M64.25,17.73a8.06,8.06,0,0,1-.51,2.46,8.75,8.75,0,0,1-2.6,4.26,27.26,27.26,0,0,0-.28-6.38c-4.55,5-14.06,6.65-14.45,6.72,1.81-.56,2.35-4.16,2.35-4.16-2.17,5.07-11.69,6.11-11.69,6.11-2.28-1.85-3.87,1.65-3.87,1.65a43.12,43.12,0,0,1-1.91-3.91c-.13-.31-.25-.62-.36-.91a13.2,13.2,0,0,1-.66-2.46C29,13.5,34.69,6.05,42,3.92h0c6.93-2,15.12-.17,19,3.65a8,8,0,0,1,1.64,2.28,2.39,2.39,0,0,1,.15.37,1.17,1.17,0,0,1,0,.11,6,6,0,0,1,.37,2.25A7.66,7.66,0,0,1,63.07,14,7.63,7.63,0,0,1,64.25,17.73Z"/><path class="cls-4" d="M62.81,10.22a5.61,5.61,0,0,1-1.3.52c-.92.24-1.88.26-2.8.51A5.81,5.81,0,0,0,55.83,13c-1.34,1.53-1.94,3.8-3.75,4.72a5.78,5.78,0,0,1-4.12.07A14.75,14.75,0,0,0,43.84,17a7.81,7.81,0,0,0-5.54,3.25A6.25,6.25,0,0,1,37,21.66a4.26,4.26,0,0,1-2.63.57,10.14,10.14,0,0,1-4.07-1.12,13.68,13.68,0,0,1,.8-7.21,17.09,17.09,0,0,1,11-10h0a22.79,22.79,0,0,1,13.61.46A14.58,14.58,0,0,1,61,7.57a8,8,0,0,1,1.64,2.28A2.39,2.39,0,0,1,62.81,10.22Z"/><path class="cls-5" d="M55.65,4.38c-2.23,1.83-3.38,5-6.08,6-1.57.58-3.31.27-5,.08s-3.5-.2-4.82.84c-.69.54-1.16,1.31-1.81,1.9a6.1,6.1,0,0,1-5.23,1.14,9.55,9.55,0,0,1-1.66-.48,17.09,17.09,0,0,1,11-10h0A22.79,22.79,0,0,1,55.65,4.38Z"/><path class="cls-9" d="M60.43,30.58s.47,5.25-.08,6.43-4.09,8.5-7.79,8.05c-3.1-.38-10.67-4.91-13.3-7.61,3.23,2.23,11.82,7.94,14.34,7.06,3.12-1.08,6.65-8,6.58-8.67s-.27-5.16-.27-5.16.63-1.42,1.34-3.15C61,28.5,60.76,29.52,60.43,30.58Z"/><path class="cls-9" d="M39.2,35.84A7.32,7.32,0,0,1,34.13,33a6.09,6.09,0,0,1-.5-.75c-.68-1.24-.88-5.54.88-6.54,1.23-.7,2.13.32,2.56,1h0a5,5,0,0,1,.28.51Z"/><path class="cls-7" d="M39.2,35.84A7.32,7.32,0,0,1,34.13,33c-.08-.12-.15-.24-.21-.35-.68-1.24-.88-5.53.88-6.53a1.69,1.69,0,0,1,2.27.58h0a5,5,0,0,1,.28.51Z"/><path class="cls-10" d="M34,29.17a1.77,1.77,0,0,0,.08,1c.48,1.44,1.92,2.54,3.3,3.56a3.63,3.63,0,0,1-.49-2.26,7,7,0,0,0,.09-.8C37,29.63,34.48,27.13,34,29.17Z"/><path class="cls-11" d="M38,34.18l-.08,0a1.8,1.8,0,0,1-.22-.14,3,3,0,0,1-.68-.61,2.71,2.71,0,0,1-.56-1.14,2.4,2.4,0,0,1,.17-1.52c0-.07.07-.13.1-.19l0-.05h0l0,0-.05-.08-.09-.16c-.13-.21-.28-.41-.42-.6s-.29-.35-.44-.51a5.15,5.15,0,0,0-.44-.4,1,1,0,0,0-.45-.2.89.89,0,0,0-.38.06.44.44,0,0,0-.17.16.17.17,0,0,0,0,.07.13.13,0,0,1,0-.08c0-.05,0-.12.14-.19a.78.78,0,0,1,.43-.14,1.15,1.15,0,0,1,.59.17,4.8,4.8,0,0,1,.54.38,6.17,6.17,0,0,1,.53.5A5.94,5.94,0,0,1,37,30a1,1,0,0,1,.11.17l.06.08.07.13,0,.08,0,.09-.07.12a.65.65,0,0,0-.09.16,2.49,2.49,0,0,0-.22,1.34,2.91,2.91,0,0,0,.36,1.1,3.08,3.08,0,0,0,.52.66l.18.17Z"/><path class="cls-6" d="M47.41,57.31l-6.19,4.83L35.4,49.37a37.58,37.58,0,0,1,3.87-1.15Z"/><path class="cls-3" d="M41.54,30.86c0-.21-.11-.52-.21-.89a8.11,8.11,0,0,0-.48-1.29,5.24,5.24,0,0,0-1-1.44,5.3,5.3,0,0,0-1.39-1,7.28,7.28,0,0,0-1.29-.51l-.45-.11c-.16-.16-.26-.24-.26-.24l.09.2-.28-.06-.33,0,.78.52.38.89a15.33,15.33,0,0,1,1.12,3.55,21,21,0,0,1,.18,3.74c0,.51,0,.92,0,1.2s0,.45,0,.45.06-.15.18-.41.26-.65.42-1.14a10.08,10.08,0,0,0,.43-1.76,7.56,7.56,0,0,0,0-2.28A7.06,7.06,0,0,0,38.7,28a8.84,8.84,0,0,0-1-1.43,10.12,10.12,0,0,1,1.5,1.28,16.17,16.17,0,0,1,1.69,2.29l.49.76.2.28Z"/><path class="cls-4" d="M63,23.76s-2.44-3.26-3.79-2-.75,1.42-.75,1.42Z"/><path class="cls-4" d="M43.72,24.26s4.49-5.17,6.32-3.34c1.08,1.08.33,1.81.33,1.81Z"/><path class="cls-8" d="M53.43,34a2.85,2.85,0,0,0-1.19-.31,4,4,0,0,0,2.16,2.08.6.6,0,0,0,.23.06.63.63,0,0,0,.27-.1,4.54,4.54,0,0,0,1.36-1.22.85.85,0,0,0,.18-.32c.09-.4-.18-.32-.42-.22a3.68,3.68,0,0,1-2.59,0Z"/><path class="cls-12" d="M54.49,35.49c.24-.21.51-.4.76-.61A5.83,5.83,0,0,0,56.1,34c-1.3-.9-1.28-2.25-1.22-3.79a4.47,4.47,0,0,1,.56-2,4.31,4.31,0,0,1,.64-.88,3.78,3.78,0,0,1,.41-.39,1.63,1.63,0,0,1,.45-.25c-.08.1-.14.2-.21.3a6.76,6.76,0,0,0-.55.74,5.87,5.87,0,0,0-.42.83,5.45,5.45,0,0,0-.39,1.83,4.6,4.6,0,0,0,.29,1.8A3.57,3.57,0,0,0,57,33.89s-.89,1-1,1.12a4.61,4.61,0,0,1-.74.58,1.69,1.69,0,0,1-.87.35.58.58,0,0,1-.29-.09.61.61,0,0,0,.16-.12l.06-.06A1.53,1.53,0,0,1,54.49,35.49Z"/><path class="cls-13" d="M50.33,29.31a1.37,1.37,0,0,0-.21-.16,2.62,2.62,0,0,0-.6-.28c-.27-.08-.6-.15-1-.22s-.77-.15-1.18-.21a10.64,10.64,0,0,0-2.16-.12,6.42,6.42,0,0,0-.68.08l-.26,0,.2-.18a3.81,3.81,0,0,1,.62-.39,4.16,4.16,0,0,1,2.41-.34,4.87,4.87,0,0,1,1.29.37,4.18,4.18,0,0,1,.94.57,2,2,0,0,1,.49.58A1.16,1.16,0,0,1,50.33,29.31Z"/><path class="cls-13" d="M61.93,28.57h-.65c-.39,0-.88.07-1.46.08s-1.07-.09-1.44-.09a1.94,1.94,0,0,0-.45,0l-.18,0a1,1,0,0,1,.1-.15,1.54,1.54,0,0,1,.39-.35,3.32,3.32,0,0,1,3.16,0,2.23,2.23,0,0,1,.4.31Z"/><path class="cls-12" d="M54.07,41.52a4.7,4.7,0,0,1-3.89-.36,2,2,0,0,0,1.66,1.17A3.35,3.35,0,0,0,54.07,41.52Z"/><path class="cls-14" d="M47.86,36.76a6.26,6.26,0,0,0,1.63,2.93A4.83,4.83,0,0,0,52,41a4.32,4.32,0,0,0,2.81-.43A7,7,0,0,0,57.37,38c-5.65-1.87-9.36-1.27-9.51-1.24Z"/><path class="cls-6" d="M47.86,36.76s.08.32.89.77A35.54,35.54,0,0,0,56,38.61,3.2,3.2,0,0,0,57.37,38c-5.65-1.87-9.36-1.27-9.51-1.24Z"/><path class="cls-11" d="M49.49,39.69A4.83,4.83,0,0,0,52,41a4.32,4.32,0,0,0,2.81-.43C53.8,39.83,51.49,38.45,49.49,39.69Z"/><path class="cls-8" d="M58.33,34.5c.21.56,1.41.62,2.69.14s2.13-1.31,1.93-1.87-1.41-.62-2.69-.14S58.12,33.94,58.33,34.5Z"/><path class="cls-8" d="M42.3,31.9c-.22.84,1.16,1.92,3.09,2.42s3.65.22,3.87-.62-1.17-1.92-3.09-2.42S42.52,31.06,42.3,31.9Z"/><path class="cls-6" d="M59.8,23.35A4.86,4.86,0,0,0,55,27.49a3.18,3.18,0,0,0-2.33.05,5.3,5.3,0,0,0-10.22-1.28l-7-1.14-.13.8L42.22,27a5.19,5.19,0,0,0-.12,1.12,5.3,5.3,0,0,0,10.6.26,2.33,2.33,0,0,1,2.26,0,4.85,4.85,0,1,0,4.84-5.06Zm-12.39,9.3a4.49,4.49,0,1,1,4.49-4.49A4.5,4.5,0,0,1,47.41,32.65Zm12.39-.41a4,4,0,1,1,4-4A4,4,0,0,1,59.8,32.24Z"/><path class="cls-1" d="M36.08,113.69l-1.6,1.87-4.22,4.92-.85,1S5.82,105.12,5.19,100.93,21.52,59.82,22.8,58.33a60.27,60.27,0,0,1,5.13-4.64l6.36,14.57-3.41,7.28h0L20.16,98.47Z"/><path class="cls-2" d="M36.08,113.69l-1.6,1.87L19.59,100.32s-1.63,1.49-2.85,1.18,1.56-2.36,1.63-2.41c-.1,0-2.46.81-3.12,0s3.39-1.89,3.39-1.89L30.07,72.53l.81,3h0L20.16,98.47Z"/><path class="cls-15" d="M30.26,120.48l-.85,1S5.82,105.12,5.19,100.93,21.52,59.82,22.8,58.33c0,0-16,40.63-15.56,42.4C7.58,102.18,24.4,115.78,30.26,120.48Z"/></svg>