<svg id="Layer_1" data-name="Layer 1" xmlns="http://www.w3.org/2000/svg" viewBox="0 0 75 92"><defs><style>.cls-1{fill:#ff9300;}.cls-2{fill:#cf691f;}.cls-3{fill:#85441d;}.cls-4{fill:#965326;}.cls-5{fill:#b5693c;}.cls-6{fill:#fff0e7;}.cls-7{fill:#fdbd8e;}.cls-8{fill:#fb9988;}.cls-9{fill:#ffdaba;}.cls-10{fill:#fd7d6f;}.cls-11{fill:#161818;}.cls-12{fill:#ffb800;}</style></defs><path class="cls-1" d="M72.3,122.54,68.83,124l-6,2.48-9.44-17.14-7.16-13,6.09-27.61.41-17.08s9.11,4.92,9.9,10.92S64.72,102,65.4,104.36,72.3,122.54,72.3,122.54Z"/><path class="cls-2" d="M68.83,124l-6,2.48-9.44-17.14,4.46-11V78.83S59.07,69,58.87,64.3c.66,3.87,1.75,11.79.38,15.86L59.8,100S67.77,117.72,68.83,124Z"/><path class="cls-1" d="M22.77,56.44c.28,1.28.85,3.43,1.62,7.42C25,66.94,25.77,70.43,26.62,74h0c2.56,10.8,5.67,22.21,5.6,24.86,0,0,13.8,8.29,25-1.08,0,0,.07-14.27.61-16.86S61.39,58.75,54.59,53a25.44,25.44,0,0,0-7.39-4.61,10.52,10.52,0,0,0-1.09-.33h0a6.63,6.63,0,0,0-1.66-.23H35.17A38.42,38.42,0,0,0,31.3,49c-2,.7-7,3.59-8.31,5.09v0a1.48,1.48,0,0,0-.26.37C22.5,54.93,22.54,55.39,22.77,56.44Z"/><path class="cls-2" d="M55.39,76.43l-.93,0-2.52-.16a25,25,0,0,0-7.9.52c-.74.19-1.49.42-2.24.62a17.63,17.63,0,0,1-6.07.6,6.93,6.93,0,0,1-1.49-.28,3.3,3.3,0,0,1-1-.53,2.22,2.22,0,0,1-.49-.52l-.12-.21.18.16a2.44,2.44,0,0,0,.58.32,4.63,4.63,0,0,0,2.35.13,27.43,27.43,0,0,0,3.55-.73c.65-.18,1.32-.39,2-.63s1.47-.51,2.29-.73a13.7,13.7,0,0,1,4.78-.36,21.49,21.49,0,0,1,3.75.73c1,.29,1.85.58,2.42.78Z"/><path class="cls-3" d="M60,33.32c0-.21-.11-.52-.21-.9a8.33,8.33,0,0,0-.47-1.29,5.7,5.7,0,0,0-1-1.44,5.47,5.47,0,0,0-1.39-1.05,7.6,7.6,0,0,0-1.29-.51L55.17,28c-.16-.16-.26-.24-.26-.24L55,28l-.27-.06-.34-.05.79.51.38.9a16.46,16.46,0,0,1,1.12,3.56,21.08,21.08,0,0,1,.18,3.75c0,.5,0,.91,0,1.2v.44s.07-.14.18-.41.27-.64.43-1.13a10.44,10.44,0,0,0,.43-1.77,7.56,7.56,0,0,0,0-2.28,7.12,7.12,0,0,0-.77-2.17,8.84,8.84,0,0,0-1-1.43,10.12,10.12,0,0,1,1.5,1.28,16.76,16.76,0,0,1,1.69,2.29l.5.77.19.27Z"/><path class="cls-3" d="M30.65,39.66a17.43,17.43,0,0,1-2.5,4.14c-2.23,2.82-5.35,5.21-8.93,5.45a12.42,12.42,0,0,0,4.72-3.17l-.66.41A12,12,0,0,1,15,47.8a10.17,10.17,0,0,0,2.3-4.35A15.32,15.32,0,0,0,17.83,40,50.2,50.2,0,0,0,17,31.5a82.55,82.55,0,0,1-.92-13.87c.13-3.69,1.33-7.7,4.13-10.25a6.3,6.3,0,0,1,9.39,1,5.59,5.59,0,0,1,.55.95,1.23,1.23,0,0,1,.05,1.35,9.94,9.94,0,0,1-1.12,1.22,8.24,8.24,0,0,0-2,4,5.35,5.35,0,0,1,.5.45A10.7,10.7,0,0,1,29.76,20,31.12,31.12,0,0,1,32,31.07,20.68,20.68,0,0,1,30.65,39.66Z"/><path class="cls-4" d="M29.6,8.41a5.67,5.67,0,0,1-.76,1.68,4.55,4.55,0,0,0-4,2.68,11.26,11.26,0,0,0-.9,5,46,46,0,0,0,.56,7.6,47.14,47.14,0,0,1,1,8c0,2.69-.89,5.52-3,7.23a10.57,10.57,0,0,0-.79-4.65,10.21,10.21,0,0,1-4.47,7.56A15.32,15.32,0,0,0,17.83,40a34.74,34.74,0,0,0-.5-6.18L17,31.5a82.55,82.55,0,0,1-.92-13.87c.13-3.69,1.33-7.7,4.13-10.25a6.42,6.42,0,0,1,5.47-1.52,6.23,6.23,0,0,1,1.54.53A6.55,6.55,0,0,1,29.6,8.41Z"/><path class="cls-5" d="M27.22,6.39c-1.69,1.17-3.4,2.33-4.26,4.16a11.31,11.31,0,0,0-.72,2.62,25.18,25.18,0,0,0-.51,3.66,61.17,61.17,0,0,0,.53,6.45,20.51,20.51,0,0,1-.93,7.54A13.33,13.33,0,0,0,20,27.51a11.68,11.68,0,0,1-2.62,6.27L17,31.5a82.55,82.55,0,0,1-.92-13.87c.13-3.69,1.33-7.7,4.13-10.25a6.42,6.42,0,0,1,5.47-1.52A6.23,6.23,0,0,1,27.22,6.39Z"/><path class="cls-6" d="M33.48,11.22a3.67,3.67,0,1,1-3.67-3.67A3.67,3.67,0,0,1,33.48,11.22Z"/><path class="cls-6" d="M47.2,48.43l1,11L43.33,57l-2.52-3.12s0-4,0-6h3.67a7,7,0,0,1,1.65.23h0C46.43,48.18,46.79,48.29,47.2,48.43Z"/><path class="cls-7" d="M43.33,57l-8.16-9.09c0-1.36.13-1.86.25-5.21.14-3.72.27-7.2.27-7.2l10.5,4.15a24.59,24.59,0,0,0-1.88,8.46A68.47,68.47,0,0,1,43.33,57Z"/><path class="cls-8" d="M46.19,39.62a24.59,24.59,0,0,0-1.88,8.46c-.33.14-.66.27-1,.37-1.22.43-5.13-3.05-7.93-5.78.14-3.72.27-7.2.27-7.2Z"/><path class="cls-7" d="M57.2,27.15c-.22,1-.49,2-.83,3.05,0,0,.47,5.26-.08,6.44s-4.09,8.52-7.8,8.06c-3.1-.38-10.68-4.92-13.32-7.62a3.15,3.15,0,0,1-.91-1.35c-.36-2.08-1.61-11.28-1.72-12-.32-2.09-1.19-17.88,17.9-13.49a9.21,9.21,0,0,1,6.93,6.9A23.14,23.14,0,0,1,57.2,27.15Z"/><path class="cls-3" d="M60.2,17.33a8.35,8.35,0,0,1-.5,2.46,8.82,8.82,0,0,1-2.61,4.27,26.82,26.82,0,0,0-.29-6.39c-4.55,5-14.08,6.66-14.46,6.73,1.8-.56,2.34-4.17,2.34-4.17C42.51,25.31,33,26.35,33,26.35,30.69,24.5,29.1,28,29.1,28c-.77-1.43-1.41-2.72-1.91-3.92-.13-.31-.26-.62-.37-.92a12.86,12.86,0,0,1-.65-2.45C24.9,13.09,30.6,5.62,37.94,3.49h0c6.94-2,15.14-.17,19,3.66a7.88,7.88,0,0,1,1.65,2.28,2.87,2.87,0,0,1,.15.37l.05.12a6,6,0,0,1,.37,2.24A7.89,7.89,0,0,1,59,13.55,7.5,7.5,0,0,1,60.2,17.33Z"/><path class="cls-4" d="M58.76,9.8a5.64,5.64,0,0,1-1.3.53c-.92.24-1.88.26-2.8.5a5.81,5.81,0,0,0-2.89,1.8c-1.34,1.53-1.94,3.8-3.76,4.73a5.78,5.78,0,0,1-4.12.07,14.54,14.54,0,0,0-4.13-.85,7.76,7.76,0,0,0-5.55,3.25,6.53,6.53,0,0,1-1.33,1.44,4.29,4.29,0,0,1-2.64.56,10,10,0,0,1-4.07-1.11A13.64,13.64,0,0,1,27,13.49a17.14,17.14,0,0,1,11-10h0A22.85,22.85,0,0,1,51.59,4,14.58,14.58,0,0,1,57,7.15a7.88,7.88,0,0,1,1.65,2.28A2.87,2.87,0,0,1,58.76,9.8Z"/><path class="cls-5" d="M51.59,4c-2.24,1.83-3.38,5-6.09,6-1.58.59-3.32.28-5,.09s-3.51-.2-4.83.83c-.69.55-1.16,1.32-1.81,1.91A6.13,6.13,0,0,1,28.63,14,9.66,9.66,0,0,1,27,13.49a17.14,17.14,0,0,1,11-10h0A22.85,22.85,0,0,1,51.59,4Z"/><path class="cls-9" d="M56.37,30.2s.47,5.26-.08,6.44-4.09,8.52-7.8,8.06c-3.1-.38-10.68-4.92-13.32-7.62C38.4,39.32,47,45,49.53,44.16c3.13-1.09,6.66-8,6.59-8.69s-.27-5.17-.27-5.17.63-1.42,1.35-3.15C57,28.12,56.71,29.14,56.37,30.2Z"/><path class="cls-9" d="M35.11,35.47A7.27,7.27,0,0,1,30,32.66a5.55,5.55,0,0,1-.51-.75c-.68-1.24-.88-5.55.88-6.55,1.24-.7,2.14.32,2.56,1h0a3.36,3.36,0,0,1,.28.51Z"/><path class="cls-7" d="M35.11,35.47A7.27,7.27,0,0,1,30,32.66c-.08-.12-.16-.23-.22-.34-.68-1.24-.88-5.55.89-6.55a1.68,1.68,0,0,1,2.26.58h0a3.36,3.36,0,0,1,.28.51Z"/><path class="cls-8" d="M29.86,28.78a1.8,1.8,0,0,0,.08,1c.48,1.44,1.92,2.54,3.3,3.57a3.63,3.63,0,0,1-.48-2.26,7.43,7.43,0,0,0,.09-.81C32.86,29.25,30.38,26.75,29.86,28.78Z"/><path class="cls-10" d="M33.94,33.81l-.08-.05-.22-.13a2.81,2.81,0,0,1-1.25-1.76,2.42,2.42,0,0,1,.18-1.52.69.69,0,0,1,.1-.19l0-.05h0l0,0,0-.08c0-.06-.07-.11-.1-.16a6.42,6.42,0,0,0-.42-.6c-.14-.18-.29-.35-.44-.51a3.19,3.19,0,0,0-.44-.4,1,1,0,0,0-.44-.2.73.73,0,0,0-.38.06.37.37,0,0,0-.17.15.18.18,0,0,0,0,.08.45.45,0,0,1,0-.08.32.32,0,0,1,.14-.2A.79.79,0,0,1,30.8,28a1.11,1.11,0,0,1,.59.17,3.12,3.12,0,0,1,.54.38c.17.15.35.32.53.5a5,5,0,0,1,.49.61c0,.05.07.11.11.17l0,.08.07.12,0,.09a.41.41,0,0,1,0,.09l-.07.12a1.19,1.19,0,0,0-.08.16,2.52,2.52,0,0,0-.23,1.35,2.86,2.86,0,0,0,.37,1.09,3.12,3.12,0,0,0,.52.67l.18.16Z"/><path class="cls-6" d="M43.33,57l-6.19,4.84L31.3,49a36.77,36.77,0,0,1,3.87-1.14Z"/><path class="cls-3" d="M37.45,30.48a8.71,8.71,0,0,0-.21-.89,8,8,0,0,0-.47-1.3,5.61,5.61,0,0,0-1-1.44,5.2,5.2,0,0,0-1.39-1,7,7,0,0,0-1.29-.52l-.45-.11c-.16-.16-.26-.24-.26-.24l.08.2-.27-.05L31.88,25l.79.52.38.9A16.36,16.36,0,0,1,34.17,30a21.16,21.16,0,0,1,.18,3.75c0,.5,0,.91,0,1.2v.45l.18-.41A12.09,12.09,0,0,0,35,33.85a10.44,10.44,0,0,0,.43-1.77,7.25,7.25,0,0,0,0-2.28,7.12,7.12,0,0,0-.77-2.17,9.3,9.3,0,0,0-1-1.43,10.12,10.12,0,0,1,1.5,1.28,16.2,16.2,0,0,1,1.69,2.3l.5.76.19.28Z"/><path class="cls-4" d="M58.93,23.37s-2.44-3.27-3.8-2-.75,1.42-.75,1.42Z"/><path class="cls-4" d="M39.63,23.87s4.5-5.18,6.34-3.34c1.08,1.07.33,1.8.33,1.8Z"/><path class="cls-11" d="M45.65,24.4a3,3,0,0,1-1.44,1.24,1.24,1.24,0,0,0-.92-.48c-.88,0-1.59,1.14-1.59,2.55s.71,2.55,1.59,2.55,1.58-1.15,1.58-2.55a3.84,3.84,0,0,0-.19-1.21A4.63,4.63,0,0,0,45.65,24.4Z"/><path class="cls-11" d="M53.25,28h.18l.48,0a3.4,3.4,0,0,1,.61.06c.22,0,.47.11.77.16s.55.06.77.1a3.29,3.29,0,0,1,.6.15l.45.17.17.07s0-.06-.07-.17a3.1,3.1,0,0,0-.27-.44,1.91,1.91,0,0,0-.61-.52,3.28,3.28,0,0,0-1.81-.3,1.7,1.7,0,0,0-.76.29,2.05,2.05,0,0,0-.39.33Z"/><path class="cls-6" d="M40.19,26.29a3.57,3.57,0,0,0,1.52,1.26,3.65,3.65,0,0,0,2,.15,3.28,3.28,0,0,0-3.5-1.41Z"/><path class="cls-8" d="M49.37,33.58a2.71,2.71,0,0,0-1.2-.31,4,4,0,0,0,2.17,2.08.6.6,0,0,0,.23.06.77.77,0,0,0,.27-.11,4.63,4.63,0,0,0,1.36-1.21.89.89,0,0,0,.18-.33c.09-.4-.18-.31-.42-.22a3.3,3.3,0,0,1-.86.22A3.63,3.63,0,0,1,49.37,33.58Z"/><path class="cls-10" d="M50.42,35.12c.25-.22.52-.4.77-.61a6.35,6.35,0,0,0,.85-.87c-1.3-.9-1.29-2.26-1.22-3.8a4.31,4.31,0,0,1,.56-2A4,4,0,0,1,52,27a3.69,3.69,0,0,1,.41-.38,1.53,1.53,0,0,1,.45-.25c-.08.09-.14.2-.21.29-.19.25-.39.48-.55.74A5.56,5.56,0,0,0,51.31,30a4.6,4.6,0,0,0,.29,1.8,3.57,3.57,0,0,0,1.31,1.68s-.89,1-1,1.13a5.26,5.26,0,0,1-.74.58,1.69,1.69,0,0,1-.88.35.55.55,0,0,1-.28-.09.57.57,0,0,0,.15-.12l.06-.06Z"/><path class="cls-10" d="M46.5,39.18a3.79,3.79,0,0,0,3.16.09,1.59,1.59,0,0,1-1.44.78A2.68,2.68,0,0,1,46.5,39.18Z"/><path class="cls-10" d="M42.82,36.41a9.5,9.5,0,0,0,8.77,1.2,13.71,13.71,0,0,1-4.78,0A10.8,10.8,0,0,1,42.82,36.41Z"/><path class="cls-8" d="M54.27,34.13c.21.55,1.42.62,2.69.14S59.11,33,58.9,32.4s-1.42-.63-2.69-.15S54.07,33.57,54.27,34.13Z"/><path class="cls-8" d="M38.21,31.52c-.21.84,1.17,1.93,3.1,2.43s3.66.22,3.88-.62S44,31.4,42.1,30.9,38.43,30.68,38.21,31.52Z"/><path class="cls-6" d="M55.75,23A4.86,4.86,0,0,0,51,27.11a3.16,3.16,0,0,0-2.34.05,5.31,5.31,0,0,0-10.24-1.29l-7-1.14-.13.8,6.89,1.13A5.82,5.82,0,0,0,38,27.78,5.32,5.32,0,0,0,48.64,28a2.35,2.35,0,0,1,2.26,0A4.86,4.86,0,1,0,55.75,23ZM43.33,32.28a4.51,4.51,0,1,1,4.5-4.5A4.51,4.51,0,0,1,43.33,32.28Zm12.42-.42a4,4,0,1,1,4-4A4.05,4.05,0,0,1,55.75,31.86Z"/><path class="cls-1" d="M6.56,100.9c1.54,2.86,36.12,7.71,36.12,7.71l.45-1.91,1.74-7.44.65-2.76L22.34,91.06s3.6-15.27,4.6-22.76a71.33,71.33,0,0,0,0-15.93c-4.88.93-9,6.35-12.15,13.25C8.44,79.36,5.53,99,6.56,100.9Z"/><path class="cls-2" d="M16.32,91.21a3.39,3.39,0,0,0,2.94,1.66s-1.91,4.65-1.17,4.51S21,93.76,21,93.76l23.9,5.5.65-2.76L22.34,91.06s5.17-23.33,5-24.32c-.23-1.42-6.89,23.44-6.89,23.44S15.3,89.45,16.32,91.21Z"/><path class="cls-12" d="M6.56,100.9c1.54,2.86,36.12,7.71,36.12,7.71l.45-1.91c-8.91-1.38-32.28-5.08-33.71-6.39s2.27-21.68,5.37-34.69C8.44,79.36,5.53,99,6.56,100.9Z"/></svg>