<svg id="Layer_1" data-name="Layer 1" xmlns="http://www.w3.org/2000/svg" viewBox="0 0 75 92"><defs><style>.cls-1{fill:#ff9300;}.cls-2{fill:#cf691f;}.cls-3{fill:#85441d;}.cls-4{fill:#965326;}.cls-5{fill:#b5693c;}.cls-6{fill:#fff0e7;}.cls-7{fill:#fdbd8e;}.cls-8{fill:#fb9988;}.cls-9{fill:#ffdaba;}.cls-10{fill:#fd7d6f;}.cls-11{fill:#161818;}.cls-12{fill:#fc5b68;}.cls-13{fill:#cf4a57;}.cls-14{fill:#006aab;}.cls-15{fill:#005789;}.cls-16{fill:#ffb800;}</style></defs><path class="cls-1" d="M51.35,97.77s.07-14.27.62-16.86S55.54,58.75,48.74,53a25.31,25.31,0,0,0-7.39-4.61c-.41-.14-.77-.25-1.09-.33h0a7,7,0,0,0-1.65-.23H29.33A36.53,36.53,0,0,0,25.45,49c-2.15.76-7.92,4.15-8.58,5.48-.48,1,.27,2.1,1.67,9.36,2.41,12.47,7.93,31.47,7.83,35C26.37,98.85,40.17,107.14,51.35,97.77Z"/><path class="cls-2" d="M49.54,76.43l-.93,0-2.51-.16a25.08,25.08,0,0,0-7.91.52c-.74.19-1.49.42-2.24.62a17.53,17.53,0,0,1-6.07.6,6.93,6.93,0,0,1-1.49-.28,3.13,3.13,0,0,1-1-.53,2.22,2.22,0,0,1-.49-.52,1.65,1.65,0,0,1-.12-.21l.18.16a2.34,2.34,0,0,0,.57.32,4.65,4.65,0,0,0,2.35.13,27.1,27.1,0,0,0,3.55-.73c.66-.18,1.32-.39,2-.63s1.46-.51,2.28-.73a13.73,13.73,0,0,1,4.78-.36,21.49,21.49,0,0,1,3.75.73c1,.29,1.86.58,2.42.78Z"/><path class="cls-3" d="M54.1,33.32c0-.21-.1-.52-.21-.9a7.4,7.4,0,0,0-.47-1.29,5.15,5.15,0,0,0-2.36-2.49,7.28,7.28,0,0,0-1.29-.51c-.16-.05-.31-.08-.45-.11s-.26-.24-.26-.24l.09.2-.28-.06-.34-.05.79.51.38.9a15.9,15.9,0,0,1,1.13,3.56A22,22,0,0,1,51,36.59c0,.5,0,.91,0,1.2s0,.44,0,.44l.18-.41c.11-.26.26-.64.42-1.13A10.44,10.44,0,0,0,52,34.92a7.25,7.25,0,0,0,0-2.28,6.63,6.63,0,0,0-.77-2.17,8.84,8.84,0,0,0-1-1.43,10.12,10.12,0,0,1,1.5,1.28,16.76,16.76,0,0,1,1.69,2.29l.5.77.19.27Z"/><path class="cls-3" d="M24.81,39.66A17.47,17.47,0,0,1,22.3,43.8C20.08,46.62,17,49,13.38,49.25a12.5,12.5,0,0,0,4.72-3.17c-.22.14-.44.28-.67.41A11.94,11.94,0,0,1,9.18,47.8a10.39,10.39,0,0,0,2.3-4.35A15.31,15.31,0,0,0,12,40a50.2,50.2,0,0,0-.83-8.46,81.51,81.51,0,0,1-.91-13.87c.12-3.69,1.32-7.7,4.13-10.25a6.29,6.29,0,0,1,9.38,1,5.59,5.59,0,0,1,.55.95c.24.5.37.89.06,1.35a9.29,9.29,0,0,1-1.13,1.22,8.22,8.22,0,0,0-2,4,5.23,5.23,0,0,1,.49.45A10.72,10.72,0,0,1,23.92,20a31.33,31.33,0,0,1,2.2,11.08A20.84,20.84,0,0,1,24.81,39.66Z"/><path class="cls-4" d="M23.75,8.41A5.43,5.43,0,0,1,23,10.09a4.53,4.53,0,0,0-4,2.68,11.26,11.26,0,0,0-.91,5,46,46,0,0,0,.57,7.6,47.12,47.12,0,0,1,1,8c0,2.69-.88,5.52-3,7.23A10.71,10.71,0,0,0,16,35.89a10.24,10.24,0,0,1-4.47,7.56A15.31,15.31,0,0,0,12,40a34.73,34.73,0,0,0-.49-6.18c-.12-.76-.23-1.52-.34-2.28a81.51,81.51,0,0,1-.91-13.87c.12-3.69,1.32-7.7,4.13-10.25a6.26,6.26,0,0,1,7-1A6.52,6.52,0,0,1,23.75,8.41Z"/><path class="cls-5" d="M21.38,6.39c-1.7,1.17-3.41,2.33-4.26,4.16a11.33,11.33,0,0,0-.73,2.62,25.18,25.18,0,0,0-.51,3.66,64,64,0,0,0,.53,6.45,20.5,20.5,0,0,1-.92,7.54,13.36,13.36,0,0,0-1.39-3.31,11.67,11.67,0,0,1-2.61,6.27c-.12-.76-.23-1.52-.34-2.28a81.51,81.51,0,0,1-.91-13.87c.12-3.69,1.32-7.7,4.13-10.25a6.26,6.26,0,0,1,7-1Z"/><path class="cls-6" d="M27.64,11.22A3.67,3.67,0,1,1,24,7.55,3.68,3.68,0,0,1,27.64,11.22Z"/><path class="cls-6" d="M41.35,48.43l1,11L37.48,57,35,53.85s0-4,0-6h3.67a7,7,0,0,1,1.65.23h0C40.58,48.18,40.94,48.29,41.35,48.43Z"/><path class="cls-7" d="M37.48,57l-8.15-9.09c0-1.36.13-1.86.25-5.21.13-3.72.26-7.2.26-7.2l10.5,4.15a24.82,24.82,0,0,0-1.88,8.46A68.47,68.47,0,0,1,37.48,57Z"/><path class="cls-8" d="M40.34,39.62a24.82,24.82,0,0,0-1.88,8.46c-.33.14-.65.27-1,.37-1.21.43-5.13-3.05-7.92-5.78.13-3.72.26-7.2.26-7.2Z"/><path class="cls-7" d="M51.35,27.15c-.21,1-.48,2-.82,3.05,0,0,.47,5.26-.08,6.44s-4.09,8.52-7.81,8.06c-3.1-.38-10.68-4.92-13.31-7.62a3.1,3.1,0,0,1-.92-1.35c-.36-2.08-1.6-11.28-1.72-12C26.38,21.59,25.5,5.8,44.6,10.19a9.22,9.22,0,0,1,6.93,6.9A23.17,23.17,0,0,1,51.35,27.15Z"/><path class="cls-3" d="M54.35,17.33a8,8,0,0,1-.5,2.46,8.82,8.82,0,0,1-2.61,4.27A26.81,26.81,0,0,0,51,17.67c-4.56,5-14.08,6.66-14.47,6.73,1.81-.56,2.35-4.17,2.35-4.17-2.18,5.08-11.71,6.12-11.71,6.12C24.84,24.5,23.26,28,23.26,28a42.15,42.15,0,0,1-1.92-3.92c-.13-.31-.25-.62-.36-.92a12.2,12.2,0,0,1-.66-2.45c-1.27-7.63,4.43-15.1,11.77-17.23h0c6.94-2,15.14-.17,19,3.66a8,8,0,0,1,1.64,2.28c.06.12.11.25.16.37s0,.08,0,.12a5.84,5.84,0,0,1,.38,2.24,7.89,7.89,0,0,1-.17,1.39A7.5,7.5,0,0,1,54.35,17.33Z"/><path class="cls-4" d="M52.92,9.8a5.54,5.54,0,0,1-1.31.53c-.92.24-1.88.26-2.8.5a5.9,5.9,0,0,0-2.89,1.8c-1.34,1.53-1.94,3.8-3.75,4.73a5.81,5.81,0,0,1-4.13.07,14.48,14.48,0,0,0-4.12-.85,7.74,7.74,0,0,0-5.55,3.25A6.57,6.57,0,0,1,27,21.27a4.26,4.26,0,0,1-2.63.56,10,10,0,0,1-4.08-1.11,13.65,13.65,0,0,1,.8-7.23,17.1,17.1,0,0,1,11-10h0A22.85,22.85,0,0,1,45.74,4a14.71,14.71,0,0,1,5.38,3.19,8,8,0,0,1,1.64,2.28C52.82,9.55,52.87,9.68,52.92,9.8Z"/><path class="cls-5" d="M45.74,4c-2.24,1.83-3.38,5-6.09,6-1.57.59-3.32.28-5,.09s-3.51-.2-4.84.83c-.69.55-1.15,1.32-1.81,1.91A6.12,6.12,0,0,1,22.78,14a9.81,9.81,0,0,1-1.66-.48,17.1,17.1,0,0,1,11-10h0A22.85,22.85,0,0,1,45.74,4Z"/><path class="cls-9" d="M50.53,30.2s.47,5.26-.08,6.44-4.09,8.52-7.81,8.06c-3.1-.38-10.68-4.92-13.31-7.62,3.23,2.24,11.83,8,14.35,7.08,3.13-1.09,6.67-8,6.6-8.69S50,30.3,50,30.3s.63-1.42,1.34-3.15C51.14,28.12,50.87,29.14,50.53,30.2Z"/><path class="cls-9" d="M29.27,35.47a7.27,7.27,0,0,1-5.08-2.81,5.55,5.55,0,0,1-.51-.75c-.68-1.24-.88-5.55.89-6.55,1.23-.7,2.13.32,2.56,1h0a5,5,0,0,1,.28.51Z"/><path class="cls-7" d="M29.27,35.47a7.27,7.27,0,0,1-5.08-2.81c-.08-.12-.15-.23-.21-.34-.69-1.24-.88-5.55.88-6.55a1.69,1.69,0,0,1,2.27.58h0a5,5,0,0,1,.28.51Z"/><path class="cls-8" d="M24,28.78a1.88,1.88,0,0,0,.08,1c.48,1.44,1.93,2.54,3.31,3.57a3.63,3.63,0,0,1-.49-2.26,7.43,7.43,0,0,0,.09-.81C27,29.25,24.53,26.75,24,28.78Z"/><path class="cls-10" d="M28.09,33.81,28,33.76l-.22-.13a3,3,0,0,1-.68-.61,2.81,2.81,0,0,1-.56-1.15,2.34,2.34,0,0,1,.17-1.52,1.14,1.14,0,0,1,.1-.19l0-.05h0s0,0,0,0l0,0,0-.08a.86.86,0,0,0-.1-.16c-.13-.21-.27-.41-.41-.6s-.3-.35-.45-.51a3.85,3.85,0,0,0-.43-.4,1,1,0,0,0-.45-.2.73.73,0,0,0-.38.06.37.37,0,0,0-.17.15.24.24,0,0,0,0,.08.17.17,0,0,1,0-.08.36.36,0,0,1,.14-.2A.82.82,0,0,1,25,28a1.11,1.11,0,0,1,.59.17,3.12,3.12,0,0,1,.54.38,6.17,6.17,0,0,1,.53.5,5,5,0,0,1,.49.61,1,1,0,0,1,.11.17l.06.08.07.12,0,.09,0,.09-.07.12a.65.65,0,0,0-.09.16A2.51,2.51,0,0,0,27,31.83a2.86,2.86,0,0,0,.36,1.09,3.92,3.92,0,0,0,.52.67l.19.16Z"/><path class="cls-6" d="M37.49,57l-6.2,4.84L25.45,49a36.53,36.53,0,0,1,3.88-1.14Z"/><path class="cls-3" d="M31.6,30.48a8.71,8.71,0,0,0-.21-.89,7.19,7.19,0,0,0-.47-1.3,5.56,5.56,0,0,0-1-1.44,5.09,5.09,0,0,0-1.4-1,6.69,6.69,0,0,0-1.29-.52l-.45-.11c-.16-.16-.26-.24-.26-.24l.09.2-.28-.05L26,25l.79.52.38.9A15.8,15.8,0,0,1,28.33,30a22,22,0,0,1,.17,3.75c0,.5,0,.91,0,1.2s0,.45,0,.45.06-.15.18-.41.26-.65.42-1.14a10.44,10.44,0,0,0,.43-1.77,7.25,7.25,0,0,0,0-2.28,6.63,6.63,0,0,0-.77-2.17,8.65,8.65,0,0,0-1-1.43,10.12,10.12,0,0,1,1.5,1.28A16.2,16.2,0,0,1,31,29.78l.5.76.19.28Z"/><path class="cls-4" d="M53.08,23.37s-2.44-3.27-3.8-2-.74,1.42-.74,1.42Z"/><path class="cls-4" d="M33.79,23.87s4.5-5.18,6.34-3.34c1.07,1.07.32,1.8.32,1.8Z"/><path class="cls-11" d="M39.81,24.4a3,3,0,0,1-1.45,1.24,1.24,1.24,0,0,0-.92-.48c-.88,0-1.59,1.14-1.59,2.55s.71,2.55,1.59,2.55S39,29.11,39,27.71a3.84,3.84,0,0,0-.19-1.21A4.63,4.63,0,0,0,39.81,24.4Z"/><path class="cls-6" d="M34.34,26.29a3.26,3.26,0,0,0,3.5,1.41,3.26,3.26,0,0,0-3.5-1.41Z"/><path class="cls-11" d="M50.54,25.75a2,2,0,0,1-1,.86.87.87,0,0,0-.61-.28c-.66,0-1.2.86-1.2,1.92s.54,1.92,1.2,1.92,1.19-.86,1.19-1.92a2.81,2.81,0,0,0-.21-1.08A3.5,3.5,0,0,0,50.54,25.75Z"/><path class="cls-6" d="M51.15,27.31a2.86,2.86,0,0,1-1.11.85,2.8,2.8,0,0,1-1.38.16,2.66,2.66,0,0,1,2.49-1Z"/><path class="cls-8" d="M43.52,33.58a2.7,2.7,0,0,0-1.19-.31,3.93,3.93,0,0,0,2.16,2.08.6.6,0,0,0,.23.06A.64.64,0,0,0,45,35.3a4.67,4.67,0,0,0,1.37-1.21,1,1,0,0,0,.17-.33c.1-.4-.18-.31-.42-.22a3.11,3.11,0,0,1-.86.22A3.63,3.63,0,0,1,43.52,33.58Z"/><path class="cls-10" d="M44.58,35.12c.24-.22.52-.4.77-.61a7,7,0,0,0,.85-.87c-1.31-.9-1.29-2.26-1.23-3.8a4.44,4.44,0,0,1,.56-2,4.38,4.38,0,0,1,.64-.89,4.86,4.86,0,0,1,.41-.38,1.53,1.53,0,0,1,.45-.25c-.08.09-.13.2-.21.29-.19.25-.39.48-.55.74a6.58,6.58,0,0,0-.42.84A5.45,5.45,0,0,0,45.46,30a4.43,4.43,0,0,0,.3,1.8,3.55,3.55,0,0,0,1.3,1.68s-.89,1-1,1.13a4.74,4.74,0,0,1-.74.58,1.69,1.69,0,0,1-.87.35.58.58,0,0,1-.29-.09.61.61,0,0,0,.16-.12l.06-.06Z"/><path class="cls-10" d="M44.13,40.81a4.68,4.68,0,0,1-3.9-.36,2,2,0,0,0,1.66,1.18A3.34,3.34,0,0,0,44.13,40.81Z"/><path class="cls-12" d="M37.9,36.05A6.29,6.29,0,0,0,39.54,39a4.75,4.75,0,0,0,2.51,1.31,4.18,4.18,0,0,0,2.81-.43,6.85,6.85,0,0,0,2.57-2.57A21.6,21.6,0,0,0,37.91,36Z"/><path class="cls-6" d="M37.9,36.05s.09.32.9.77a35.63,35.63,0,0,0,7.26,1.08,3.2,3.2,0,0,0,1.37-.61A21.6,21.6,0,0,0,37.91,36Z"/><path class="cls-13" d="M39.54,39a4.75,4.75,0,0,0,2.51,1.31,4.18,4.18,0,0,0,2.81-.43C43.86,39.12,41.54,37.74,39.54,39Z"/><path class="cls-8" d="M48.43,34.13c.21.55,1.41.62,2.69.14S53.26,33,53.05,32.4s-1.41-.63-2.69-.15S48.22,33.57,48.43,34.13Z"/><path class="cls-8" d="M32.37,31.52c-.22.84,1.16,1.93,3.09,2.43s3.66.22,3.88-.62-1.17-1.93-3.09-2.43S32.59,30.68,32.37,31.52Z"/><path class="cls-6" d="M49.9,23a4.87,4.87,0,0,0-4.8,4.15,3.16,3.16,0,0,0-2.34.05,5.31,5.31,0,0,0-10.23-1.29l-7-1.14-.13.8,6.9,1.13a5.13,5.13,0,0,0-.12,1.12A5.31,5.31,0,0,0,42.79,28a2.35,2.35,0,0,1,2.26,0A4.86,4.86,0,1,0,49.9,23ZM37.49,32.28a4.51,4.51,0,1,1,4.5-4.5A4.51,4.51,0,0,1,37.49,32.28Zm12.41-.42a4,4,0,1,1,4.05-4A4,4,0,0,1,49.9,31.86Z"/><polygon class="cls-6" points="63.34 90.97 35.66 89.21 44.01 52.35 71.69 54.11 63.34 90.97"/><polygon class="cls-14" points="72.67 55.54 65.08 89.02 64.32 92.4 36.63 90.64 40.52 73.47 44.98 53.77 72.67 55.54"/><path class="cls-15" d="M65.08,89l-.76,3.38L36.63,90.64l3.89-17.16C42.81,79.6,49,86.65,65.08,89Z"/><path class="cls-1" d="M1.8,99.86c1.54,2.86,36.13,7.71,36.13,7.71l.44-1.92,1.74-7.43.65-2.77L17.58,90s3.6-15.28,4.6-22.77a70.58,70.58,0,0,0,0-15.92c-4.88.92-8.95,6.34-12.14,13.25C3.68,78.32.77,98,1.8,99.86Z"/><path class="cls-2" d="M11.57,90.16a3.37,3.37,0,0,0,2.93,1.67s-1.91,4.65-1.17,4.5,2.88-3.61,2.88-3.61l23.9,5.5.65-2.77L17.58,90s5.17-23.33,5-24.32c-.23-1.42-6.89,23.44-6.89,23.44S10.54,88.4,11.57,90.16Z"/><path class="cls-16" d="M1.8,99.86c1.54,2.86,36.13,7.71,36.13,7.71l.44-1.92c-8.91-1.37-32.28-5.07-33.71-6.38S6.93,77.58,10,64.58C3.68,78.32.77,98,1.8,99.86Z"/></svg>