<svg id="Layer_1" data-name="Layer 1" xmlns="http://www.w3.org/2000/svg" viewBox="0 0 75 92"><defs><style>.cls-1{fill:#ff9300;}.cls-2{fill:#cf691f;}.cls-3{fill:#85441d;}.cls-4{fill:#965326;}.cls-5{fill:#b5693c;}.cls-6{fill:#fff0e7;}.cls-7{fill:#fdbd8e;}.cls-8{fill:#fb9988;}.cls-9{fill:#ffdaba;}.cls-10{fill:#fd7d6f;}.cls-11{fill:#161818;}.cls-12{fill:#fc5b68;}.cls-13{fill:#fff;}.cls-14{fill:#006aab;}.cls-15{fill:#005789;}.cls-16{fill:#ffb800;}</style></defs><path class="cls-1" d="M-30.54,61.76l3-3.62,1.16-1.37S-3.4,70.32-.77,73.53c0,0,4.22-5.14,8.35-9.34,0,0,4.85-6.33,7.72-8.74l6.81,7.94-1.74,9.92C13,79.52,4.85,85.79,1,86.73-6.9,88.65-32.29,63.82-32.29,63.82Z"/><path class="cls-2" d="M20.63,71.83C12,78.51,2.39,85.54.2,85.33c-3.43-.33-23.51-18-30.74-23.57l-1.75,2.06S-6.9,88.65,1,86.73c3.83-.94,12-7.21,19.35-13.42Z"/><path class="cls-2" d="M55.5,109.29c-.3-.84-.52-1.48-.62-1.84-.68-2.41-2-35.84-2.81-41.84s-9.9-10.92-9.9-10.92l-.41,17.07L35.67,99.37l5.45,9.92Z"/><path class="cls-2" d="M52,109.29c-1.51-3.57-2.68-6.18-2.68-6.18l-.55-19.85c1.37-4.08.28-12-.38-15.86.2,4.67-1.06,14.53-1.06,14.53v19.43l-3.2,7.93Z"/><path class="cls-1" d="M47.51,100.72s.07-14.27.61-16.85S51.7,61.71,44.9,56a25.22,25.22,0,0,0-7.39-4.61,10.81,10.81,0,0,0-1.09-.34h0a6.11,6.11,0,0,0-1.65-.23H25.49A39.57,39.57,0,0,0,21.61,52c-2.15.77-7.92,4.15-8.58,5.48-.48.95.27,2.1,1.67,9.36,2.4,12.47,7.92,31.47,7.83,35C22.53,101.81,36.33,110.1,47.51,100.72Z"/><path class="cls-2" d="M45.7,79.39l-.93,0-2.51-.16a25.38,25.38,0,0,0-7.91.52c-.74.2-1.49.43-2.24.63a18.9,18.9,0,0,1-2.23.47,17,17,0,0,1-3.84.12,6.37,6.37,0,0,1-1.49-.28,3.52,3.52,0,0,1-1-.52A2.33,2.33,0,0,1,23,79.6l-.13-.21.18.15a2.28,2.28,0,0,0,.58.33A4.79,4.79,0,0,0,26,80a28.66,28.66,0,0,0,3.55-.72c.65-.18,1.32-.39,2-.64s1.46-.51,2.28-.72a13.5,13.5,0,0,1,4.78-.36,20.67,20.67,0,0,1,3.75.72c1,.29,1.85.58,2.42.79S45.7,79.39,45.7,79.39Z"/><path class="cls-3" d="M50.26,36.28a8.22,8.22,0,0,0-.21-.9,8,8,0,0,0-.47-1.3,5.61,5.61,0,0,0-1-1.44,4.91,4.91,0,0,0-1.39-1,6,6,0,0,0-1.29-.51L45.48,31l-.26-.24.08.2L45,30.88l-.34-.05.79.51.38.9A15.33,15.33,0,0,1,47,35.79a21.16,21.16,0,0,1,.18,3.75c0,.51,0,.92,0,1.2s0,.45,0,.45.06-.15.18-.41.26-.65.42-1.14a10.55,10.55,0,0,0,.43-1.76,7.32,7.32,0,0,0,0-2.29,7.22,7.22,0,0,0-.77-2.17,9.3,9.3,0,0,0-1-1.43,9.65,9.65,0,0,1,1.5,1.29,16.17,16.17,0,0,1,1.69,2.29l.5.76.19.28Z"/><path class="cls-3" d="M21,42.62a18.23,18.23,0,0,1-2.51,4.14C16.23,49.57,13.12,52,9.54,52.2A12.25,12.25,0,0,0,14.25,49a7.23,7.23,0,0,1-.66.4,12,12,0,0,1-8.26,1.32,10.28,10.28,0,0,0,2.3-4.35,15.41,15.41,0,0,0,.51-3.5,50.19,50.19,0,0,0-.83-8.45A81.57,81.57,0,0,1,6.4,20.59c.12-3.7,1.32-7.7,4.12-10.26a6.29,6.29,0,0,1,9.39,1,5.92,5.92,0,0,1,.55.94,1.21,1.21,0,0,1,.05,1.35,10,10,0,0,1-1.12,1.23,8.28,8.28,0,0,0-2,4,5.24,5.24,0,0,1,.5.44A10.58,10.58,0,0,1,20.07,23,31.08,31.08,0,0,1,22.28,34,20.84,20.84,0,0,1,21,42.62Z"/><path class="cls-4" d="M19.91,11.37A5.38,5.38,0,0,1,19.15,13a4.55,4.55,0,0,0-4,2.68,11.18,11.18,0,0,0-.91,5,46.18,46.18,0,0,0,.57,7.61,47.89,47.89,0,0,1,1,8c0,2.69-.89,5.51-3,7.23a10.62,10.62,0,0,0-.79-4.66,10.22,10.22,0,0,1-4.47,7.57,15.41,15.41,0,0,0,.51-3.5,35.57,35.57,0,0,0-.49-6.17c-.12-.76-.23-1.52-.34-2.28A81.57,81.57,0,0,1,6.4,20.59c.12-3.7,1.32-7.7,4.12-10.26A6.43,6.43,0,0,1,16,8.81a5.87,5.87,0,0,1,1.54.54A6.36,6.36,0,0,1,19.91,11.37Z"/><path class="cls-5" d="M17.53,9.35c-1.69,1.17-3.4,2.33-4.25,4.16a11.12,11.12,0,0,0-.73,2.61A25.18,25.18,0,0,0,12,19.78a63.48,63.48,0,0,0,.53,6.45,20.27,20.27,0,0,1-.93,7.54,12.9,12.9,0,0,0-1.38-3.3,11.81,11.81,0,0,1-2.61,6.27c-.12-.76-.23-1.52-.34-2.28A81.57,81.57,0,0,1,6.4,20.59c.12-3.7,1.32-7.7,4.12-10.26A6.43,6.43,0,0,1,16,8.81,5.87,5.87,0,0,1,17.53,9.35Z"/><path class="cls-6" d="M23.79,14.17a3.67,3.67,0,1,1-3.67-3.67A3.67,3.67,0,0,1,23.79,14.17Z"/><path class="cls-6" d="M37.51,51.39l1,11-4.85-2.46L31.12,56.8s0-4,0-6h3.67a6.11,6.11,0,0,1,1.65.23h0A10.81,10.81,0,0,1,37.51,51.39Z"/><path class="cls-7" d="M33.64,59.93l-8.15-9.1c0-1.35.12-1.86.25-5.2.13-3.72.26-7.21.26-7.21l10.5,4.15A24.88,24.88,0,0,0,34.62,51,68.85,68.85,0,0,1,33.64,59.93Z"/><path class="cls-8" d="M36.5,42.57A24.88,24.88,0,0,0,34.62,51c-.33.14-.65.27-1,.38-1.22.42-5.13-3-7.92-5.78.13-3.72.26-7.21.26-7.21Z"/><path class="cls-7" d="M47.51,30.1c-.21,1-.49,2-.82,3.06,0,0,.47,5.25-.09,6.43s-4.08,8.52-7.8,8.07c-3.1-.38-10.68-4.92-13.31-7.63a3.08,3.08,0,0,1-.92-1.34C24.21,36.6,23,27.4,22.85,26.63c-.32-2.08-1.19-17.88,17.9-13.48a9.18,9.18,0,0,1,6.93,6.9A22.94,22.94,0,0,1,47.51,30.1Z"/><path class="cls-3" d="M50.51,20.29a7.92,7.92,0,0,1-.5,2.45A8.82,8.82,0,0,1,47.4,27a27.35,27.35,0,0,0-.28-6.39c-4.56,5-14.09,6.67-14.47,6.73,1.8-.55,2.34-4.16,2.34-4.16-2.17,5.07-11.71,6.12-11.71,6.12C21,27.45,19.42,31,19.42,31A42.15,42.15,0,0,1,17.5,27l-.37-.91a13.16,13.16,0,0,1-.65-2.46C15.21,16.05,20.91,8.58,28.25,6.45h0c6.94-2,15.14-.17,19,3.67a7.89,7.89,0,0,1,1.64,2.28c.06.12.11.24.16.37s0,.07,0,.11a5.89,5.89,0,0,1,.38,2.25,8.68,8.68,0,0,1-.17,1.38A7.54,7.54,0,0,1,50.51,20.29Z"/><path class="cls-4" d="M49.08,12.76a6,6,0,0,1-1.31.52c-.92.25-1.88.26-2.8.51a5.9,5.9,0,0,0-2.89,1.8c-1.34,1.53-1.94,3.8-3.75,4.72a5.86,5.86,0,0,1-4.13.08,14.49,14.49,0,0,0-4.13-.86,7.82,7.82,0,0,0-5.55,3.26,6.46,6.46,0,0,1-1.33,1.43,4.28,4.28,0,0,1-2.64.57,10.19,10.19,0,0,1-4.07-1.12,13.61,13.61,0,0,1,.8-7.22,17.1,17.1,0,0,1,11-10h0a22.85,22.85,0,0,1,13.63.47,14.59,14.59,0,0,1,5.38,3.2,7.89,7.89,0,0,1,1.64,2.28C49,12.51,49,12.63,49.08,12.76Z"/><path class="cls-5" d="M41.9,6.91c-2.24,1.83-3.38,5-6.09,6.05-1.58.58-3.32.27-5,.08s-3.51-.2-4.83.84c-.69.54-1.16,1.32-1.81,1.91a6.12,6.12,0,0,1-5.24,1.14,9.31,9.31,0,0,1-1.66-.48,17.1,17.1,0,0,1,11-10h0A22.85,22.85,0,0,1,41.9,6.91Z"/><path class="cls-9" d="M46.69,33.16s.47,5.25-.09,6.43-4.08,8.52-7.8,8.07c-3.1-.38-10.68-4.92-13.31-7.63,3.22,2.24,11.83,8,14.35,7.08,3.13-1.08,6.66-8,6.6-8.69s-.28-5.17-.28-5.17.64-1.42,1.35-3.15C47.3,31.07,47,32.09,46.69,33.16Z"/><path class="cls-9" d="M25.42,38.42a7.3,7.3,0,0,1-5.07-2.8,7.18,7.18,0,0,1-.51-.75c-.68-1.25-.88-5.55.88-6.55,1.24-.7,2.14.31,2.57,1h0a4,4,0,0,1,.28.51Z"/><path class="cls-7" d="M25.42,38.42a7.3,7.3,0,0,1-5.07-2.8c-.08-.12-.15-.24-.21-.35-.69-1.24-.88-5.55.88-6.54a1.69,1.69,0,0,1,2.27.58h0a4,4,0,0,1,.28.51Z"/><path class="cls-8" d="M20.17,31.74a1.86,1.86,0,0,0,.08,1c.48,1.45,1.92,2.55,3.31,3.57a3.63,3.63,0,0,1-.49-2.26,7.53,7.53,0,0,0,.09-.8C23.17,32.2,20.69,29.7,20.17,31.74Z"/><path class="cls-10" d="M24.25,36.76l-.08,0L24,36.59a3.31,3.31,0,0,1-.68-.62,2.69,2.69,0,0,1-.56-1.15,2.34,2.34,0,0,1,.17-1.52,1.62,1.62,0,0,1,.1-.18l0,0h0L23,33l0-.08a1.4,1.4,0,0,0-.1-.16,6.79,6.79,0,0,0-.41-.59,5.83,5.83,0,0,0-.45-.51,4,4,0,0,0-.43-.41,1,1,0,0,0-.45-.2.72.72,0,0,0-.38.07.29.29,0,0,0-.17.15s0,.07,0,.07a.6.6,0,0,1,0-.08.35.35,0,0,1,.14-.19.82.82,0,0,1,.44-.14,1.21,1.21,0,0,1,.59.17,3.87,3.87,0,0,1,.54.39,4.81,4.81,0,0,1,.53.49,5.94,5.94,0,0,1,.49.61l.11.17.05.09.07.12.05.09,0,.08-.08.12a1.3,1.3,0,0,0-.08.17,2.49,2.49,0,0,0-.22,1.34,3,3,0,0,0,.36,1.1,2.8,2.8,0,0,0,.52.66l.18.17Z"/><path class="cls-6" d="M33.64,59.93l-6.19,4.84L21.61,52a39.57,39.57,0,0,1,3.88-1.14Z"/><path class="cls-3" d="M27.76,33.44a8.78,8.78,0,0,0-.21-.9,8,8,0,0,0-.47-1.29,5.44,5.44,0,0,0-1-1.45,5.3,5.3,0,0,0-1.4-1,7.28,7.28,0,0,0-1.29-.51L23,28.13l-.26-.24.08.2L22.53,28,22.19,28l.79.51.38.9A15.33,15.33,0,0,1,24.48,33a21.16,21.16,0,0,1,.18,3.75c0,.51,0,.92,0,1.2s0,.45,0,.45l.18-.41c.11-.26.26-.65.42-1.13A10.69,10.69,0,0,0,25.69,35a7.32,7.32,0,0,0,0-2.29,6.57,6.57,0,0,0-.77-2.16,9.44,9.44,0,0,0-1-1.44,10.22,10.22,0,0,1,1.5,1.29,16.17,16.17,0,0,1,1.69,2.29l.5.76.19.28Z"/><path class="cls-4" d="M49.24,26.32s-2.44-3.26-3.8-2-.75,1.43-.75,1.43Z"/><path class="cls-4" d="M30,26.82s4.49-5.18,6.34-3.34c1.07,1.08.32,1.81.32,1.81Z"/><path class="cls-11" d="M36,27.35a2.94,2.94,0,0,1-1.45,1.24,1.23,1.23,0,0,0-.92-.47c-.88,0-1.59,1.14-1.59,2.54s.71,2.55,1.59,2.55,1.58-1.14,1.58-2.55a3.82,3.82,0,0,0-.18-1.2A4.69,4.69,0,0,0,36,27.35Z"/><path class="cls-6" d="M30.5,29.24A3.25,3.25,0,0,0,34,30.66a3.26,3.26,0,0,0-3.5-1.42Z"/><path class="cls-11" d="M46.7,28.71a2,2,0,0,1-1,.85.91.91,0,0,0-.62-.28c-.66,0-1.19.86-1.19,1.92s.53,1.92,1.19,1.92,1.2-.86,1.2-1.92a2.81,2.81,0,0,0-.21-1.08A3.48,3.48,0,0,0,46.7,28.71Z"/><path class="cls-6" d="M47.31,30.27a2.79,2.79,0,0,1-1.11.84,2.88,2.88,0,0,1-1.38.17,2.78,2.78,0,0,1,1.1-.85A2.84,2.84,0,0,1,47.31,30.27Z"/><path class="cls-8" d="M39.68,36.53a2.85,2.85,0,0,0-1.19-.31,4,4,0,0,0,2.16,2.09.59.59,0,0,0,.23,0,.52.52,0,0,0,.27-.1A4.7,4.7,0,0,0,42.52,37a1,1,0,0,0,.17-.32c.1-.4-.18-.32-.42-.22a3.5,3.5,0,0,1-.86.22A3.77,3.77,0,0,1,39.68,36.53Z"/><path class="cls-10" d="M40.74,38.08c.24-.22.51-.41.76-.62a5.83,5.83,0,0,0,.85-.87c-1.3-.9-1.28-2.26-1.22-3.8a4.47,4.47,0,0,1,.56-2,4.31,4.31,0,0,1,.64-.88,5,5,0,0,1,.41-.39,1.79,1.79,0,0,1,.45-.25c-.08.09-.14.2-.21.29a8,8,0,0,0-.55.75A5.56,5.56,0,0,0,41.62,33a4.68,4.68,0,0,0,.29,1.81,3.57,3.57,0,0,0,1.31,1.68s-.89,1-1,1.12a3.79,3.79,0,0,1-.74.58,1.61,1.61,0,0,1-.88.35.48.48,0,0,1-.28-.08.64.64,0,0,0,.15-.13l.06-.06A1.54,1.54,0,0,1,40.74,38.08Z"/><path class="cls-12" d="M33,38.92s4.7-1.07,8.35,1.74c0,0-2.51,2.75-4.66,2.25C34.1,42.3,33,38.92,33,38.92Z"/><path class="cls-13" d="M33.25,39.07a22.37,22.37,0,0,1,7.87,1.6,4.41,4.41,0,0,1-4.49,1.56A4.55,4.55,0,0,1,33.25,39.07Z"/><path class="cls-8" d="M44.59,37.08c.2.56,1.41.62,2.69.14s2.14-1.31,1.93-1.87-1.41-.62-2.69-.14S44.38,36.52,44.59,37.08Z"/><path class="cls-8" d="M28.53,34.48c-.22.84,1.16,1.92,3.09,2.42s3.66.22,3.88-.62-1.17-1.92-3.09-2.42S28.74,33.64,28.53,34.48Z"/><path class="cls-6" d="M46.06,25.91a4.86,4.86,0,0,0-4.8,4.15,3.21,3.21,0,0,0-2.34.05,5.31,5.31,0,0,0-10.23-1.28l-7-1.15-.13.81,6.9,1.12a5.19,5.19,0,0,0-.12,1.12A5.31,5.31,0,0,0,39,31a2.33,2.33,0,0,1,2.26,0,4.86,4.86,0,1,0,4.85-5.07ZM33.64,35.23a4.5,4.5,0,1,1,4.51-4.5A4.51,4.51,0,0,1,33.64,35.23Zm12.42-.41a4,4,0,1,1,4-4.05A4.05,4.05,0,0,1,46.06,34.82Z"/><polygon class="cls-6" points="68.93 90.28 42.58 98.95 36.6 61.63 62.95 52.95 68.93 90.28"/><polygon class="cls-14" points="64.38 53.91 69.81 87.82 70.36 91.24 44.01 99.91 41.23 82.53 38.03 62.59 64.38 53.91"/><path class="cls-15" d="M69.81,87.82l.55,3.42L44,99.91,41.23,82.53C45.63,87.37,54,91.59,69.81,87.82Z"/><path class="cls-7" d="M70,70.55A2.48,2.48,0,0,1,69.32,72a16.32,16.32,0,0,1-1.21,1.28l-.13.11a3.9,3.9,0,0,1-.63.46l-.24.13a2.37,2.37,0,0,1-.87.24c-.48,0-.82-.55-.63-1.14a5.14,5.14,0,0,1,1.12-1.91,7.17,7.17,0,0,1,2.21-1.53C69.56,69.4,70,69.54,70,70.55Z"/><path class="cls-7" d="M69.76,73.88a2.48,2.48,0,0,1-.64,1.44c-.25.28-.51.57-.77.84l-.32.32a5.31,5.31,0,0,1-.89.69l-.18.1a2.43,2.43,0,0,1-.92.27c-.49,0-.81-.56-.63-1.14a4.94,4.94,0,0,1,1.13-1.92,7.21,7.21,0,0,1,.57-.52,9.94,9.94,0,0,1,.83-.6l.17-.1C69,72.74,69.87,72.56,69.76,73.88Z"/><path class="cls-7" d="M70.16,76.69a2.41,2.41,0,0,1-.63,1.43c-.32.35-.64.72-1,1-.11.11-.21.21-.32.3a4.56,4.56,0,0,1-.68.5,2.49,2.49,0,0,1-.43.22,2.31,2.31,0,0,1-.68.15c-.48,0-.81-.55-.62-1.14a5,5,0,0,1,1.12-1.91l0,0a8.2,8.2,0,0,1,1.19-1l.2-.13C69.28,75.58,70.28,75.27,70.16,76.69Z"/><path class="cls-7" d="M70,79.92a2.42,2.42,0,0,1-.64,1.43l-.15.18a9,9,0,0,1-1.82,1.68,2.59,2.59,0,0,1-1.11.36c-.48,0-.81-.55-.63-1.14a4.9,4.9,0,0,1,1.13-1.91,3,3,0,0,1,.35-.33,7.08,7.08,0,0,1,1.25-.91l.18-.11C69.35,78.76,70.09,78.69,70,79.92Z"/><path class="cls-9" d="M70,70.55A2.48,2.48,0,0,1,69.32,72a16.32,16.32,0,0,1-1.21,1.28c.88-.52,1.76-.7,1.65.62a2.48,2.48,0,0,1-.64,1.44c-.25.28-.51.57-.77.84.93-.58,1.93-.89,1.81.53a2.41,2.41,0,0,1-.63,1.43c-.32.35-.64.72-1,1,.8-.41,1.54-.48,1.44.75a2.42,2.42,0,0,1-.64,1.43l-.15.18c0-.06,0-.11,0-.17a2.76,2.76,0,0,0-.16-1.24c-.16-.37-.49-.68-.82-.65h0l.17-.19A2.75,2.75,0,0,0,69,77.77c0-.69-.59-1.46-1.09-1.17a.83.83,0,0,1,.08-.12l.12-.19a3.2,3.2,0,0,0,.58-1.45A1.45,1.45,0,0,0,68,73.37h0l-.14,0A5,5,0,0,0,69,70.6c0-.3,0-.64,0-1C69.56,69.4,70,69.54,70,70.55Z"/><path class="cls-16" d="M-27.51,58.14l1.16-1.37S-3.4,70.32-.77,73.53c0,0,8.54-13.24,16.07-18.08,0,0-5.47,6.92-8.09,10.15L-.41,75c.21.3.38.61.51.8A15.91,15.91,0,0,1,1.69,79c.07.2.12.46-.05.58s-.45,0-.61-.24c-.9-1-1.81-2.08-2.72-3.11a4.45,4.45,0,0,1-2,2.38,7.88,7.88,0,0,1,1.25-4C-7.42,70.57-22.41,62-27.51,58.14Z"/></svg>