<svg id="Layer_1" data-name="Layer 1" xmlns="http://www.w3.org/2000/svg" viewBox="0 0 75 92"><defs><style>.cls-1{fill:#fb9988;}.cls-2{fill:#fdbd8e;}.cls-3{fill:#171228;}.cls-4{fill:#28b69a;}.cls-5{fill:#909aa3;}.cls-6{fill:#ff9300;}.cls-7{fill:#cf691f;}.cls-8{fill:#85441d;}.cls-9{fill:#965326;}.cls-10{fill:#b5693c;}.cls-11{fill:#fff0e7;}.cls-12{fill:#ffdaba;}.cls-13{fill:#fd7d6f;}.cls-14{fill:#161818;}.cls-15{fill:#fc5b68;}.cls-16{fill:#fff;}.cls-17{fill:#ffb800;}</style></defs><polygon class="cls-1" points="60.96 37.3 58.86 33.73 55.14 35.78 57.55 39.61 60.96 37.3"/><path class="cls-2" d="M57.08,39.93l.47-.32L58,37.82a5.08,5.08,0,0,0-2.17-3.57A2.33,2.33,0,0,0,54.79,34a7.24,7.24,0,0,0-1.58.12,18.59,18.59,0,0,0-3.15.92,24.48,24.48,0,0,0-2.69-2.46c-.53-.4-.84-.45-1-.38s-.25.48-.25.48l3,5.77A41.77,41.77,0,0,0,55.52,41Z"/><rect class="cls-3" x="47.35" y="23.37" width="10" height="16.56" rx="0.7" transform="translate(-8.75 34.77) rotate(-34.08)"/><rect class="cls-4" x="48.07" y="24.72" width="7.92" height="12.91" transform="matrix(0.83, -0.56, 0.56, 0.83, -8.53, 34.51)"/><path class="cls-5" d="M56.9,37a.75.75,0,1,1-1-.2A.75.75,0,0,1,56.9,37Z"/><path class="cls-2" d="M57.36,23.76a2,2,0,0,1-.18,1.3c-.23.47-.46,1-.73,1.4a1,1,0,0,0-.08.14,6.31,6.31,0,0,1-.44.58l-.18.19a2.64,2.64,0,0,1-.7.5.6.6,0,0,1-.86-.6,4.32,4.32,0,0,1,.49-1.85,7.45,7.45,0,0,1,1.53-2C56.7,23.06,57.16,23,57.36,23.76Z"/><path class="cls-2" d="M58.07,26.3a1.93,1.93,0,0,1-.17,1.31c-.16.3-.3.61-.46.91l-.2.36a5.72,5.72,0,0,1-.59.84l-.14.15a2.76,2.76,0,0,1-.74.54.6.6,0,0,1-.86-.6A4.1,4.1,0,0,1,55.39,28a4.87,4.87,0,0,1,.36-.6,9.13,9.13,0,0,1,.58-.77l.12-.14C57.09,25.75,57.82,25.28,58.07,26.3Z"/><path class="cls-2" d="M59.18,28.22A2,2,0,0,1,59,29.53c-.19.38-.37.77-.58,1.14-.07.12-.14.24-.21.34a3.64,3.64,0,0,1-.46.63,2.57,2.57,0,0,1-.33.33,2.48,2.48,0,0,1-.55.36.6.6,0,0,1-.86-.6,4.24,4.24,0,0,1,.49-1.84v0a7.41,7.41,0,0,1,.79-1.18,2.09,2.09,0,0,1,.14-.17C58.1,27.74,58.91,27.13,59.18,28.22Z"/><path class="cls-2" d="M59.88,30.68a1.91,1.91,0,0,1-.17,1.3l-.09.19a8.32,8.32,0,0,1-1.16,1.93,2.64,2.64,0,0,1-.88.69.6.6,0,0,1-.86-.6,4.32,4.32,0,0,1,.49-1.85,3.34,3.34,0,0,1,.21-.37,8.79,8.79,0,0,1,.86-1.15l.14-.15C59,30.06,59.65,29.74,59.88,30.68Z"/><path class="cls-1" d="M57.36,23.76a2,2,0,0,1-.18,1.3c-.23.47-.46,1-.73,1.4.64-.71,1.37-1.18,1.62-.16a1.93,1.93,0,0,1-.17,1.31c-.16.3-.3.61-.46.91.66-.78,1.47-1.39,1.74-.3A2,2,0,0,1,59,29.53c-.19.38-.37.77-.58,1.14.59-.61,1.23-.93,1.46,0a1.91,1.91,0,0,1-.17,1.3l-.09.19,0-.13a1.85,1.85,0,0,0-.48-.85.84.84,0,0,0-.9-.18l0,0,.09-.21a2,2,0,0,0,.19-1.37c-.16-.52-.9-.86-1.27-.46,0,0,0-.07,0-.11l.06-.19a2.39,2.39,0,0,0,.12-1.29,1,1,0,0,0-1.05-.8h0l-.12,0a4,4,0,0,0,.29-2.47,5.9,5.9,0,0,0-.29-.71C56.7,23.06,57.16,23,57.36,23.76Z"/><path class="cls-6" d="M43.5,68.11s2.41,1.36,5.85,3h0c7.08,3.41,18.52,8.1,22.38,4.9,11.78-9.74-9.32-37.48-10.26-39.31L61,37l-8,4.72C57,49.62,64.25,59.56,63,60.65,59.22,59.2,45.18,52.8,45.18,52.8Z"/><path class="cls-7" d="M49.35,71.13h0c7.08,3.41,18.52,8.1,22.38,4.9,11.78-9.74-9.32-37.48-10.26-39.31L61,37v.29s18.2,30.55,10.41,36.5-21.86-5.32-21.86-5.32Z"/><path class="cls-6" d="M13.35,56.2c.28,1.28.86,3.43,1.63,7.42.59,3.09,1.38,6.57,2.22,10.13h0c2.57,10.8,5.68,22.21,5.61,24.86,0,0,13.8,8.29,25-1.08,0,0,.08-14.27.62-16.85S52,58.51,45.18,52.8a25.33,25.33,0,0,0-7.4-4.61c-.4-.15-.76-.25-1.09-.34h0A7,7,0,0,0,35,47.62H25.76a38.42,38.42,0,0,0-3.87,1.15c-2,.7-7,3.59-8.31,5.09,0,0,0,0,0,0a1.9,1.9,0,0,0-.27.37C13.09,54.68,13.12,55.15,13.35,56.2Z"/><path class="cls-7" d="M46,76.19l-.93,0L42.53,76a25,25,0,0,0-7.9.52c-.75.19-1.49.42-2.24.63a18.82,18.82,0,0,1-2.23.46,17.67,17.67,0,0,1-3.84.13,6.81,6.81,0,0,1-1.49-.28,3.3,3.3,0,0,1-1-.53,2.22,2.22,0,0,1-.49-.52l-.12-.21.18.16a2.25,2.25,0,0,0,.58.32,4.63,4.63,0,0,0,2.35.13,27.43,27.43,0,0,0,3.55-.73c.65-.18,1.31-.39,2-.63s1.47-.51,2.29-.73a13.66,13.66,0,0,1,4.77-.36,21.13,21.13,0,0,1,3.75.73c1,.29,1.86.58,2.42.78Z"/><path class="cls-8" d="M50.54,33.08c0-.21-.11-.52-.21-.89a8.18,8.18,0,0,0-.48-1.3,5.15,5.15,0,0,0-2.36-2.49,7.28,7.28,0,0,0-1.29-.51c-.16-.05-.31-.08-.44-.11l-.27-.24.09.2-.28-.06L45,27.63l.78.51c.11.25.24.55.39.91a16.18,16.18,0,0,1,1.12,3.55,22.07,22.07,0,0,1,.18,3.75c0,.5,0,.91,0,1.2s0,.44,0,.44.07-.14.18-.41.27-.64.43-1.13a11.58,11.58,0,0,0,.42-1.77,7,7,0,0,0,0-2.28,6.86,6.86,0,0,0-.76-2.17,8.83,8.83,0,0,0-1-1.43,10.17,10.17,0,0,1,1.51,1.28,17.65,17.65,0,0,1,1.69,2.29l.5.77.19.28Z"/><path class="cls-8" d="M21.24,39.42a17.43,17.43,0,0,1-2.5,4.14c-2.23,2.82-5.35,5.21-8.93,5.45a12.42,12.42,0,0,0,4.72-3.17l-.66.41a12,12,0,0,1-8.26,1.31,10.28,10.28,0,0,0,2.3-4.35,15.32,15.32,0,0,0,.51-3.49,50.2,50.2,0,0,0-.83-8.46,82.48,82.48,0,0,1-.92-13.87C6.8,13.7,8,9.69,10.8,7.14a6.29,6.29,0,0,1,9.39,1,5.79,5.79,0,0,1,.55.94,1.23,1.23,0,0,1,.05,1.35,9.94,9.94,0,0,1-1.12,1.22,8.24,8.24,0,0,0-2,4,5.23,5.23,0,0,1,.49.45,10.72,10.72,0,0,1,2.2,3.58,31.34,31.34,0,0,1,2.21,11.08A20.85,20.85,0,0,1,21.24,39.42Z"/><path class="cls-9" d="M20.19,8.18a5.73,5.73,0,0,1-.76,1.67,4.54,4.54,0,0,0-4,2.68,11.12,11.12,0,0,0-.9,5,44.91,44.91,0,0,0,.56,7.6,47.13,47.13,0,0,1,1,8c0,2.68-.89,5.51-3,7.22a10.72,10.72,0,0,0-.79-4.65,10.24,10.24,0,0,1-4.47,7.56,15.32,15.32,0,0,0,.51-3.49,35.7,35.7,0,0,0-.5-6.18c-.11-.76-.23-1.52-.33-2.28a82.48,82.48,0,0,1-.92-13.87C6.8,13.7,8,9.69,10.8,7.14a6.42,6.42,0,0,1,5.47-1.52,6.4,6.4,0,0,1,3.92,2.56Z"/><path class="cls-10" d="M17.81,6.15c-1.69,1.17-3.41,2.34-4.26,4.16a11.31,11.31,0,0,0-.72,2.62,25.18,25.18,0,0,0-.51,3.66A61.17,61.17,0,0,0,12.85,23a20.51,20.51,0,0,1-.93,7.54,13.72,13.72,0,0,0-1.38-3.31,11.68,11.68,0,0,1-2.62,6.27c-.11-.76-.23-1.52-.33-2.28a82.48,82.48,0,0,1-.92-13.87C6.8,13.7,8,9.69,10.8,7.14a6.42,6.42,0,0,1,5.47-1.52A6.53,6.53,0,0,1,17.81,6.15Z"/><path class="cls-11" d="M24.07,11A3.67,3.67,0,1,1,20.4,7.31,3.67,3.67,0,0,1,24.07,11Z"/><path class="cls-11" d="M37.78,48.19l1,11-4.84-2.47-2.53-3.12s0-4,0-6H35a7,7,0,0,1,1.65.23h0C37,47.94,37.38,48.05,37.78,48.19Z"/><path class="cls-2" d="M33.92,56.73l-8.16-9.09c0-1.35.13-1.86.25-5.21.13-3.72.27-7.2.27-7.2l10.49,4.15a24.58,24.58,0,0,0-1.87,8.46A68.47,68.47,0,0,1,33.92,56.73Z"/><path class="cls-1" d="M36.77,39.38a24.58,24.58,0,0,0-1.87,8.46c-.33.14-.66.27-1,.37-1.22.43-5.14-3.05-7.93-5.78.13-3.72.27-7.2.27-7.2Z"/><path class="cls-2" d="M47.78,26.91c-.21,1-.48,2-.82,3.05,0,0,.47,5.26-.08,6.44s-4.09,8.52-7.8,8.06c-3.1-.37-10.68-4.92-13.32-7.62a3.06,3.06,0,0,1-.91-1.35c-.37-2.08-1.61-11.28-1.72-12C22.81,21.35,21.93,5.56,41,10A9.21,9.21,0,0,1,48,16.85,23,23,0,0,1,47.78,26.91Z"/><path class="cls-8" d="M50.79,17.09a8.06,8.06,0,0,1-.51,2.46,8.8,8.8,0,0,1-2.6,4.27,26.82,26.82,0,0,0-.29-6.39c-4.55,5-14.08,6.66-14.47,6.73C34.73,23.6,35.27,20,35.27,20c-2.17,5.08-11.71,6.12-11.71,6.12-2.28-1.85-3.87,1.66-3.87,1.66-.77-1.43-1.41-2.72-1.91-3.92-.14-.31-.26-.62-.37-.92a13.69,13.69,0,0,1-.66-2.45C15.49,12.85,21.18,5.39,28.53,3.25h0c6.94-2,15.14-.17,19,3.66A8.07,8.07,0,0,1,49.2,9.19c0,.12.11.25.15.37l0,.12a6,6,0,0,1,.37,2.24,7.89,7.89,0,0,1-.16,1.39A7.6,7.6,0,0,1,50.79,17.09Z"/><path class="cls-9" d="M49.35,9.56a5.64,5.64,0,0,1-1.3.53c-.92.24-1.89.26-2.81.51a5.81,5.81,0,0,0-2.88,1.79c-1.35,1.53-1.94,3.8-3.76,4.73a5.81,5.81,0,0,1-4.13.07,14.41,14.41,0,0,0-4.12-.85,7.82,7.82,0,0,0-5.55,3.25A6.53,6.53,0,0,1,23.47,21a4.3,4.3,0,0,1-2.64.56,10.06,10.06,0,0,1-4.08-1.11,13.75,13.75,0,0,1,.8-7.23,17.14,17.14,0,0,1,11-10h0a22.86,22.86,0,0,1,13.63.47,14.58,14.58,0,0,1,5.37,3.19A8.07,8.07,0,0,1,49.2,9.19C49.25,9.31,49.31,9.44,49.35,9.56Z"/><path class="cls-10" d="M42.18,3.72c-2.24,1.83-3.39,5-6.1,6-1.57.59-3.31.28-5,.09s-3.51-.2-4.83.83c-.69.55-1.16,1.32-1.81,1.91a6.13,6.13,0,0,1-5.24,1.14,9.66,9.66,0,0,1-1.67-.48,17.14,17.14,0,0,1,11-10h0A22.86,22.86,0,0,1,42.18,3.72Z"/><path class="cls-12" d="M47,30s.47,5.26-.08,6.44-4.09,8.52-7.8,8.06c-3.1-.37-10.68-4.92-13.32-7.62,3.23,2.24,11.84,8,14.36,7.08,3.13-1.09,6.66-8,6.59-8.69s-.27-5.17-.27-5.17.63-1.42,1.34-3.15C47.57,27.88,47.3,28.9,47,30Z"/><path class="cls-12" d="M25.7,35.23a7.29,7.29,0,0,1-5.08-2.81,4.64,4.64,0,0,1-.5-.75c-.69-1.24-.88-5.55.88-6.55,1.23-.7,2.13.32,2.56,1h0a5,5,0,0,1,.28.51Z"/><path class="cls-2" d="M25.7,35.23a7.29,7.29,0,0,1-5.08-2.81c-.08-.12-.15-.23-.21-.34-.68-1.24-.88-5.55.88-6.55a1.69,1.69,0,0,1,2.27.58h0a5,5,0,0,1,.28.51Z"/><path class="cls-1" d="M20.44,28.54a2,2,0,0,0,.08,1.05c.49,1.44,1.93,2.54,3.31,3.57a3.58,3.58,0,0,1-.48-2.27c0-.26.08-.53.09-.8C23.45,29,21,26.51,20.44,28.54Z"/><path class="cls-13" d="M24.53,33.57l-.08,0-.23-.13a3.18,3.18,0,0,1-.68-.61A2.81,2.81,0,0,1,23,31.63a2.42,2.42,0,0,1,.18-1.52.69.69,0,0,1,.1-.19l0-.05s0,0,0,0h0l0,0,0-.08-.1-.16a6.42,6.42,0,0,0-.42-.6c-.14-.18-.29-.35-.44-.51a3.89,3.89,0,0,0-.44-.4,1,1,0,0,0-.45-.2.67.67,0,0,0-.38.06.52.52,0,0,0-.17.15.24.24,0,0,0,0,.08.17.17,0,0,1,0-.08.34.34,0,0,1,.15-.2.78.78,0,0,1,.43-.13,1.21,1.21,0,0,1,.6.17,3.7,3.7,0,0,1,.53.38,4.93,4.93,0,0,1,.53.5,5.09,5.09,0,0,1,.5.61l.11.17.05.08.07.13.05.08a.41.41,0,0,1-.05.09l-.07.12-.09.17a2.57,2.57,0,0,0-.22,1.34,2.7,2.7,0,0,0,.37,1.09,3.12,3.12,0,0,0,.52.67l.18.16Z"/><path class="cls-11" d="M33.92,56.73l-6.2,4.84L21.89,48.78a38.42,38.42,0,0,1,3.87-1.15Z"/><path class="cls-8" d="M28,30.24c0-.21-.11-.52-.21-.89a8.18,8.18,0,0,0-.48-1.3,5.56,5.56,0,0,0-1-1.44,5.2,5.2,0,0,0-1.39-1,7,7,0,0,0-1.3-.52l-.44-.11L23,24.7l.09.2-.28,0-.33-.06.78.52q.16.36.39.9a16.36,16.36,0,0,1,1.12,3.55,22.12,22.12,0,0,1,.18,3.75c0,.5,0,.91,0,1.2s0,.44,0,.44l.18-.4c.11-.27.27-.65.43-1.14A10.51,10.51,0,0,0,26,31.84a7,7,0,0,0,0-2.28,6.86,6.86,0,0,0-.76-2.17,9.3,9.3,0,0,0-1-1.43,10.17,10.17,0,0,1,1.51,1.28,16.2,16.2,0,0,1,1.69,2.3l.5.76.19.28Z"/><path class="cls-9" d="M49.51,23.13s-2.43-3.27-3.79-2S45,22.58,45,22.58Z"/><path class="cls-9" d="M30.22,23.63s4.5-5.18,6.34-3.34c1.08,1.07.33,1.8.33,1.8Z"/><path class="cls-14" d="M36.24,24.16a3,3,0,0,1-1.45,1.24,1.22,1.22,0,0,0-.92-.48c-.87,0-1.58,1.14-1.58,2.55S33,30,33.87,30s1.59-1.15,1.59-2.55a3.84,3.84,0,0,0-.19-1.21A4.63,4.63,0,0,0,36.24,24.16Z"/><path class="cls-14" d="M43.83,27.71H44l.48,0a3.29,3.29,0,0,1,.6.06c.23,0,.48.11.78.16s.55.06.77.1a3.51,3.51,0,0,1,.6.15l.44.17.18.07-.08-.17a2.57,2.57,0,0,0-.26-.44,2.16,2.16,0,0,0-.61-.52A3.14,3.14,0,0,0,46,27a3.46,3.46,0,0,0-.91,0,1.7,1.7,0,0,0-.76.29,2.1,2.1,0,0,0-.39.33Z"/><path class="cls-11" d="M30.77,26.05a3.28,3.28,0,0,0,3.5,1.41,3.57,3.57,0,0,0-1.52-1.26A3.65,3.65,0,0,0,30.77,26.05Z"/><path class="cls-1" d="M40,33.34A2.7,2.7,0,0,0,38.76,33a4,4,0,0,0,2.16,2.08.71.71,0,0,0,.24.06,1,1,0,0,0,.27-.1,4.67,4.67,0,0,0,1.36-1.22.89.89,0,0,0,.18-.33c.09-.4-.18-.31-.42-.22a3.3,3.3,0,0,1-.86.22A3.69,3.69,0,0,1,40,33.34Z"/><path class="cls-15" d="M42.06,37.4S38,34.79,33.61,36.21c0,0,1.42,3.44,3.62,3.69C39.9,40.21,42.06,37.4,42.06,37.4Z"/><path class="cls-16" d="M41.79,37.46a22.26,22.26,0,0,0-7.94-1.16,4.4,4.4,0,0,0,3.69,3A4.55,4.55,0,0,0,41.79,37.46Z"/><path class="cls-13" d="M41,34.88c.25-.22.52-.4.77-.61a6.35,6.35,0,0,0,.85-.87c-1.3-.9-1.29-2.26-1.23-3.8a4.57,4.57,0,0,1,.56-2,4.6,4.6,0,0,1,1-1.27,1.66,1.66,0,0,1,.45-.25c-.08.09-.13.2-.2.29-.19.25-.39.48-.55.74a4.71,4.71,0,0,0-.42.84,5.45,5.45,0,0,0-.39,1.83,4.6,4.6,0,0,0,.29,1.8,3.61,3.61,0,0,0,1.3,1.68s-.89,1-1,1.13a5.9,5.9,0,0,1-.74.58,1.69,1.69,0,0,1-.88.35.55.55,0,0,1-.28-.09.79.79,0,0,0,.15-.12l.06-.06Z"/><path class="cls-1" d="M44.86,33.89c.21.55,1.41.62,2.69.14s2.14-1.32,1.94-1.87-1.42-.63-2.69-.15S44.65,33.33,44.86,33.89Z"/><path class="cls-1" d="M28.8,31.28c-.22.84,1.17,1.93,3.09,2.43s3.67.22,3.88-.62-1.16-1.93-3.09-2.43S29,30.44,28.8,31.28Z"/><path class="cls-11" d="M46.34,22.72a4.88,4.88,0,0,0-4.81,4.15,3.13,3.13,0,0,0-2.33.05A5.31,5.31,0,0,0,29,25.63l-7-1.14-.13.8,6.9,1.13a5.82,5.82,0,0,0-.12,1.12,5.31,5.31,0,0,0,10.62.25,2.35,2.35,0,0,1,2.27,0,4.86,4.86,0,1,0,4.85-5.07ZM33.92,32a4.51,4.51,0,1,1,4.5-4.5A4.51,4.51,0,0,1,33.92,32Zm12.42-.42a4,4,0,1,1,4-4A4.05,4.05,0,0,1,46.34,31.62Z"/><path class="cls-6" d="M.5,121H11.19s-.36-19.29-.36-19.84S15.5,80.93,17.2,73.75h0l.61-2.57v-12l-3.08-4.33-.89-1.25-.26.25s0,0,0,0c-1.39,1.41-7.76,8-8,10C5.39,66.2.68,97,.5,102S.5,121,.5,121Z"/><path class="cls-7" d="M11.19,121s-.36-19.29-.36-19.84S15.5,80.93,17.2,73.75h0l-.62-2.11S9.12,97.37,9.25,99.73c.1,1.8-.51,15.1-.81,21.29Z"/><path class="cls-17" d="M.5,121H2.18c-.06-5.24-.18-17.36,0-18.21.25-1.08,3.91-33.17,5.54-38.89.64-2.26,3-5.11,5.6-7.72.45-.45.92-.9,1.38-1.33,3.58-3.39,7.16-6.09,7.16-6.09-2,.7-7,3.59-8.31,5.09,0,0,0,0,0,0-1.39,1.41-7.76,8-8,10C5.39,66.2.68,97,.5,102S.5,121,.5,121Z"/></svg>