<svg id="Layer_1" data-name="Layer 1" xmlns="http://www.w3.org/2000/svg" viewBox="0 0 75 92"><defs><style>.cls-1{fill:#cf691f;}.cls-2{fill:#ffb800;}.cls-3{fill:#171228;}.cls-4{fill:#909aa3;}.cls-5{fill:#fdbd8e;}.cls-6{fill:#fd7d6f;}.cls-7{fill:#ffdaba;}.cls-8{fill:#ff9300;}.cls-9{fill:#85441d;}.cls-10{fill:#965326;}.cls-11{fill:#b5693c;}.cls-12{fill:#fff0e7;}.cls-13{fill:#fb9988;}.cls-14{fill:#ff7d6f;}.cls-15{fill:#cf4a57;}.cls-16{fill:#161818;}.cls-17{fill:#006aab;}</style></defs><path class="cls-1" d="M68.69,93.34s-.53,2-1.44,4.6c-2.36,6.86-7.3,18.11-12.11,9.82a17,17,0,0,1-.88-1.76c-5.76-13.11-5.73-47.15-5.73-47.15V50.33s.91.6,2.14,1.57a24.19,24.19,0,0,1,5.68,5.89c1.79,3,8.54,23.74,11.23,32.09C68.26,92,68.69,93.34,68.69,93.34Z"/><path class="cls-2" d="M68.69,93.34s-.53,2-1.44,4.6c-.22-.36-.42-.73-.62-1.1-3.89-7.43-4.39-16.11-6.52-24.22a60.09,60.09,0,0,0-3.38-9.57C55.14,59.52,52,55.79,50.67,51.9a24.19,24.19,0,0,1,5.68,5.89C58.6,61.57,68.69,93.34,68.69,93.34Z"/><rect class="cls-3" x="59.53" y="77.65" width="10.24" height="16.96" rx="0.71" transform="translate(36.59 -17.84) rotate(21.79)"/><path class="cls-4" d="M64.77,79.39a.76.76,0,0,1-1,.42.77.77,0,0,1-.43-1,.76.76,0,0,1,1-.42A.77.77,0,0,1,64.77,79.39Z"/><path class="cls-5" d="M66.94,100a12.4,12.4,0,0,1-5.81-2.49,7.18,7.18,0,0,1,.4-2.09,8.62,8.62,0,0,1,.33-.93,20.46,20.46,0,0,1,1-2.11c.17-.31.35-.61.53-.91.49-.8,1-1.58,1.51-2.28.21-.31.42-.6.63-.88.56-.75,1.07-1.39,1.45-1.86s.74-.87.74-.87c2.54,1,5.26,4.33,5.26,4.33a10.6,10.6,0,0,1-.88,3A24.46,24.46,0,0,1,66.94,100Z"/><path class="cls-6" d="M68.93,91s-.37-.11-.9-.31a16,16,0,0,1-1.93-.85,13.39,13.39,0,0,1-1.17-.7c.21-.31.42-.6.63-.88a5.3,5.3,0,0,1,1.15.44,5.35,5.35,0,0,1,1.71,1.48A4.29,4.29,0,0,1,68.93,91Z"/><path class="cls-6" d="M66.75,94a8.9,8.9,0,0,1-.87-.23A11.67,11.67,0,0,1,64,93a9.56,9.56,0,0,1-1.11-.65c.17-.31.35-.61.53-.91a4.75,4.75,0,0,1,1.16.41,5.25,5.25,0,0,1,1.66,1.35A4.86,4.86,0,0,1,66.75,94Z"/><path class="cls-7" d="M72.13,92.94a7.33,7.33,0,0,0-.87-2.56,8.61,8.61,0,0,0-1.64-1.87,16.67,16.67,0,0,0-2.22-1.89,2,2,0,0,0-.39-.19c.45-.55.74-.87.74-.87,2.54,1,5.26,4.33,5.26,4.33A10.6,10.6,0,0,1,72.13,92.94Z"/><path class="cls-8" d="M55,97.77s.07-14.27.62-16.86S59.22,58.75,52.42,53A25.18,25.18,0,0,0,45,48.43c-.4-.14-.76-.25-1.09-.33h0a7,7,0,0,0-1.65-.23H33A36.77,36.77,0,0,0,29.14,49c-2.16.76-7.92,4.15-8.59,5.48-.47,1,.28,2.1,1.68,9.36,2.4,12.47,7.92,31.47,7.83,35C30.06,98.85,43.86,107.14,55,97.77Z"/><path class="cls-1" d="M53.22,76.43l-.93,0-2.51-.16a25,25,0,0,0-7.9.52c-.75.19-1.49.42-2.24.62a17.63,17.63,0,0,1-6.07.6,6.81,6.81,0,0,1-1.49-.28,3.3,3.3,0,0,1-1-.53,2.22,2.22,0,0,1-.49-.52l-.12-.21.18.16a2.34,2.34,0,0,0,.57.32,4.68,4.68,0,0,0,2.36.13,27,27,0,0,0,3.54-.73c.66-.18,1.32-.39,2-.63s1.46-.51,2.28-.73a13.73,13.73,0,0,1,4.78-.36,21.13,21.13,0,0,1,3.75.73c1,.29,1.86.58,2.42.78Z"/><path class="cls-9" d="M57.79,33.32c0-.21-.11-.52-.21-.9a8.48,8.48,0,0,0-.48-1.29,5.15,5.15,0,0,0-2.36-2.49,7.28,7.28,0,0,0-1.29-.51c-.16-.05-.31-.08-.44-.11l-.27-.24.09.2-.28-.06-.33-.05s.29.2.78.51c.11.24.23.55.39.9a16.46,16.46,0,0,1,1.12,3.56,21,21,0,0,1,.17,3.75c0,.5,0,.91,0,1.2s0,.44,0,.44.07-.14.18-.41.27-.64.43-1.13a11.58,11.58,0,0,0,.42-1.77,7.25,7.25,0,0,0,0-2.28A6.86,6.86,0,0,0,55,30.47,8.83,8.83,0,0,0,54,29a10.12,10.12,0,0,1,1.5,1.28,16.92,16.92,0,0,1,1.7,2.29l.49.77.2.27Z"/><path class="cls-9" d="M28.49,39.66A17.43,17.43,0,0,1,26,43.8c-2.23,2.82-5.35,5.21-8.93,5.45a12.42,12.42,0,0,0,4.72-3.17l-.66.41a12,12,0,0,1-8.26,1.31,10.28,10.28,0,0,0,2.3-4.35A15.32,15.32,0,0,0,15.67,40a50.2,50.2,0,0,0-.83-8.46,80.5,80.5,0,0,1-.92-13.87c.13-3.69,1.33-7.7,4.13-10.25a6.29,6.29,0,0,1,9.38,1,5.64,5.64,0,0,1,.56.95A1.23,1.23,0,0,1,28,10.71a9.94,9.94,0,0,1-1.12,1.22,8.24,8.24,0,0,0-2,4,5.23,5.23,0,0,1,.49.45A10.72,10.72,0,0,1,27.6,20a31.34,31.34,0,0,1,2.21,11.08A20.85,20.85,0,0,1,28.49,39.66Z"/><path class="cls-10" d="M27.43,8.41a5.41,5.41,0,0,1-.75,1.68,4.54,4.54,0,0,0-4,2.68,11.12,11.12,0,0,0-.9,5,44.91,44.91,0,0,0,.56,7.6,47.14,47.14,0,0,1,1,8c0,2.69-.89,5.52-3,7.23a10.72,10.72,0,0,0-.79-4.65,10.24,10.24,0,0,1-4.47,7.56A15.32,15.32,0,0,0,15.67,40a35.7,35.7,0,0,0-.5-6.18c-.11-.76-.23-1.52-.33-2.28a80.5,80.5,0,0,1-.92-13.87c.13-3.69,1.33-7.7,4.13-10.25a6.41,6.41,0,0,1,5.47-1.52,6.53,6.53,0,0,1,1.54.53A6.44,6.44,0,0,1,27.43,8.41Z"/><path class="cls-11" d="M25.06,6.39c-1.7,1.17-3.41,2.33-4.26,4.16a11.31,11.31,0,0,0-.72,2.62,25.18,25.18,0,0,0-.51,3.66,61.17,61.17,0,0,0,.53,6.45,20.72,20.72,0,0,1-.93,7.54,13.72,13.72,0,0,0-1.38-3.31,11.68,11.68,0,0,1-2.62,6.27c-.11-.76-.23-1.52-.33-2.28a80.5,80.5,0,0,1-.92-13.87c.13-3.69,1.33-7.7,4.13-10.25a6.41,6.41,0,0,1,5.47-1.52A6.53,6.53,0,0,1,25.06,6.39Z"/><path class="cls-12" d="M31.32,11.22a3.67,3.67,0,1,1-3.67-3.67A3.67,3.67,0,0,1,31.32,11.22Z"/><path class="cls-12" d="M45,48.43l1,11L41.17,57l-2.53-3.12s0-4,0-6h3.67a7,7,0,0,1,1.65.23h0C44.27,48.18,44.63,48.29,45,48.43Z"/><path class="cls-5" d="M41.17,57,33,47.88c0-1.36.13-1.86.25-5.21.13-3.72.27-7.2.27-7.2L44,39.62a24.58,24.58,0,0,0-1.87,8.46A68.47,68.47,0,0,1,41.17,57Z"/><path class="cls-13" d="M44,39.62a24.58,24.58,0,0,0-1.87,8.46c-.33.14-.66.27-1,.37-1.22.43-5.14-3.05-7.93-5.78.13-3.72.27-7.2.27-7.2Z"/><path class="cls-5" d="M55,27.15c-.21,1-.48,2-.82,3.05,0,0,.47,5.26-.08,6.44S50,45.16,46.33,44.7c-3.1-.38-10.68-4.92-13.32-7.62a3.06,3.06,0,0,1-.91-1.35c-.37-2.08-1.61-11.28-1.73-12-.31-2.09-1.19-17.88,17.91-13.49a9.21,9.21,0,0,1,6.93,6.9A23,23,0,0,1,55,27.15Z"/><path class="cls-9" d="M58,17.33a8.06,8.06,0,0,1-.51,2.46,8.8,8.8,0,0,1-2.6,4.27,26.82,26.82,0,0,0-.29-6.39c-4.55,5-14.08,6.66-14.47,6.73,1.81-.56,2.35-4.17,2.35-4.17-2.18,5.08-11.71,6.12-11.71,6.12C28.53,24.5,26.94,28,26.94,28c-.77-1.43-1.41-2.72-1.91-3.92-.14-.31-.26-.62-.37-.92A12.9,12.9,0,0,1,24,20.72c-1.27-7.63,4.43-15.1,11.77-17.23h0c6.93-2,15.14-.17,19,3.66a8.07,8.07,0,0,1,1.65,2.28l.15.37a.56.56,0,0,1,0,.12A5.84,5.84,0,0,1,57,12.16a7.89,7.89,0,0,1-.16,1.39A7.6,7.6,0,0,1,58,17.33Z"/><path class="cls-10" d="M56.6,9.8a5.64,5.64,0,0,1-1.3.53c-.92.24-1.89.26-2.81.5a5.83,5.83,0,0,0-2.88,1.8c-1.35,1.53-2,3.8-3.76,4.73a5.81,5.81,0,0,1-4.13.07,14.41,14.41,0,0,0-4.12-.85,7.76,7.76,0,0,0-5.55,3.25,6.53,6.53,0,0,1-1.33,1.44,4.3,4.3,0,0,1-2.64.56A10.06,10.06,0,0,1,24,20.72a13.75,13.75,0,0,1,.8-7.23,17.13,17.13,0,0,1,11-10h0A22.86,22.86,0,0,1,49.43,4,14.58,14.58,0,0,1,54.8,7.15a8.07,8.07,0,0,1,1.65,2.28Z"/><path class="cls-11" d="M49.43,4c-2.24,1.83-3.39,5-6.1,6-1.57.59-3.31.28-5,.09s-3.51-.2-4.83.83c-.69.55-1.16,1.32-1.81,1.91A6.14,6.14,0,0,1,26.46,14a9.81,9.81,0,0,1-1.66-.48,17.13,17.13,0,0,1,11-10h0A22.86,22.86,0,0,1,49.43,4Z"/><path class="cls-7" d="M54.21,30.2s.47,5.26-.08,6.44S50,45.16,46.33,44.7c-3.1-.38-10.68-4.92-13.32-7.62,3.23,2.24,11.83,8,14.36,7.08,3.12-1.09,6.66-8,6.59-8.69s-.27-5.17-.27-5.17.63-1.42,1.34-3.15C54.82,28.12,54.55,29.14,54.21,30.2Z"/><path class="cls-7" d="M33,35.47a7.29,7.29,0,0,1-5.08-2.81,4.64,4.64,0,0,1-.5-.75c-.69-1.24-.88-5.55.88-6.55,1.23-.7,2.13.32,2.56,1h0a5,5,0,0,1,.28.51Z"/><path class="cls-5" d="M33,35.47a7.29,7.29,0,0,1-5.08-2.81c-.08-.12-.15-.23-.21-.34-.68-1.24-.88-5.55.88-6.55a1.69,1.69,0,0,1,2.27.58h0a5,5,0,0,1,.28.51Z"/><path class="cls-14" d="M27.69,28.78a1.88,1.88,0,0,0,.08,1c.49,1.44,1.93,2.54,3.31,3.57a3.56,3.56,0,0,1-.48-2.26c0-.27.08-.54.09-.81C30.7,29.25,28.22,26.75,27.69,28.78Z"/><path class="cls-15" d="M31.77,33.81l-.07-.05-.23-.13a3.18,3.18,0,0,1-.68-.61,2.81,2.81,0,0,1-.56-1.15,2.48,2.48,0,0,1,.17-1.52,1.18,1.18,0,0,1,.11-.19l0-.05h0l0,0L30.46,30l-.09-.16a6.42,6.42,0,0,0-.42-.6c-.14-.18-.29-.35-.44-.51a3.89,3.89,0,0,0-.44-.4,1,1,0,0,0-.45-.2.76.76,0,0,0-.38.06.43.43,0,0,0-.17.15.24.24,0,0,0,0,.08.17.17,0,0,1,0-.08.34.34,0,0,1,.15-.2.78.78,0,0,1,.43-.13,1.06,1.06,0,0,1,.59.17,3.12,3.12,0,0,1,.54.38,6.17,6.17,0,0,1,.53.5,4.22,4.22,0,0,1,.49.61l.12.17.05.08L31,30l.05.09L31,30.2l-.07.12-.09.16a2.6,2.6,0,0,0-.22,1.35A2.7,2.7,0,0,0,31,32.92a3.12,3.12,0,0,0,.52.67l.18.16Z"/><path class="cls-12" d="M41.17,57,35,61.81,29.14,49A36.77,36.77,0,0,1,33,47.88Z"/><path class="cls-9" d="M35.29,30.48c0-.21-.11-.52-.21-.89a8.18,8.18,0,0,0-.48-1.3,5.56,5.56,0,0,0-1-1.44,5.09,5.09,0,0,0-1.4-1A6.69,6.69,0,0,0,31,25.29l-.44-.11-.27-.24a1.6,1.6,0,0,1,.09.2l-.28-.05L29.72,25l.78.52q.16.36.39.9A16.36,16.36,0,0,1,32,30a21.06,21.06,0,0,1,.17,3.75c0,.5,0,.91,0,1.2s0,.45,0,.45l.18-.41c.11-.27.27-.65.43-1.14a11.58,11.58,0,0,0,.42-1.77,7,7,0,0,0,0-2.28,6.86,6.86,0,0,0-.76-2.17,9.3,9.3,0,0,0-1-1.43A10.12,10.12,0,0,1,33,27.48a16.35,16.35,0,0,1,1.7,2.3l.49.76.2.28Z"/><path class="cls-10" d="M56.76,23.37s-2.43-3.27-3.79-2-.75,1.42-.75,1.42Z"/><path class="cls-10" d="M37.47,23.87s4.5-5.18,6.34-3.34c1.07,1.07.33,1.8.33,1.8Z"/><path class="cls-16" d="M43.49,24.4A3,3,0,0,1,42,25.64a1.22,1.22,0,0,0-.92-.48c-.87,0-1.58,1.14-1.58,2.55s.71,2.55,1.58,2.55,1.59-1.15,1.59-2.55a3.84,3.84,0,0,0-.19-1.21A4.63,4.63,0,0,0,43.49,24.4Z"/><path class="cls-12" d="M38,26.29a3.28,3.28,0,0,0,3.5,1.41A3.57,3.57,0,0,0,40,26.44,3.65,3.65,0,0,0,38,26.29Z"/><path class="cls-16" d="M54.22,25.75a2,2,0,0,1-1,.86.87.87,0,0,0-.62-.28c-.66,0-1.2.86-1.2,1.92s.54,1.92,1.2,1.92,1.19-.86,1.19-1.92a2.81,2.81,0,0,0-.2-1.08A3.58,3.58,0,0,0,54.22,25.75Z"/><path class="cls-12" d="M54.83,27.31a2.86,2.86,0,0,1-1.11.85,2.8,2.8,0,0,1-1.38.16,2.68,2.68,0,0,1,2.49-1Z"/><path class="cls-13" d="M47.2,33.58A2.7,2.7,0,0,0,46,33.27a4,4,0,0,0,2.16,2.08.65.65,0,0,0,.23.06.64.64,0,0,0,.27-.11A4.67,4.67,0,0,0,50,34.09a.89.89,0,0,0,.18-.33c.09-.4-.18-.31-.42-.22a3.3,3.3,0,0,1-.86.22A3.66,3.66,0,0,1,47.2,33.58Z"/><path class="cls-6" d="M48.26,35.12c.24-.22.52-.4.77-.61a6.35,6.35,0,0,0,.85-.87c-1.3-.9-1.29-2.26-1.23-3.8a4.57,4.57,0,0,1,.56-2,4.42,4.42,0,0,1,.65-.89,3.59,3.59,0,0,1,.4-.38,1.66,1.66,0,0,1,.45-.25c-.08.09-.13.2-.2.29-.19.25-.39.48-.55.74a4.71,4.71,0,0,0-.42.84A5.22,5.22,0,0,0,49.15,30a4.26,4.26,0,0,0,.29,1.8,3.61,3.61,0,0,0,1.3,1.68s-.89,1-1,1.13a5.9,5.9,0,0,1-.74.58,1.69,1.69,0,0,1-.88.35.55.55,0,0,1-.28-.09.79.79,0,0,0,.15-.12l.06-.06Z"/><path class="cls-6" d="M46,39.13a3.82,3.82,0,0,0,3.17.09,1.62,1.62,0,0,1-1.45.78A2.73,2.73,0,0,1,46,39.13Z"/><path class="cls-6" d="M42.34,36.36a9.5,9.5,0,0,0,8.77,1.2,13.76,13.76,0,0,1-4.79,0A10.69,10.69,0,0,1,42.34,36.36Z"/><path class="cls-13" d="M52.11,34.13c.21.55,1.41.62,2.69.14S56.94,33,56.73,32.4s-1.41-.63-2.69-.15S51.9,33.57,52.11,34.13Z"/><path class="cls-13" d="M36.05,31.52c-.22.84,1.17,1.93,3.09,2.43s3.67.22,3.88-.62-1.16-1.93-3.09-2.43S36.27,30.68,36.05,31.52Z"/><path class="cls-12" d="M53.59,23a4.88,4.88,0,0,0-4.81,4.15,3.13,3.13,0,0,0-2.33.05,5.31,5.31,0,0,0-10.24-1.29l-7-1.14-.13.8L36,26.66a5.13,5.13,0,0,0-.12,1.12A5.31,5.31,0,0,0,46.47,28a2.37,2.37,0,0,1,2.27,0A4.85,4.85,0,1,0,53.59,23ZM41.17,32.28a4.51,4.51,0,1,1,4.5-4.5A4.51,4.51,0,0,1,41.17,32.28Zm12.42-.42a4,4,0,1,1,4-4A4.05,4.05,0,0,1,53.59,31.86Z"/><rect class="cls-12" x="9.1" y="89.23" width="33.89" height="41.58" transform="translate(83.29 12.52) rotate(43.74)"/><rect class="cls-17" x="9.3" y="91.21" width="33.89" height="41.58" transform="translate(84.72 12.93) rotate(43.74)"/><path class="cls-8" d="M29.82,113.45l-1.6,1.88L24,120.26l-.86,1S-.49,104.87-1.13,100.67,15.24,59.49,16.51,58a61.87,61.87,0,0,1,5.15-4.65L28,68l-3.41,7.29h0l-10.75,23Z"/><path class="cls-1" d="M29.82,113.45l-1.6,1.88L13.3,100.06s-1.63,1.5-2.85,1.18,1.56-2.36,1.63-2.41c-.1,0-2.46.81-3.13,0s3.4-1.88,3.4-1.88L23.8,72.22l.82,3h0l-10.75,23Z"/><path class="cls-2" d="M24,120.26l-.86,1S-.49,104.87-1.13,100.67,15.24,59.49,16.51,58c0,0-16,40.7-15.58,42.47C1.27,101.93,18.12,115.54,24,120.26Z"/></svg>