<svg id="Layer_1" data-name="Layer 1" xmlns="http://www.w3.org/2000/svg" viewBox="0 0 75 92"><defs><style>.cls-1{fill:#ff9300;}.cls-2{fill:#cf691f;}.cls-3{fill:#85441d;}.cls-4{fill:#965326;}.cls-5{fill:#b5693c;}.cls-6{fill:#fff0e7;}.cls-7{fill:#fdbd8e;}.cls-8{fill:#fb9988;}.cls-9{fill:#ffdaba;}.cls-10{fill:#fd7d6f;}.cls-11{fill:#161818;}.cls-12{fill:#ffb800;}</style></defs><path class="cls-1" d="M29.45,69c-3.26,3.89-6.73,7.83-9.8,10.9-.36.37-.72.72-1.07,1-.78.76-1.54,1.45-2.25,2l-.23.2c-.39.33-.77.63-1.13.89l-.42.31-.41.28c-.26.17-.52.32-.76.46l-.36.18-.17.08C5.46,88.59-24.5,70.3-24.5,70.3L-23.14,68l3.41-5.84.6-1S5.61,71,8.72,73.66c0,0,5-8.92,6.68-11.41,0,0,7.52-10.22,8.91-10.76.17-.07,3.72,12.44,4.82,16.33Z"/><path class="cls-2" d="M29.45,69c-3.26,3.89-6.73,7.83-9.8,10.9-.36.37-.72.72-1.07,1-.78.76-1.54,1.45-2.25,2l-.23.2c-.39.33-.77.62-1.13.89l-.42.31-.41.28c-.26.17-.52.32-.76.46l-.36.18-.17.08C5.46,88.59-24.5,70.3-24.5,70.3L-23.14,68c8,4.21,31.55,16.41,35,16.15C14,84,22,75.71,29.13,67.82Z"/><path class="cls-1" d="M106.27,57.75S81.42,82.54,73.48,81.12c-3-.53-8.62-4-14.55-8.15-1.8-1.26-3.63-2.59-5.42-3.91L49.62,52.89c1.42-.51,1.9-2.74,2.14-3.56.06-.2.11-.31.15-.3a29.37,29.37,0,0,1,3.66,2.62A190.69,190.69,0,0,1,74.45,68.48c.2.19.31.31.31.31,2.4-3.35,24.15-18.71,24.15-18.71l1,1.06,4.49,4.68Z"/><path class="cls-2" d="M53.16,67.61C62.08,73.68,72,80,74.2,79.69c3.37-.54,23.41-17.91,30.22-23.88l1.85,1.94S81.42,82.53,73.48,81.12c-3.86-.69-12.3-6.38-20-12.06Z"/><path class="cls-1" d="M58.93,73a60.54,60.54,0,0,1-.84,6.14c-.54,2.58-.61,16.83-.61,16.83C46.32,105.29,32.55,97,32.55,97c.09-3.52-5.42-22.49-7.82-34.93-1.4-7.25-2.15-8.4-1.67-9.35.66-1.33,6.42-4.7,8.57-5.47a39,39,0,0,1,3.87-1.14h9.26a6.07,6.07,0,0,1,1.65.23h0a10.81,10.81,0,0,1,1.09.34A17,17,0,0,1,50.34,48h0c.48.28,1,.61,1.56,1a34.57,34.57,0,0,1,3,2.26A8.91,8.91,0,0,1,57,54.13C59.57,59.11,59.45,67.27,58.93,73Z"/><path class="cls-2" d="M55.67,74.64l-.93,0-2.5-.15a24.92,24.92,0,0,0-7.89.51c-.75.2-1.49.43-2.24.63a21.53,21.53,0,0,1-2.22.47,17.61,17.61,0,0,1-3.84.12,6.93,6.93,0,0,1-1.49-.28,3.46,3.46,0,0,1-1-.52,2.43,2.43,0,0,1-.49-.52l-.12-.21.18.15a2.32,2.32,0,0,0,.57.33,4.79,4.79,0,0,0,2.35.12,28.54,28.54,0,0,0,3.54-.72c.66-.18,1.32-.39,2-.64s1.47-.5,2.28-.72a13.68,13.68,0,0,1,4.77-.36,22.34,22.34,0,0,1,3.75.72c1,.3,1.85.58,2.41.79S55.67,74.64,55.67,74.64Z"/><path class="cls-3" d="M60.23,31.6c0-.21-.11-.52-.21-.89a9.14,9.14,0,0,0-.47-1.3,5.61,5.61,0,0,0-1-1.44,5.26,5.26,0,0,0-1.39-1,7.28,7.28,0,0,0-1.29-.51c-.16-.05-.31-.08-.44-.11l-.27-.24.09.2L55,26.21l-.33-.05.78.51c.1.24.23.55.39.9A16.36,16.36,0,0,1,57,31.12a21.89,21.89,0,0,1,.17,3.74c0,.5,0,.91,0,1.2s0,.44,0,.44l.18-.4c.11-.27.26-.65.42-1.14a10.31,10.31,0,0,0,.43-1.76,7.25,7.25,0,0,0,0-2.28,6.57,6.57,0,0,0-.77-2.16,8.77,8.77,0,0,0-1-1.44,9.65,9.65,0,0,1,1.5,1.29A15.62,15.62,0,0,1,59.6,30.9l.5.76.19.27Z"/><path class="cls-3" d="M31,37.93a17.84,17.84,0,0,1-2.5,4.14c-2.22,2.81-5.33,5.2-8.91,5.43a12.25,12.25,0,0,0,4.71-3.16c-.21.14-.43.28-.66.41a12,12,0,0,1-8.24,1.31,10.26,10.26,0,0,0,2.29-4.35,15.16,15.16,0,0,0,.51-3.48,50,50,0,0,0-.83-8.44,81.34,81.34,0,0,1-.91-13.85c.12-3.69,1.32-7.69,4.12-10.24a6.29,6.29,0,0,1,9.37,1,5.51,5.51,0,0,1,.55.94A1.23,1.23,0,0,1,30.53,9a9.21,9.21,0,0,1-1.12,1.22,8.28,8.28,0,0,0-2,4,5.23,5.23,0,0,1,.49.45,10.44,10.44,0,0,1,2.19,3.58A31.19,31.19,0,0,1,32.3,29.36,20.75,20.75,0,0,1,31,37.93Z"/><path class="cls-4" d="M29.93,6.74a5.48,5.48,0,0,1-.76,1.67,4.54,4.54,0,0,0-4,2.67,11.28,11.28,0,0,0-.9,5,45.93,45.93,0,0,0,.56,7.59,46.78,46.78,0,0,1,1,8c0,2.69-.89,5.51-3,7.22a10.74,10.74,0,0,0-.78-4.65,10.22,10.22,0,0,1-4.47,7.55,15.16,15.16,0,0,0,.51-3.48,35.49,35.49,0,0,0-.49-6.17c-.12-.76-.23-1.51-.34-2.27a81.34,81.34,0,0,1-.91-13.85c.12-3.69,1.32-7.69,4.12-10.24A6.36,6.36,0,0,1,26,4.19a6.11,6.11,0,0,1,1.54.53A6.42,6.42,0,0,1,29.93,6.74Z"/><path class="cls-5" d="M27.56,4.72c-1.69,1.17-3.4,2.33-4.25,4.15a11.39,11.39,0,0,0-.73,2.61,25.18,25.18,0,0,0-.51,3.66c-.08,2.15.4,4.28.53,6.43a20.42,20.42,0,0,1-.92,7.53,13.65,13.65,0,0,0-1.38-3.3,11.74,11.74,0,0,1-2.61,6.26c-.12-.76-.23-1.51-.34-2.27a81.34,81.34,0,0,1-.91-13.85c.12-3.69,1.32-7.69,4.12-10.24A6.36,6.36,0,0,1,26,4.19,6.11,6.11,0,0,1,27.56,4.72Z"/><path class="cls-6" d="M33.81,9.53a3.67,3.67,0,1,1-3.67-3.66A3.67,3.67,0,0,1,33.81,9.53Z"/><path class="cls-6" d="M47.5,46.69l1,11-4.83-2.46-2.52-3.12s0-4,0-6h3.66a6.07,6.07,0,0,1,1.65.23h0A10.81,10.81,0,0,1,47.5,46.69Z"/><path class="cls-7" d="M43.64,55.21,35.5,46.13c0-1.35.12-1.86.25-5.19.13-3.72.26-7.2.26-7.2l10.48,4.15a24.47,24.47,0,0,0-1.87,8.44A68.43,68.43,0,0,1,43.64,55.21Z"/><path class="cls-8" d="M46.49,37.89a24.47,24.47,0,0,0-1.87,8.44l-1,.38c-1.22.42-5.13-3.05-7.91-5.77.13-3.72.26-7.2.26-7.2Z"/><path class="cls-7" d="M57.48,25.44c-.21,1-.48,2-.82,3,0,0,.47,5.25-.08,6.42S52.49,43.42,48.79,43c-3.1-.37-10.66-4.91-13.29-7.61A3.08,3.08,0,0,1,34.58,34c-.36-2.08-1.6-11.27-1.72-12-.31-2.08-1.19-17.84,17.88-13.46a9.18,9.18,0,0,1,6.92,6.89A23.08,23.08,0,0,1,57.48,25.44Z"/><path class="cls-3" d="M60.48,15.64a8.22,8.22,0,0,1-.5,2.45,8.75,8.75,0,0,1-2.61,4.26A26.65,26.65,0,0,0,57.09,16C52.54,20.93,43,22.63,42.65,22.69c1.8-.55,2.34-4.16,2.34-4.16C42.82,23.6,33.3,24.64,33.3,24.64,31,22.79,29.44,26.3,29.44,26.3a43.34,43.34,0,0,1-1.92-3.91c-.13-.32-.25-.62-.36-.92A12.9,12.9,0,0,1,26.5,19C25.24,11.41,30.93,4,38.25,1.83h0c6.92-2,15.11-.17,19,3.66a8,8,0,0,1,1.64,2.27,2.87,2.87,0,0,1,.15.37l.05.12a6,6,0,0,1,.37,2.24,7.67,7.67,0,0,1-.16,1.38A7.5,7.5,0,0,1,60.48,15.64Z"/><path class="cls-4" d="M59,8.12a5.46,5.46,0,0,1-1.3.53c-.92.24-1.88.26-2.8.5A5.87,5.87,0,0,0,52.06,11c-1.34,1.53-1.94,3.79-3.75,4.72a5.84,5.84,0,0,1-4.12.07,14.41,14.41,0,0,0-4.11-.85,7.72,7.72,0,0,0-5.54,3.25,6.71,6.71,0,0,1-1.33,1.43,4.3,4.3,0,0,1-2.64.56A10,10,0,0,1,26.5,19a13.67,13.67,0,0,1,.8-7.21,17.06,17.06,0,0,1,11-10h0a22.76,22.76,0,0,1,13.6.47,14.58,14.58,0,0,1,5.37,3.19,8,8,0,0,1,1.64,2.27A2.87,2.87,0,0,1,59,8.12Z"/><path class="cls-5" d="M51.88,2.29c-2.23,1.83-3.37,5-6.08,6-1.57.59-3.31.28-5,.09s-3.5-.2-4.82.83c-.69.55-1.16,1.32-1.81,1.91A6.1,6.1,0,0,1,29,12.29a10.83,10.83,0,0,1-1.66-.48,17.06,17.06,0,0,1,11-10h0A22.76,22.76,0,0,1,51.88,2.29Z"/><path class="cls-9" d="M56.66,28.49s.47,5.25-.08,6.42S52.49,43.42,48.79,43c-3.1-.37-10.66-4.91-13.29-7.61,3.22,2.24,11.81,7.95,14.33,7.07,3.12-1.08,6.65-8,6.58-8.68s-.27-5.16-.27-5.16.63-1.41,1.34-3.14C57.27,26.41,57,27.42,56.66,28.49Z"/><path class="cls-9" d="M35.43,33.74A7.3,7.3,0,0,1,30.37,31a6.31,6.31,0,0,1-.51-.76c-.68-1.24-.88-5.53.88-6.53,1.23-.7,2.13.31,2.56,1h0a4.39,4.39,0,0,1,.28.5Z"/><path class="cls-7" d="M35.43,33.74A7.3,7.3,0,0,1,30.37,31c-.08-.13-.16-.24-.22-.35-.68-1.24-.88-5.54.88-6.54a1.7,1.7,0,0,1,2.27.58h0a4.39,4.39,0,0,1,.28.5Z"/><path class="cls-8" d="M30.19,27.07a1.77,1.77,0,0,0,.08,1c.48,1.45,1.92,2.55,3.3,3.57a3.63,3.63,0,0,1-.49-2.26,7.53,7.53,0,0,0,.09-.8C33.18,27.54,30.71,25,30.19,27.07Z"/><path class="cls-10" d="M34.26,32.09,34.18,32,34,31.91a3,3,0,0,1-.68-.61,2.81,2.81,0,0,1-.56-1.15,2.44,2.44,0,0,1,.17-1.51c0-.07.07-.13.1-.19l0-.05h0l0,0,0-.09-.09-.16a5.19,5.19,0,0,0-.42-.59c-.14-.18-.29-.35-.44-.51a5.37,5.37,0,0,0-.44-.41,1.05,1.05,0,0,0-.44-.19.69.69,0,0,0-.39.06.39.39,0,0,0-.16.15.18.18,0,0,0,0,.08.13.13,0,0,1,0-.08.32.32,0,0,1,.14-.2.71.71,0,0,1,.43-.13,1.12,1.12,0,0,1,.6.17,3.49,3.49,0,0,1,.53.38,4.93,4.93,0,0,1,.53.5,3.74,3.74,0,0,1,.49.61l.11.16.06.09.07.12.05.09a.35.35,0,0,0-.05.08l-.07.13a.83.83,0,0,0-.09.16,2.58,2.58,0,0,0-.22,1.34,2.86,2.86,0,0,0,.36,1.09,3.92,3.92,0,0,0,.52.67l.19.16Z"/><path class="cls-6" d="M43.64,55.21l-6.19,4.84L31.63,47.27a39,39,0,0,1,3.87-1.14Z"/><path class="cls-3" d="M37.77,28.77c0-.21-.11-.52-.21-.9a9.52,9.52,0,0,0-.47-1.29,5.88,5.88,0,0,0-1-1.44,5,5,0,0,0-1.39-1,7.28,7.28,0,0,0-1.29-.51L33,23.47l-.27-.24s0,.08.09.2l-.28-.05-.33-.05.78.51.39.9a15.86,15.86,0,0,1,1.11,3.55A21,21,0,0,1,34.67,32c0,.5,0,.91,0,1.2s0,.44,0,.44l.18-.41c.11-.26.26-.64.42-1.13a10.55,10.55,0,0,0,.43-1.76,7.32,7.32,0,0,0,0-2.29,7.16,7.16,0,0,0-.77-2.16,9.3,9.3,0,0,0-1-1.43,9.65,9.65,0,0,1,1.5,1.29,16.14,16.14,0,0,1,1.69,2.28l.5.76.19.28Z"/><path class="cls-4" d="M59.21,21.66s-2.44-3.25-3.79-2-.75,1.42-.75,1.42Z"/><path class="cls-4" d="M40,22.16s4.49-5.17,6.33-3.33c1.07,1.07.32,1.8.32,1.8Z"/><path class="cls-8" d="M49.66,31.86a2.7,2.7,0,0,0-1.19-.31,4,4,0,0,0,2.16,2.08.48.48,0,0,0,.23,0,.52.52,0,0,0,.27-.1,4.67,4.67,0,0,0,1.37-1.21,1,1,0,0,0,.17-.33c.1-.4-.18-.31-.42-.22a3.11,3.11,0,0,1-.86.22A3.63,3.63,0,0,1,49.66,31.86Z"/><path class="cls-10" d="M50.72,33.4c.24-.22.52-.4.77-.62a6.83,6.83,0,0,0,.84-.86c-1.3-.9-1.28-2.26-1.22-3.8a4.43,4.43,0,0,1,.56-2,4.67,4.67,0,0,1,.64-.89,5,5,0,0,1,.41-.38,1.53,1.53,0,0,1,.45-.25c-.08.09-.14.2-.21.29-.19.25-.39.48-.55.74a6.58,6.58,0,0,0-.42.84,5.44,5.44,0,0,0-.39,1.82,4.6,4.6,0,0,0,.29,1.8,3.52,3.52,0,0,0,1.31,1.68s-.89,1-1,1.12a4.26,4.26,0,0,1-.74.59,1.57,1.57,0,0,1-.87.34.51.51,0,0,1-.29-.08l.16-.12.06-.07A1.49,1.49,0,0,1,50.72,33.4Z"/><path class="cls-10" d="M48.47,37.4a3.79,3.79,0,0,0,3.16.09,1.61,1.61,0,0,1-1.44.78A2.73,2.73,0,0,1,48.47,37.4Z"/><path class="cls-10" d="M44.81,34.63a9.49,9.49,0,0,0,8.75,1.21,14.21,14.21,0,0,1-4.78,0A10.85,10.85,0,0,1,44.81,34.63Z"/><path class="cls-8" d="M54.56,32.4c.21.56,1.41.63,2.69.15s2.14-1.32,1.93-1.87-1.41-.62-2.69-.15S54.35,31.85,54.56,32.4Z"/><path class="cls-8" d="M38.53,29.81c-.22.84,1.16,1.92,3.09,2.42s3.65.22,3.87-.62-1.16-1.92-3.09-2.42S38.75,29,38.53,29.81Z"/><path class="cls-11" d="M46.5,27.12a1.37,1.37,0,0,0-.21-.16,2.28,2.28,0,0,0-.6-.27,9.79,9.79,0,0,0-1-.23l-1.18-.2a10,10,0,0,0-2.16-.13,6.42,6.42,0,0,0-.68.08l-.26.05a1.54,1.54,0,0,1,.2-.18,3.22,3.22,0,0,1,.62-.39,4.24,4.24,0,0,1,2.41-.35,4.87,4.87,0,0,1,1.29.38,4.26,4.26,0,0,1,1,.57,1.78,1.78,0,0,1,.48.58A1.23,1.23,0,0,1,46.5,27.12Z"/><path class="cls-11" d="M58.1,26.38h-.65c-.39,0-.88.08-1.45.08s-1.08-.09-1.45-.09a2.72,2.72,0,0,0-.45,0l-.18,0a1.43,1.43,0,0,1,.1-.16,1.54,1.54,0,0,1,.39-.35A3,3,0,0,1,56,25.54a3,3,0,0,1,1.58.4,1.63,1.63,0,0,1,.4.31A1.21,1.21,0,0,1,58.1,26.38Z"/><path class="cls-6" d="M56,21.26a4.85,4.85,0,0,0-4.79,4.14,3.18,3.18,0,0,0-2.33.05,5.3,5.3,0,0,0-10.22-1.29l-7-1.14-.13.81L38.45,25a5.13,5.13,0,0,0-.12,1.12,5.3,5.3,0,0,0,10.6.25,2.35,2.35,0,0,1,2.26,0,4.85,4.85,0,1,0,4.84-5Zm-12.39,9.3a4.5,4.5,0,1,1,4.49-4.49A4.5,4.5,0,0,1,43.64,30.56ZM56,30.15a4,4,0,1,1,4-4A4,4,0,0,1,56,30.15Z"/><path class="cls-12" d="M10.19,74.17s2.63,3.17,2.22,3.44-2.89-1.39-2.89-1.39S8.79,79,8,79.24s.27-4.39.27-4.39c-1.66-1.2-21.38-9.83-28-12.7l.6-1S5.61,71,8.72,73.66c0,0,5-8.92,6.68-11.41,0,0,7.52-10.22,8.91-10.76C23.91,51.79,10.19,74.17,10.19,74.17Z"/><path class="cls-12" d="M78,71.71c-.78.67-2.28-.82-2.28-.82s-1,2.58-1.76,2.65.48-2.78.48-2.78C73.82,69.57,64,60.45,57,54.13l-5.28-4.8-1.41-1.28c.48.28,1,.61,1.56,1a29.37,29.37,0,0,1,3.66,2.62A190.69,190.69,0,0,1,74.45,68.48c.2.19.31.31.31.31,2.4-3.35,24.15-18.71,24.15-18.71l1,1.06L76.08,69.26S78.73,71,78,71.71Z"/></svg>