<svg id="Layer_1" data-name="Layer 1" xmlns="http://www.w3.org/2000/svg" viewBox="0 0 75 92"><defs><style>.cls-1{fill:#c6221e;}.cls-2{fill:#aa1313;}.cls-3{fill:#333;}.cls-4{fill:#f9c38a;}.cls-5{fill:#e59553;}.cls-6{fill:#d73d33;}.cls-7{fill:#fff;}.cls-8{fill:#96281b;}</style></defs><path class="cls-1" d="M90.34,106C88,101.82,73.73,84,69.44,78.26c-1.23,1.18-4.25,1.91-5.29,2.78-2.62,2.19-48.52-2.74-50.72-4.56q-.67-.37-1.32-.81a11.22,11.22,0,0,0-1.47,1.69c-3.21,4.5-19,24.21-21.56,28.64-1.88,3.27.68,6.72,2.41,9.55,5.93,9.74,21.16,22.23,21.16,22.23l4.77-5.08C14.37,129,1.65,113.53.29,108.52c4.06-3.51,18-16.43,18-16.43s-1.6,3.75-2.62,7.06c-.84,2.74-1.29,5.74,1.67,10.45a26.45,26.45,0,0,1,2.83,5.84c2,6.33,2,13,2.14,16.61l34.56.41a62.58,62.58,0,0,1,2.4-16.41,24.56,24.56,0,0,1,2.43-6.23,13.56,13.56,0,0,0,2-10.61,30.11,30.11,0,0,0-2.45-7.12s13.93,12.92,18,16.43c-1.31,4.85-13.28,19.55-16.8,23.8L67,137.51s15-12.22,20.9-22C89.66,112.72,92.22,109.27,90.34,106Z"/><path class="cls-1" d="M45.85,77.64c6-.28,12.3-.45,18.13-1.83.79-.19,1.73-.5,2.68-.73a11.87,11.87,0,0,0-5.92-2.64l-21,2.28-21-2.28a10.1,10.1,0,0,0-2.33.59,25.64,25.64,0,0,0,12.58,4.43A164.64,164.64,0,0,0,45.85,77.64Z"/><path class="cls-2" d="M19,83.65c1.81,2.27,9.14,9.27,21.8,9.39,6.89.07,11.7-2.24,16.46-5.5,2.81-1.93,5.44-4.08,8.06-6.27,1-.87,2.91-1.83,4.14-3l-.66-.9a12,12,0,0,0-2.12-2.28c-1,.23-1.89.54-2.68.73-5.83,1.38-12.17,1.55-18.13,1.83a164.64,164.64,0,0,1-16.92-.18A25.64,25.64,0,0,1,16.35,73a12,12,0,0,0-4.24,2.64q.64.43,1.32.81C15.63,78.3,17.63,81.94,19,83.65Z"/><path class="cls-3" d="M41.33,12.16c-7,.27-16.09,1.22-19.78,13.09S18,47.54,17.19,51.17c-1.91,9,0,10.23,2.18,12.27s1.91,4.09-1.64,3.82c-2.85-.22-6.35,6.13-3.82,6.55,3.28.54,2.52,8,15.55,13.78,12.21,5.45,17.93,3.07,22.44.88,10.71-5.18,13.51-10,18.48-12.21,4-1.79,1.91-4.91-2.45-5.45-4.14-.52.54-4.64-2.18-8.46-1.42-2-3.28-1.36-4-5.18C61.2,53.85,65,40.68,62.75,31,59.88,18.7,55.65,11.59,41.33,12.16Z"/><path class="cls-4" d="M57.56,43.11c-.46-7.86-.8-11.24-5.81-14.73a18.61,18.61,0,0,0-10.1-2.75h-.16a18.61,18.61,0,0,0-10.1,2.75c-5,3.49-5.35,6.87-5.81,14.73a35.28,35.28,0,0,0,1.6,12.08,17.78,17.78,0,0,0,4.89,7c2.89,2.52,5.5,4.07,8.61,4.38.27,0,1.61,0,1.93,0,3-.35,5.61-1.89,8.45-4.37a17.7,17.7,0,0,0,4.9-7A35.28,35.28,0,0,0,57.56,43.11Z"/><path class="cls-5" d="M43.92,50.92c-.34-1.43-1.48-2.05-1.25-.23.12,1,.57,1.81-.45,2.68-.55.45,0,.93.57.51A2.3,2.3,0,0,0,43.92,50.92Z"/><path class="cls-6" d="M46.24,58c-1.46,0-2.59-1-4.29-1.16a7.86,7.86,0,0,0-3,.38,15.45,15.45,0,0,1-2.5.74c-.62,0-1.2-.08-.3.46a2.79,2.79,0,0,0,1.13.29,5,5,0,0,0,4.27,2.68,3.65,3.65,0,0,0,3.79-2.58,3,3,0,0,0,1-.3C47.15,58.08,46.69,58,46.24,58Z"/><path class="cls-1" d="M37.27,58.75a31.08,31.08,0,0,1,4.29-.42,16.79,16.79,0,0,1,3.77.52,13.55,13.55,0,0,1-3.62.46A20.65,20.65,0,0,1,37.27,58.75Z"/><path class="cls-5" d="M29.86,44.19c.33-.17.64-.62.91-.52l0-.07A3.68,3.68,0,0,1,32,42.33a4.41,4.41,0,0,1,3.8-.28,3.42,3.42,0,0,1,1.51,1.29c.29-1.57-1.27-4.69-4.27-4C29.76,40,29.83,44.2,29.86,44.19Z"/><path class="cls-7" d="M29.81,44.14s1.1-2.7,3.34-2.8a4,4,0,0,1,4.07,2c.67,1.24-.51,2.73-2.19,3.09C32.87,46.94,29.29,46,29.81,44.14Z"/><path class="cls-8" d="M33,41.11a4,4,0,0,0-3.29,3c-.1.44.17.61.43.12a4.43,4.43,0,0,1,2.92-2.52A4.21,4.21,0,0,1,37,43.53c.14.18.51.08.42-.16A3.91,3.91,0,0,0,33,41.11Z"/><path class="cls-8" d="M35.43,44.23A1.84,1.84,0,1,1,34,42.07,1.85,1.85,0,0,1,35.43,44.23Z"/><path class="cls-7" d="M34.44,43.58a.69.69,0,0,1-.82.55.69.69,0,1,1,.82-.55Z"/><path class="cls-5" d="M52.94,44.19c-.33-.17-.64-.62-.91-.52,0,0,0-.05,0-.07a3.68,3.68,0,0,0-1.18-1.27,4.41,4.41,0,0,0-3.8-.28,3.53,3.53,0,0,0-1.51,1.29c-.29-1.57,1.28-4.69,4.27-4C53,40,53,44.2,52.94,44.19Z"/><path class="cls-7" d="M53,44.14s-1.1-2.7-3.34-2.8a4.05,4.05,0,0,0-4.07,2c-.66,1.24.52,2.73,2.19,3.09C49.93,46.94,53.51,46,53,44.14Z"/><path class="cls-8" d="M49.8,41.11a4,4,0,0,1,3.3,3c.09.44-.17.61-.44.12a4.43,4.43,0,0,0-2.92-2.52,4.21,4.21,0,0,0-3.94,1.81c-.14.18-.51.08-.42-.16A3.91,3.91,0,0,1,49.8,41.11Z"/><path class="cls-8" d="M47.38,44.23a1.84,1.84,0,1,0,1.46-2.16A1.84,1.84,0,0,0,47.38,44.23Z"/><path class="cls-7" d="M48.37,43.58a.69.69,0,0,0,1.36-.26.69.69,0,0,0-.81-.55A.68.68,0,0,0,48.37,43.58Z"/><path class="cls-8" d="M37.33,34.6c-2.06-1.74-7.16-.83-8.67,2.7-.12.27.12.49.27.3a9,9,0,0,1,1.3-1.4,7.31,7.31,0,0,1,6.77-1C37.59,35.43,37.77,35,37.33,34.6Z"/><path class="cls-8" d="M45.74,34.31c2.06-1.74,7.16-.82,8.66,2.71.12.26-.12.49-.27.29a8.12,8.12,0,0,0-1.3-1.39,7.31,7.31,0,0,0-6.77-1C45.47,35.14,45.3,34.68,45.74,34.31Z"/><path class="cls-1" d="M25.64,42.3s2-14.39,16.51-14.19S57.56,42.57,57.56,42.57s4.63-19.92-13.36-23C30.08,17.07,21.14,31.12,25.64,42.3Z"/></svg>