<svg id="Layer_1" data-name="Layer 1" xmlns="http://www.w3.org/2000/svg" viewBox="0 0 75 92"><defs><style>.cls-1{fill:#c4854d;}.cls-2{fill:#302c00;}.cls-3{fill:#7c5700;}.cls-4{fill:#16160e;}.cls-5{fill:#6c6c6c;}.cls-6{fill:#f5d4d2;}.cls-7{opacity:0.19;}.cls-8{fill:#3b1a00;}.cls-9{fill:#696969;}.cls-10{fill:#fff9fb;}.cls-11{opacity:0.61;}.cls-12{fill:#514e86;}.cls-13{fill:#341624;}</style></defs><path class="cls-1" d="M75.71,92h-76c0-.61,0-1.2,0-1.78v-.5c0-.1,0-.2,0-.29v-.17c0-.06,0-.12,0-.18s0-.2,0-.3a2.81,2.81,0,0,1,0-.29v-.21A1.93,1.93,0,0,0-.3,88a1.28,1.28,0,0,0,0-.19,1.48,1.48,0,0,0,0-.21s0,0,0-.08a1.09,1.09,0,0,1,0-.18,1,1,0,0,1,0-.17v-.07c0-.08,0-.16,0-.24s0-.16,0-.24,0-.15,0-.22,0-.14,0-.2a1.64,1.64,0,0,0,0-.22c0-.06,0-.13,0-.19s0-.31,0-.47,0-.11,0-.17a.78.78,0,0,1,0-.16,2.28,2.28,0,0,1,0-.26c0-.1,0-.21,0-.31a1.5,1.5,0,0,0,0-.2c0-.35.09-.69.14-1,0-.15,0-.3.07-.44v0l0-.18c0-.1,0-.2,0-.3l0-.17c0-.14,0-.28.07-.42a1.55,1.55,0,0,0,0-.21c0-.08,0-.16,0-.24s0-.13,0-.2l0-.1c0-.06,0-.12,0-.18a1.42,1.42,0,0,1,.05-.22l.06-.29a1.17,1.17,0,0,1,.05-.2l0-.17,0-.12,0-.08a1.16,1.16,0,0,0,0-.18l.06-.22c0-.09,0-.18.07-.27s0-.11,0-.16.07-.27.11-.4a.83.83,0,0,0,0-.15c.17-.59.36-1.17.55-1.73,0,0,0-.1.05-.15.08-.22.15-.43.23-.64a.87.87,0,0,0,.07-.17l.09-.24c0-.06,0-.11.07-.16s0-.12.07-.19l.08-.18a1.08,1.08,0,0,1,.08-.19,1.42,1.42,0,0,1,.08-.18c.08-.19.16-.38.25-.57a1,1,0,0,1,.07-.15,3.78,3.78,0,0,1,.17-.35c.19-.41.4-.8.6-1.19l.06-.1.6-1L4.39,71a5.08,5.08,0,0,1,.27-.43.61.61,0,0,1,.07-.1c.14-.22.28-.43.43-.64l.09-.13c.18-.26.37-.51.55-.75L6,68.64l.6-.73.08-.09.11-.13c.36-.41.72-.79,1.09-1.16L8,66.41l.12-.11.11-.12.35-.33.22-.19,0,0L9,65.46l.22-.19.2-.18.25-.21.21-.16.2-.16.24-.2.63-.47.11-.08.9-.63.13-.09.13-.08.67-.43.16-.09.34-.21.13-.08.49-.28.18-.1.11-.06.13-.07.37-.2c.35-.19.7-.36,1-.53l.66-.32.64-.3.29-.12L18,60l.24-.1c.64-.27,1.26-.51,1.86-.75L20.4,59l.73-.27.19-.08.8-.29.17-.07.16,0,.2-.08c.67-.25,1.29-.48,1.87-.72l.15-.05.61-.26,1-.48.54-.3.24-.15.11-.07a6.51,6.51,0,0,0,1.5-1.41,8.66,8.66,0,0,0,1.37-2.67,14.24,14.24,0,0,0,.59-3.2,24.5,24.5,0,0,0-.18-5.07,28.43,28.43,0,0,0-.68-3.57h15.8a26.89,26.89,0,0,0-.68,10.17,11.22,11.22,0,0,0,.43,1.73,8.46,8.46,0,0,0,1.35,2.62,6.63,6.63,0,0,0,1.6,1.47l.06,0,.12.07c.12.08.25.15.38.22.39.21.82.41,1.28.62.62.26,1.3.53,2,.8l.19.08.28.1.43.16,1.27.47.17.06L55,59l.5.2.18.07.17.06.34.14.17.07.53.22.18.07.35.15.51.22.22.1.25.11.16.08.13.06.87.41.18.09h0l.22.11c.29.15.58.3.86.46l0,0,.2.11.24.13.39.23.1.06c.17.09.33.19.49.29l.23.14.39.24.12.08.12.08.12.08.61.42.12.08.12.09.12.08.13.1.11.08.15.11.33.25.12.1.24.18.11.1.12.1.12.09.12.1.11.1.12.1.23.2.24.21.23.21c.07.07.15.14.22.22s.23.21.34.32l.12.12c.18.18.37.37.55.57l.22.24.11.12,0,0,.2.22.16.18c0,.07.11.13.16.19l0,0,.14.17,0,0,.15.17v0l.15.2,0,0,.14.17.18.24.18.25.09.12.1.14.1.14.1.15.19.27.09.13.21.33.08.13a1.3,1.3,0,0,1,.1.15l.18.29.1.18.09.14.07.13c.17.29.33.58.49.88l.1.19s.05.11.08.16a2.26,2.26,0,0,1,.11.22l.07.14.51,1.08.07.18.09.2.09.21c.15.37.3.75.44,1.13l.12.36h0c.09.23.17.48.25.72l0,.13,0,.15a.88.88,0,0,0,0,.15c0,.15.09.3.14.46a1.94,1.94,0,0,0,.05.2c.11.35.21.72.3,1.09,0,.06,0,.12,0,.18l.05.19c0,.09,0,.19.07.28s0,.12,0,.18a1,1,0,0,0,0,.17.5.5,0,0,0,0,.12c.1.42.18.86.26,1.3,0,.08,0,.15,0,.23s.07.41.1.62l0,.16s0,.06,0,.1l0,.16,0,.19,0,.21,0,.24.15,1.19a1.11,1.11,0,0,0,0,.19c0,.19,0,.37,0,.56s0,.13,0,.19l0,.31v.21c0,.07,0,.14,0,.22,0,.57.08,1.16.1,1.75a.61.61,0,0,0,0,.14v.22a2.09,2.09,0,0,1,0,.25v0c0,.07,0,.13,0,.19v.19c0,.08,0,.15,0,.23v.29C75.73,90.52,75.73,91.25,75.71,92Z"/><path class="cls-2" d="M75.71,92h-76c0-.61,0-1.2,0-1.78v-.5c0-.1,0-.2,0-.29v-.17c0-.06,0-.12,0-.18s0-.2,0-.3a2.81,2.81,0,0,1,0-.29v-.21A1.93,1.93,0,0,0-.3,88a1.28,1.28,0,0,0,0-.19,1.48,1.48,0,0,0,0-.21s0,0,0-.08a1.09,1.09,0,0,1,0-.18,1,1,0,0,1,0-.17v-.07c0-.08,0-.16,0-.24s0-.16,0-.24,0-.15,0-.22,0-.14,0-.2a1.64,1.64,0,0,0,0-.22c0-.06,0-.13,0-.19s0-.31,0-.47,0-.11,0-.17a.78.78,0,0,1,0-.16,2.28,2.28,0,0,1,0-.26c0-.1,0-.21,0-.31a1.5,1.5,0,0,0,0-.2c0-.35.09-.69.14-1,0-.15,0-.3.07-.44v0l0-.18c0-.1,0-.2,0-.3l0-.17c0-.14,0-.28.07-.42a1.55,1.55,0,0,0,0-.21c0-.08,0-.16,0-.24s0-.13,0-.2l0-.1c0-.06,0-.12,0-.18a1.42,1.42,0,0,1,.05-.22l.06-.29a1.17,1.17,0,0,1,.05-.2l0-.17,0-.12,0-.08a1.16,1.16,0,0,0,0-.18l.06-.22c0-.09,0-.18.07-.27s0-.11,0-.16.07-.27.11-.4a.83.83,0,0,0,0-.15c.17-.59.36-1.17.55-1.73,0,0,0-.1.05-.15.08-.22.15-.43.23-.64a.87.87,0,0,0,.07-.17l.09-.24c0-.06,0-.11.07-.16s0-.12.07-.19l.08-.18a1.08,1.08,0,0,1,.08-.19,1.42,1.42,0,0,1,.08-.18c.08-.19.16-.38.25-.57a1,1,0,0,1,.07-.15,3.78,3.78,0,0,1,.17-.35c.19-.41.4-.8.6-1.19l.06-.1.6-1L4.39,71a5.08,5.08,0,0,1,.27-.43.61.61,0,0,1,.07-.1c.14-.22.28-.43.43-.64l.09-.13c.18-.26.37-.51.55-.75L6,68.64l.6-.73.08-.09.11-.13c.36-.41.72-.79,1.09-1.16L8,66.41l.12-.11.11-.12.35-.33.22-.19,0,0L9,65.46l.22-.19.2-.18.25-.21.21-.16.2-.16.24-.2.63-.47.11-.08.9-.63.13-.09.13-.08.67-.43.16-.09.34-.21.13-.08.49-.28.18-.1.11-.06.13-.07.37-.2c.35-.19.7-.36,1-.53l.66-.32.64-.3.29-.12L18,60l.24-.1c.64-.27,1.26-.51,1.86-.75L20.4,59l.73-.27.19-.08.8-.29.17-.07.16,0,.2-.08c.67-.25,1.29-.48,1.87-.72l.15-.05.61-.26,1-.48.54-.3.24-.15.11-.07a6.51,6.51,0,0,0,1.5-1.41,8.66,8.66,0,0,0,1.37-2.67c.51.33,4.11,8.35,8.06,8.5,2.38.09,4.53-6.59,7.22-8.44a8.46,8.46,0,0,0,1.35,2.62,6.63,6.63,0,0,0,1.6,1.47l.06,0,.12.07c.12.08.25.15.38.22.39.21.82.41,1.28.62.62.26,1.3.53,2,.8l.19.08.28.1.43.16,1.27.47.17.06L55,59l.5.2.18.07.17.06.34.14.17.07.53.22.18.07.35.15.51.22.22.1.25.11.16.08.13.06.87.41.18.09h0l.22.11c.29.15.58.3.86.46l0,0,.2.11.24.13.39.23.1.06c.17.09.33.19.49.29l.23.14.39.24.12.08.12.08.12.08.61.42.12.08.12.09.12.08.13.1.11.08.15.11.33.25.12.1.24.18.11.1.12.1.12.09.12.1.11.1.12.1.23.2.24.21.23.21c.07.07.15.14.22.22s.23.21.34.32l.12.12c.18.18.37.37.55.57l.22.24.11.12,0,0,.2.22.16.18c0,.07.11.13.16.19l0,0,.14.17,0,0,.15.17v0l.15.2,0,0,.14.17.18.24.18.25.09.12.1.14.1.14.1.15.19.27.09.13.21.33.08.13a1.3,1.3,0,0,1,.1.15l.18.29.1.18.09.14.07.13c.17.29.33.58.49.88l.1.19s.05.11.08.16a2.26,2.26,0,0,1,.11.22l.07.14.51,1.08.07.18.09.2.09.21c.15.37.3.75.44,1.13l.12.36h0c.09.23.17.48.25.72l0,.13,0,.15a.88.88,0,0,0,0,.15c0,.15.09.3.14.46a1.94,1.94,0,0,0,.05.2c.11.35.21.72.3,1.09,0,.06,0,.12,0,.18l.05.19c0,.09,0,.19.07.28s0,.12,0,.18a1,1,0,0,0,0,.17.5.5,0,0,0,0,.12c.1.42.18.86.26,1.3,0,.08,0,.15,0,.23s.07.41.1.62l0,.16s0,.06,0,.1l0,.16,0,.19,0,.21,0,.24.15,1.19a1.11,1.11,0,0,0,0,.19c0,.19,0,.37,0,.56s0,.13,0,.19l0,.31v.21c0,.07,0,.14,0,.22,0,.57.08,1.16.1,1.75a.61.61,0,0,0,0,.14v.22a2.09,2.09,0,0,1,0,.25v0c0,.07,0,.13,0,.19v.19c0,.08,0,.15,0,.23v.29C75.73,90.52,75.73,91.25,75.71,92Z"/><ellipse class="cls-1" cx="21.86" cy="31.19" rx="4.23" ry="4.58"/><ellipse class="cls-3" cx="21.86" cy="31.19" rx="2.64" ry="2.86"/><ellipse class="cls-1" cx="52.2" cy="31.24" rx="4.23" ry="4.58"/><ellipse class="cls-3" cx="52.2" cy="31.24" rx="2.64" ry="2.86"/><path class="cls-3" d="M44.91,49a6.54,6.54,0,0,1-3.59,2.18c-4.78,1.08-8.54-1.46-10.67-3.5a18.29,18.29,0,0,0-.18-4.38,18.3,18.3,0,0,1,4.91-3.09H45.59A20.24,20.24,0,0,0,44.91,49Z"/><path class="cls-1" d="M53.41,24.22v.32c0,.74,0,1.49-.13,2.23-1,10.38-7.91,20.78-16.3,20.78S21.7,37.18,20.68,26.81c-.05-.57-.09-1.13-.11-1.7,0-.3,0-.59,0-.89C20.56,13.07,27.91,4,37,4S53.41,13.07,53.41,24.22Z"/><ellipse class="cls-4" cx="43.22" cy="26.05" rx="1.43" ry="2.05"/><ellipse class="cls-4" cx="30.32" cy="26.14" rx="1.43" ry="2.05"/><path class="cls-4" d="M29.24,25Zm0,0Z"/><path class="cls-5" d="M31.83,23c-.06,0-1.52-1.11-3.53.44a.62.62,0,0,1-.9-.17.74.74,0,0,1,.16-1,4.41,4.41,0,0,1,3.51-1,3.53,3.53,0,0,1,1.51.6s.66.47.32,1-1.07.17-1.07.17Z"/><path class="cls-5" d="M41.71,22.74c.06,0,1.52-1.11,3.53.43a.61.61,0,0,0,.9-.16A.75.75,0,0,0,46,22a4.49,4.49,0,0,0-3.51-1A3.48,3.48,0,0,0,41,21.6s-.66.47-.32,1,1.07.16,1.07.16Z"/><path class="cls-3" d="M34.05,30s1.46-4.7,2.62-4.61,3.94,6.05,3.94,6.05Z"/><path class="cls-6" d="M53.41,26.58a20,20,0,0,1-.13,2c-.07.68-.17,1.36-.3,2s-.27,1.24-.43,1.84l-.14.5s0,.1,0,.15c-.07.25-.16.51-.24.76l0,.06c-.07.22-.15.43-.23.64s-.12.33-.19.5a1.12,1.12,0,0,1,0,.13l-.06.15c0,.14-.11.27-.17.41l-.16.37-.19.42c-.15.32-.31.65-.48,1s-.47.89-.73,1.32-.49.79-.75,1.17l-.28.41-.22.3-.12.17-.15.19,0,0c-.24.31-.49.61-.74.9h0l-.21.25c-.17.18-.33.36-.5.53l-.19.2-.33.33-.28.27a16.86,16.86,0,0,1-2.46,1.9l-.18.12a12.82,12.82,0,0,1-4.29,1.69l-.29,0-.43.07-.32,0a9.76,9.76,0,0,1-1.08,0,11.72,11.72,0,0,1-4.19-.79l-.42-.18-.21-.09a13.83,13.83,0,0,1-2.09-1.16L29.58,45l-.52-.39c-.33-.26-.65-.54-1-.82l-.5-.48-.18-.17c-.4-.4-.79-.83-1.17-1.28l-.3-.37a19.91,19.91,0,0,1-1.25-1.72c-.3-.45-.58-.91-.85-1.39-.15-.27-.3-.54-.44-.81s-.34-.67-.5-1v0l-.06-.12c-.12-.27-.24-.54-.35-.81s-.11-.27-.17-.41-.15-.39-.22-.58L22,34.26a1.46,1.46,0,0,0-.07-.19h0c-.12-.35-.23-.7-.34-1.06,0-.13-.07-.26-.11-.39a25.77,25.77,0,0,1-.77-4c-.05-.51-.09-1-.11-1.55a12.25,12.25,0,0,0,2.95,2.74l.54.33a9.51,9.51,0,0,0,2.62,1,4.37,4.37,0,0,0,1.72,0L29,31c1.21-.33,2.55-.92,3.93-1.42l.42-.16.26-.08h0l.77-.24a9.27,9.27,0,0,1,2.57-.39,8.87,8.87,0,0,1,3.2.75l1,.44a12.39,12.39,0,0,0,3.58,1.2h0A4.62,4.62,0,0,0,46.17,31a5.66,5.66,0,0,0,.59-.15l.27-.1a4,4,0,0,0,.56-.25l.23-.11.31-.18c1.27-.74,2.49-1.84,3.83-2.77l.38-.26C52.68,27,53,26.78,53.41,26.58Z"/><g class="cls-7"><path d="M18.69,91.86H16.4c.33-3.46.94-9.42,1.19-9.49S18.33,87.81,18.69,91.86Z"/></g><g class="cls-7"><polygon points="60.23 91.99 58.1 91.99 58.83 82.5 60.23 91.99"/></g><path class="cls-8" d="M30.08,31.15a5.64,5.64,0,0,1-5.4-5.85,5.65,5.65,0,0,1,5.4-5.86,5.66,5.66,0,0,1,5.4,5.86A5.65,5.65,0,0,1,30.08,31.15Zm0-11a5,5,0,0,0-4.75,5.15,5,5,0,0,0,4.75,5.15,5,5,0,0,0,4.75-5.15A5,5,0,0,0,30.08,20.15Z"/><path class="cls-8" d="M43.41,31A5.65,5.65,0,0,1,38,25.11a5.64,5.64,0,0,1,5.39-5.85,5.64,5.64,0,0,1,5.4,5.85A5.65,5.65,0,0,1,43.41,31Zm0-11a5,5,0,0,0-4.75,5.15,5,5,0,0,0,4.75,5.16,5,5,0,0,0,4.76-5.16A5,5,0,0,0,43.41,20Z"/><path class="cls-8" d="M35,26.74l-.11,0a.34.34,0,0,1-.16-.42c0-.07.72-1.83,1.88-1.9.73,0,1.43.57,2.09,1.83a.33.33,0,0,1-.11.43.28.28,0,0,1-.39-.12c-.54-1-1.07-1.54-1.55-1.51-.67,0-1.22,1.11-1.38,1.52A.3.3,0,0,1,35,26.74Z"/><path class="cls-9" d="M53.4,26.57c-3.65-3.66-6.21-12.44-6.21-12.44-11.57,6.31-20.8.19-20.89.12h0a46.78,46.78,0,0,1-5.46,13C18.59,12.88,25.56,4.2,35,3.2S51,6.85,52.77,15.3,53.4,26.57,53.4,26.57Z"/><polygon class="cls-10" points="30.29 50.79 37.66 60.46 45.08 51.09 47.35 55.12 43.35 68.19 37.66 61.29 32.31 68.34 28.2 54.97 30.29 50.79"/><g class="cls-7"><path d="M53.4,26.57c-3.65-3.66-6.21-12.44-6.21-12.44-11.57,6.31-20.8.19-20.89.12.12,0,13.49,2.45,22.17-4.16C48.47,10.09,49.05,19.26,53.4,26.57Z"/></g><g class="cls-11"><ellipse class="cls-12" cx="25.05" cy="34.44" rx="2.92" ry="0.59"/><path class="cls-12" d="M25.6,34.44c0,1.75-.25,3.17-.55,3.17s-.55-1.42-.55-3.17.25-3.16.55-3.16S25.6,32.69,25.6,34.44Z"/></g><g class="cls-11"><ellipse class="cls-12" cx="34.01" cy="31.45" rx="2.92" ry="0.59"/><path class="cls-12" d="M34.56,31.45c0,.2,0,.4,0,.59,0,1.47-.27,2.58-.54,2.58s-.49-1.11-.54-2.58c0-.19,0-.39,0-.59s0-.39,0-.58a14.62,14.62,0,0,1,.13-1.54h0l.77-.24a12.62,12.62,0,0,1,.18,1.78C34.55,31.06,34.56,31.25,34.56,31.45Z"/></g><g class="cls-11"><path class="cls-12" d="M31.56,41.12c-1.61,0-2.92-.27-2.92-.6s1.31-.59,2.92-.59,2.92.26,2.92.59S33.17,41.12,31.56,41.12Z"/><ellipse class="cls-12" cx="31.56" cy="40.52" rx="0.55" ry="3.17"/></g><g class="cls-11"><ellipse class="cls-12" cx="40.25" cy="37.3" rx="2.92" ry="0.59"/><ellipse class="cls-12" cx="40.25" cy="37.3" rx="0.55" ry="3.17"/></g><g class="cls-11"><path class="cls-12" d="M50.22,31.37c0,.29-1,.53-2.38.58H46.76c-1.35-.05-2.38-.29-2.38-.58,0-.1.13-.2.36-.28h0A4.62,4.62,0,0,0,46.17,31a5.66,5.66,0,0,0,.59-.15l.27-.1h.81C49.19,30.84,50.22,31.08,50.22,31.37Z"/><path class="cls-12" d="M47.85,31.37c0,.2,0,.39,0,.58-.05,1.47-.27,2.59-.54,2.59s-.49-1.12-.54-2.59c0-.19,0-.38,0-.58s0-.33,0-.49l.27-.1a4,4,0,0,0,.56-.25l.23-.11c0,.12,0,.24,0,.37S47.85,31.17,47.85,31.37Z"/></g><g class="cls-11"><path class="cls-12" d="M49.09,40l-.28.41-.22.3-.12.17-.15.19v0H47.25c-1.36,0-2.39-.3-2.39-.59s1-.53,2.39-.58h1.07Z"/><path class="cls-12" d="M48.33,40.56c0,.19,0,.37,0,.54v0h0c-.24.31-.49.61-.74.9h0l-.21.25c0-.35-.07-.74-.08-1.16,0-.19,0-.39,0-.59s0-.39,0-.58c0-1.47.27-2.58.53-2.58s.49,1.11.54,2.58C48.33,40.17,48.33,40.36,48.33,40.56Z"/></g><g class="cls-11"><ellipse class="cls-12" cx="38.57" cy="46.41" rx="2.92" ry="0.59"/><path class="cls-12" d="M39.12,46.41c0,.2,0,.4,0,.59s0,.24,0,.35l-.29,0-.43.07-.32,0c0-.16,0-.33,0-.5s0-.39,0-.59,0-.39,0-.58c0-1.47.27-2.58.53-2.58s.49,1.11.54,2.58C39.12,46,39.12,46.22,39.12,46.41Z"/></g><g class="cls-7"><path d="M47.26,34.66s-10.88,2.75-20,1.35C27.21,36,34.81,41.21,47.26,34.66Z"/></g><path class="cls-13" d="M45.64,25.54a.07.07,0,0,1,0-.13.27.27,0,0,1,.18,0,1.24,1.24,0,0,0,.75-.27.29.29,0,0,1,.22,0c.07,0,.08.09,0,.13a1.75,1.75,0,0,1-.84.34h0A.76.76,0,0,1,45.64,25.54Zm.21-.16Zm0,0Z"/><path class="cls-13" d="M45.69,26c0-.06,0-.11.05-.12a.25.25,0,0,1,.18.06,1.3,1.3,0,0,0,.78.14.22.22,0,0,1,.2.09.07.07,0,0,1,0,.12A1.75,1.75,0,0,1,46,26.2h0A1.13,1.13,0,0,1,45.69,26ZM46,26Zm0,0Z"/><path class="cls-13" d="M28.11,25.68h0a1.84,1.84,0,0,1-.85-.32.07.07,0,0,1,0-.13.24.24,0,0,1,.22,0,1.35,1.35,0,0,0,.76.25.25.25,0,0,1,.19,0,.07.07,0,0,1,0,.13A.81.81,0,0,1,28.11,25.68Zm.1-.16Zm0,0Z"/><path class="cls-13" d="M28.12,26.33h0a1.73,1.73,0,0,1-.89.14c-.07,0-.09-.06-.05-.11a.25.25,0,0,1,.21-.09,1.28,1.28,0,0,0,.77-.16.26.26,0,0,1,.18-.07c.07,0,.09.06.05.12A.82.82,0,0,1,28.12,26.33Zm0-.19Zm0,0Z"/></svg>