<svg id="Layer_1" data-name="Layer 1" xmlns="http://www.w3.org/2000/svg" viewBox="0 0 75 92"><defs><style>.cls-1{fill:#c4854d;}.cls-2{fill:#302c00;}.cls-3{fill:#7c5700;}.cls-4{fill:#16160e;}.cls-5{fill:#6c6c6c;}.cls-6{fill:#f5d4d2;}.cls-7{opacity:0.19;}.cls-8{fill:#3b1a00;}.cls-9{fill:#696969;}.cls-10{fill:#fff9fb;}.cls-11{opacity:0.61;}.cls-12{fill:#514e86;}.cls-13{fill:#341624;}</style></defs><path class="cls-1" d="M75,92h-76c0-.61,0-1.2,0-1.78V90c0-.09,0-.18,0-.27v-.29a1,1,0,0,1,0-.17v-.18c0-.1,0-.2,0-.3a2.81,2.81,0,0,1,0-.29,1.48,1.48,0,0,1,0-.21A1.93,1.93,0,0,1-1,88a1.15,1.15,0,0,1,0-.19,1.48,1.48,0,0,1,0-.21v-.08c0-.06,0-.12,0-.18s0-.11,0-.17v-.07c0-.08,0-.16,0-.24a1.94,1.94,0,0,1,0-.24c0-.08,0-.15,0-.22s0-.14,0-.2a1.64,1.64,0,0,1,0-.22c0-.06,0-.13,0-.19s0-.31,0-.47a.88.88,0,0,0,0-.17c0-.06,0-.11,0-.16l0-.26,0-.31,0-.2c0-.35.08-.69.13-1,0-.15,0-.3.07-.44v0l0-.18c0-.1,0-.2,0-.3l0-.17c0-.14.05-.28.08-.42a1.55,1.55,0,0,1,0-.21c0-.08,0-.16,0-.24a1.42,1.42,0,0,0,0-.2l0-.1a1.16,1.16,0,0,0,0-.18c0-.08,0-.15.05-.22L0,80.25c0-.07,0-.14.05-.2a1,1,0,0,1,0-.17.5.5,0,0,0,0-.12l0-.08a1.16,1.16,0,0,1,0-.18c0-.07,0-.14.05-.22A2.68,2.68,0,0,0,.27,79c0-.05,0-.11,0-.16s.07-.27.1-.4,0-.1,0-.15c.17-.59.35-1.17.54-1.73a.88.88,0,0,0,.05-.15l.24-.64.06-.17.1-.24.06-.16c0-.06.05-.12.07-.19a1.42,1.42,0,0,0,.08-.18c0-.07.05-.13.08-.19l.08-.18c.08-.19.16-.38.25-.57l.07-.15c.06-.12.11-.24.17-.35.19-.41.4-.8.61-1.19a.47.47,0,0,0,0-.1l.6-1L3.66,71l.27-.43.07-.1c.14-.22.28-.43.43-.64l.09-.13c.18-.26.37-.51.55-.75l.22-.27c.19-.25.39-.49.59-.73L6,67.82l.12-.13c.35-.41.71-.79,1.08-1.16l.12-.12a.57.57,0,0,1,.11-.11l.12-.12.35-.33.21-.19,0,0,.2-.18.21-.19.21-.18L9,64.88l.2-.16.2-.16.25-.2.62-.47.12-.08.9-.63.13-.09.13-.08.67-.43.15-.09.34-.21.13-.08.49-.28.18-.1.12-.06.13-.07c.12-.07.24-.14.37-.2.35-.19.69-.36,1-.53l.66-.32.64-.3.29-.12.51-.23.25-.1c.63-.27,1.25-.51,1.86-.75l.33-.13.73-.27.19-.08.8-.29.17-.07.16,0,.21-.08c.66-.25,1.29-.48,1.87-.72l.14-.05.61-.26q.56-.24,1-.48l.55-.3.24-.15.1-.07A6.31,6.31,0,0,0,28,54.73a8.45,8.45,0,0,0,1.37-2.67,14.25,14.25,0,0,0,.6-3.2,25.18,25.18,0,0,0-.19-5.07,28.43,28.43,0,0,0-.68-3.57h15.8a27.12,27.12,0,0,0-.68,10.17,14.11,14.11,0,0,0,.43,1.73A8.46,8.46,0,0,0,46,54.74a6.63,6.63,0,0,0,1.6,1.47l.07,0,.12.07.37.22c.39.21.82.41,1.29.62s1.29.53,2,.8l.2.08.27.1.43.16,1.28.47.16.06.5.19.51.2.17.07.17.06.34.14.18.07.52.22.18.07.35.15.51.22.22.1.25.11.17.08.12.06.88.41.17.09h0l.21.11.87.46,0,0,.2.11.24.13.39.23.11.06.49.29.22.14.39.24.12.08.12.08.12.08.61.42.12.08.12.09.12.08.13.1.11.08.15.11.33.25.12.1.24.18.12.1.12.1.11.09.12.1.12.1.11.1.24.2.23.21.23.21.23.22.34.32.11.12c.19.18.37.37.56.57l.22.24.1.12,0,0,.19.22.16.18.16.19,0,0a2.09,2.09,0,0,1,.14.17l0,0,.15.17v0l.16.2,0,0,.14.17.18.24c.06.09.13.17.19.25a.83.83,0,0,0,.08.12l.1.14.1.14.11.15.18.27.09.13c.07.11.14.22.22.33a.57.57,0,0,0,.08.13l.09.15.18.29.11.18c0,.05,0,.1.08.14a.83.83,0,0,1,.07.13c.17.29.33.58.49.88,0,.06.07.12.1.19a1.19,1.19,0,0,1,.08.16l.11.22.07.14q.27.53.51,1.08l.07.18.09.2.09.21c.15.37.3.75.44,1.13l.13.36h0c.08.23.16.48.24.72a.65.65,0,0,1,0,.13.88.88,0,0,1,.05.15s0,.1,0,.15.09.3.14.46l.06.2c.1.35.2.72.29,1.09,0,.06,0,.12,0,.18l0,.19a2.86,2.86,0,0,1,.07.28c0,.06,0,.12,0,.18s0,.11,0,.17l0,.12c.09.42.18.86.26,1.3,0,.08,0,.15,0,.23s.07.41.1.62l0,.16s0,.06,0,.1a1,1,0,0,0,0,.16l0,.19,0,.21,0,.24c.06.39.11.79.15,1.19,0,.07,0,.13,0,.19s0,.37,0,.56a1.23,1.23,0,0,1,0,.19l0,.31v.21c0,.07,0,.14,0,.22.05.57.08,1.16.1,1.75,0,0,0,.1,0,.14a1.62,1.62,0,0,0,0,.22v.48a1.28,1.28,0,0,0,0,.19v.52C75,90.52,75,91.25,75,92Z"/><path class="cls-2" d="M75,92h-76c0-.61,0-1.2,0-1.78V90c0-.09,0-.18,0-.27v-.29a1,1,0,0,1,0-.17v-.18c0-.1,0-.2,0-.3a2.81,2.81,0,0,1,0-.29,1.48,1.48,0,0,1,0-.21A1.93,1.93,0,0,1-1,88a1.15,1.15,0,0,1,0-.19,1.48,1.48,0,0,1,0-.21v-.08c0-.06,0-.12,0-.18s0-.11,0-.17v-.07c0-.08,0-.16,0-.24a1.94,1.94,0,0,1,0-.24c0-.08,0-.15,0-.22s0-.14,0-.2a1.64,1.64,0,0,1,0-.22c0-.06,0-.13,0-.19s0-.31,0-.47a.88.88,0,0,0,0-.17c0-.06,0-.11,0-.16l0-.26,0-.31,0-.2c0-.35.08-.69.13-1,0-.15,0-.3.07-.44v0l0-.18c0-.1,0-.2,0-.3l0-.17c0-.14.05-.28.08-.42a1.55,1.55,0,0,1,0-.21c0-.08,0-.16,0-.24a1.42,1.42,0,0,0,0-.2l0-.1a1.16,1.16,0,0,0,0-.18c0-.08,0-.15.05-.22L0,80.25c0-.07,0-.14.05-.2a1,1,0,0,1,0-.17.5.5,0,0,0,0-.12l0-.08a1.16,1.16,0,0,1,0-.18c0-.07,0-.14.05-.22A2.68,2.68,0,0,0,.27,79c0-.05,0-.11,0-.16s.07-.27.1-.4,0-.1,0-.15c.17-.59.35-1.17.54-1.73a.88.88,0,0,0,.05-.15l.24-.64.06-.17.1-.24.06-.16c0-.06.05-.12.07-.19a1.42,1.42,0,0,0,.08-.18c0-.07.05-.13.08-.19l.08-.18c.08-.19.16-.38.25-.57l.07-.15c.06-.12.11-.24.17-.35.19-.41.4-.8.61-1.19a.47.47,0,0,0,0-.1l.6-1L3.66,71l.27-.43.07-.1c.14-.22.28-.43.43-.64l.09-.13c.18-.26.37-.51.55-.75l.22-.27c.19-.25.39-.49.59-.73L6,67.82l.12-.13c.35-.41.71-.79,1.08-1.16l.12-.12a.57.57,0,0,1,.11-.11l.12-.12.35-.33.21-.19,0,0,.2-.18.21-.19.21-.18L9,64.88l.2-.16.2-.16.25-.2.62-.47.12-.08.9-.63.13-.09.13-.08.67-.43.15-.09.34-.21.13-.08.49-.28.18-.1.12-.06.13-.07c.12-.07.24-.14.37-.2.35-.19.69-.36,1-.53l.66-.32.64-.3.29-.12.51-.23.25-.1c.63-.27,1.25-.51,1.86-.75l.33-.13.73-.27.19-.08.8-.29.17-.07.16,0,.21-.08c.66-.25,1.29-.48,1.87-.72l.14-.05.61-.26q.56-.24,1-.48l.55-.3.24-.15.1-.07A6.31,6.31,0,0,0,28,54.73a8.45,8.45,0,0,0,1.37-2.67c.52.33,4.11,8.35,8.07,8.5,2.37.09,4.52-6.59,7.21-8.44A8.46,8.46,0,0,0,46,54.74a6.63,6.63,0,0,0,1.6,1.47l.07,0,.12.07.37.22c.39.21.82.41,1.29.62s1.29.53,2,.8l.2.08.27.1.43.16,1.28.47.16.06.5.19.51.2.17.07.17.06.34.14.18.07.52.22.18.07.35.15.51.22.22.1.25.11.17.08.12.06.88.41.17.09h0l.21.11.87.46,0,0,.2.11.24.13.39.23.11.06.49.29.22.14.39.24.12.08.12.08.12.08.61.42.12.08.12.09.12.08.13.1.11.08.15.11.33.25.12.1.24.18.12.1.12.1.11.09.12.1.12.1.11.1.24.2.23.21.23.21.23.22.34.32.11.12c.19.18.37.37.56.57l.22.24.1.12,0,0,.19.22.16.18.16.19,0,0a2.09,2.09,0,0,1,.14.17l0,0,.15.17v0l.16.2,0,0,.14.17.18.24c.06.09.13.17.19.25a.83.83,0,0,0,.08.12l.1.14.1.14.11.15.18.27.09.13c.07.11.14.22.22.33a.57.57,0,0,0,.08.13l.09.15.18.29.11.18c0,.05,0,.1.08.14a.83.83,0,0,1,.07.13c.17.29.33.58.49.88,0,.06.07.12.1.19a1.19,1.19,0,0,1,.08.16l.11.22.07.14q.27.53.51,1.08l.07.18.09.2.09.21c.15.37.3.75.44,1.13l.13.36h0c.08.23.16.48.24.72a.65.65,0,0,1,0,.13.88.88,0,0,1,.05.15s0,.1,0,.15.09.3.14.46l.06.2c.1.35.2.72.29,1.09,0,.06,0,.12,0,.18l0,.19a2.86,2.86,0,0,1,.07.28c0,.06,0,.12,0,.18s0,.11,0,.17l0,.12c.09.42.18.86.26,1.3,0,.08,0,.15,0,.23s.07.41.1.62l0,.16s0,.06,0,.1a1,1,0,0,0,0,.16l0,.19,0,.21,0,.24c.06.39.11.79.15,1.19,0,.07,0,.13,0,.19s0,.37,0,.56a1.23,1.23,0,0,1,0,.19l0,.31v.21c0,.07,0,.14,0,.22.05.57.08,1.16.1,1.75,0,0,0,.1,0,.14a1.62,1.62,0,0,0,0,.22v.48a1.28,1.28,0,0,0,0,.19v.52C75,90.52,75,91.25,75,92Z"/><ellipse class="cls-1" cx="21.13" cy="31.19" rx="4.23" ry="4.58"/><ellipse class="cls-3" cx="21.13" cy="31.19" rx="2.64" ry="2.86"/><ellipse class="cls-1" cx="51.47" cy="31.24" rx="4.23" ry="4.58"/><ellipse class="cls-3" cx="51.47" cy="31.24" rx="2.64" ry="2.86"/><path class="cls-3" d="M44.18,49a6.47,6.47,0,0,1-3.59,2.18c-4.77,1.08-8.53-1.46-10.66-3.5a18.8,18.8,0,0,0-.19-4.38,18.46,18.46,0,0,1,4.91-3.09H44.86A20.41,20.41,0,0,0,44.18,49Z"/><path class="cls-1" d="M52.68,24.22v.32c0,.74,0,1.49-.12,2.23-1,10.38-7.92,20.78-16.3,20.78S21,37.18,20,26.81c-.06-.57-.1-1.13-.12-1.7,0-.3,0-.59,0-.89C19.83,13.07,27.18,4,36.26,4S52.68,13.07,52.68,24.22Z"/><ellipse class="cls-4" cx="42.5" cy="26.05" rx="1.43" ry="2.05"/><ellipse class="cls-4" cx="29.59" cy="26.14" rx="1.43" ry="2.05"/><path class="cls-4" d="M28.52,25Zm0,0Z"/><path class="cls-5" d="M31.1,23c-.06,0-1.52-1.11-3.53.44a.61.61,0,0,1-.89-.17.73.73,0,0,1,.15-1,4.42,4.42,0,0,1,3.52-1,3.52,3.52,0,0,1,1.5.6s.66.47.32,1S31.1,23,31.1,23Z"/><path class="cls-5" d="M41,22.74c.06,0,1.53-1.11,3.53.43a.61.61,0,0,0,.9-.16.74.74,0,0,0-.15-1,4.52,4.52,0,0,0-3.52-1,3.55,3.55,0,0,0-1.51.61s-.66.47-.31,1,1.07.16,1.07.16Z"/><path class="cls-3" d="M33.32,30s1.46-4.7,2.62-4.61,4,6.05,4,6.05Z"/><path class="cls-6" d="M52.68,26.58q0,1-.12,2c-.07.68-.18,1.36-.31,2s-.26,1.24-.43,1.84c0,.17-.09.33-.14.5s0,.1,0,.15c-.08.25-.16.51-.25.76l0,.06c-.07.22-.15.43-.23.64l-.18.5-.06.13-.06.15c-.05.14-.11.27-.17.41s-.1.25-.16.37-.12.28-.19.42c-.15.32-.31.65-.47,1s-.48.89-.73,1.32-.49.79-.75,1.17l-.29.41-.21.3-.12.17c0,.06-.1.13-.16.19l0,0c-.24.31-.48.61-.74.9h0l-.21.25-.49.53-.2.2-.33.33-.28.27a16.27,16.27,0,0,1-2.45,1.9l-.19.12a12.82,12.82,0,0,1-4.29,1.69l-.29,0-.43.07-.32,0a9.47,9.47,0,0,1-1.07,0,11.68,11.68,0,0,1-4.19-.79l-.42-.18-.22-.09a14.34,14.34,0,0,1-2.09-1.16L28.85,45l-.52-.39c-.33-.26-.65-.54-1-.82l-.5-.48-.17-.17a15.86,15.86,0,0,1-1.17-1.28c-.11-.12-.21-.24-.31-.37-.43-.54-.85-1.12-1.25-1.72-.29-.45-.58-.91-.85-1.39-.15-.27-.3-.54-.44-.81s-.34-.67-.49-1l0,0-.06-.12c-.12-.27-.24-.54-.35-.81s-.11-.27-.17-.41l-.22-.58-.12-.33-.06-.19h0c-.12-.35-.24-.7-.34-1.06,0-.13-.08-.26-.11-.39a23.59,23.59,0,0,1-.77-4c-.06-.51-.1-1-.12-1.55a12.45,12.45,0,0,0,2.95,2.74l.55.33a9.39,9.39,0,0,0,2.62,1,4.32,4.32,0,0,0,1.71,0l.59-.14c1.21-.33,2.55-.92,3.93-1.42l.43-.16.26-.08h0c.25-.09.51-.17.77-.24a9.2,9.2,0,0,1,2.56-.39,8.78,8.78,0,0,1,3.2.75l1,.44A12.23,12.23,0,0,0,44,31.09h0A4.61,4.61,0,0,0,45.44,31a5.66,5.66,0,0,0,.59-.15l.28-.1a4.58,4.58,0,0,0,.56-.25l.23-.11.31-.18c1.27-.74,2.48-1.84,3.82-2.77l.38-.26C52,27,52.31,26.78,52.68,26.58Z"/><g class="cls-7"><path d="M18,91.86H15.67c.33-3.46,1-9.42,1.19-9.49S17.6,87.81,18,91.86Z"/></g><g class="cls-7"><polygon points="59.5 91.99 57.37 91.99 58.1 82.5 59.5 91.99"/></g><path class="cls-8" d="M29.35,31.15A5.64,5.64,0,0,1,24,25.3a5.65,5.65,0,0,1,5.4-5.86,5.65,5.65,0,0,1,5.4,5.86A5.64,5.64,0,0,1,29.35,31.15Zm0-11A5,5,0,0,0,24.6,25.3a5,5,0,0,0,4.75,5.15A5,5,0,0,0,34.1,25.3,5,5,0,0,0,29.35,20.15Z"/><path class="cls-8" d="M42.69,31a5.65,5.65,0,0,1-5.4-5.86,5.64,5.64,0,0,1,5.4-5.85,5.65,5.65,0,0,1,5.4,5.85A5.66,5.66,0,0,1,42.69,31Zm0-11a5,5,0,0,0-4.75,5.15,5,5,0,0,0,4.75,5.16,5,5,0,0,0,4.75-5.16A5,5,0,0,0,42.69,20Z"/><path class="cls-8" d="M34.31,26.74l-.11,0A.34.34,0,0,1,34,26.3c0-.07.72-1.83,1.88-1.9.73,0,1.44.57,2.1,1.83a.33.33,0,0,1-.11.43.29.29,0,0,1-.4-.12C37,25.52,36.44,25,36,25c-.67,0-1.22,1.11-1.38,1.52A.29.29,0,0,1,34.31,26.74Z"/><path class="cls-9" d="M52.67,26.57c-3.65-3.66-6.2-12.44-6.2-12.44-11.57,6.31-20.8.19-20.9.12h0a46.78,46.78,0,0,1-5.46,13C17.86,12.88,24.84,4.2,34.29,3.2S50.23,6.85,52.05,15.3,52.67,26.57,52.67,26.57Z"/><polygon class="cls-10" points="29.57 50.79 36.93 60.46 44.36 51.09 46.62 55.12 42.63 68.19 36.93 61.29 31.58 68.34 27.47 54.97 29.57 50.79"/><g class="cls-7"><path d="M52.67,26.57c-3.65-3.66-6.2-12.44-6.2-12.44-11.57,6.31-20.8.19-20.9.12.12,0,13.49,2.45,22.18-4.16C47.75,10.09,48.33,19.26,52.67,26.57Z"/></g><g class="cls-11"><ellipse class="cls-12" cx="24.32" cy="34.44" rx="2.92" ry="0.59"/><path class="cls-12" d="M24.87,34.44c0,1.75-.24,3.17-.55,3.17s-.54-1.42-.54-3.17.24-3.16.54-3.16S24.87,32.69,24.87,34.44Z"/></g><g class="cls-11"><ellipse class="cls-12" cx="33.28" cy="31.45" rx="2.92" ry="0.59"/><path class="cls-12" d="M33.83,31.45c0,.2,0,.4,0,.59,0,1.47-.27,2.58-.54,2.58s-.49-1.11-.54-2.58V30.87a12.16,12.16,0,0,1,.14-1.54h0c.25-.09.51-.17.77-.24a12.8,12.8,0,0,1,.17,1.78C33.83,31.06,33.83,31.25,33.83,31.45Z"/></g><g class="cls-11"><path class="cls-12" d="M30.84,41.12c-1.62,0-2.92-.27-2.92-.6s1.3-.59,2.92-.59,2.91.26,2.91.59S32.45,41.12,30.84,41.12Z"/><ellipse class="cls-12" cx="30.84" cy="40.52" rx="0.55" ry="3.17"/></g><g class="cls-11"><ellipse class="cls-12" cx="39.52" cy="37.3" rx="2.92" ry="0.59"/><ellipse class="cls-12" cx="39.52" cy="37.3" rx="0.55" ry="3.17"/></g><g class="cls-11"><path class="cls-12" d="M49.49,31.37c0,.29-1,.53-2.38.58H46c-1.36-.05-2.38-.29-2.38-.58,0-.1.12-.2.35-.28h0A4.61,4.61,0,0,0,45.44,31a5.66,5.66,0,0,0,.59-.15l.28-.1h.8C48.47,30.84,49.49,31.08,49.49,31.37Z"/><path class="cls-12" d="M47.12,31.37c0,.2,0,.39,0,.58,0,1.47-.27,2.59-.54,2.59S46.08,33.42,46,32c0-.19,0-.38,0-.58v-.49l.28-.1a4.58,4.58,0,0,0,.56-.25l.23-.11c0,.12,0,.24,0,.37S47.12,31.17,47.12,31.37Z"/></g><g class="cls-11"><path class="cls-12" d="M48.37,40l-.29.41-.21.3-.12.17c0,.06-.1.13-.16.19v0H46.52c-1.36,0-2.38-.3-2.38-.59s1-.53,2.38-.58h1.07Z"/><path class="cls-12" d="M47.6,40.56c0,.19,0,.37,0,.54v0h0c-.24.31-.48.61-.74.9h0l-.21.25c0-.35-.07-.74-.08-1.16,0-.19,0-.39,0-.59s0-.39,0-.58c0-1.47.27-2.58.54-2.58s.49,1.11.53,2.58C47.6,40.17,47.6,40.36,47.6,40.56Z"/></g><g class="cls-11"><ellipse class="cls-12" cx="37.85" cy="46.41" rx="2.92" ry="0.59"/><path class="cls-12" d="M38.39,46.41c0,.2,0,.4,0,.59s0,.24,0,.35l-.29,0-.43.07-.32,0c0-.16,0-.33,0-.5s0-.39,0-.59,0-.39,0-.58c0-1.47.27-2.58.54-2.58s.49,1.11.53,2.58C38.39,46,38.39,46.22,38.39,46.41Z"/></g><g class="cls-7"><path d="M46.54,34.66s-10.89,2.75-20,1.35C26.49,36,34.09,41.21,46.54,34.66Z"/></g><path class="cls-13" d="M44.91,25.54a.07.07,0,0,1,0-.13.28.28,0,0,1,.18,0,1.28,1.28,0,0,0,.76-.27.26.26,0,0,1,.21,0c.07,0,.08.09,0,.13a1.75,1.75,0,0,1-.84.34h0A.76.76,0,0,1,44.91,25.54Zm.21-.16Zm0,0Z"/><path class="cls-13" d="M45,26c0-.06,0-.11.05-.12a.22.22,0,0,1,.17.06,1.3,1.3,0,0,0,.78.14.25.25,0,0,1,.21.09.07.07,0,0,1,0,.12,1.77,1.77,0,0,1-.89-.13h0A1,1,0,0,1,45,26Zm.25,0Zm0,0Z"/><path class="cls-13" d="M27.39,25.68h0a1.84,1.84,0,0,1-.85-.32c-.06,0-.05-.1,0-.13a.25.25,0,0,1,.22,0,1.32,1.32,0,0,0,.75.25.25.25,0,0,1,.19,0,.07.07,0,0,1,0,.13A.76.76,0,0,1,27.39,25.68Zm.09-.16Zm0,0Z"/><path class="cls-13" d="M27.39,26.33h0a1.8,1.8,0,0,1-.9.14c-.07,0-.09-.06,0-.11a.22.22,0,0,1,.2-.09,1.3,1.3,0,0,0,.78-.16.22.22,0,0,1,.17-.07c.07,0,.09.06.05.12A.72.72,0,0,1,27.39,26.33Zm0-.19Zm0,0Z"/></svg>