<svg id="Layer_1" data-name="Layer 1" xmlns="http://www.w3.org/2000/svg" viewBox="0 0 75 92"><defs><style>.cls-1{fill:#c6221e;}.cls-2{fill:#aa1313;}.cls-3{fill:#333;}.cls-4{fill:#f9c38a;}.cls-5{fill:#e59553;}.cls-6{fill:#d73d33;}.cls-7{fill:#fff;}.cls-8{fill:#96281b;}</style></defs><path class="cls-1" d="M88.34,106C86,101.82,71.73,84,67.44,78.26c-1.23,1.18-4.25,1.91-5.29,2.78-2.62,2.19-48.52-2.74-50.72-4.56q-.67-.37-1.32-.81a11.22,11.22,0,0,0-1.47,1.69c-3.21,4.5-19,24.21-21.56,28.64-1.88,3.27.68,6.72,2.41,9.55,5.93,9.74,21.16,22.23,21.16,22.23l4.77-5.08C12.37,129-.35,113.53-1.71,108.52c4.06-3.51,18-16.43,18-16.43s-1.6,3.75-2.62,7.06c-.84,2.74-1.29,5.74,1.67,10.45a26.45,26.45,0,0,1,2.83,5.84c2,6.33,2,13,2.14,16.61l34.56.41a62.58,62.58,0,0,1,2.4-16.41,24.56,24.56,0,0,1,2.43-6.23,13.56,13.56,0,0,0,2-10.61,30.11,30.11,0,0,0-2.45-7.12s13.93,12.92,18,16.43c-1.31,4.85-13.28,19.55-16.8,23.8L65,137.51s15-12.22,20.9-22C87.66,112.72,90.22,109.27,88.34,106Z"/><path class="cls-1" d="M43.85,77.64c6-.28,12.3-.45,18.13-1.83.79-.19,1.73-.5,2.68-.73a11.87,11.87,0,0,0-5.92-2.64l-21,2.28-21-2.28a10.1,10.1,0,0,0-2.33.59,25.64,25.64,0,0,0,12.58,4.43A164.64,164.64,0,0,0,43.85,77.64Z"/><path class="cls-2" d="M17,83.65c1.81,2.27,9.14,9.27,21.8,9.39,6.89.07,11.7-2.24,16.46-5.5,2.81-1.93,5.44-4.08,8.06-6.27,1-.87,2.91-1.83,4.14-3l-.66-.9a12,12,0,0,0-2.12-2.28c-.95.23-1.89.54-2.68.73-5.83,1.38-12.17,1.55-18.13,1.83a164.64,164.64,0,0,1-16.92-.18A25.64,25.64,0,0,1,14.35,73a12,12,0,0,0-4.24,2.64q.64.43,1.32.81C13.63,78.3,15.63,81.94,17,83.65Z"/><path class="cls-3" d="M39.33,12.16c-7,.27-16.09,1.22-19.78,13.09S16,47.54,15.19,51.17c-1.91,9,0,10.23,2.18,12.27s1.91,4.09-1.64,3.82c-2.85-.22-6.35,6.13-3.82,6.55,3.28.54,2.52,8,15.55,13.78,12.21,5.45,17.93,3.07,22.44.88,10.71-5.18,13.51-10,18.48-12.21,4-1.79,1.91-4.91-2.45-5.45-4.14-.52.54-4.64-2.18-8.46-1.42-2-3.28-1.36-4-5.18C59.2,53.85,63,40.68,60.75,31,57.88,18.7,53.65,11.59,39.33,12.16Z"/><path class="cls-4" d="M55.56,43.11c-.46-7.86-.8-11.24-5.81-14.73a18.61,18.61,0,0,0-10.1-2.75h-.16a18.61,18.61,0,0,0-10.1,2.75c-5,3.49-5.35,6.87-5.81,14.73a35.28,35.28,0,0,0,1.6,12.08,17.78,17.78,0,0,0,4.89,7c2.89,2.52,5.5,4.07,8.61,4.38.27,0,1.61,0,1.93,0,3-.35,5.61-1.89,8.45-4.37a17.7,17.7,0,0,0,4.9-7A35.28,35.28,0,0,0,55.56,43.11Z"/><path class="cls-5" d="M41.92,50.92c-.34-1.43-1.48-2.05-1.25-.23.12,1,.57,1.81-.45,2.68-.55.45,0,.93.57.51A2.3,2.3,0,0,0,41.92,50.92Z"/><path class="cls-6" d="M34.1,59.06c1.43.31,2.28,1.6,3.91,2.12a7.84,7.84,0,0,0,3,.33,15.33,15.33,0,0,1,2.6-.15c.62.1,1.15.36.4-.37a2.68,2.68,0,0,0-1-.55,5,5,0,0,0-3.54-3.59,3.66,3.66,0,0,0-4.28,1.63,3.05,3.05,0,0,0-1,.07C33.22,58.81,33.66,59,34.1,59.06Z"/><path class="cls-1" d="M43,60.44a31.78,31.78,0,0,1-4.27-.58,17.06,17.06,0,0,1-3.55-1.38,13.7,13.7,0,0,1,3.63.39A20.51,20.51,0,0,1,43,60.44Z"/><path class="cls-5" d="M27.66,42.88c.36-.08.77-.4,1-.26l0-.06a3.78,3.78,0,0,1,1.45-.85,4.8,4.8,0,0,1,3.76.58,3.15,3.15,0,0,1,1.16,1.46,3.34,3.34,0,0,0-3.18-4.47C28.56,39.2,27.63,42.88,27.66,42.88Z"/><path class="cls-7" d="M27.62,42.82s1.72-2.13,3.92-1.73,3.15,1.55,3.46,2.67S33.84,46,32.13,46C29.92,45.94,26.67,44.34,27.62,42.82Z"/><path class="cls-8" d="M31.45,40.86a4.08,4.08,0,0,0-3.92,1.92c-.2.37,0,.57.39.2a4.6,4.6,0,0,1,3.44-1.57,4.16,4.16,0,0,1,3.39,2.45c.09.18.47.17.45,0C35,42.14,33.34,41,31.45,40.86Z"/><path class="cls-8" d="M33.05,44.12a1.92,1.92,0,0,1-2.44.81,1.6,1.6,0,0,1-.9-2.2,1.92,1.92,0,0,1,2.44-.81A1.59,1.59,0,0,1,33.05,44.12Z"/><path class="cls-7" d="M32.25,43.34a.74.74,0,0,1-.93.31.61.61,0,0,1-.34-.84.73.73,0,0,1,.93-.3A.6.6,0,0,1,32.25,43.34Z"/><path class="cls-5" d="M51.09,43.15c-.35-.1-.73-.45-1-.32a.21.21,0,0,0,0-.06,3.56,3.56,0,0,0-1.36-1,4.79,4.79,0,0,0-3.79.39,3.4,3.4,0,0,0-1.29,1.42,3.53,3.53,0,0,1,3.58-4.37C50.54,39.36,51.12,43.16,51.09,43.15Z"/><path class="cls-7" d="M51.13,43.1s-1.51-2.27-3.73-2-3.28,1.41-3.7,2.53.94,2.39,2.64,2.44C48.55,46.15,51.93,44.7,51.13,43.1Z"/><path class="cls-8" d="M47.51,40.89a3.88,3.88,0,0,1,3.72,2.17c.16.38-.07.58-.41.18a3.93,3.93,0,0,0-6.87.52c-.11.19-.49.16-.44-.07C43.86,42,45.62,41,47.51,40.89Z"/><path class="cls-8" d="M45.61,44.13a1.84,1.84,0,0,0,2.35,1,1.71,1.71,0,0,0,1.1-2.2,1.83,1.83,0,0,0-2.35-1A1.71,1.71,0,0,0,45.61,44.13Z"/><path class="cls-7" d="M46.48,43.37a.7.7,0,0,0,.89.37.66.66,0,0,0,.42-.84.69.69,0,0,0-.89-.36A.65.65,0,0,0,46.48,43.37Z"/><path class="cls-8" d="M35.37,37.3c-1.43-2.17-6.52-3.06-9-.52-.19.19,0,.47.17.35a7.34,7.34,0,0,1,1.65-.77,7.85,7.85,0,0,1,6.69,1.35C35.37,38.11,35.67,37.77,35.37,37.3Z"/><path class="cls-8" d="M42.62,36.94c1.28-2.37,6.36-3.4,9.06-.67.2.21.07.5-.14.38a8.31,8.31,0,0,0-1.73-.82,7.33,7.33,0,0,0-6.67,1.55C42.68,37.81,42.35,37.45,42.62,36.94Z"/><path class="cls-1" d="M23.64,42.3s2-14.39,16.51-14.19S55.56,42.57,55.56,42.57s4.63-19.92-13.36-23C28.08,17.07,19.14,31.12,23.64,42.3Z"/></svg>