<svg id="Layer_1" data-name="Layer 1" xmlns="http://www.w3.org/2000/svg" viewBox="0 0 75 92"><defs><style>.cls-1{fill:#fbc0a4;}.cls-2{fill:#f8e8d8;}.cls-3{fill:#fff;}.cls-4{fill:#f69d7d;}.cls-5{fill:#403433;}.cls-6{fill:#f9b092;}.cls-7{fill:#cb4453;}.cls-8{fill:#dd5664;}</style></defs><circle class="cls-1" cx="62.72" cy="76.1" r="7.85"/><path class="cls-1" d="M55.12,78.06c2.76,12.76,5,32.61,5.19,35.47H73.62S73.56,85,70.26,74Z"/><path class="cls-2" d="M59.8,106.81c-.93-6.51-2.86-20.32-4.68-28.75h0A7.84,7.84,0,0,1,70.26,74h0c2,6.52,3.36,16.6,5,28.42C71.12,104.88,61.19,106.59,59.8,106.81Z"/><circle class="cls-2" cx="62.72" cy="76.1" r="7.85" transform="translate(-26.27 118.61) rotate(-76.04)"/><circle class="cls-2" cx="12.16" cy="78.03" r="7.85" transform="translate(-66.6 72.14) rotate(-76.87)"/><path class="cls-2" d="M13.62,82.58l5.16,25.49L14.84,140.3s25,9.47,50.59,1.51c0,0-1.35-37.23-3.74-66.42l6.43-5c-5.64-5.24-25.48-12.18-31-11.3C28.34,60.5,6.61,70.76,6,73.22Z"/><path class="cls-3" d="M31.34,58.26s7.43,8.24,9.49,7.7,3-7.84,3-7.84,4.52,1,5,1.86.78,9.55-.73,11.14-6.47-2.87-6.47-2.87-4.25,5.51-6.62,5-7.8-11-8.15-12.28S31.34,58.26,31.34,58.26Z"/><circle class="cls-1" cx="12.16" cy="78.03" r="7.85" transform="translate(-66.6 72.14) rotate(-76.87)"/><path class="cls-1" d="M19.75,80c-2.76,12.76-5,32.61-5.19,35.47H1.25s.07-28.58,3.36-39.58Z"/><path class="cls-2" d="M16.39,108.72S17.93,88.42,19.75,80h0A7.84,7.84,0,0,0,4.61,75.88h0c-2,6.52-5.7,17.44-5.7,28.29C-1.09,104.17,7.91,109.53,16.39,108.72Z"/><path class="cls-1" d="M31.72,61.31l-2-19.15,14.59,7.43-.14.7-.41,9.63c-.11,2.76,0,5.54-2.89,6h0C37.43,66.48,32.05,64.48,31.72,61.31Z"/><path class="cls-4" d="M44,56.27l.25-6,.14-.7L29.75,42.16l.93,9C33.28,55.11,38.43,56.29,44,56.27Z"/><path class="cls-1" d="M53.7,34c-.06-4.56.21-11.12-1.61-15.9h0a9.39,9.39,0,0,0-3.85-4.92c-2-1.44-4.79-2.37-9-2.71-8.79-.7-14.5,2.6-18.32,8.32-2.85,4.26-1.64,9.85-1.06,11.87-1.62.15-3.88,1.13-3.36,5.58.78,6.8,5.71,6.93,7.16,7.23,0,0,2.71,12.1,17.64,10.94S53.81,41.7,53.7,34Z"/><path class="cls-5" d="M40,28.94v0c-1.1-1-5.17-1.48-8.19-.71a1.73,1.73,0,0,0,.94,1.87,4.87,4.87,0,0,0,2.17.46c1.32.08,2.56,0,3.83,0A1.28,1.28,0,0,0,40,28.94Z"/><path class="cls-5" d="M43.22,26.23h0a9.24,9.24,0,0,1,7.19,2.11,1.84,1.84,0,0,1-1.53,1.4,4.24,4.24,0,0,1-2-.32c-1.08-.35-2-.82-3.07-1.25A1.28,1.28,0,0,1,43.22,26.23Z"/><path class="cls-5" d="M33.49,33.63a1.95,1.95,0,1,0,2-1.86A1.95,1.95,0,0,0,33.49,33.63Z"/><path class="cls-5" d="M43.85,33.63a2,2,0,1,0,2-1.86A2,2,0,0,0,43.85,33.63Z"/><path class="cls-6" d="M53.37,40.17a3.68,3.68,0,1,1-3.84-3.51A3.67,3.67,0,0,1,53.37,40.17Z"/><path class="cls-6" d="M34.71,40.69a3.68,3.68,0,1,1-3.84-3.51A3.69,3.69,0,0,1,34.71,40.69Z"/><path class="cls-6" d="M18.46,33.78c-.52,1.8.22,3.7.94,5.43a3,3,0,0,0,.92,1.36,1,1,0,0,0,1.45-.23c.23-.49-.11-1-.38-1.5s-.43-1.16,0-1.46c.21-.13.48-.12.71-.24.48-.25.47-.94.35-1.47a8.6,8.6,0,0,0-.81-2.11c-.36-.64-.92-1.31-1.66-1.29S18.67,33,18.46,33.78Z"/><path class="cls-4" d="M43.42,39.26a.49.49,0,0,1,.16.61,1.48,1.48,0,0,1-1.86.9c-.29-.12-.41-.33-.38-.52.09-.39.5-.63.88-.83A1.53,1.53,0,0,1,43.42,39.26Z"/><path class="cls-5" d="M54.38,19.05c4-3.43,6.37-8.23,4.94-13.78C57.15,6.24,55.1,7,52.93,8c2.27-2,2.77-3.91,2.6-6.82,0,0-26.91,5.78-32.63,10.14a9.05,9.05,0,0,0-3.15,3.79l-4.09-5S13.22,16.18,18,18.27a6.23,6.23,0,0,0-2.46,3.78c-1.32,5.17,2.53,9.35,2.53,9.35a3.86,3.86,0,0,1,3.41-.34c1.73.61,3.67,3.7,3.57,6.76l1.59-.21-.2-6.43s2.11-1.56,3.92-6.92a16,16,0,0,0,8.94,1.67l-5-4.83a22.45,22.45,0,0,0,13.6,4.76c5.55.27,11.44-2.13,14.26-6.91C59.79,19.08,56.77,18.92,54.38,19.05Z"/><path class="cls-7" d="M44,44.09c-2.67-4.39-7.64,2.62-3,4.18A2.74,2.74,0,0,0,44.27,47,3.08,3.08,0,0,0,44,44.09Z"/><path class="cls-3" d="M44.23,44.47c-.06-.13-.12-.26-.19-.38-1.25-2.05-3-1.61-4-.41C41.42,43.93,42.83,44.2,44.23,44.47Z"/><path class="cls-8" d="M39.43,44.6A2.52,2.52,0,0,0,41,48.27a2.78,2.78,0,0,0,2.45-.4A10.91,10.91,0,0,0,39.43,44.6Z"/></svg>