<svg id="Layer_1" data-name="Layer 1" xmlns="http://www.w3.org/2000/svg" viewBox="0 0 75 92"><defs><style>.cls-1{fill:#fbc0a4;}.cls-2{fill:#f8e8d8;}.cls-3{fill:#f69d7d;}.cls-4{fill:#403433;}.cls-5{fill:#f9b092;}.cls-6{fill:#fff;}</style></defs><circle class="cls-1" cx="62.72" cy="76.1" r="7.85"/><path class="cls-1" d="M55.12,78.06c2.76,12.76,5,32.61,5.19,35.47H73.62S73.56,85,70.26,74Z"/><path class="cls-2" d="M59.8,106.81c-.93-6.51-2.86-20.32-4.68-28.75h0A7.84,7.84,0,0,1,70.26,74h0c2,6.52,3.36,16.6,5,28.42C71.12,104.88,61.19,106.59,59.8,106.81Z"/><circle class="cls-2" cx="62.72" cy="76.1" r="7.85" transform="translate(-26.27 118.61) rotate(-76.04)"/><circle class="cls-2" cx="12.16" cy="78.03" r="7.85" transform="translate(-66.6 72.14) rotate(-76.87)"/><path class="cls-2" d="M13.62,82.58l5.16,25.49L14.84,140.3s25,9.47,50.59,1.51c0,0-1.35-37.23-3.74-66.42l6.43-5c-5.64-5.24-25.48-12.18-31-11.3C28.34,60.5,6.61,70.76,6,73.22Z"/><path class="cls-1" d="M31.66,61.34l-2-19.15,14.6,7.44-.14.69L43.73,60c-.11,2.75,0,5.53-2.9,6h0C37.37,66.51,32,64.51,31.66,61.34Z"/><path class="cls-3" d="M43.89,56.3l.25-6,.14-.69-14.6-7.44.93,9C33.22,55.14,38.37,56.32,43.89,56.3Z"/><path class="cls-1" d="M54,34.27c-.06-4.56.22-11.12-1.61-15.89v0h0a9.34,9.34,0,0,0-3.85-4.92c-2-1.44-4.79-2.37-9-2.7C30.77,10,25.06,13.32,21.24,19c-2.85,4.26-1.63,9.86-1,11.87-1.63.15-3.89,1.13-3.37,5.58.79,6.8,5.71,6.93,7.16,7.23,0,0,2.71,12.1,17.65,11S54.11,41.94,54,34.27Z"/><path class="cls-4" d="M54.5,19.29c4-3.43,6.37-8.23,4.93-13.78-2.17,1-4.22,1.77-6.39,2.75,2.28-2,2.77-3.91,2.61-6.82,0,0-26.92,5.78-32.63,10.14a9,9,0,0,0-3.15,3.79l-4.09-5s-2.45,6.07,2.33,8.16a6.27,6.27,0,0,0-2.47,3.78c-1.32,5.17,2.53,9.35,2.53,9.35a3.91,3.91,0,0,1,3.41-.34c1.74.61,3.68,3.7,3.58,6.76l1.59-.21-.21-6.43s2.11-1.56,3.93-6.92a16,16,0,0,0,8.94,1.67l-5-4.83A22.43,22.43,0,0,0,48,26.1c5.54.27,11.43-2.13,14.26-6.91C59.91,19.32,56.89,19.16,54.5,19.29Z"/><path class="cls-3" d="M43.72,39.5c.17.09.25.32.17.62a1.39,1.39,0,0,1-.76.82A1.41,1.41,0,0,1,42,41c-.28-.12-.41-.33-.38-.52.1-.38.5-.63.88-.83A1.54,1.54,0,0,1,43.72,39.5Z"/><path class="cls-4" d="M39.53,27.24l0,0c-1.3-.66-5.37-.18-8.12,1.31a1.72,1.72,0,0,0,1.37,1.58A4.91,4.91,0,0,0,35,30c1.29-.25,2.47-.64,3.71-1A1.27,1.27,0,0,0,39.53,27.24Z"/><path class="cls-4" d="M44.4,27.18v0a9.25,9.25,0,0,1,7.45.79,1.82,1.82,0,0,1-1.25,1.65,4.15,4.15,0,0,1-2,0c-1.14-.15-2.17-.44-3.25-.67A1.29,1.29,0,0,1,44.4,27.18Z"/><path class="cls-4" d="M33.79,33.87a2,2,0,1,0,2-1.86A1.95,1.95,0,0,0,33.79,33.87Z"/><path class="cls-4" d="M44.16,33.87a1.95,1.95,0,1,0,2-1.86A1.95,1.95,0,0,0,44.16,33.87Z"/><path class="cls-5" d="M53.68,40.41a3.68,3.68,0,1,1-3.85-3.51A3.68,3.68,0,0,1,53.68,40.41Z"/><path class="cls-5" d="M35,40.93a3.68,3.68,0,1,1-3.84-3.5A3.67,3.67,0,0,1,35,40.93Z"/><path class="cls-5" d="M18.76,34c-.52,1.8.22,3.7.95,5.43a2.94,2.94,0,0,0,.91,1.37,1,1,0,0,0,1.45-.24c.23-.49-.11-1-.38-1.5s-.42-1.16,0-1.45c.21-.14.49-.13.71-.25.48-.25.48-.94.35-1.47a8,8,0,0,0-.81-2.1,2.09,2.09,0,0,0-1.66-1.3C19.54,32.52,19,33.28,18.76,34Z"/><path class="cls-3" d="M43.94,43.83c.1.16-.18.56-.86.88a4.1,4.1,0,0,1-5.16-1.65c-.37-.65-.36-1.14-.19-1.21.35-.17,1.25,1.15,2.89,1.66S43.75,43.49,43.94,43.83Z"/><path class="cls-6" d="M31.34,58.26s7.43,8.24,9.49,7.7,3-7.84,3-7.84,4.52,1,5,1.86.78,9.55-.73,11.14-6.47-2.87-6.47-2.87-4.25,5.51-6.62,5-7.8-11-8.15-12.28S31.34,58.26,31.34,58.26Z"/><circle class="cls-1" cx="12.16" cy="78.03" r="7.85" transform="translate(-66.6 72.14) rotate(-76.87)"/><path class="cls-1" d="M19.75,80c-2.76,12.76-5,32.61-5.19,35.47H1.25s.07-28.58,3.36-39.58Z"/><path class="cls-2" d="M16.39,108.72S17.93,88.42,19.75,80h0A7.84,7.84,0,0,0,4.61,75.88h0c-2,6.52-5.7,17.44-5.7,28.29C-1.09,104.17,7.91,109.53,16.39,108.72Z"/></svg>