<svg id="Layer_1" data-name="Layer 1" xmlns="http://www.w3.org/2000/svg" viewBox="0 0 75 92"><defs><style>.cls-1{fill:#ffb9ba;}.cls-2{fill:#db5a8e;}.cls-3{fill:#3a3559;}.cls-4{fill:#1f2935;}.cls-5{fill:#a8457d;}.cls-6{fill:#c77678;}.cls-7{fill:#ece5e5;}.cls-8{fill:#f5eeee;}.cls-9{fill:#b5b0b0;}.cls-10{fill:#615d7a;}</style></defs><path class="cls-1" d="M65.11,130.32c2.94-1,5.68-5.52,6.5-10.45.75-4.47-2.36-28.82-2.36-28.82s-13-.28-15.12,4.57c0,0,2.53,23.79,2.72,25.06C57.64,125.88,61.64,131.49,65.11,130.32Z"/><path class="cls-2" d="M64.64,67.1c1.9,1.78,5.19,6.28,5.25,8.06s2.23,21.75,2.5,32.06c-5.34,3.81-12.12,3.37-18.6,2.7-2.33-8.2-1.55-14.29-1.52-22.82l4.38-21.44S62.63,65.23,64.64,67.1Z"/><path class="cls-3" d="M64.91,90.21C63,88,59.11,65.78,59.11,65.78l-17.26-1-17.26-1s-12.67,32-6.44,50.48c3.06,12.61,1.71,18.09,1.12,29.55,0,0,6.1,4.79,12,5.3,5.87.17,16.8,1.36,25.07-.21-1.75-12.87-1.19-20,3.32-32.21C62.61,112.53,71.65,98.16,64.91,90.21Z"/><path class="cls-1" d="M32.62,63.21a7.69,7.69,0,0,0-4.57,8.56c.27,1.66,15.88,15.68,17.82,15.8s9.23-13.85,9.57-14.9a5.13,5.13,0,0,0-.55-4.1C54,66.58,50,64,50,64Z"/><rect class="cls-1" x="30.38" y="54.21" width="21.94" height="17.79" transform="translate(-24.07 100.69) rotate(-86.65)"/><path class="cls-4" d="M50.87,52.67l-.4,6.74c-4,6.52-10.75,5.6-18.15,5.69l.79-13.47Z"/><path class="cls-2" d="M19.9,63.76s-9,22.82-7.49,29.63c1.29,5.76,4.4,20,5.29,21.61,0,0,.71,11.71-1.53,18s-8.85,25.8-8.85,25.8,13.75.81,22.66-1.8c2.28-27.31,2.51-67.4,2.49-94.38Z"/><path class="cls-2" d="M65.56,87.67c-.77-1.83-3.12-21.4-3.12-21.4l-12.19-3-.24,4c6.37,29.51,5.21,67.33,1.81,90.25,0,0,8.16,5,16.76,3.77,0,0-8.42-22.33-9.6-26.11a32.08,32.08,0,0,1,1.48-17.66,51.22,51.22,0,0,0,6.34-11.9C69.11,99,67.94,93.38,65.56,87.67Z"/><path class="cls-5" d="M21.56,110.2c1.6-6.75,2.83-15,2.83-15s-7.57,6.85-10.72-1c-1.21-3.33,0-6.91-.25-10.54-.95,4-1.48,7.6-1,9.7,1.29,5.76,4.4,20,5.29,21.61,0,0,.71,11.71-1.53,18s-8.85,25.8-8.85,25.8,1.85.11,4.62.12c1.24-11,7.09-22.07,7.49-28.4C19.9,123.13,20.6,114.26,21.56,110.2Z"/><path class="cls-5" d="M65.22,92.46c2.65,8.48-1.06,16.07-5.65,23.66-5.3,8.48-1.94,18.89.71,28.25.88,2.83,1.94,5.47,3,8.3a29.11,29.11,0,0,0,3.7,6.88c.45.58.89,1.17,1.31,1.75l.29,0s-8.42-22.33-9.6-26.11a32.08,32.08,0,0,1,1.48-17.66,51.22,51.22,0,0,0,6.34-11.9c2.31-6.58,1.14-12.22-1.24-17.93A17.47,17.47,0,0,1,65,85,13,13,0,0,0,65.22,92.46Z"/><path class="cls-1" d="M9,124.17c-2.85-1.24-5.81-3.58-5.07-8.51C4.8,109.75,7.53,87.6,7.53,87.6s13,.82,14.67,5.83c0,0-3.37,22.23-3.67,23.48C17.31,122,12.34,125.63,9,124.17Z"/><path class="cls-2" d="M13.6,64.65c-2,1.61-5.17,5.3-5.38,7.07S4.17,93.21,3,103.45c5,4.25,11.8,4.39,18.31,4.26,1.3-8.24,2.75-14.11,3.43-22.61L21.28,63.33S15.76,63,13.6,64.65Z"/><path class="cls-1" d="M24.22,51s-2.92,4.83-6.51-.38,2.1-6.65,4.33-4A10.75,10.75,0,0,1,24.22,51Z"/><path class="cls-1" d="M53.39,43.34s4.52,3.39,5.89-2.79-4.43-5.38-5.52-2.11A10.68,10.68,0,0,0,53.39,43.34Z"/><path class="cls-1" d="M53.77,41C55,50.24,48.46,60.17,40.3,61.3S23.12,54.64,21.84,45.4c0-.31-3.05-12.5-3.05-12.5A15.31,15.31,0,0,1,31.86,15.65l4.28-.59a15.29,15.29,0,0,1,17.24,13C54,32.77,53.72,40.64,53.77,41Z"/><path class="cls-6" d="M25.48,49.35c3.65,9.31,13.75,12,23.43,7a14.36,14.36,0,0,1-8.61,5c-8.16,1.12-17.18-6.66-18.46-15.9,0-.31-3.05-12.5-3.05-12.5a15.2,15.2,0,0,1,1.87-9.67C21.09,32.06,22.22,40.81,25.48,49.35Z"/><path class="cls-4" d="M46.82,41.42h0A1.57,1.57,0,0,1,45,40.11l-.27-1.77a1.57,1.57,0,0,1,1.31-1.78h0a1.57,1.57,0,0,1,1.78,1.31l.27,1.77A1.57,1.57,0,0,1,46.82,41.42Z"/><path class="cls-4" d="M45.73,36.67a2.93,2.93,0,0,1,2.14.11,1.63,1.63,0,0,0,1.69,0,1.69,1.69,0,0,1-1.72.59,1.94,1.94,0,0,0-1.47,0Z"/><path class="cls-4" d="M30.18,44.65h0a1.57,1.57,0,0,0,1.24-1.83l-.35-1.75a1.56,1.56,0,0,0-1.83-1.23h0A1.57,1.57,0,0,0,28,41.67l.35,1.75A1.56,1.56,0,0,0,30.18,44.65Z"/><path class="cls-4" d="M29.6,39.82a3,3,0,0,0-2,.83,1.62,1.62,0,0,1-1.57.61,1.68,1.68,0,0,0,1.82,0c.87-.64,1.37-.53,1.37-.53Z"/><path class="cls-4" d="M30.47,37.58c-.84.22-4.4.94-4.4.94-.19-.3,0-.46.32-.65A12.56,12.56,0,0,1,30,36.34a.93.93,0,0,1,.57,0,.65.65,0,0,1,.35.38.64.64,0,0,1-.48.82Z"/><path class="cls-4" d="M44.18,34.92c.86-.12,4.43-.78,4.43-.78.07-.35-.14-.45-.54-.49a12.7,12.7,0,0,0-3.94,0,.94.94,0,0,0-.52.25.75.75,0,0,0-.19.48.66.66,0,0,0,.76.59Z"/><path class="cls-7" d="M49.84,55.38c.27-3.35.55-6.57.82-9.93a50.44,50.44,0,0,0-9.94-4,6.62,6.62,0,0,0-5.19.77,50.25,50.25,0,0,0-8.35,6.7c1.24,3.13,2.45,6.13,3.68,9.26,0,0,6,3.33,8.16,3.95a6.75,6.75,0,0,0,4.88-1C45.16,60.15,49.84,55.38,49.84,55.38Z"/><path class="cls-8" d="M52.55,44.4c-4.72-.65-9.63-1.67-14.28-1s-9.05,3.09-13.38,5.09c-.08.71,2.36,7.42,4.09,8.65a23.17,23.17,0,0,0,3.39,2s5.58,1.42,8.15,1S48.1,56.8,48.1,56.8a16.54,16.54,0,0,0,4.11-3.7C53.22,51.69,52.83,45.05,52.55,44.4Z"/><path class="cls-9" d="M40.24,44.42a6.9,6.9,0,0,0-3.56.53.34.34,0,0,1-.43-.11h0a.29.29,0,0,1,.17-.4,7.54,7.54,0,0,1,3.92-.58.29.29,0,0,1,.28.33h0A.35.35,0,0,1,40.24,44.42Z"/><polygon class="cls-8" points="52.8 32.5 51.84 44.76 52.49 44.84 53.57 32.9 52.8 32.5"/><polygon class="cls-8" points="17.33 44.98 25.61 48.46 25.06 48.85 17.86 45.55 17.33 44.98"/><path class="cls-3" d="M9.67,23.45a21.15,21.15,0,0,0,.38,9.45c.65,2.67,11.23,18.76,13.61,20.23-.35-5-4.56-22.36-.16-28.88,3.42,4.76,9.09,7.29,14.65,9.14,5.82,2,12,2.46,18.1,2.73a78.45,78.45,0,0,0-3.11-13.33c-1.85-5.3-4.75-10.36-9-13.91S34,3.45,28.65,4.76a13.51,13.51,0,0,0-10,10.41,9.56,9.56,0,0,0-7.91,5.27A13.5,13.5,0,0,0,9.67,23.45Z"/><path class="cls-10" d="M25.69,15.37c-1.79-.54-3.55-1.09-5.28-1.6a42.55,42.55,0,0,0,5.44,3.51C25.82,16.64,25.77,16,25.69,15.37Z"/><path class="cls-10" d="M51,17.7c-7.37,2.1-15.13.56-22.55-1.54q.09,1.23.09,2.46c7.53,3.48,16.27,5,24.17,2.93A38.87,38.87,0,0,0,51,17.7Z"/><path class="cls-3" d="M52.1,25.14c3.6,8.15,5.75,13.81,7.53,22.54s1.58,18.12-2.24,26.17A54.71,54.71,0,0,0,50,31.94Z"/></svg>