<svg id="Layer_1" data-name="Layer 1" xmlns="http://www.w3.org/2000/svg" viewBox="0 0 75 92"><defs><style>.cls-1{fill:#382c3a;}.cls-2{fill:#211b22;}.cls-3{fill:#f7a99e;}.cls-4{fill:#f9a85b;}.cls-5{fill:#f16a5f;}.cls-6{fill:#e18d84;}.cls-7{fill:#e4c2a9;}.cls-8{fill:#d98472;}.cls-9{fill:#341624;}.cls-10{fill:#f8a361;}.cls-11{opacity:0.12;}.cls-12{fill:#63291d;}.cls-13{fill:#fddbc0;}</style></defs><path class="cls-1" d="M20.29,18.89s1-13.64,18.4-14c20.4-.39,35.29,36.22,17,60.82S20.29,18.89,20.29,18.89Z"/><path class="cls-1" d="M26.19,15.54s-9.74-2.89-14.33,13.91S12.41,62.64,20.19,68,36.12,53.72,36.12,53.2,26.19,15.54,26.19,15.54Z"/><path class="cls-2" d="M17.13,34.83s-4.66,23.81,10.41,30.9c11.19,5.26,23.59,4,27.87-9.65a48,48,0,0,0-.73-30.37Z"/><path class="cls-3" d="M76.65,91.88H-.74c-.47-18,9.4-24.29,17.84-27.52.39-.15.78-.3,1.17-.43l.41-.15.75-.26c2.25-.76,4.3-1.34,5.9-1.93.37-.14.72-.28,1-.42l.55-.26.25-.13a6.59,6.59,0,0,0,1.63-1.29,8.62,8.62,0,0,0,2-5.1,18.43,18.43,0,0,0-.19-4.4,22.38,22.38,0,0,0-.69-3.1H46a20.25,20.25,0,0,0-.68,8.83,7.71,7.71,0,0,0,1.81,3.78,6.5,6.5,0,0,0,1.62,1.28l.07,0,.12.07a15.6,15.6,0,0,0,1.69.72c1.7.63,3.92,1.25,6.33,2.08.59.21,1.2.42,1.81.66l.71.28c.58.23,1.15.47,1.73.73C69,68.87,77.07,75.59,76.65,91.88Z"/><path class="cls-4" d="M55.6,77.86c-3.86,3.48-10.54,6.24-19.79,5.45s-13.9,3.67-17-3.81S18.29,64,18.29,64,15.53,62.05,16,61a2.67,2.67,0,0,1,2.36-1.48,2.31,2.31,0,0,1,.89.17,1,1,0,0,1,.63.89h0c.12.86-.26,2.07.26,2.81s1,.47,1.6.57a1.39,1.39,0,0,1,1,.72,1.58,1.58,0,0,1,.28.8c.08,1.16-.89,2.44-.09,3.92s1.75.58,2.65.53a1,1,0,0,1,.78.26,1.06,1.06,0,0,1,.37.7c.1.83-.61,1.85.24,2.91s1.83-.09,2.91-.34a1.49,1.49,0,0,1,.95.07,1.09,1.09,0,0,1,.46.37c.63.86-.28,2.5,1.56,3.18,1.62.59,1.49-.84,2.08-1.69a1.18,1.18,0,0,1,.86-.54.94.94,0,0,1,.87.22c.64.6.54,2.15,2,2.2s1.07-1.51,1.88-2.38a1.5,1.5,0,0,1,.69-.44,1,1,0,0,1,1,0c.67.45.69,1.82,2.3,1.53,1.83-.34.85-1.87,1.43-3a1.62,1.62,0,0,1,.47-.56,1.67,1.67,0,0,1,.77-.38c1.09-.21,2,.9,3,.31s.44-1.61.56-2.67a2,2,0,0,1,.3-.87,1,1,0,0,1,1-.55c.59.06,1.21.44,1.86-.17.81-.76-.73-1.93-1.24-3.2a1.77,1.77,0,0,1-.11-1.13A1.18,1.18,0,0,1,53,63c.42-.23,1-.09,1.5-.52s0-2,.07-2.88c0-.33.15-.56.48-.6s.41,0,.59,0c3.68-.12,1.77,3.36,1.24,5.36S59.46,74.39,55.6,77.86Z"/><path class="cls-5" d="M76.65,91.88H-.74c-.47-18,9.4-24.29,17.84-27.52.39-.15.78-.3,1.17-.43,1,3.44,5.42,15.74,19.87,15.18C52,78.58,56,67.72,57,63.68c.59.21,1.2.42,1.81.66l.71.28c.58.23,1.15.47,1.73.73C69,68.87,77.07,75.59,76.65,91.88Z"/><path class="cls-6" d="M45.31,55.72a6.7,6.7,0,0,1-3.66,2.18C36.79,59,33,56.44,30.8,54.39a18.43,18.43,0,0,0-.19-4.4,18.45,18.45,0,0,1,5-3.1H46A20.25,20.25,0,0,0,45.31,55.72Z"/><path class="cls-1" d="M56.68,27.49A21.59,21.59,0,0,1,56.53,30C55.36,40.35,47.24,50.7,37.39,50.7c-8.19,0-15.19-7.17-18-15.53a26,26,0,0,1-1.14-5.11c0-.1,0-.21,0-.31-.07-.76-.11-1.51-.11-2.26C18.11,16.4,26.74,7.4,37.39,7.4S56.68,16.4,56.68,27.49Z"/><path class="cls-7" d="M55.76,36.76S55.39,29,53,24.76s.61,13.71.61,13.71Z"/><path class="cls-7" d="M20.72,38.47,20.13,38A28.75,28.75,0,0,1,19,32.67c0-.1,0-.21,0-.32a23.62,23.62,0,0,1,2.32-7.59C23.76,20.57,20.72,38.47,20.72,38.47Z"/><ellipse class="cls-3" cx="21.84" cy="37.81" rx="4.3" ry="4.61"/><ellipse class="cls-6" cx="21.84" cy="37.81" rx="2.69" ry="2.88"/><ellipse class="cls-3" cx="52.72" cy="37.86" rx="4.3" ry="4.61"/><ellipse class="cls-8" cx="52.72" cy="37.86" rx="2.69" ry="2.88"/><path class="cls-3" d="M54,30.81v.32c0,.74-.05,1.49-.12,2.24-1,10.43-8.06,20.88-16.59,20.88S21.68,43.83,20.65,33.41c0-.57-.09-1.14-.11-1.71,0-.3,0-.59,0-.89,0-11.2,7.49-20.28,16.72-20.28S54,19.61,54,30.81Z"/><path class="cls-9" d="M42.35,29.35c.06-.06,1.39-1.34,3.61-.11a.65.65,0,0,0,.89-.3.73.73,0,0,0-.29-1,4.62,4.62,0,0,0-3.68-.5,3.6,3.6,0,0,0-1.43.84s-.61.56-.2,1,1.1,0,1.1,0Z"/><path class="cls-9" d="M31.5,29.45c-.06,0-1.63-1-3.55.74A.62.62,0,0,1,27,30.1a.75.75,0,0,1,.08-1,4.66,4.66,0,0,1,3.49-1.35,3.64,3.64,0,0,1,1.58.48s.7.41.39,1-1.07.25-1.07.25Z"/><path class="cls-6" d="M34.09,36.62S35.58,31.9,36.76,32s4,6.08,4,6.08Z"/><path class="cls-10" d="M54,33.18q0,1-.12,2a23.76,23.76,0,0,1-.9,4.39c-.09.31-.18.62-.29.92,0,.1-.06.19-.1.29l-.12.33c-.09.24-.18.48-.28.72s-.19.48-.3.71h0l-.1.22-.12.28A24,24,0,0,1,48,48.73a18,18,0,0,1-4.23,3.62,12.61,12.61,0,0,1-6.51,1.9,12.78,12.78,0,0,1-1.64-.11L34.73,54a13,13,0,0,1-2.4-.8A16,16,0,0,1,27.72,50l0,0-.5-.5A22.55,22.55,0,0,1,24,45.25L23.87,45h0l-.17-.31-.09-.17q-.34-.63-.66-1.29c-.06-.12-.11-.25-.17-.37q-.36-.78-.66-1.59h0L22,40.9c-.05-.14-.1-.28-.14-.42a24.3,24.3,0,0,1-1.17-5.22c0-.52-.09-1-.11-1.56a11.06,11.06,0,0,0,6.22,4.09,7.4,7.4,0,0,0,3.79-.65L31,37a34.89,34.89,0,0,1,4-1.37,10.26,10.26,0,0,1,1.21-.22h0a7.89,7.89,0,0,1,1-.06,7.53,7.53,0,0,1,1.6.21h.06l.44.12.31.1.3.1h0l.42.16h0c2,.79,3.84,1.93,5.9,1.7l.36-.06a4.55,4.55,0,0,0,.89-.26C49.65,36.57,51.54,34.41,54,33.18Z"/><g class="cls-11"><path d="M18.62,91.88H16.29c.34-3.25,1-8.85,1.21-8.91S18.26,88.07,18.62,91.88Z"/></g><g class="cls-11"><polygon points="63.86 91.88 61.7 91.88 62.44 82.97 63.86 91.88"/></g><path class="cls-12" d="M42.67,15.64v0h0Z"/><path class="cls-1" d="M28.09,21.44s-8.5,3-6.76,19.55,5.42,20.73,11.05,23.36c0,0-14-.33-15.31-22.44S21.11,18.69,28.09,21.44Z"/><path class="cls-1" d="M28,21.44s4.29-8.85,13.66-6.16c15.81,4.54,12.62,35.49,2.82,49,0,0,12.31-4.39,12.13-27.16C56.49,18.55,49.17,7.93,36.06,8.06S22.82,20.28,22.82,20.28Z"/><path class="cls-1" d="M27.85,20.33a.63.63,0,0,0-.11.32c0,.65.79,2.21,8.32,3.81C45.92,26.56,52,27.3,53,34.57s4.2-7.61-2.05-14S40.1,10,34.65,13.18,27.85,20.33,27.85,20.33Z"/><g class="cls-11"><path d="M19.84,60.58h0c-.45,1.32-1.23,3.54-1.49,3.31s-.08-3.28,0-4.37a2.31,2.31,0,0,1,.89.17A1,1,0,0,1,19.84,60.58Z"/></g><g class="cls-11"><path d="M22.7,64.68a1.58,1.58,0,0,1,.28.8c-.55,1-1.9,3.39-2.24,3.07s.68-3.67,1-4.59A1.39,1.39,0,0,1,22.7,64.68Z"/></g><g class="cls-11"><path d="M26.69,70.89c-.46.87-1.83,3.12-2.09,2.84s.72-2.9.94-3.8a1,1,0,0,1,.78.26A1.06,1.06,0,0,1,26.69,70.89Z"/></g><g class="cls-11"><path d="M31.25,73.9c-.45,1-1.55,3.77-1.93,3.44s.28-2.93.52-3.88a1.49,1.49,0,0,1,.95.07A1.09,1.09,0,0,1,31.25,73.9Z"/></g><g class="cls-11"><path d="M36.62,75.07c0,1.28-.24,4-.81,3.91s-.76-2.5-.92-3.59a1.18,1.18,0,0,1,.86-.54A.94.94,0,0,1,36.62,75.07Z"/></g><g class="cls-11"><path d="M42.09,74.5c.17,1.34.59,4.17,0,4.08s-1.39-2.67-1.61-3.69a1.5,1.5,0,0,1,.69-.44A1,1,0,0,1,42.09,74.5Z"/></g><g class="cls-11"><path d="M47.06,72c.6,1.26,2,3.88,1.37,3.92s-2.07-2-2.61-3a1.62,1.62,0,0,1,.47-.56A1.67,1.67,0,0,1,47.06,72Z"/></g><g class="cls-11"><path d="M52,68.26c.67.88,1.83,2.6,1.43,2.91s-1.93-.92-2.75-1.49a2,2,0,0,1,.3-.87A1,1,0,0,1,52,68.26Z"/></g><g class="cls-11"><path d="M56.15,66c-.44.39-2.65-.7-3.57-1.1a1.77,1.77,0,0,1-.11-1.13A1.18,1.18,0,0,1,53,63C54.15,63.76,56.62,65.57,56.15,66Z"/></g><g class="cls-11"><path d="M57.13,62.71c-.49,0-2-2.29-2.56-3.14,0-.33.15-.56.48-.6s.41,0,.59,0C56.19,60,57.62,62.67,57.13,62.71Z"/></g><path class="cls-13" d="M46.07,46.54a.36.36,0,0,1-.25-.11.41.41,0,0,1,0-.56l2.64-3a.36.36,0,0,1,.53,0,.43.43,0,0,1,0,.56l-2.65,3A.36.36,0,0,1,46.07,46.54Z"/><path class="cls-13" d="M24.06,39.1l-1.95,2.2L22,40.9c-.05-.14-.1-.28-.14-.42l1.7-1.92a.35.35,0,0,1,.52,0A.42.42,0,0,1,24.06,39.1Z"/><path class="cls-13" d="M31.16,37.59l-2.65,3a.35.35,0,0,1-.26.12.38.38,0,0,1-.26-.11A.43.43,0,0,1,28,40l2.57-2.89L31,37a.28.28,0,0,1,.11.08A.4.4,0,0,1,31.16,37.59Z"/><path class="cls-13" d="M28.06,45.23a.36.36,0,0,1-.25-.11.41.41,0,0,1,0-.56l2.64-3a.36.36,0,0,1,.53,0,.43.43,0,0,1,0,.56l-2.65,3A.37.37,0,0,1,28.06,45.23Z"/><path class="cls-13" d="M30.24,47.17,27.72,50l0,0-.5-.5,2.53-2.85a.35.35,0,0,1,.52,0A.41.41,0,0,1,30.24,47.17Z"/><path class="cls-13" d="M32.66,43.39a.38.38,0,0,1-.26-.11.43.43,0,0,1,0-.56l2.65-3a.35.35,0,0,1,.52,0,.4.4,0,0,1,0,.55l-2.65,3A.34.34,0,0,1,32.66,43.39Z"/><path class="cls-13" d="M36.21,35.37l-2,2.25a.34.34,0,0,1-.27.13.36.36,0,0,1-.25-.11.41.41,0,0,1,0-.56L35,35.59A10.26,10.26,0,0,1,36.21,35.37Z"/><path class="cls-13" d="M38.05,42.27a.39.39,0,0,1-.26-.1.43.43,0,0,1,0-.56l2.65-3a.36.36,0,0,1,.52,0,.41.41,0,0,1,0,.56l-2.64,3A.37.37,0,0,1,38.05,42.27Z"/><path class="cls-13" d="M39.6,35.75l-.67.76a.36.36,0,0,1-.27.12.32.32,0,0,1-.25-.11.4.4,0,0,1,0-.55l.4-.45h.06l.44.12Z"/><path class="cls-13" d="M47.47,37.39a.37.37,0,0,1-.07.14l-2.65,3a.36.36,0,0,1-.27.12.32.32,0,0,1-.25-.11.4.4,0,0,1,0-.55l2-2.26.36-.06A4.55,4.55,0,0,0,47.47,37.39Z"/><path class="cls-13" d="M39.52,48.51a.4.4,0,0,1-.26-.11.43.43,0,0,1,0-.56l2.65-3a.35.35,0,0,1,.52,0,.41.41,0,0,1,0,.56l-2.64,3A.39.39,0,0,1,39.52,48.51Z"/><path class="cls-13" d="M37.53,52,35.6,54.14,34.73,54,37,51.42a.35.35,0,0,1,.52,0A.41.41,0,0,1,37.53,52Z"/><path class="cls-13" d="M33.27,49.36a.36.36,0,0,1-.25-.11.42.42,0,0,1,0-.56l2.65-3a.35.35,0,0,1,.52,0,.4.4,0,0,1,0,.55l-2.65,3A.37.37,0,0,1,33.27,49.36Z"/><path class="cls-13" d="M41.42,53.43a.38.38,0,0,1-.26-.11.43.43,0,0,1,0-.56l2.65-3a.35.35,0,0,1,.52,0,.41.41,0,0,1,0,.56l-2.65,3A.33.33,0,0,1,41.42,53.43Z"/><path class="cls-13" d="M50.36,39.72a.36.36,0,0,1-.25-.11.42.42,0,0,1,0-.56l2.65-3a.35.35,0,0,1,.52,0,.42.42,0,0,1,0,.56l-2.65,3A.37.37,0,0,1,50.36,39.72Z"/><path class="cls-13" d="M26,43l-2,2.28L23.87,45h0l-.17-.31-.09-.17,1.88-2.12a.35.35,0,0,1,.52,0A.4.4,0,0,1,26,43Z"/><path class="cls-9" d="M32.18,34A2.43,2.43,0,0,0,30,32.6c-1.59,0-2.35,1.88-3.61,1.88,0,0,.09.63,1.68-.27S30.17,32.78,32.18,34Z"/><path class="cls-9" d="M42.57,33.57a2.42,2.42,0,0,1,2.18-1.43c1.59,0,2.34,1.88,3.6,1.88,0,0-.08.63-1.67-.27S44.58,32.32,42.57,33.57Z"/><g class="cls-11"><path d="M45.94,40.37s-9.15,4-16.37.94C29.57,41.31,35,50.86,45.94,40.37Z"/></g></svg>