<svg id="Layer_1" data-name="Layer 1" xmlns="http://www.w3.org/2000/svg" viewBox="0 0 75 92"><defs><style>.cls-1{fill:#ffb9ba;}.cls-2{fill:#db5a8e;}.cls-3{fill:#3a3559;}.cls-4{fill:#1f2935;}.cls-5{fill:#a8457d;}.cls-6{fill:#c77678;}.cls-7{fill:#fff;}.cls-8{fill:#ece5e5;}.cls-9{fill:#f5eeee;}.cls-10{fill:#b5b0b0;}.cls-11{fill:#615d7a;}</style></defs><path class="cls-1" d="M65.11,130.32c2.94-1,5.68-5.52,6.5-10.45.75-4.47-2.36-28.82-2.36-28.82s-13-.28-15.12,4.57c0,0,2.53,23.79,2.72,25.06C57.64,125.88,61.64,131.49,65.11,130.32Z"/><path class="cls-2" d="M64.64,67.1c1.9,1.78,5.19,6.28,5.25,8.06s2.23,21.75,2.5,32.06c-5.34,3.81-12.12,3.37-18.6,2.7-2.33-8.2-1.55-14.29-1.52-22.82l4.38-21.44S62.63,65.23,64.64,67.1Z"/><path class="cls-3" d="M64.91,90.21C63,88,59.11,65.78,59.11,65.78l-17.26-1-17.26-1s-12.67,32-6.44,50.48c3.06,12.61,1.71,18.09,1.12,29.55,0,0,6.1,4.79,12,5.3,5.87.17,16.8,1.36,25.07-.21-1.75-12.87-1.19-20,3.32-32.21C62.61,112.53,71.65,98.16,64.91,90.21Z"/><path class="cls-1" d="M32.62,63.21a7.69,7.69,0,0,0-4.57,8.56c.27,1.66,15.88,15.68,17.82,15.8s9.23-13.85,9.57-14.9a5.13,5.13,0,0,0-.55-4.1C54,66.58,50,64,50,64Z"/><rect class="cls-1" x="30.38" y="54.21" width="21.94" height="17.79" transform="translate(-24.07 100.69) rotate(-86.65)"/><path class="cls-4" d="M50.87,52.67l-.4,6.74c-4,6.52-10.75,5.6-18.15,5.69l.79-13.47Z"/><path class="cls-2" d="M19.9,63.76s-9,22.82-7.49,29.63c1.29,5.76,4.4,20,5.29,21.61,0,0,.71,11.71-1.53,18s-8.85,25.8-8.85,25.8,13.75.81,22.66-1.8c2.28-27.31,2.51-67.4,2.49-94.38Z"/><path class="cls-2" d="M65.56,87.67c-.77-1.83-3.12-21.4-3.12-21.4l-12.19-3-.24,4c6.37,29.51,5.21,67.33,1.81,90.25,0,0,8.16,5,16.76,3.77,0,0-8.42-22.33-9.6-26.11a32.08,32.08,0,0,1,1.48-17.66,51.22,51.22,0,0,0,6.34-11.9C69.11,99,67.94,93.38,65.56,87.67Z"/><path class="cls-5" d="M21.56,110.2c1.6-6.75,2.83-15,2.83-15s-7.57,6.85-10.72-1c-1.21-3.33,0-6.91-.25-10.54-.95,4-1.48,7.6-1,9.7,1.29,5.76,4.4,20,5.29,21.61,0,0,.71,11.71-1.53,18s-8.85,25.8-8.85,25.8,1.85.11,4.62.12c1.24-11,7.09-22.07,7.49-28.4C19.9,123.13,20.6,114.26,21.56,110.2Z"/><path class="cls-5" d="M65.22,92.46c2.65,8.48-1.06,16.07-5.65,23.66-5.3,8.48-1.94,18.89.71,28.25.88,2.83,1.94,5.47,3,8.3a29.11,29.11,0,0,0,3.7,6.88c.45.58.89,1.17,1.31,1.75l.29,0s-8.42-22.33-9.6-26.11a32.08,32.08,0,0,1,1.48-17.66,51.22,51.22,0,0,0,6.34-11.9c2.31-6.58,1.14-12.22-1.24-17.93A17.47,17.47,0,0,1,65,85,13,13,0,0,0,65.22,92.46Z"/><path class="cls-1" d="M9,124.17c-2.85-1.24-5.81-3.58-5.07-8.51C4.8,109.75,7.53,87.6,7.53,87.6s13,.82,14.67,5.83c0,0-3.37,22.23-3.67,23.48C17.31,122,12.34,125.63,9,124.17Z"/><path class="cls-2" d="M13.6,64.65c-2,1.61-5.17,5.3-5.38,7.07S4.17,93.21,3,103.45c5,4.25,11.8,4.39,18.31,4.26,1.3-8.24,2.75-14.11,3.43-22.61L21.28,63.33S15.76,63,13.6,64.65Z"/><path class="cls-1" d="M26.82,46s-4.28,3.68-6.08-2.38S24.8,38,26.11,41.17A10.73,10.73,0,0,1,26.82,46Z"/><path class="cls-1" d="M56.92,47.84s3.24,4.62,6.46-.83-2.55-6.49-4.6-3.72A10.76,10.76,0,0,0,56.92,47.84Z"/><path class="cls-1" d="M58,45.72c-1.66,9.19-11,16.59-19.1,15.13S24.63,49.19,26.28,40c.06-.3,1-12.83,1-12.83A15.3,15.3,0,0,1,45,14.83l4.26.77A15.29,15.29,0,0,1,61.63,33.34C60.81,38,58.06,45.37,58,45.72Z"/><path class="cls-6" d="M28.52,44.89c.57,10,9.34,15.66,20.1,13.92a14.4,14.4,0,0,1-9.72,2C30.79,59.39,24.63,49.19,26.28,40c.06-.3,1-12.83,1-12.83A15.18,15.18,0,0,1,32,18.57C29.71,27.09,28.07,35.76,28.52,44.89Z"/><path class="cls-4" d="M51.27,44h0A1.57,1.57,0,0,1,50,42.17l.29-1.76a1.57,1.57,0,0,1,1.8-1.29h0a1.57,1.57,0,0,1,1.28,1.8l-.29,1.76A1.57,1.57,0,0,1,51.27,44Z"/><path class="cls-4" d="M51.7,39.12a2.9,2.9,0,0,1,2,.77,1.63,1.63,0,0,0,1.59.56,1.67,1.67,0,0,1-1.81,0c-.9-.62-1.39-.49-1.39-.49Z"/><path class="cls-4" d="M34.44,41.88h0a1.56,1.56,0,0,0,1.74-1.36l.22-1.77A1.57,1.57,0,0,0,35,37h0a1.56,1.56,0,0,0-1.74,1.36l-.22,1.77A1.56,1.56,0,0,0,34.44,41.88Z"/><path class="cls-4" d="M35.39,37.11a2.94,2.94,0,0,0-2.14.17,1.62,1.62,0,0,1-1.68.09,1.65,1.65,0,0,0,1.73.54,1.92,1.92,0,0,1,1.47-.08Z"/><path class="cls-4" d="M36.91,35.25c-.87-.06-4.47-.47-4.47-.47-.1-.34.1-.46.5-.52a12.69,12.69,0,0,1,3.93-.33.9.9,0,0,1,.53.22.7.7,0,0,1,.23.47.66.66,0,0,1-.72.63Z"/><path class="cls-4" d="M50.77,37c.86.16,4.45.63,4.45.63.18-.3,0-.46-.36-.62a12.59,12.59,0,0,0-3.73-1.28.93.93,0,0,0-.57.08.69.69,0,0,0-.33.4.66.66,0,0,0,.54.79Z"/><path class="cls-7" d="M36.44,46.37A37.14,37.14,0,0,0,49,47.73c-.64,2.27-4,4.45-6.61,4.19A6.33,6.33,0,0,1,36.44,46.37Z"/><path class="cls-8" d="M49.8,58.18c1.3-3.11,2.57-6.08,3.87-9.19a50.62,50.62,0,0,0-8.22-6.86,6.59,6.59,0,0,0-5.17-.88,50.83,50.83,0,0,0-10,3.78c.2,3.36.43,6.58.63,9.94,0,0,4.68,5,6.53,6.29a6.79,6.79,0,0,0,4.95.57C43.87,61.26,49.8,58.18,49.8,58.18Z"/><path class="cls-9" d="M55.78,48.57C51.5,46.5,47.15,44,42.52,43.22s-9.57.13-14.31.68c-.29.65-.05,7.8,1.21,9.5A22.69,22.69,0,0,0,32,56.33s4.86,3.08,7.43,3.51S47.71,59,47.71,59a16.53,16.53,0,0,0,5-2.25C54.16,55.71,55.85,49.29,55.78,48.57Z"/><path class="cls-10" d="M44.08,44.79a6.8,6.8,0,0,0-3.55-.61.35.35,0,0,1-.38-.24h0a.29.29,0,0,1,.29-.32,7.43,7.43,0,0,1,3.91.66.29.29,0,0,1,.16.4h0A.34.34,0,0,1,44.08,44.79Z"/><polygon class="cls-9" points="59.72 37.35 54.99 48.7 55.6 48.98 60.32 37.96 59.72 37.35"/><polygon class="cls-9" points="22.12 38.2 28.92 44.09 28.27 44.28 22.45 38.91 22.12 38.2"/><path class="cls-3" d="M21.52,15.36A21.16,21.16,0,0,0,19,24.47c-.21,2.73,4.85,21.32,6.66,23.45,1.21-4.82,2.6-22.67,8.81-27.51C36.19,26,40.8,30.16,45.51,33.65c4.93,3.66,10.62,6.05,16.36,8.21a79.1,79.1,0,0,0,1.18-13.64c-.11-5.61-1.3-11.33-4.28-16S50.85,3.9,45.36,3.48a13.5,13.5,0,0,0-12.73,6.8,9.51,9.51,0,0,0-9.15,2.55A12.61,12.61,0,0,0,21.52,15.36Z"/><path class="cls-11" d="M39.26,12.65c-1.54-1.07-3-2.14-4.52-3.16a42.56,42.56,0,0,0,4.08,5C39,13.9,39.13,13.28,39.26,12.65Z"/><path class="cls-11" d="M62.57,22.71c-7.67-.29-14.57-4.16-21-8.46-.2.8-.43,1.58-.68,2.36C47,22.26,54.84,26.41,63,26.9A39.39,39.39,0,0,0,62.57,22.71Z"/><path class="cls-3" d="M61.33,30.13C62.22,39,62.52,45,61.5,53.89S57.38,71.61,51.25,78.08a54.69,54.69,0,0,0,6-42.12Z"/></svg>