<svg id="Layer_1" data-name="Layer 1" xmlns="http://www.w3.org/2000/svg" viewBox="0 0 75 92"><defs><style>.cls-1{fill:#fbc0a4;}.cls-2{fill:#f8e8d8;}.cls-3{fill:#fff;}.cls-4{fill:#f69d7d;}.cls-5{fill:#403433;}.cls-6{fill:#f9b092;}</style></defs><circle class="cls-1" cx="62.72" cy="76.1" r="7.85"/><path class="cls-1" d="M55.12,78.06c2.76,12.76,5,32.61,5.19,35.47H73.62S73.56,85,70.26,74Z"/><path class="cls-2" d="M59.8,106.81c-.93-6.51-2.86-20.32-4.68-28.75h0A7.84,7.84,0,0,1,70.26,74h0c2,6.52,3.36,16.6,5,28.42C71.12,104.88,61.19,106.59,59.8,106.81Z"/><circle class="cls-2" cx="62.72" cy="76.1" r="7.85" transform="translate(-26.27 118.61) rotate(-76.04)"/><circle class="cls-2" cx="12.16" cy="78.03" r="7.85" transform="translate(-66.6 72.14) rotate(-76.87)"/><path class="cls-2" d="M13.62,82.58l5.16,25.49L14.84,140.3s25,9.47,50.59,1.51c0,0-1.35-37.23-3.74-66.42l6.43-5c-5.64-5.24-25.48-12.18-31-11.3C28.34,60.5,6.61,70.76,6,73.22Z"/><path class="cls-3" d="M31.34,58.26s7.43,8.24,9.49,7.7,3-7.84,3-7.84,4.52,1,5,1.86.78,9.55-.73,11.14-6.47-2.87-6.47-2.87-4.25,5.51-6.62,5-7.8-11-8.15-12.28S31.34,58.26,31.34,58.26Z"/><circle class="cls-1" cx="12.16" cy="78.03" r="7.85" transform="translate(-66.6 72.14) rotate(-76.87)"/><path class="cls-1" d="M19.75,80c-2.76,12.76-5,32.61-5.19,35.47H1.25s.07-28.58,3.36-39.58Z"/><path class="cls-2" d="M16.39,108.72S17.93,88.42,19.75,80h0A7.84,7.84,0,0,0,4.61,75.88h0c-2,6.52-5.7,17.44-5.7,28.29C-1.09,104.17,7.91,109.53,16.39,108.72Z"/><path class="cls-1" d="M31.6,61.67l-2-19.15L44.22,50l-.14.7-.4,9.63c-.12,2.76,0,5.54-2.9,6h0C37.31,66.84,31.93,64.84,31.6,61.67Z"/><path class="cls-4" d="M43.83,56.63l.25-6,.14-.7L29.63,42.52l.93,9C33.17,55.47,38.32,56.65,43.83,56.63Z"/><path class="cls-1" d="M53.76,34.39c-.06-4.56.21-11.12-1.61-15.9h0a9.44,9.44,0,0,0-3.85-4.92c-2-1.44-4.79-2.37-9-2.7-8.79-.71-14.5,2.59-18.32,8.31C18.15,23.42,19.36,29,19.94,31c-1.62.15-3.88,1.13-3.37,5.58.79,6.8,5.72,6.93,7.17,7.23,0,0,2.71,12.1,17.64,10.94S53.87,42.06,53.76,34.39Z"/><path class="cls-5" d="M48.1,33.8c-.1.42-1.42.22-2.63.38a4,4,0,0,0-1.43.53c-.35.2-.58.43-.77.38s-.3-.47,0-1a2.73,2.73,0,0,1,2-1.28,3.82,3.82,0,0,1,2.17.33C47.91,33.35,48.15,33.62,48.1,33.8Z"/><path class="cls-5" d="M39.56,35.07c-.31.25-1.32-.46-2.7-.79s-2.6-.23-2.75-.6c-.06-.18.21-.48.77-.7a4.07,4.07,0,0,1,2.33-.07,4,4,0,0,1,2,1.18C39.61,34.55,39.7,34.94,39.56,35.07Z"/><path class="cls-6" d="M53.43,40.53A3.68,3.68,0,1,1,49.59,37,3.68,3.68,0,0,1,53.43,40.53Z"/><path class="cls-6" d="M34.77,41.05a3.68,3.68,0,1,1-3.84-3.5A3.69,3.69,0,0,1,34.77,41.05Z"/><path class="cls-6" d="M18.52,34.14c-.52,1.8.22,3.7.94,5.43a3,3,0,0,0,.91,1.36,1,1,0,0,0,1.46-.23c.23-.49-.12-1-.39-1.5s-.42-1.16,0-1.45c.21-.14.48-.13.7-.25.49-.25.48-.94.36-1.47a8.38,8.38,0,0,0-.81-2.1c-.36-.65-.92-1.31-1.66-1.3S18.73,33.4,18.52,34.14Z"/><path class="cls-4" d="M37.09,43.76c.22-.35,1.8.32,3.82.27s3.59-.7,3.82-.37c.1.16-.19.58-.86,1a6.14,6.14,0,0,1-5.9.07C37.29,44.32,37,43.92,37.09,43.76Z"/><path class="cls-4" d="M43.48,39.62a.51.51,0,0,1,.16.62,1.49,1.49,0,0,1-1.86.89c-.29-.12-.41-.33-.38-.52.09-.38.5-.63.88-.83A1.53,1.53,0,0,1,43.48,39.62Z"/><path class="cls-5" d="M54.27,19.41c4-3.43,6.36-8.23,4.93-13.78C57,6.61,55,7.4,52.81,8.38c2.27-2.05,2.77-3.91,2.6-6.82,0,0-26.91,5.78-32.62,10.14a9.09,9.09,0,0,0-3.16,3.79l-4.09-5s-2.44,6.07,2.33,8.16a6.28,6.28,0,0,0-2.46,3.78c-1.32,5.17,2.53,9.35,2.53,9.35a3.86,3.86,0,0,1,3.41-.34c1.73.61,3.67,3.7,3.57,6.76l1.6-.21-.21-6.43s2.11-1.56,3.92-6.92a16,16,0,0,0,8.94,1.67l-5-4.83a22.45,22.45,0,0,0,13.6,4.76c5.55.27,11.44-2.13,14.26-6.91C59.67,19.44,56.65,19.28,54.27,19.41Z"/><path class="cls-5" d="M40,28.5v0c-1.28-.71-5.37-.38-8.17,1a1.71,1.71,0,0,0,1.3,1.63,4.94,4.94,0,0,0,2.23,0c1.3-.2,2.49-.55,3.74-.82A1.27,1.27,0,0,0,40,28.5Z"/><path class="cls-5" d="M42.47,29.16h0A9.27,9.27,0,0,1,50,28.74a1.83,1.83,0,0,1-1,1.83A4.35,4.35,0,0,1,47,31c-1.14,0-2.21-.1-3.31-.16A1.27,1.27,0,0,1,42.47,29.16Z"/></svg>