<svg id="Layer_1" data-name="Layer 1" xmlns="http://www.w3.org/2000/svg" viewBox="0 0 75 92"><defs><style>.cls-1{fill:#ffb9ba;}.cls-2{fill:#db5a8e;}.cls-3{fill:#3a3559;}.cls-4{fill:#1f2935;}.cls-5{fill:#a8457d;}.cls-6{fill:#c77678;}.cls-7{fill:#fff;}.cls-8{fill:#ece5e5;}.cls-9{fill:#f5eeee;}.cls-10{fill:#b5b0b0;}.cls-11{fill:#615d7a;}</style></defs><path class="cls-1" d="M64.11,130.32c2.94-1,5.68-5.52,6.5-10.45.75-4.47-2.36-28.82-2.36-28.82s-13-.28-15.12,4.57c0,0,2.53,23.79,2.72,25.06C56.64,125.88,60.64,131.49,64.11,130.32Z"/><path class="cls-2" d="M63.64,67.1c1.9,1.78,5.19,6.28,5.25,8.06s2.23,21.75,2.5,32.06c-5.34,3.81-12.12,3.37-18.6,2.7-2.33-8.2-1.55-14.29-1.52-22.82l4.38-21.44S61.63,65.23,63.64,67.1Z"/><path class="cls-3" d="M63.91,90.21C62,88,58.11,65.78,58.11,65.78l-17.26-1-17.26-1s-12.67,32-6.44,50.48c3.06,12.61,1.71,18.09,1.12,29.55,0,0,6.1,4.79,12,5.3,5.87.17,16.8,1.36,25.07-.21-1.75-12.87-1.19-20,3.32-32.21C61.61,112.53,70.65,98.16,63.91,90.21Z"/><path class="cls-1" d="M31.62,63.21a7.69,7.69,0,0,0-4.57,8.56c.27,1.66,15.88,15.68,17.82,15.8s9.23-13.85,9.57-14.9a5.13,5.13,0,0,0-.55-4.1C53,66.58,49,64,49,64Z"/><rect class="cls-1" x="29.38" y="54.21" width="21.94" height="17.79" transform="translate(-25.01 99.69) rotate(-86.65)"/><path class="cls-4" d="M49.87,52.67l-.4,6.74c-4,6.52-10.75,5.6-18.15,5.69l.79-13.47Z"/><path class="cls-2" d="M18.9,63.76s-9,22.82-7.49,29.63c1.29,5.76,4.4,20,5.29,21.61,0,0,.71,11.71-1.53,18s-8.85,25.8-8.85,25.8,13.75.81,22.66-1.8c2.28-27.31,2.51-67.4,2.49-94.38Z"/><path class="cls-2" d="M64.56,87.67c-.77-1.83-3.12-21.4-3.12-21.4l-12.19-3-.24,4c6.37,29.51,5.21,67.33,1.81,90.25,0,0,8.16,5,16.76,3.77,0,0-8.42-22.33-9.6-26.11a32.08,32.08,0,0,1,1.48-17.66,51.22,51.22,0,0,0,6.34-11.9C68.11,99,66.94,93.38,64.56,87.67Z"/><path class="cls-5" d="M20.56,110.2c1.6-6.75,2.83-15,2.83-15s-7.57,6.85-10.72-1c-1.21-3.33,0-6.91-.25-10.54-.95,4-1.48,7.6-1,9.7,1.29,5.76,4.4,20,5.29,21.61,0,0,.71,11.71-1.53,18s-8.85,25.8-8.85,25.8,1.85.11,4.62.12c1.24-11,7.09-22.07,7.49-28.4C18.9,123.13,19.6,114.26,20.56,110.2Z"/><path class="cls-5" d="M64.22,92.46c2.65,8.48-1.06,16.07-5.65,23.66-5.3,8.48-1.94,18.89.71,28.25.88,2.83,1.94,5.47,3,8.3a29.11,29.11,0,0,0,3.7,6.88c.45.58.89,1.17,1.31,1.75l.29,0s-8.42-22.33-9.6-26.11a32.08,32.08,0,0,1,1.48-17.66,51.22,51.22,0,0,0,6.34-11.9c2.31-6.58,1.14-12.22-1.24-17.93A17.47,17.47,0,0,1,64,85,13,13,0,0,0,64.22,92.46Z"/><path class="cls-1" d="M25.77,49s-3.54,4.4-6.4-1.24,3-6.31,4.83-3.42A10.7,10.7,0,0,1,25.77,49Z"/><path class="cls-1" d="M55.7,45.31s4,3.95,6.21-2-3.68-5.92-5.2-2.83A10.84,10.84,0,0,0,55.7,45.31Z"/><path class="cls-1" d="M56.38,43c0,9.34-7.81,18.3-16.05,18.33S24.19,52.48,24.15,43.15c0-.31-1.35-12.8-1.35-12.8A15.29,15.29,0,0,1,38,15l4.33,0A15.31,15.31,0,0,1,57.72,30.2C57.74,34.91,56.38,42.67,56.38,43Z"/><path class="cls-6" d="M27.24,47.55c2.37,9.71,12,13.71,22.29,10.05a14.41,14.41,0,0,1-9.2,3.76c-8.23,0-16.14-8.88-16.18-18.21,0-.31-1.35-12.8-1.35-12.8A15.28,15.28,0,0,1,25.93,21C25.19,29.83,25.14,38.65,27.24,47.55Z"/><path class="cls-4" d="M49.44,42.53h0A1.58,1.58,0,0,1,47.85,41l0-1.78a1.56,1.56,0,0,1,1.53-1.59h0a1.56,1.56,0,0,1,1.59,1.53l0,1.79A1.58,1.58,0,0,1,49.44,42.53Z"/><path class="cls-4" d="M49,37.68a2.91,2.91,0,0,1,2.11.39,1.64,1.64,0,0,0,1.67.26,1.67,1.67,0,0,1-1.78.36,2,2,0,0,0-1.46-.23Z"/><path class="cls-4" d="M32.52,43.52h0A1.57,1.57,0,0,0,34,41.87l-.11-1.79a1.57,1.57,0,0,0-1.66-1.46h0a1.57,1.57,0,0,0-1.46,1.65l.11,1.79A1.57,1.57,0,0,0,32.52,43.52Z"/><path class="cls-4" d="M32.59,38.65a3,3,0,0,0-2.07.56,1.64,1.64,0,0,1-1.64.4,1.66,1.66,0,0,0,1.8.21,1.92,1.92,0,0,1,1.44-.34Z"/><path class="cls-4" d="M33.75,36.55c-.87.1-4.49.34-4.49.34-.15-.31,0-.46.4-.6a12.67,12.67,0,0,1,3.81-1,.83.83,0,0,1,.56.12.68.68,0,0,1,.31.42.66.66,0,0,1-.59.75Z"/><path class="cls-4" d="M47.69,35.73c.87,0,4.5-.18,4.5-.18.11-.33-.08-.46-.47-.55a12.65,12.65,0,0,0-3.91-.58.94.94,0,0,0-.54.18.71.71,0,0,0-.25.45.65.65,0,0,0,.67.68Z"/><path class="cls-7" d="M35.3,47.57a36.69,36.69,0,0,0,12.56-.93c-.22,2.35-3.13,5.1-5.74,5.32A6.31,6.31,0,0,1,35.3,47.57Z"/><path class="cls-8" d="M50.57,56.77c.72-3.29,1.43-6.45,2.14-9.74a50.82,50.82,0,0,0-9.32-5.26,6.63,6.63,0,0,0-5.24.07A50.42,50.42,0,0,0,29,47.37c.8,3.27,1.61,6.4,2.41,9.67,0,0,5.52,4.1,7.56,5a6.79,6.79,0,0,0,5-.32C45.3,60.87,50.57,56.77,50.57,56.77Z"/><path class="cls-9" d="M54.72,46.24c-4.59-1.27-9.31-2.93-14-2.87s-9.38,1.86-13.94,3.26c-.18.7,1.36,7.68,2.91,9.12a23.57,23.57,0,0,0,3.09,2.41s5.34,2.15,7.94,2.11,8-2.33,8-2.33a16.7,16.7,0,0,0,4.56-3.12C54.41,53.55,54.91,46.93,54.72,46.24Z"/><path class="cls-10" d="M42.52,44.63a6.87,6.87,0,0,0-3.6,0,.34.34,0,0,1-.41-.17h0a.29.29,0,0,1,.23-.37,7.56,7.56,0,0,1,3.95-.06.29.29,0,0,1,.24.37h0A.35.35,0,0,1,42.52,44.63Z"/><polygon class="cls-9" points="56.56 34.49 53.97 46.51 54.61 46.67 57.27 34.98 56.56 34.49"/><polygon class="cls-9" points="19.74 42.13 27.49 46.69 26.89 47 20.18 42.77 19.74 42.13"/><path class="cls-3" d="M15,19.77a21.12,21.12,0,0,0-.89,9.43c.29,2.72,8.64,20.08,10.8,21.85.31-4.95-1.55-22.76,3.68-28.64,2.76,5.17,8,8.43,13.31,11,5.51,2.7,11.53,4,17.57,5.11a79.54,79.54,0,0,0-1.3-13.62c-1.13-5.51-3.33-10.91-7.11-15s-9.3-6.72-14.77-6.13a13.47,13.47,0,0,0-11.29,9,9.51,9.51,0,0,0-8.54,4.16A12.94,12.94,0,0,0,15,19.77Z"/><path class="cls-11" d="M32,13.89l-5-2.28a43.67,43.67,0,0,0,4.92,4.2C31.93,15.18,32,14.54,32,13.89Z"/><path class="cls-11" d="M56.71,19.57c-7.59,1.1-15.07-1.45-22.14-4.52,0,.82-.13,1.63-.24,2.44,7,4.46,15.46,7.12,23.57,6.13A40.82,40.82,0,0,0,56.71,19.57Z"/><path class="cls-3" d="M56.84,27.1c2.48,8.56,3.86,14.44,4.46,23.33s-.84,18.17-5.7,25.64a54.69,54.69,0,0,0-1.7-42.5Z"/><path class="cls-1" d="M8,124.17c-2.85-1.24-5.81-3.58-5.07-8.51C3.8,109.75,6.53,87.6,6.53,87.6s13,.82,14.67,5.83c0,0-3.37,22.23-3.67,23.48C16.31,122,11.34,125.63,8,124.17Z"/><path class="cls-2" d="M12.6,64.65c-2,1.61-5.17,5.3-5.38,7.07S3.17,93.21,2,103.45c5,4.25,11.8,4.39,18.31,4.26,1.3-8.24,2.75-14.11,3.43-22.61L20.28,63.33S14.76,63,12.6,64.65Z"/></svg>