<svg id="Layer_1" data-name="Layer 1" xmlns="http://www.w3.org/2000/svg" viewBox="0 0 75 92"><defs><style>.cls-1{fill:#ffb9ba;}.cls-2{fill:#db5a8e;}.cls-3{fill:#3a3559;}.cls-4{fill:#1f2935;}.cls-5{fill:#a8457d;}.cls-6{fill:#c77678;}.cls-7{fill:#fff;}.cls-8{fill:#ece5e5;}.cls-9{fill:#f5eeee;}.cls-10{fill:#b5b0b0;}.cls-11{fill:#615d7a;}</style></defs><path class="cls-1" d="M64.11,130.32c2.94-1,5.68-5.52,6.5-10.45.75-4.47-2.36-28.82-2.36-28.82s-13-.28-15.12,4.57c0,0,2.53,23.79,2.72,25.06C56.64,125.88,60.64,131.49,64.11,130.32Z"/><path class="cls-2" d="M63.64,67.1c1.9,1.78,5.19,6.28,5.25,8.06s2.23,21.75,2.5,32.06c-5.34,3.81-12.12,3.37-18.6,2.7-2.33-8.2-1.55-14.29-1.52-22.82l4.38-21.44S61.63,65.23,63.64,67.1Z"/><path class="cls-3" d="M63.91,90.21C62,88,58.11,65.78,58.11,65.78l-17.26-1-17.26-1s-12.67,32-6.44,50.48c3.06,12.61,1.71,18.09,1.12,29.55,0,0,6.1,4.79,12,5.3,5.87.17,16.8,1.36,25.07-.21-1.75-12.87-1.19-20,3.32-32.21C61.61,112.53,70.65,98.16,63.91,90.21Z"/><path class="cls-1" d="M31.62,63.21a7.69,7.69,0,0,0-4.57,8.56c.27,1.66,15.88,15.68,17.82,15.8s9.23-13.85,9.57-14.9a5.13,5.13,0,0,0-.55-4.1C53,66.58,49,64,49,64Z"/><rect class="cls-1" x="29.38" y="54.21" width="21.94" height="17.79" transform="translate(-25.01 99.69) rotate(-86.65)"/><path class="cls-4" d="M49.87,52.67l-.4,6.74c-4,6.52-10.75,5.6-18.15,5.69l.79-13.47Z"/><path class="cls-2" d="M18.9,63.76s-9,22.82-7.49,29.63c1.29,5.76,4.4,20,5.29,21.61,0,0,.71,11.71-1.53,18s-8.85,25.8-8.85,25.8,13.75.81,22.66-1.8c2.28-27.31,2.51-67.4,2.49-94.38Z"/><path class="cls-2" d="M64.56,87.67c-.77-1.83-3.12-21.4-3.12-21.4l-12.19-3-.24,4c6.37,29.51,5.21,67.33,1.81,90.25,0,0,8.16,5,16.76,3.77,0,0-8.42-22.33-9.6-26.11a32.08,32.08,0,0,1,1.48-17.66,51.22,51.22,0,0,0,6.34-11.9C68.11,99,66.94,93.38,64.56,87.67Z"/><path class="cls-5" d="M20.56,110.2c1.6-6.75,2.83-15,2.83-15s-7.57,6.85-10.72-1c-1.21-3.33,0-6.91-.25-10.54-.95,4-1.48,7.6-1,9.7,1.29,5.76,4.4,20,5.29,21.61,0,0,.71,11.71-1.53,18s-8.85,25.8-8.85,25.8,1.85.11,4.62.12c1.24-11,7.09-22.07,7.49-28.4C18.9,123.13,19.6,114.26,20.56,110.2Z"/><path class="cls-5" d="M64.22,92.46c2.65,8.48-1.06,16.07-5.65,23.66-5.3,8.48-1.94,18.89.71,28.25.88,2.83,1.94,5.47,3,8.3a29.11,29.11,0,0,0,3.7,6.88c.45.58.89,1.17,1.31,1.75l.29,0s-8.42-22.33-9.6-26.11a32.08,32.08,0,0,1,1.48-17.66,51.22,51.22,0,0,0,6.34-11.9c2.31-6.58,1.14-12.22-1.24-17.93A17.47,17.47,0,0,1,64,85,13,13,0,0,0,64.22,92.46Z"/><path class="cls-1" d="M8,124.17c-2.85-1.24-5.81-3.58-5.07-8.51C3.8,109.75,6.53,87.6,6.53,87.6s13,.82,14.67,5.83c0,0-3.37,22.23-3.67,23.48C16.31,122,11.34,125.63,8,124.17Z"/><path class="cls-2" d="M12.6,64.65c-2,1.61-5.17,5.3-5.38,7.07S3.17,93.21,2,103.45c5,4.25,11.8,4.39,18.31,4.26,1.3-8.24,2.75-14.11,3.43-22.61L20.28,63.33S14.76,63,12.6,64.65Z"/><path class="cls-1" d="M25.62,52.7s-2.33,5.14-6.51.39,1.3-6.85,3.83-4.51A10.73,10.73,0,0,1,25.62,52.7Z"/><path class="cls-1" d="M53.69,41.68s4.89,2.82,5.52-3.47-5.05-4.82-5.74-1.44A10.77,10.77,0,0,0,53.69,41.68Z"/><path class="cls-1" d="M53.78,39.31c2.36,9-3,19.67-11,21.75S25,56.48,22.6,47.45c-.08-.3-4.51-12.05-4.51-12.05A15.3,15.3,0,0,1,29,16.73l4.18-1.09a15.29,15.29,0,0,1,18.66,10.9C53.07,31.1,53.69,39,53.78,39.31Z"/><path class="cls-6" d="M26.68,50.94c4.72,8.82,15.07,10.28,24.1,4.18a14.42,14.42,0,0,1-8,5.94c-8,2.08-17.85-4.58-20.21-13.61-.08-.3-4.51-12.05-4.51-12.05a15.34,15.34,0,0,1,.71-9.82C20.28,34.29,22.43,42.85,26.68,50.94Z"/><path class="cls-4" d="M30.8,45.73h0a1.57,1.57,0,0,0,1-2l-.55-1.7a1.57,1.57,0,0,0-2-1h0a1.57,1.57,0,0,0-1,2l.55,1.7A1.57,1.57,0,0,0,30.8,45.73Z"/><path class="cls-4" d="M29.65,41a3,3,0,0,0-1.87,1.06,1.63,1.63,0,0,1-1.49.79,1.67,1.67,0,0,0,1.8-.24c.79-.74,1.3-.69,1.3-.69Z"/><path class="cls-4" d="M30.25,38.67C29.43,39,26,40.12,26,40.12c-.23-.27-.1-.45.23-.68a12.73,12.73,0,0,1,3.44-1.95.92.92,0,0,1,.57,0,.78.78,0,0,1,.4.33.67.67,0,0,1-.38.88Z"/><path class="cls-4" d="M44.5,36.65c.84-.22,4.31-1.3,4.31-1.3,0-.35-.19-.43-.59-.42a12.68,12.68,0,0,0-3.93.41,1,1,0,0,0-.48.31.72.72,0,0,0-.13.5.66.66,0,0,0,.82.5Z"/><path class="cls-4" d="M50.28,38.3a.68.68,0,0,1-.14.3,1.1,1.1,0,0,1-.85.39A3,3,0,0,1,48,38.6a2.7,2.7,0,0,0-.56-.2,2.44,2.44,0,0,0-1.71.27,3.27,3.27,0,0,0-.81.69,4.21,4.21,0,0,0-.43.66l-.1.21,0,.07v-.08a1.21,1.21,0,0,1,0-.23,2.4,2.4,0,0,1,.13-.87A2.63,2.63,0,0,1,45.19,38a2.56,2.56,0,0,1,1.62-.66,2.34,2.34,0,0,1,.92.14,2.63,2.63,0,0,1,.73.4,4.41,4.41,0,0,0,.89.63.9.9,0,0,0,.69,0A.67.67,0,0,0,50.28,38.3Z"/><path class="cls-7" d="M35.72,49.08a37,37,0,0,0,11.44-5.26c.61,2.27-1.16,5.87-3.52,7A6.32,6.32,0,0,1,35.72,49.08Z"/><path class="cls-8" d="M51.58,54.05c-.13-3.36-.22-6.59-.36-10a50.62,50.62,0,0,0-10.33-2.77,6.62,6.62,0,0,0-5.07,1.38,50.06,50.06,0,0,0-7.5,7.64c1.6,3,3.16,5.79,4.75,8.76,0,0,6.37,2.59,8.57,2.95a6.74,6.74,0,0,0,4.73-1.56C47.5,59.34,51.58,54.05,51.58,54.05Z"/><path class="cls-9" d="M53,42.82c-4.76-.08-9.75-.51-14.29.72S30.05,47.69,26,50.18c0,.71,3.23,7.09,5.09,8.1a23.68,23.68,0,0,0,3.6,1.57s5.71.75,8.22.06S50,55.66,50,55.66a16.2,16.2,0,0,0,3.63-4.16C54.5,50,53.33,43.44,53,42.82Z"/><path class="cls-10" d="M40.75,44.31a6.79,6.79,0,0,0-3.46.94.35.35,0,0,1-.45-.06h0a.28.28,0,0,1,.13-.41,7.44,7.44,0,0,1,3.82-1.05c.19,0,.34.14.32.3h0A.35.35,0,0,1,40.75,44.31Z"/><polygon class="cls-9" points="51.82 30.98 52.31 43.27 52.97 43.27 52.63 31.29 51.82 30.98"/><polygon class="cls-9" points="18.07 47.57 26.71 50.05 26.2 50.5 18.66 48.08 18.07 47.57"/><path class="cls-3" d="M7.92,27.09a21.22,21.22,0,0,0,1.49,9.35c1,2.57,13.37,17.3,15.91,18.47-.93-4.87-7.17-21.65-3.57-28.65,3.95,4.32,9.89,6.16,15.63,7.34,6,1.25,12.17,1,18.29.57A79.69,79.69,0,0,0,51,21.3c-2.47-5.05-5.95-9.73-10.63-12.75S29.71,4.36,24.55,6.29a13.52,13.52,0,0,0-8.69,11.53A9.51,9.51,0,0,0,8.63,24,12.87,12.87,0,0,0,7.92,27.09Z"/><path class="cls-11" d="M22.87,17.17l-5.43-1a43.5,43.5,0,0,0,5.81,2.85C23.15,18.42,23,17.8,22.87,17.17Z"/><path class="cls-11" d="M48.25,16.5c-7.08,3-15,2.35-22.57,1.14.15.81.28,1.62.37,2.43,7.89,2.57,16.75,3,24.35.05A40.08,40.08,0,0,0,48.25,16.5Z"/><path class="cls-3" d="M50.25,23.76c4.54,7.67,7.34,13,10.14,21.48s3.72,17.81.88,26.25A54.65,54.65,0,0,0,49,30.76Z"/></svg>