<?xml version="1.0" standalone="no"?>
<!DOCTYPE svg PUBLIC "-//W3C//DTD SVG 20010904//EN"
 "http://www.w3.org/TR/2001/REC-SVG-20010904/DTD/svg10.dtd">
<svg version="1.0" xmlns="http://www.w3.org/2000/svg"
 width="200.000000pt" height="200.000000pt" viewBox="0 0 200.000000 200.000000"
 preserveAspectRatio="xMidYMid meet">
<metadata>
Created by potrace 1.14, written by Peter Selinger 2001-2017
</metadata>
<g transform="translate(0.000000,200.000000) scale(0.100000,-0.100000)"
fill="#000000" stroke="none">
<path d="M2 998 l3 -753 198 -3 c183 -2 197 -1 198 15 0 10 1 210 1 446 1 235
2 427 4 427 2 0 105 -154 230 -342 125 -189 256 -387 291 -440 36 -53 70 -95
76 -92 7 2 140 198 297 435 157 237 288 432 291 434 3 3 6 -188 7 -423 0 -235
1 -435 1 -445 1 -16 15 -17 199 -15 l197 3 3 753 2 752 -197 0 c-109 0 -202
-4 -208 -8 -5 -4 -37 -47 -71 -97 -33 -49 -99 -146 -146 -215 -107 -158 -291
-429 -337 -497 -20 -29 -38 -53 -41 -53 -3 0 -43 56 -90 125 -47 69 -132 195
-190 280 -58 85 -152 224 -210 310 l-105 155 -203 0 -202 0 2 -752z"/>
</g>
</svg>
