<?xml version="1.0" standalone="no"?>
<!DOCTYPE svg PUBLIC "-//W3C//DTD SVG 20010904//EN"
 "http://www.w3.org/TR/2001/REC-SVG-20010904/DTD/svg10.dtd">
<svg version="1.0" xmlns="http://www.w3.org/2000/svg"
 width="700.000000pt" height="700.000000pt" viewBox="0 0 700.000000 700.000000"
 preserveAspectRatio="xMidYMid meet">
<metadata>
Created by potrace 1.14, written by Peter Selinger 2001-2017
</metadata>
<g transform="translate(0.000000,700.000000) scale(0.100000,-0.100000)"
fill="#000000" stroke="none">
<path d="M0 3523 c1 -2320 2 -2620 16 -2638 15 -20 28 -20 684 -23 l668 -2 20
24 c19 25 19 52 19 1563 0 846 3 1538 6 1538 3 0 43 -56 88 -125 241 -367 364
-552 467 -710 63 -96 176 -267 250 -380 75 -113 181 -275 237 -360 101 -153
186 -283 583 -885 112 -170 252 -383 310 -472 110 -167 134 -190 177 -171 11
5 72 89 136 186 207 314 468 711 614 932 78 118 194 294 257 390 114 174 269
409 525 798 73 111 194 295 269 410 75 114 164 249 198 300 l61 92 5 -1544 c5
-1500 6 -1544 24 -1565 19 -21 21 -21 683 -21 650 0 663 0 683 20 20 20 20 33
20 2640 l0 2620 -698 0 c-653 0 -700 -1 -714 -17 -26 -30 -142 -201 -857
-1263 -61 -91 -115 -172 -121 -180 -6 -8 -59 -87 -118 -175 -59 -88 -193 -286
-297 -440 -408 -605 -535 -795 -611 -907 -43 -65 -81 -118 -84 -118 -3 0 -52
71 -110 157 -58 87 -109 162 -113 168 -4 5 -52 75 -105 155 -306 455 -612 909
-727 1080 -72 107 -221 328 -330 490 -109 162 -240 356 -290 430 -50 74 -151
225 -225 335 -73 110 -149 219 -167 243 l-34 42 -700 0 -699 0 0 -2617z"/>
</g>
</svg>
