<svg xmlns="http://www.w3.org/2000/svg" viewBox="0 0 20.78 30.54"><defs><style>.cls-1{fill:#623a33;}.cls-2{fill:#efeeff;}.cls-3{fill:#403433;}.cls-4{fill:#663f2d;}.cls-5{fill:#855d44;}.cls-6{fill:#804d39;}</style></defs><g id="Layer_2" data-name="Layer 2"><g id="Layer_1-2" data-name="Layer 1"><polygon class="cls-1" points="17.2 30.42 3.52 30.54 1.58 4.32 18.68 4.18 17.2 30.42"/><polygon class="cls-2" points="17.56 23.99 18.29 11.08 2.09 11.22 3.05 24.12 17.56 23.99"/><polygon class="cls-3" points="19.38 3.66 19.36 2.15 11.07 2.23 10.71 0 3.23 0.07 2.9 2.3 0.87 2.31 0.88 3.82 0 3.82 0.02 5.74 20.27 5.56 20.26 3.65 19.38 3.66"/><path class="cls-4" d="M3.57,24.45a4.56,4.56,0,0,1-2.24-6.34c1.51-3.55,2.48-5.9,3.83-4.8,1.19,1,.51,3.16-.84,5.62A9.86,9.86,0,0,0,3.57,24.45Z"/><path class="cls-5" d="M15.46,23.57c-.73,1.4.14,2.29,1.05,2.21a2.78,2.78,0,0,0,2.15-1.35c.36-1-.08-1.88-.83-1.92A2.08,2.08,0,0,0,15.46,23.57Z"/><path class="cls-6" d="M16.19,24.69c-.48-.63-.13-1.45.4-2.12a1.76,1.76,0,0,0-1.13,1c-.73,1.4.14,2.29,1.05,2.21a3,3,0,0,0,2.06-1.17C17.79,25.18,16.86,25.43,16.19,24.69Z"/><path class="cls-5" d="M17.35,12.63c-.69,1.43.23,2.59,1.13,2.53a1.35,1.35,0,0,0,1.42-1.31c.12-1.41-.74-2.13-1.3-2.13A1.27,1.27,0,0,0,17.35,12.63Z"/><path class="cls-6" d="M17.92,14a2.75,2.75,0,0,1,.52-2.29,1.29,1.29,0,0,0-1.09.9c-.69,1.43.23,2.59,1.13,2.53h.15A1.73,1.73,0,0,1,17.92,14Z"/><path class="cls-5" d="M15.58,20.8a1.5,1.5,0,0,0,1.24,2.36c.91-.08,2.76-.27,3.29-1.45s-.17-2.4-.91-2.45S16.21,19.57,15.58,20.8Z"/><path class="cls-6" d="M16.9,22.62a1.52,1.52,0,0,1-.87-2,2.57,2.57,0,0,1,.31-.62,2,2,0,0,0-.76.78,1.5,1.5,0,0,0,1.24,2.36c.89-.07,2.68-.26,3.25-1.37A3.55,3.55,0,0,1,16.9,22.62Z"/><path class="cls-5" d="M16.06,17.31a1.5,1.5,0,0,0,1.24,2.37c.9-.08,2.76-.27,3.29-1.45s-.17-2.41-.91-2.44S16.68,16.1,16.06,17.31Z"/><path class="cls-6" d="M16.45,18.53a3,3,0,0,1,.34-2,2.11,2.11,0,0,0-.73.76,1.5,1.5,0,0,0,1.24,2.37c.86-.08,2.59-.25,3.21-1.3a6.2,6.2,0,0,1-2.59.93A1.26,1.26,0,0,1,16.45,18.53Z"/></g></g></svg>