<svg xmlns="http://www.w3.org/2000/svg" viewBox="0 0 24.33 28.52"><defs><style>.cls-1{fill:#623a33;}.cls-2{fill:#efeeff;}.cls-3{fill:#403433;}.cls-4{fill:#fbc0a4;}</style></defs><g id="Layer_2" data-name="Layer 2"><g id="Layer_1-2" data-name="Layer 1"><polygon class="cls-1" points="21.57 28.42 9.25 28.52 7.5 4.04 22.9 3.9 21.57 28.42"/><polygon class="cls-2" points="21.89 22.41 22.55 10.35 7.96 10.48 8.82 22.52 21.89 22.41"/><polygon class="cls-3" points="23.53 3.42 23.51 2.01 16.05 2.08 15.71 0 8.98 0.06 8.69 2.14 6.85 2.16 6.86 3.56 6.07 3.57 6.08 5.35 24.33 5.2 24.32 3.41 23.53 3.42"/><path class="cls-4" d="M2.34,16c1.82-.54,3.83.81,4.48,3s-.3,4.42-2.13,5-3.84-.8-4.49-3S.51,16.5,2.34,16Z"/><path class="cls-4" d="M1.58,16.33c1.61-1,2.63-3.46,4.74-5.62S7.35,8,7.91,8.86s-.55,2.61.95,4.12,7.92.09,10.43-.8,4-1.73,4.14-.09-4.6,2.72-4.26,3.87c.24.8,4.11-2,4.83-.29s-4.37,2.09-4.8,3.56,4.66-.8,4.71,1-5.66,1.88-6.18,2.84,5-.39,4.53,1S16.83,25.93,13,25.39s-9.46-1.75-10.47-2Z"/></g></g></svg>