<svg xmlns="http://www.w3.org/2000/svg" viewBox="0 0 20.27 30.54"><defs><style>.cls-1{fill:#623a33;}.cls-2{fill:#efeeff;}.cls-3{fill:#403433;}.cls-4{fill:#f9996d;}.cls-5{fill:#ffb382;}.cls-6{fill:#ff9b71;}</style></defs><g id="Layer_2" data-name="Layer 2"><g id="Layer_1-2" data-name="Layer 1"><polygon class="cls-1" points="17.2 30.42 3.52 30.54 1.58 4.32 18.68 4.18 17.2 30.42"/><polygon class="cls-2" points="17.56 23.99 18.29 11.08 2.09 11.22 3.05 24.12 17.56 23.99"/><polygon class="cls-3" points="19.38 3.66 19.36 2.15 11.07 2.23 10.71 0 3.23 0.07 2.9 2.3 0.87 2.31 0.88 3.82 0 3.82 0.02 5.74 20.27 5.56 20.26 3.65 19.38 3.66"/><path class="cls-4" d="M3,23.38A4.56,4.56,0,0,1,.75,17c1.51-3.55,2.48-5.89,3.83-4.8,1.19,1,.51,3.16-.84,5.63A9.82,9.82,0,0,0,3,23.38Z"/><path class="cls-5" d="M14.88,22.5c-.73,1.4.14,2.29,1,2.21a2.78,2.78,0,0,0,2.15-1.35c.36-1-.08-1.88-.83-1.92A2.08,2.08,0,0,0,14.88,22.5Z"/><path class="cls-6" d="M15.61,23.62c-.48-.63-.13-1.45.4-2.12a1.76,1.76,0,0,0-1.13,1c-.73,1.4.14,2.29,1,2.21A3,3,0,0,0,18,23.54C17.21,24.11,16.28,24.36,15.61,23.62Z"/><path class="cls-5" d="M16.77,11.57c-.69,1.42.23,2.58,1.13,2.52a1.35,1.35,0,0,0,1.42-1.31c.12-1.41-.74-2.13-1.3-2.13A1.27,1.27,0,0,0,16.77,11.57Z"/><path class="cls-6" d="M17.34,13a2.75,2.75,0,0,1,.52-2.29c-.62.06-.86.44-1.09.91-.69,1.42.23,2.58,1.13,2.52h.15A1.73,1.73,0,0,1,17.34,13Z"/><path class="cls-5" d="M15,19.73a1.5,1.5,0,0,0,1.24,2.36c.91-.08,2.76-.27,3.29-1.45s-.17-2.4-.91-2.44S15.63,18.51,15,19.73Z"/><path class="cls-6" d="M16.32,21.55a1.52,1.52,0,0,1-.87-2,2.57,2.57,0,0,1,.31-.62,2,2,0,0,0-.76.78,1.5,1.5,0,0,0,1.24,2.36c.89-.07,2.68-.26,3.25-1.37A3.55,3.55,0,0,1,16.32,21.55Z"/><path class="cls-5" d="M15.47,16.24a1.51,1.51,0,0,0,1.25,2.37c.9-.08,2.76-.27,3.29-1.45s-.17-2.4-.91-2.44S16.1,15,15.47,16.24Z"/><path class="cls-6" d="M15.87,17.46a3,3,0,0,1,.34-2,2.23,2.23,0,0,0-.74.76,1.51,1.51,0,0,0,1.25,2.37c.86-.08,2.59-.25,3.21-1.29a6.33,6.33,0,0,1-2.59.92A1.26,1.26,0,0,1,15.87,17.46Z"/></g></g></svg>