<svg xmlns="http://www.w3.org/2000/svg" viewBox="0 0 20.09 28.42"><defs><style>.cls-1{fill:#690d00;}.cls-2{fill:#e29148;}.cls-3{fill:#bb6637;}.cls-4{fill:#ce7834;opacity:0.6;}.cls-5{fill:#ffa353;opacity:0.3;}.cls-6{fill:#f3e5b9;}.cls-7{fill:#dbce9d;}.cls-8{fill:#e3d3ac;}.cls-9{fill:#f9996d;}.cls-10{fill:#ffb382;}.cls-11{fill:#ff9b71;}</style></defs><g id="Layer_2" data-name="Layer 2"><g id="Layer_1-2" data-name="Layer 1"><path class="cls-1" d="M18.7,4.46c0,1-3.95,1.75-8.82,1.75S1.05,5.43,1.05,4.46,5,2.71,9.88,2.71,18.7,3.5,18.7,4.46Z"/><path class="cls-2" d="M9.88,6.21c-4.26.14-8-.84-8.83-1.75L3.32,27.2S5,28.42,9.88,28.42c4.67,0,6.56-1.22,6.56-1.22L18.7,4.46C17.81,5.41,14.73,6.06,9.88,6.21Z"/><path class="cls-3" d="M16.29,16.44a4.1,4.1,0,1,1-4.1-4.09A4.1,4.1,0,0,1,16.29,16.44Z"/><path class="cls-4" d="M1.05,4.46,3.32,27.2S5,28.42,9.88,28.42c.6,0,1.16,0,1.67-.06A87.43,87.43,0,0,1,3.8,5.64,6,6,0,0,1,1.05,4.46Z"/><path class="cls-5" d="M18.7,4.46c-.8.86-3.39,1.47-7.45,1.69a82.66,82.66,0,0,1,4.39,21.42,5.45,5.45,0,0,0,.8-.37Z"/><path class="cls-6" d="M16.55,2.88A41.12,41.12,0,0,0,9.88,2.4a41,41,0,0,0-6.67.48C.55,3.34,0,3.93,0,4.68S.55,6,3.21,6.47A41,41,0,0,0,9.88,7a41.12,41.12,0,0,0,6.67-.48c2.66-.46,3.2-1,3.2-1.79S19.21,3.34,16.55,2.88Z"/><path class="cls-7" d="M1.05,4.46,2.15,1.2H17.89l.81,3.26c-.34.77-3.82,1.67-8.82,1.75C7.15,6.26,1.94,5.79,1.05,4.46Z"/><path class="cls-6" d="M17.89,1.2c0,.66-3.52,1.2-7.87,1.2S2.15,1.86,2.15,1.2,5.67,0,10,0,17.89.54,17.89,1.2Z"/><path class="cls-8" d="M16.08,1.4c0,.34-2.71.62-6.06.62S4,1.74,4,1.4,6.67.79,10,.79,16.08,1.06,16.08,1.4Z"/><polygon class="cls-6" points="9.42 1.3 10.69 1.3 12.11 2.15 9.61 2.02 9.42 1.3"/><path class="cls-9" d="M2.88,21.78A4.56,4.56,0,0,1,.64,15.44c1.51-3.55,2.48-5.9,3.82-4.8S5,13.8,3.63,16.26A9.86,9.86,0,0,0,2.88,21.78Z"/><path class="cls-10" d="M14.77,20.9c-.73,1.4.14,2.29,1.05,2.21A2.78,2.78,0,0,0,18,21.76c.36-1-.08-1.88-.83-1.92A2.08,2.08,0,0,0,14.77,20.9Z"/><path class="cls-11" d="M15.5,22c-.48-.63-.13-1.45.4-2.12a1.76,1.76,0,0,0-1.13,1c-.73,1.4.14,2.29,1.05,2.21a3,3,0,0,0,2.06-1.17C17.1,22.51,16.17,22.76,15.5,22Z"/><path class="cls-10" d="M16.66,10c-.69,1.43.23,2.59,1.13,2.53a1.35,1.35,0,0,0,1.42-1.31c.12-1.41-.74-2.13-1.3-2.13A1.27,1.27,0,0,0,16.66,10Z"/><path class="cls-11" d="M17.23,11.35a2.75,2.75,0,0,1,.52-2.29,1.29,1.29,0,0,0-1.09.9c-.69,1.43.23,2.59,1.13,2.53h.15A1.73,1.73,0,0,1,17.23,11.35Z"/><path class="cls-10" d="M14.89,18.13a1.5,1.5,0,0,0,1.24,2.36c.91-.08,2.76-.27,3.29-1.45s-.17-2.4-.91-2.45S15.52,16.9,14.89,18.13Z"/><path class="cls-11" d="M16.21,20a1.52,1.52,0,0,1-.87-2,2.57,2.57,0,0,1,.31-.62,2,2,0,0,0-.76.78,1.5,1.5,0,0,0,1.24,2.36c.89-.07,2.68-.26,3.25-1.37A3.55,3.55,0,0,1,16.21,20Z"/><path class="cls-10" d="M15.36,14.64A1.51,1.51,0,0,0,16.61,17c.9-.08,2.76-.27,3.29-1.45s-.17-2.41-.91-2.44S16,13.43,15.36,14.64Z"/><path class="cls-11" d="M15.76,15.86a3,3,0,0,1,.34-2,2.23,2.23,0,0,0-.74.76A1.51,1.51,0,0,0,16.61,17c.86-.08,2.59-.25,3.21-1.3a6.2,6.2,0,0,1-2.59.93A1.26,1.26,0,0,1,15.76,15.86Z"/></g></g></svg>