<svg xmlns="http://www.w3.org/2000/svg" viewBox="0 0 24.41 28.42"><defs><style>.cls-1{fill:#690d00;}.cls-2{fill:#e29148;}.cls-3{fill:#bb6637;}.cls-4{fill:#ce7834;opacity:0.6;}.cls-5{fill:#ffa353;opacity:0.3;}.cls-6{fill:#f3e5b9;}.cls-7{fill:#dbce9d;}.cls-8{fill:#e3d3ac;}.cls-9{fill:#fbc0a4;}</style></defs><g id="Layer_2" data-name="Layer 2"><g id="Layer_1-2" data-name="Layer 1"><path class="cls-1" d="M23.44,4.46c0,1-3.65,1.75-8.15,1.75S7.13,5.43,7.13,4.46s3.66-1.75,8.16-1.75S23.44,3.5,23.44,4.46Z"/><path class="cls-2" d="M15.29,6.21c-3.93.14-7.4-.84-8.16-1.75L9.23,27.2s1.5,1.22,6.06,1.22c4.31,0,6.05-1.22,6.05-1.22l2.1-22.74C22.61,5.41,19.77,6.06,15.29,6.21Z"/><path class="cls-3" d="M21.21,16.44a4,4,0,0,1-3.79,4.1,4,4,0,0,1-3.78-4.1,4,4,0,0,1,3.78-4.09A4,4,0,0,1,21.21,16.44Z"/><path class="cls-4" d="M7.13,4.46,9.23,27.2s1.5,1.22,6.06,1.22c.55,0,1.07,0,1.54-.06A92.49,92.49,0,0,1,9.67,5.64,5.41,5.41,0,0,1,7.13,4.46Z"/><path class="cls-5" d="M23.44,4.46c-.75.86-3.14,1.47-6.89,1.69a88.52,88.52,0,0,1,4.06,21.42,4.36,4.36,0,0,0,.73-.37Z"/><path class="cls-6" d="M21.44,2.88a35,35,0,0,0-6.15-.48,34.93,34.93,0,0,0-6.16.48c-2.46.46-3,1.05-3,1.8s.51,1.33,3,1.79A34.93,34.93,0,0,0,15.29,7a35,35,0,0,0,6.15-.48c2.46-.46,3-1,3-1.79S23.9,3.34,21.44,2.88Z"/><path class="cls-7" d="M7.13,4.46l1-3.26H22.69l.75,3.26c-.32.77-3.53,1.67-8.15,1.75C12.77,6.26,8,5.79,7.13,4.46Z"/><path class="cls-6" d="M22.69,1.2c0,.66-3.25,1.2-7.27,1.2S8.15,1.86,8.15,1.2,11.4,0,15.42,0,22.69.54,22.69,1.2Z"/><path class="cls-8" d="M21,1.4c0,.34-2.51.62-5.6.62s-5.6-.28-5.6-.62,2.51-.61,5.6-.61S21,1.06,21,1.4Z"/><polygon class="cls-6" points="14.86 1.3 16.04 1.3 17.35 2.15 15.04 2.02 14.86 1.3"/><path class="cls-9" d="M2.34,15.38c1.82-.54,3.83.8,4.48,3s-.3,4.42-2.13,5-3.84-.81-4.49-3S.51,15.92,2.34,15.38Z"/><path class="cls-9" d="M1.58,15.75c1.61-1,2.63-3.47,4.74-5.62s1-2.67,1.59-1.85-.55,2.61.95,4.12,7.92.09,10.43-.8,4-1.73,4.14-.09-4.6,2.72-4.26,3.87c.24.8,4.11-2,4.83-.29s-4.37,2.09-4.8,3.55,4.66-.8,4.71,1-5.66,1.87-6.18,2.84,5-.39,4.53,1S16.83,25.34,13,24.81s-9.46-1.75-10.47-2Z"/></g></g></svg>