<svg xmlns="http://www.w3.org/2000/svg" viewBox="0 0 22.02 32"><defs><style>.cls-1{fill:#690d00;}.cls-2{fill:#e29148;}.cls-3{fill:#bb6637;}.cls-4{fill:#ce7834;opacity:0.6;}.cls-5{fill:#ffa353;opacity:0.3;}.cls-6{fill:#f3e5b9;}.cls-7{fill:#dbce9d;}.cls-8{fill:#e3d3ac;}</style></defs><g id="Layer_2" data-name="Layer 2"><g id="Layer_1-2" data-name="Layer 1"><path class="cls-1" d="M20.85,5c0,1.1-4.41,2-9.84,2S1.17,6.12,1.17,5s4.41-2,9.84-2S20.85,3.94,20.85,5Z"/><path class="cls-2" d="M11,7c-4.74.16-8.93-.94-9.84-2L3.7,30.62S5.51,32,11,32c5.2,0,7.31-1.38,7.31-1.38L20.85,5C19.85,6.09,16.42,6.82,11,7Z"/><path class="cls-3" d="M18.16,18.51a4.57,4.57,0,1,1-4.57-4.61A4.59,4.59,0,0,1,18.16,18.51Z"/><path class="cls-4" d="M1.17,5,3.7,30.62S5.51,32,11,32c.68,0,1.3,0,1.87-.06A99.17,99.17,0,0,1,4.24,6.35,6.61,6.61,0,0,1,1.17,5Z"/><path class="cls-5" d="M20.85,5c-.9,1-3.79,1.65-8.31,1.91A94.08,94.08,0,0,1,17.44,31a4.73,4.73,0,0,0,.88-.42Z"/><path class="cls-6" d="M18.44,3.24A46.29,46.29,0,0,0,11,2.7a46.29,46.29,0,0,0-7.43.54C.61,3.76,0,4.42,0,5.27s.61,1.5,3.58,2A45.07,45.07,0,0,0,11,7.83a45.16,45.16,0,0,0,7.43-.54c3-.52,3.58-1.18,3.58-2S21.41,3.76,18.44,3.24Z"/><path class="cls-7" d="M1.17,5,2.4,1.35H20L20.85,5c-.39.87-4.26,1.88-9.84,2C8,7,2.17,6.52,1.17,5Z"/><path class="cls-6" d="M20,1.35C20,2.1,16,2.7,11.17,2.7S2.4,2.1,2.4,1.35,6.33,0,11.17,0,20,.61,20,1.35Z"/><path class="cls-8" d="M17.93,1.58c0,.38-3,.7-6.76.7S4.42,2,4.42,1.58s3-.69,6.75-.69S17.93,1.19,17.93,1.58Z"/><polygon class="cls-6" points="10.5 1.46 11.92 1.46 13.5 2.42 10.71 2.28 10.5 1.46"/></g></g></svg>