<svg xmlns="http://www.w3.org/2000/svg" viewBox="0 0 20.05 28.42"><defs><style>.cls-1{fill:#690d00;}.cls-2{fill:#e29148;}.cls-3{fill:#bb6637;}.cls-4{fill:#ce7834;opacity:0.6;}.cls-5{fill:#ffa353;opacity:0.3;}.cls-6{fill:#f3e5b9;}.cls-7{fill:#dbce9d;}.cls-8{fill:#e3d3ac;}.cls-9{fill:#663f2d;}.cls-10{fill:#855d44;}.cls-11{fill:#804d39;}</style></defs><g id="Layer_2" data-name="Layer 2"><g id="Layer_1-2" data-name="Layer 1"><path class="cls-1" d="M19,4.46c0,1-4,1.75-8.83,1.75S1.35,5.43,1.35,4.46s4-1.75,8.82-1.75S19,3.5,19,4.46Z"/><path class="cls-2" d="M10.17,6.21c-4.25.14-8-.84-8.82-1.75L3.61,27.2s1.63,1.22,6.56,1.22c4.67,0,6.56-1.22,6.56-1.22L19,4.46C18.1,5.41,15,6.06,10.17,6.21Z"/><path class="cls-3" d="M16.58,16.44a4.1,4.1,0,1,1-4.09-4.09A4.09,4.09,0,0,1,16.58,16.44Z"/><path class="cls-4" d="M1.35,4.46,3.61,27.2s1.63,1.22,6.56,1.22c.61,0,1.16,0,1.68-.06A87.06,87.06,0,0,1,4.1,5.64,6,6,0,0,1,1.35,4.46Z"/><path class="cls-5" d="M19,4.46c-.81.86-3.4,1.47-7.45,1.69a83.08,83.08,0,0,1,4.39,21.42,4.93,4.93,0,0,0,.79-.37Z"/><path class="cls-6" d="M16.84,2.88a41,41,0,0,0-6.67-.48,41.12,41.12,0,0,0-6.67.48C.84,3.34.29,3.93.29,4.68S.84,6,3.5,6.47A41.12,41.12,0,0,0,10.17,7a41,41,0,0,0,6.67-.48c2.66-.46,3.21-1,3.21-1.79S19.5,3.34,16.84,2.88Z"/><path class="cls-7" d="M1.35,4.46,2.44,1.2H18.19L19,4.46c-.35.77-3.82,1.67-8.83,1.75C7.44,6.26,2.24,5.79,1.35,4.46Z"/><path class="cls-6" d="M18.19,1.2c0,.66-3.52,1.2-7.87,1.2S2.44,1.86,2.44,1.2,6,0,10.32,0,18.19.54,18.19,1.2Z"/><path class="cls-8" d="M16.38,1.4c0,.34-2.72.62-6.06.62S4.26,1.74,4.26,1.4,7,.79,10.32.79,16.38,1.06,16.38,1.4Z"/><polygon class="cls-6" points="9.72 1.3 10.99 1.3 12.41 2.15 9.91 2.02 9.72 1.3"/><path class="cls-9" d="M2.75,21.85A4.56,4.56,0,0,1,.52,15.51C2,12,3,9.61,4.34,10.71s.52,3.16-.83,5.62A9.91,9.91,0,0,0,2.75,21.85Z"/><path class="cls-10" d="M14.64,21c-.72,1.41.15,2.3,1,2.21a2.8,2.8,0,0,0,2.16-1.34c.36-1-.09-1.88-.83-1.92A2.1,2.1,0,0,0,14.64,21Z"/><path class="cls-11" d="M15.38,22.09c-.49-.63-.13-1.45.4-2.12a1.78,1.78,0,0,0-1.14,1c-.72,1.41.15,2.3,1,2.21A3,3,0,0,0,17.76,22C17,22.57,16.05,22.83,15.38,22.09Z"/><path class="cls-10" d="M16.53,10c-.68,1.43.23,2.59,1.14,2.53a1.34,1.34,0,0,0,1.41-1.32c.13-1.4-.73-2.12-1.29-2.12A1.29,1.29,0,0,0,16.53,10Z"/><path class="cls-11" d="M17.1,11.42a2.82,2.82,0,0,1,.52-2.29,1.29,1.29,0,0,0-1.09.9c-.68,1.43.23,2.59,1.14,2.53h.15A1.78,1.78,0,0,1,17.1,11.42Z"/><path class="cls-10" d="M14.77,18.2A1.5,1.5,0,0,0,16,20.56c.9-.08,2.76-.27,3.29-1.45s-.18-2.4-.91-2.45S15.39,17,14.77,18.2Z"/><path class="cls-11" d="M16.09,20a1.5,1.5,0,0,1-.87-2,2.38,2.38,0,0,1,.3-.62,2,2,0,0,0-.75.78A1.5,1.5,0,0,0,16,20.56c.88-.08,2.67-.26,3.25-1.37A3.52,3.52,0,0,1,16.09,20Z"/><path class="cls-10" d="M15.24,14.71a1.51,1.51,0,0,0,1.24,2.37c.91-.09,2.76-.27,3.29-1.45s-.17-2.41-.91-2.44S15.87,13.49,15.24,14.71Z"/><path class="cls-11" d="M15.63,15.93A3,3,0,0,1,16,14a2,2,0,0,0-.74.76,1.51,1.51,0,0,0,1.24,2.37c.87-.08,2.6-.26,3.21-1.3a6.15,6.15,0,0,1-2.58.93A1.27,1.27,0,0,1,15.63,15.93Z"/></g></g></svg>