<svg xmlns="http://www.w3.org/2000/svg" viewBox="0 0 25.7 43.99"><defs><style>.cls-1{fill:#fff;}.cls-2{fill:#ffc286;}.cls-3{fill:#ed9160;}.cls-4{fill:#ffdaaa;}.cls-5{fill:#fdae75;}.cls-6{fill:#1bee9d;}.cls-7{fill:#2fee9e;}.cls-8{fill:#3befa1;}.cls-9{fill:#a9602f;}.cls-10{fill:#a95f30;}.cls-11{fill:#a85f32;}.cls-12{fill:#784431;}.cls-13{fill:#fbc0a4;}</style></defs><g id="Layer_2" data-name="Layer 2"><g id="Layer_1-2" data-name="Layer 1"><path class="cls-1" d="M18.16.88c-.05.34-.1.69-.14,1a2.51,2.51,0,0,0,0,.27s0,0,0,.07c-.17,1.19-.33,2.37-.5,3.56s-.34,2.3-.52,3.46c0,.13,0,.18.14.21l.06,0,0,.13a.46.46,0,0,0-.21-.05c-.07.36-.13.72-.2,1.1a.88.88,0,0,0,.29,0l0,.17a1.09,1.09,0,0,1-.36.06l-.41,3.91c0-.09.06-.12.14-.12h.16L16,19l-3-.36.5-4.13a1.22,1.22,0,0,1,.24.1.36.36,0,0,1,.2.2v-.1s0-.07,0-.11,0-.08,0-.12a6.69,6.69,0,0,0,.09-.9.15.15,0,0,1,.09-.15h0l.22-1.47h0c-.09-.14,0-.27,0-.41s.09-.45.15-.68V10.7h0a3.53,3.53,0,0,1-.54-.13v-.11a2.48,2.48,0,0,0,.54.12v-.13l-.06,0c-.08,0,0-.14,0-.21s0-.42.06-.66a1.89,1.89,0,0,1-.36.09l-.07,0,0-.12h.13a.57.57,0,0,1,.26,0c.08-.31.08-.31-.13-.43.06-.05.14,0,.21,0,.08-.7.17-1.4.26-2.1.11-.87.23-1.75.33-2.62s.25-2,.38-3c0-.28.06-.57.1-.85a.31.31,0,0,0,0-.23c-.05-.1,0-.18.1-.24a.51.51,0,0,1,.36-.1,5.3,5.3,0,0,1,1.43.19A1.72,1.72,0,0,1,18,.4.49.49,0,0,1,18.16.88Z"/><path class="cls-1" d="M14.23,9.23l-.06,0V9.18S14.21,9.2,14.23,9.23Z"/><path class="cls-1" d="M17,9.82l.14.07,0,.15C17,10,17,10,17,9.82Z"/><path class="cls-2" d="M8,27.43a1.27,1.27,0,0,1-.08-.51c-.08-.49-.12-1-.18-1.46s-.13-1-.19-1.43c0-.08,0-.15,0-.22a.76.76,0,0,0-.16-.43,2.86,2.86,0,0,1-.42-.88c-.06-.18-.11-.36-.17-.54a4.76,4.76,0,0,1-.18-1,4.4,4.4,0,0,1,0-.73c0-.41.11-.82.17-1.22l0-.06c.09,0,.13.05.17.1a5.72,5.72,0,0,0,2,1.48c.59.3,1.17.64,1.75,1a4.39,4.39,0,0,0,2.82.53,10.48,10.48,0,0,0,2.81-.78,6.68,6.68,0,0,1,2.11-.53,4.23,4.23,0,0,1,1.36.24,17.79,17.79,0,0,1,1.95.75,7.47,7.47,0,0,0,1,.31c.09,0,.22,0,.24.14a2,2,0,0,1-.35.87,1.4,1.4,0,0,0-.2.74c-.05.42-.08.84-.13,1.26a1.07,1.07,0,0,1-.05.47.33.33,0,0,1-.15.11,6.32,6.32,0,0,0-2,1.16c-.61.44-1.19.93-1.82,1.34a6.47,6.47,0,0,1-2.73.92,4.42,4.42,0,0,1-2.48-.51c-.66-.31-1.33-.61-2-.86a4.62,4.62,0,0,0-3-.23A.22.22,0,0,1,8,27.43Z"/><path class="cls-3" d="M21.92,29.66v.19c0,.07,0,.16,0,.24,0,.44-.07.87-.1,1.3s-.08.76-.11,1.14c-.06.55-.11,1.1-.17,1.66s-.09,1-.13,1.49-.11,1.07-.16,1.61-.1,1-.14,1.51c0,.12,0,.24,0,.36a1.7,1.7,0,0,0,0,.74.58.58,0,0,1-.18.61,2.55,2.55,0,0,1-.82.56,9.35,9.35,0,0,1-1.95.59,17.92,17.92,0,0,1-1.93.27,10.32,10.32,0,0,1-1.47,0A14.23,14.23,0,0,1,11,41.4a3.87,3.87,0,0,1-1.07-.5,1,1,0,0,1-.35-.35A.55.55,0,0,1,9.5,40a.71.71,0,0,0,0-.43c-.11-.85-.23-1.71-.34-2.56S9,35.57,8.91,34.85s-.21-1.46-.29-2.19c-.06-.52-.16-1-.18-1.56,0-.3,0-.32.25-.28a4.72,4.72,0,0,1,2.84,1.56c.42.45.8.94,1.24,1.38A3.83,3.83,0,0,0,15.3,34.9a4.06,4.06,0,0,0,2.46-.75,10.29,10.29,0,0,0,2.31-2.3c.55-.71,1-1.45,1.59-2.15a.81.81,0,0,1,.12-.14s.08-.07.13,0S21.94,29.61,21.92,29.66Z"/><path class="cls-4" d="M23.3,20.73v.05A4,4,0,0,1,23,22.16,2.38,2.38,0,0,0,22.4,22a6.32,6.32,0,0,1-1-.35c-.23-.1-.46-.2-.69-.28h0a1.78,1.78,0,0,0-.29-.12,8.1,8.1,0,0,0-1.3-.38,2.93,2.93,0,0,0-.89,0,5,5,0,0,0-.86.16l-.12,0c-.24.07-.48.14-.71.23l-.17.07-.13.05-.74.29h0l-.69.2h0a9.3,9.3,0,0,1-1.17.23,8.61,8.61,0,0,1-1.24,0,2.62,2.62,0,0,1-.91-.21l-.39-.17h0l-.38-.2h0l-.81-.47c-.29-.17-.59-.31-.88-.47a7,7,0,0,1-1.75-1.21,1.8,1.8,0,0,1-.19-.2L6.86,19h0s0,0,0,0a.57.57,0,0,1,0-.18.49.49,0,0,1,0-.11l0-.08a7,7,0,0,1,.47-.95,1.56,1.56,0,0,1,1.32-.75h.14a.17.17,0,0,0,.19-.15A2.81,2.81,0,0,1,9.4,16a1.91,1.91,0,0,1,.74-.75,1.44,1.44,0,0,1,1-.15.41.41,0,0,0,.44-.17,1.24,1.24,0,0,1,1-.48,2.16,2.16,0,0,1,1,.06,1.22,1.22,0,0,1,.24.1.36.36,0,0,1,.2.2.48.48,0,0,1,0,.17c-.12.81-.28,1.61-.42,2.42-.09.47,0,.61.46.69a2.73,2.73,0,0,0,1.1.08s0,0,0,0a.31.31,0,0,0,.13,0c.07,0,.14,0,.19,0h.24a.2.2,0,0,0,.19-.23c0-.36.11-.7.16-1a1.45,1.45,0,0,0,0-.62s0,0,0,0a.62.62,0,0,1,0-.33c.08-.37.1-.74.17-1.1,0-.09.06-.12.14-.12h.16a1.42,1.42,0,0,1,.82.36,3.19,3.19,0,0,1,.54.56c.09.13.22.1.34.08a2.89,2.89,0,0,1,1.43.06,1.72,1.72,0,0,1,.66.4c.06.07.14.13.2.21a.66.66,0,0,0,.53.23,1.59,1.59,0,0,1,1.16.62,2.32,2.32,0,0,1,.49,1.11.38.38,0,0,1,0,.15.2.2,0,0,1,0,.07.43.43,0,0,1,0,0,.24.24,0,0,0,0,.2.21.21,0,0,0,.06.1l0,.07.05.06a1.2,1.2,0,0,1,.37.82c0,.26.05.53.06.8A.49.49,0,0,1,23.3,20.73Z"/><path class="cls-5" d="M21.92,29.66l0-.13a1.61,1.61,0,0,0-.36.42c-.42.57-.82,1.16-1.25,1.72-.27.35-.55.68-.82,1a9.58,9.58,0,0,1-1.3,1.25,4.5,4.5,0,0,1-2.08,1,3.67,3.67,0,0,1-2.68-.56,4.68,4.68,0,0,1-1.07-1c-.26-.31-.54-.61-.82-.92a5.47,5.47,0,0,0-1-.87,4.37,4.37,0,0,0-1.94-.73c-.09,0-.15,0-.15.12v.12a1.47,1.47,0,0,1-.08-.51c-.08-.47-.12-.94-.18-1.41s-.13-.95-.19-1.42c0-.11,0-.22,0-.33a2.46,2.46,0,0,1,.85-.2,4.08,4.08,0,0,1,1.47.12,9.5,9.5,0,0,1,1.65.58c.7.28,1.36.65,2.07.89a3.9,3.9,0,0,0,.77.16,5.73,5.73,0,0,0,2.65-.47,7.94,7.94,0,0,0,1.88-1.18,20.29,20.29,0,0,1,1.94-1.4,4.15,4.15,0,0,1,1.05-.43v.24c0,.08,0,.17,0,.25,0,.45-.07.89-.11,1.34s-.07.76-.1,1.13-.09.76-.1,1.14C22,29.62,21.93,29.64,21.92,29.66Z"/><path class="cls-6" d="M17.68,3.86a5.43,5.43,0,0,0-.37,1.53A3.29,3.29,0,0,1,16.5,6a8.94,8.94,0,0,1-1.05.6c-.3.14-.34.11-.34-.22,0,0,0-.11,0-.16L15.22,5c0-.11.15-.13.24-.17a15.78,15.78,0,0,0,1.89-.93C17.45,3.89,17.54,3.79,17.68,3.86Z"/><path class="cls-6" d="M18,1.68a1.77,1.77,0,0,1,0,.23,2.51,2.51,0,0,0,0,.27s0,0,0,.07a.31.31,0,0,0,0,.08l-.19.13a15,15,0,0,1-1.82,1l-.45.21a.07.07,0,0,1-.06,0c-.08,0-.09,0-.1-.13,0-.26.07-.51.1-.76a.35.35,0,0,1,.13-.14c.08-.07.17-.11.25-.17.61-.47,1.23-.95,1.83-1.44.07-.06.12-.16.24-.09a.41.41,0,0,1,.07.11A1.09,1.09,0,0,1,18,1.68Z"/><path class="cls-6" d="M16.39,12v.3a8.13,8.13,0,0,1-.14,1,.93.93,0,0,1-.4.36c-.48.35-1,.68-1.48,1l-.13.06c-.17.08-.24.08-.26-.05s0-.07,0-.11,0-.08,0-.12a6.69,6.69,0,0,0,.09-.9.15.15,0,0,1,.09-.15h0l1.55-1c.17-.1.33-.22.49-.33A.24.24,0,0,1,16.39,12Z"/><path class="cls-6" d="M16.91,8,15.34,9,15,9.2s0-.08,0-.11c.05-.4,0-.8.09-1.19A12.42,12.42,0,0,0,16.87,7a.36.36,0,0,1,.22-.09C17,7.24,17,7.61,16.91,8Z"/><path class="cls-6" d="M13.86,16.16a1.64,1.64,0,0,1,.22-.14,16,16,0,0,0,1.69-1l.1-.07c.13-.09.11,0,.12.1-.06.3-.09.6-.13.9a.57.57,0,0,1-.22.24L14,17.25c-.08.05-.17.15-.26,0A2.16,2.16,0,0,1,13.86,16.16Z"/><path class="cls-6" d="M16.65,9.6l-.09.85-.4.3h0a1.67,1.67,0,0,1-.16.12c-.5.36-1,.71-1.53,1,0,0-.05,0-.07,0h0c-.09-.14,0-.27,0-.41s.09-.45.15-.68v-.05a.14.14,0,0,1,0-.06s0-.05.07-.05l.08-.05,1.45-.85.36-.23C16.61,9.48,16.63,9.53,16.65,9.6Z"/><path class="cls-7" d="M15.26,18.16a.45.45,0,0,1-.28-.09.38.38,0,0,0-.33-.12v0c.33-.26.7-.45,1.07-.72l0,.5a.58.58,0,0,1-.29.43Z"/><path class="cls-8" d="M16.58.54a.73.73,0,0,1-.22.24l-.43.33c-.07-.08,0-.16-.06-.24a.44.44,0,0,1,.46-.33Z"/><path class="cls-2" d="M22.26,26c0-.09,0-.17,0-.25C22.3,25.83,22.33,25.91,22.26,26Z"/><path class="cls-5" d="M21.88,30.09c0-.08,0-.17,0-.24A.29.29,0,0,1,21.88,30.09Z"/><path class="cls-9" d="M11.58,40.07a.57.57,0,0,1-.51-.22,1.19,1.19,0,0,1-.36-.7.7.7,0,0,1,.78-.64,1,1,0,0,1,.74.6A.68.68,0,0,1,11.58,40.07Z"/><path class="cls-9" d="M20.16,37.84a.65.65,0,0,1-.64.71.82.82,0,0,1-.72-.78.72.72,0,0,1,.73-.65A.68.68,0,0,1,20.16,37.84Z"/><path class="cls-9" d="M15.17,40a.6.6,0,0,1-.64.61.7.7,0,0,1-.74-.67.63.63,0,0,1,.64-.66A.75.75,0,0,1,15.17,40Z"/><path class="cls-9" d="M17.42,40.1c-.32.06-.7-.34-.69-.66a.77.77,0,0,1,.66-.72.73.73,0,0,1,.67.7A.65.65,0,0,1,17.42,40.1Z"/><path class="cls-10" d="M16.15,37.72a.63.63,0,0,1-.62.64.61.61,0,0,1-.63-.65c0-.31.22-.67.54-.65S16.19,37.3,16.15,37.72Z"/><path class="cls-10" d="M13.67,38a.44.44,0,0,1-.44.45c-.23,0-.37-.16-.37-.42a.43.43,0,0,1,.38-.48A.45.45,0,0,1,13.67,38Z"/><path class="cls-10" d="M19.17,40.51c-.21,0-.43-.24-.42-.42a.4.4,0,0,1,.8,0A.38.38,0,0,1,19.17,40.51Z"/><path class="cls-11" d="M10.85,37.19a.31.31,0,0,1-.26.31.36.36,0,0,1-.36-.34.33.33,0,0,1,.29-.31A.36.36,0,0,1,10.85,37.19Z"/><path class="cls-12" d="M17.38,21a.15.15,0,0,0,0-.07,3.08,3.08,0,0,0-.18-.66.59.59,0,0,0-.37-.37.3.3,0,0,0-.39.15,1.08,1.08,0,0,0-.13.42,4.74,4.74,0,0,0-.05.85l.09,0,0,0c0-.25,0-.49.07-.74a1.31,1.31,0,0,1,.06-.27c.08-.24.23-.28.41-.11a.46.46,0,0,1,.14.22,3.31,3.31,0,0,1,.19.61.13.13,0,0,1,0,.06,1.66,1.66,0,0,1,0,.32.12.12,0,0,0,0,.1.41.41,0,0,0,.07-.32A.59.59,0,0,0,17.38,21Zm3.05.26c-.63.11-1.26.19-1.9.25s-1.44.14-2.18.14l0-.32v-.07l0,0-.09,0v.06c0,.1,0,.2,0,.3h-1l-.4.12-.4.1h.32c.64,0,1.29,0,1.93,0,.84,0,1.66-.13,2.49-.24.51-.06,1-.14,1.51-.22A1.78,1.78,0,0,0,20.43,21.23ZM17.38,21l-.12,0a1.66,1.66,0,0,1,0,.32.12.12,0,0,0,0,.1.41.41,0,0,0,.07-.32A.59.59,0,0,0,17.38,21Zm0,0a.15.15,0,0,0,0-.07,3.08,3.08,0,0,0-.18-.66.59.59,0,0,0-.37-.37.3.3,0,0,0-.39.15,1.08,1.08,0,0,0-.13.42,4.74,4.74,0,0,0-.05.85l.09,0,0,0c0-.25,0-.49.07-.74a1.31,1.31,0,0,1,.06-.27c.08-.24.23-.28.41-.11a.46.46,0,0,1,.14.22,3.31,3.31,0,0,1,.19.61.13.13,0,0,1,0,.06,1.66,1.66,0,0,1,0,.32.12.12,0,0,0,0,.1.41.41,0,0,0,.07-.32A.59.59,0,0,0,17.38,21Zm3.05.26c-.63.11-1.26.19-1.9.25s-1.44.14-2.18.14l0-.32v-.07l0,0-.09,0v.06c0,.1,0,.2,0,.3h-1l-.4.12-.4.1h.32c.64,0,1.29,0,1.93,0,.84,0,1.66-.13,2.49-.24.51-.06,1-.14,1.51-.22A1.78,1.78,0,0,0,20.43,21.23ZM17.38,21a.15.15,0,0,0,0-.07,3.08,3.08,0,0,0-.18-.66.59.59,0,0,0-.37-.37.3.3,0,0,0-.39.15,1.08,1.08,0,0,0-.13.42,4.74,4.74,0,0,0-.05.85l.09,0,0,0c0-.25,0-.49.07-.74a1.31,1.31,0,0,1,.06-.27c.08-.24.23-.28.41-.11a.46.46,0,0,1,.14.22,3.31,3.31,0,0,1,.19.61.13.13,0,0,1,0,.06,1.66,1.66,0,0,1,0,.32.12.12,0,0,0,0,.1.41.41,0,0,0,.07-.32A.59.59,0,0,0,17.38,21Zm3.05.26c-.63.11-1.26.19-1.9.25s-1.44.14-2.18.14l0-.32v-.07l0,0-.09,0v.06c0,.1,0,.2,0,.3h-1l-.4.12-.4.1h.32c.64,0,1.29,0,1.93,0,.84,0,1.66-.13,2.49-.24.51-.06,1-.14,1.51-.22A1.78,1.78,0,0,0,20.43,21.23ZM17.38,21a.15.15,0,0,0,0-.07,3.08,3.08,0,0,0-.18-.66.59.59,0,0,0-.37-.37.3.3,0,0,0-.39.15,1.08,1.08,0,0,0-.13.42,4.74,4.74,0,0,0-.05.85l.09,0,0,0c0-.25,0-.49.07-.74a1.31,1.31,0,0,1,.06-.27c.08-.24.23-.28.41-.11a.46.46,0,0,1,.14.22,3.31,3.31,0,0,1,.19.61.13.13,0,0,1,0,.06,1.66,1.66,0,0,1,0,.32.12.12,0,0,0,0,.1.41.41,0,0,0,.07-.32A.59.59,0,0,0,17.38,21Zm3.05.26c-.63.11-1.26.19-1.9.25s-1.44.14-2.18.14l0-.32v-.07l0,0-.09,0v.06c0,.1,0,.2,0,.3h-1a3,3,0,0,1-.4.12l-.4.1h.32c.64,0,1.29,0,1.93,0,.84,0,1.66-.13,2.49-.24.51-.06,1-.14,1.51-.22A1.78,1.78,0,0,0,20.43,21.23Zm5.2-1.64a.89.89,0,0,1-.15-.27,2.69,2.69,0,0,1-.09-.8c0-.54-.37-.76-.87-.87-.12,0-.17,0-.19-.17a9.26,9.26,0,0,0-.44-1.56A10.85,10.85,0,0,0,17.15,9.5l-.06,0c-.12,0-.16-.08-.14-.21.18-1.16.35-2.31.52-3.46s.33-2.37.5-3.56c0,0,0,0,0-.07a2.51,2.51,0,0,1,0-.27c0-.34.09-.69.14-1A.49.49,0,0,0,18,.4a1.72,1.72,0,0,0-.43-.21A5.3,5.3,0,0,0,16.11,0a.51.51,0,0,0-.36.1c-.09.06-.15.14-.1.24a.31.31,0,0,1,0,.23c0,.28-.07.57-.1.85-.13,1-.25,2-.38,3S15,6.17,14.86,7c-.09.7-.18,1.4-.26,2.1-.07,0-.15,0-.21,0,.21.12.21.12.13.43a.57.57,0,0,0-.26,0h-.13a1.13,1.13,0,0,0-.66.31.28.28,0,0,0,0,.47,1,1,0,0,0,.32.15l.2.05a3.53,3.53,0,0,0,.54.13h0l.1,0a7.29,7.29,0,0,0,1.31.14h.4a1,1,0,0,0,.24,0A1.09,1.09,0,0,0,17,10.8a1.42,1.42,0,0,0,.35-.11.32.32,0,0,0,.12-.56,1.13,1.13,0,0,0-.36-.24L17,9.82c0,.13.05.16.12.22l.07.05a1,1,0,0,1,.19.17c.09.13.08.2-.06.27a1.48,1.48,0,0,1-.27.1.88.88,0,0,1-.29,0c.07-.38.13-.74.2-1.1a.46.46,0,0,1,.21.05l.1,0a10.49,10.49,0,0,1,4.41,2.94,10.43,10.43,0,0,1,2.56,5,.86.86,0,0,0,.06.23c.09.18.09.18-.09.26l-.18.06a11.07,11.07,0,0,1-1.3.26l-.36.06q-1.21.16-2.46.27c-.91.09-1.83.15-2.75.2s-1.78,0-2.67,0c-1.56,0-3.13,0-4.69-.08-1-.07-1.91-.13-2.86-.27l-.36,0a6.34,6.34,0,0,1-.84-.19c-.09,0-.17-.07-.15-.2-.13.11-.13.15,0,.23a1.31,1.31,0,0,0,.33.12,7,7,0,0,0,1,.19l.57.08c.79.1,1.58.16,2.37.21s1.76.08,2.64.09,1.67,0,2.5,0c.68,0,1.35,0,2,0,.87,0,1.74-.1,2.61-.17,1-.08,2.07-.2,3.09-.36l.43-.07a6.07,6.07,0,0,0,1-.25l.23-.1c.07-.05.13-.11,0-.2s0-.11.06-.11a.52.52,0,0,1,.36.16c.06.05.05.11,0,.16a1,1,0,0,1-.25.14,6.5,6.5,0,0,1-1.37.39l-.49.08a44.2,44.2,0,0,1-4.61.51c-1.83.12-3.65.15-5.48.12-1.18,0-2.37-.07-3.55-.16-.71-.06-1.42-.13-2.12-.24H6.82l-.61-.1a5.29,5.29,0,0,1-1-.28c-.09,0-.22-.07-.21-.19s.12-.16.21-.21a.22.22,0,0,1,.3,0c.09,0,.09-.12.11-.2s.06-.37.1-.56A10.57,10.57,0,0,1,9,11.88a9.89,9.89,0,0,1,5-2.59.47.47,0,0,0,.16,0l.06,0s0-.05-.06-.05h-.06a6.76,6.76,0,0,0-1,.18,10.1,10.1,0,0,0-4.43,2.56,10.87,10.87,0,0,0-2.89,4.71,7.74,7.74,0,0,0-.25,1.16c0,.07,0,.18-.1.16s-.31.1-.46.16a.77.77,0,0,0-.47.74c0,.15,0,.3,0,.45a1.11,1.11,0,0,1-.19.63c-.1.14-.1.14,0,.24a3.23,3.23,0,0,0,.93.46.32.32,0,0,1,.23.26A16.43,16.43,0,0,0,6,22.63a1.6,1.6,0,0,0,.21.5.9.9,0,0,1,.18.51c0,.32.07.65.12,1,.16,1.15.33,2.31.49,3.46.2,1.35.39,2.69.59,4l.6,4,.69,4.71A.35.35,0,0,0,9,41a.65.65,0,0,1,.15.35,4.59,4.59,0,0,1,.1.82.58.58,0,0,0,.25.49,5.73,5.73,0,0,0,.75.45,7.8,7.8,0,0,0,1.82.55c.57.12,1.16.15,1.74.22a12.25,12.25,0,0,0,1.6.08,16.94,16.94,0,0,0,2-.19,14.83,14.83,0,0,0,2.18-.46,5.44,5.44,0,0,0,1.23-.55,2.31,2.31,0,0,0,.53-.4.35.35,0,0,0,.12-.25,5.16,5.16,0,0,1,.05-.67,1.09,1.09,0,0,1,.15-.61.6.6,0,0,0,.1-.31c0-.28.07-.55.1-.83.13-1.22.27-2.44.4-3.67.13-1.08.26-2.16.38-3.24.17-1.47.32-3,.49-4.42.19-1.65.37-3.3.52-4.95a1.08,1.08,0,0,1,.19-.65.64.64,0,0,0,.08-.19,14.34,14.34,0,0,0,.54-2,.32.32,0,0,1,.23-.27,2.13,2.13,0,0,0,.41-.18,2.55,2.55,0,0,0,.52-.33C25.72,19.72,25.72,19.69,25.63,19.59ZM16.08.16a4.73,4.73,0,0,1,1.49.23,1,1,0,0,1,.32.16c.1.08.09.16,0,.2a.57.57,0,0,1-.26,0A4.26,4.26,0,0,1,16.53.61L16.32.54s0,0,0,0L16,.46A.37.37,0,0,1,15.8.27.4.4,0,0,1,16.08.16Zm.73,8.78c-.08.53-.15,1.05-.2,1.58,0,.2,0,.2-.22.22h-.24c-.24,0-.48,0-.71-.05s-.47,0-.71-.09h0l-.12,0h0a2.48,2.48,0,0,1-.54-.12l-.17-.05a.8.8,0,0,1-.29-.15c-.11-.1-.12-.15,0-.25a1.18,1.18,0,0,1,.56-.3l.07,0a1.89,1.89,0,0,0,.36-.09c0,.24,0,.45-.06.66s-.05.2,0,.21l.06,0h0l0-.08a.28.28,0,0,1,0-.09c.15-.9.24-1.82.35-2.73,0-.39.09-.79.14-1.18v0c.06-.46.12-.93.17-1.39,0,0,0-.1,0-.15,0-.36.08-.71.13-1.07s.08-.69.13-1a1.49,1.49,0,0,1,0-.21c.07-.63.15-1.25.23-1.87,0,0,0,0,0-.09l.22.07.36.11A3.24,3.24,0,0,0,18,.88l0,.23-.06.44c-.05.3-.09.61-.13.91-.08.46-.14.92-.21,1.38h0c0,.26-.08.5-.11.76,0,0,0,0,0,0-.06.35-.11.71-.16,1.06C17.12,6.77,17,7.86,16.81,8.94Zm4.53,32.74a2.69,2.69,0,0,0,0,.4.3.3,0,0,1-.15.3,5,5,0,0,1-1.6.81,12.9,12.9,0,0,1-1.74.4,15.5,15.5,0,0,1-3.6.21,16,16,0,0,1-3.16-.49,5.36,5.36,0,0,1-1.54-.75.29.29,0,0,1-.13-.24,5.88,5.88,0,0,0-.11-1,5.33,5.33,0,0,0,.63.23c.08,0,.09.06.09.14a1,1,0,0,0,.83,1,1.45,1.45,0,0,0-.27-.28,1,1,0,0,1-.31-.32.55.55,0,0,1-.09-.4l.45.11c.45.1.91.23,1.37.3a14.7,14.7,0,0,0,2.39.17l1.57,0a14.82,14.82,0,0,0,2.82-.28,13.81,13.81,0,0,0,1.65-.43l.12,0a.72.72,0,0,1-.28.66,1.67,1.67,0,0,0-.33.32c0,.07.09,0,.12,0a1.65,1.65,0,0,0,.41-.28.65.65,0,0,0,.24-.62c0-.13,0-.17.15-.21a1.92,1.92,0,0,0,.55-.25C21.37,41.31,21.35,41.5,21.34,41.68Zm3-21.1c-.17.63-.33,1.26-.54,1.87a1,1,0,0,1-.74.73c-.07,0-.18,0-.19.18a1.36,1.36,0,0,0,.67-.24,1,1,0,0,1,0,.39c-.12,1-.25,2-.37,3s-.22,1.89-.33,2.84-.19,1.66-.28,2.48-.19,1.69-.28,2.54-.19,1.64-.28,2.46-.19,1.65-.29,2.48c0,.42-.09.84-.13,1.25a.4.4,0,0,1-.23.31,4.7,4.7,0,0,1-1.44.61,12.35,12.35,0,0,1-1.46.34c-.52.06-1,.13-1.56.16a9.69,9.69,0,0,0-1.42.1.49.49,0,0,1-.17,0c-.63-.08-1.27,0-1.9-.06a13.89,13.89,0,0,1-2.65-.39,5.74,5.74,0,0,1-1.41-.55.44.44,0,0,1-.25-.35c-.19-1.35-.4-2.7-.6-4.05S8.13,34.27,8,33l-.54-3.62c-.15-1-.29-2-.44-2.92s-.29-1.82-.44-2.73c0-.1,0-.2,0-.33a2.07,2.07,0,0,0,.5.16l.14,0s0,0,0,0,0,0,0,0a1.06,1.06,0,0,0-.25-.09.89.89,0,0,1-.63-.56,16.93,16.93,0,0,1-.64-1.94,1.56,1.56,0,0,1,0-.16c.16,0,.29.09.44.1s.38.18.43.45a7,7,0,0,0,.34,1.19,1,1,0,0,0,.3.44l.19.15a.22.22,0,0,0,.11.05,0,0,0,0,0,.08,0s0,0,0-.06l-.06,0a1.15,1.15,0,0,1-.47-.53s0,0,0-.05a1.73,1.73,0,0,1-.11-.32,1,1,0,0,1,0-.17,2.17,2.17,0,0,1-.07-.24l-.18-.64s0,0,0-.06l0,0h0l1.36.28c1,.19,2,.31,3.07.41h.05l.17,0a24.9,24.9,0,0,0,3.23.1h.33c.64,0,1.29,0,1.93,0,.84,0,1.66-.13,2.49-.24.51-.06,1-.14,1.51-.22h0l.12,0c.49-.08,1-.18,1.45-.29l1-.25.13,0h.05s0,0,0,.05a10.32,10.32,0,0,1-.36,1.43,1.05,1.05,0,0,1-.17.29h0a.57.57,0,0,1-.13.14c-.08.06-.19.11-.23.22s.14,0,.19,0l0,0a1.09,1.09,0,0,0,.43-.56,9.82,9.82,0,0,0,.31-1.3c0-.19.1-.31.31-.34a3.86,3.86,0,0,0,.48-.16C24.38,20.5,24.36,20.54,24.36,20.58Zm.55-.54a8.67,8.67,0,0,1-1.62.57c-.27.09-.55.15-.82.22-.63.15-1.26.28-1.9.38l-.14,0c-.63.11-1.26.19-1.9.25s-1.44.14-2.18.14l0-.32v-.07c0-.25,0-.49.07-.74a1.31,1.31,0,0,1,.06-.27c.08-.24.23-.28.41-.11a.46.46,0,0,1,.14.22,3.31,3.31,0,0,1,.19.61.13.13,0,0,1,0,.06,1.66,1.66,0,0,1,0,.32.12.12,0,0,0,0,.1.41.41,0,0,0,.07-.32.59.59,0,0,0,0-.13.15.15,0,0,0,0-.07,3.08,3.08,0,0,0-.18-.66.59.59,0,0,0-.37-.37.3.3,0,0,0-.39.15,1.08,1.08,0,0,0-.13.42,4.74,4.74,0,0,0-.05.85v.06c0,.1,0,.2,0,.3h-1q-.77,0-1.53.06a5.52,5.52,0,0,0-.06-1.09,1.5,1.5,0,0,0-.14-.5.32.32,0,0,0-.46-.16.49.49,0,0,0-.25.24,2.34,2.34,0,0,0-.23,1.13.29.29,0,0,0,.06.19c.06,0,0-.1,0-.14a2.65,2.65,0,0,1,.19-1,.46.46,0,0,1,.22-.29c.15-.08.24-.06.31.09a2.22,2.22,0,0,1,.12.46,9,9,0,0,0,.13,1c-.77,0-1.52,0-2.27-.08l-.6-.05h-.14c-.62-.05-1.23-.13-1.84-.22-.76-.12-1.52-.26-2.26-.45a11.49,11.49,0,0,1-1.23-.37,4.58,4.58,0,0,1-.78-.36c-.06,0-.1-.06,0-.14a1.5,1.5,0,0,0,.17-.83,1.26,1.26,0,0,1,.08-.58l.08-.14a1.35,1.35,0,0,0,.83.47,10.94,10.94,0,0,0,1.11.23l.26,0,.11,0,.51.06c.82.1,1.63.17,2.45.21s1.82.08,2.74.1c1.43,0,2.86,0,4.28-.08s3-.18,4.47-.38l1.22-.19a12.38,12.38,0,0,0,1.34-.31l.41-.14a.89.89,0,0,0,.49-.37.83.83,0,0,1,.19.58c0,.14,0,.28,0,.42a1.23,1.23,0,0,0,.23.6A2.4,2.4,0,0,1,24.91,20Zm-4.48,1.19c-.63.11-1.26.19-1.9.25s-1.44.14-2.18.14l0-.32v-.07l0,0-.09,0v.06c0,.1,0,.2,0,.3h-1l-.4.12-.4.1h.32c.64,0,1.29,0,1.93,0,.84,0,1.66-.13,2.49-.24.51-.06,1-.14,1.51-.22A1.78,1.78,0,0,0,20.43,21.23ZM17.38,21a.15.15,0,0,0,0-.07,3.08,3.08,0,0,0-.18-.66.59.59,0,0,0-.37-.37.3.3,0,0,0-.39.15,1.08,1.08,0,0,0-.13.42,4.74,4.74,0,0,0-.05.85l.09,0,0,0c0-.25,0-.49.07-.74a1.31,1.31,0,0,1,.06-.27c.08-.24.23-.28.41-.11a.46.46,0,0,1,.14.22,3.31,3.31,0,0,1,.19.61.13.13,0,0,1,0,.06,1.66,1.66,0,0,1,0,.32.12.12,0,0,0,0,.1.41.41,0,0,0,.07-.32A.59.59,0,0,0,17.38,21Zm3.05.26c-.63.11-1.26.19-1.9.25s-1.44.14-2.18.14l0-.32v-.07l0,0-.09,0v.06c0,.1,0,.2,0,.3h-1l-.4.12-.4.1h.32c.64,0,1.29,0,1.93,0,.84,0,1.66-.13,2.49-.24.51-.06,1-.14,1.51-.22A1.78,1.78,0,0,0,20.43,21.23ZM17.38,21a.15.15,0,0,0,0-.07,3.08,3.08,0,0,0-.18-.66.59.59,0,0,0-.37-.37.3.3,0,0,0-.39.15,1.08,1.08,0,0,0-.13.42,4.74,4.74,0,0,0-.05.85l.09,0,0,0c0-.25,0-.49.07-.74a1.31,1.31,0,0,1,.06-.27c.08-.24.23-.28.41-.11a.46.46,0,0,1,.14.22,3.31,3.31,0,0,1,.19.61.13.13,0,0,1,0,.06,1.66,1.66,0,0,1,0,.32.12.12,0,0,0,0,.1.41.41,0,0,0,.07-.32A.59.59,0,0,0,17.38,21Zm3.05.26c-.63.11-1.26.19-1.9.25s-1.44.14-2.18.14l0-.32v-.07l0,0-.09,0v.06c0,.1,0,.2,0,.3h-1l-.4.12-.4.1h.32c.64,0,1.29,0,1.93,0,.84,0,1.66-.13,2.49-.24.51-.06,1-.14,1.51-.22A1.78,1.78,0,0,0,20.43,21.23ZM17.38,21a.15.15,0,0,0,0-.07,3.08,3.08,0,0,0-.18-.66.59.59,0,0,0-.37-.37.3.3,0,0,0-.39.15,1.08,1.08,0,0,0-.13.42,4.74,4.74,0,0,0-.05.85l.09,0,0,0c0-.25,0-.49.07-.74a1.31,1.31,0,0,1,.06-.27c.08-.24.23-.28.41-.11a.46.46,0,0,1,.14.22,3.31,3.31,0,0,1,.19.61.13.13,0,0,1,0,.06,1.66,1.66,0,0,1,0,.32.12.12,0,0,0,0,.1.41.41,0,0,0,.07-.32A.59.59,0,0,0,17.38,21Z"/><path class="cls-13" d="M0,31.06c1.62-1,2.63-3.46,4.74-5.62s1-2.67,1.59-1.85-.55,2.61,1,4.12,7.92.09,10.44-.8,4-1.73,4.14-.09-4.6,2.72-4.26,3.87c.23.8,4.11-2,4.83-.29S18.06,32.49,17.62,34s4.66-.81,4.71,1-5.66,1.87-6.17,2.84,5-.39,4.52,1-5.43,1.83-9.27,1.29S2,38.37,1,38.13Z"/></g></g></svg>