<svg xmlns="http://www.w3.org/2000/svg" viewBox="0 0 27.27 43.99"><defs><style>.cls-1{fill:#fff;}.cls-2{fill:#ffc286;}.cls-3{fill:#ed9160;}.cls-4{fill:#ffdaaa;}.cls-5{fill:#fdae75;}.cls-6{fill:#1bee9d;}.cls-7{fill:#2fee9e;}.cls-8{fill:#3befa1;}.cls-9{fill:#a9602f;}.cls-10{fill:#a95f30;}.cls-11{fill:#a85f32;}.cls-12{fill:#784431;}.cls-13{fill:#c4854d;}</style></defs><g id="Layer_2" data-name="Layer 2"><g id="Layer_1-2" data-name="Layer 1"><path class="cls-1" d="M19.74.88c0,.34-.1.69-.14,1a2.51,2.51,0,0,0,0,.27s0,0,0,.07c-.17,1.19-.33,2.37-.5,3.56s-.34,2.3-.52,3.46c0,.13,0,.18.14.21l.06,0,0,.13a.46.46,0,0,0-.21-.05c-.07.36-.13.72-.2,1.1a.88.88,0,0,0,.29,0l0,.17a1.09,1.09,0,0,1-.36.06l-.41,3.91c0-.09.06-.12.14-.12h.16L17.58,19l-3-.36.5-4.13a1.22,1.22,0,0,1,.24.1.36.36,0,0,1,.2.2v-.1s0-.07,0-.11,0-.08,0-.12a6.69,6.69,0,0,0,.09-.9.15.15,0,0,1,.09-.15h0L16,11.91h0c-.09-.14,0-.27,0-.41s.09-.45.15-.68V10.7h0a3.53,3.53,0,0,1-.54-.13v-.11a2.48,2.48,0,0,0,.54.12v-.13a.08.08,0,0,1-.06,0c-.08,0,0-.14,0-.21s0-.42.06-.66a1.89,1.89,0,0,1-.36.09l-.07,0,0-.12h.13a.57.57,0,0,1,.26,0c.08-.31.08-.31-.13-.43.06-.05.14,0,.21,0,.08-.7.17-1.4.26-2.1.11-.87.23-1.75.33-2.62s.25-2,.38-3c0-.28.06-.57.1-.85a.31.31,0,0,0,0-.23c-.05-.1,0-.18.1-.24a.51.51,0,0,1,.36-.1,5.3,5.3,0,0,1,1.43.19,1.72,1.72,0,0,1,.43.21A.49.49,0,0,1,19.74.88Z"/><path class="cls-1" d="M15.81,9.23l-.06,0V9.18S15.79,9.2,15.81,9.23Z"/><path class="cls-1" d="M18.54,9.82l.14.07,0,.15C18.59,10,18.58,10,18.54,9.82Z"/><path class="cls-2" d="M9.55,27.43a1.48,1.48,0,0,1-.09-.51c-.08-.49-.11-1-.17-1.46s-.13-1-.2-1.43c0-.08,0-.15,0-.22a.76.76,0,0,0-.16-.43,2.65,2.65,0,0,1-.42-.88L8.32,22a4.75,4.75,0,0,1-.17-1,3,3,0,0,1,0-.73c0-.41.11-.82.17-1.22,0,0,0,0,0-.06s.13.05.17.1a5.78,5.78,0,0,0,2,1.48c.6.3,1.18.64,1.75,1a4.4,4.4,0,0,0,2.82.53,10.48,10.48,0,0,0,2.81-.78A6.81,6.81,0,0,1,20,20.72a4.13,4.13,0,0,1,1.35.24,17.2,17.2,0,0,1,2,.75,7.07,7.07,0,0,0,1,.31c.09,0,.22,0,.24.14a2.22,2.22,0,0,1-.35.87,1.51,1.51,0,0,0-.21.74L23.93,25c0,.16,0,.32-.05.47a.33.33,0,0,1-.15.11,6.26,6.26,0,0,0-2,1.16c-.61.44-1.18.93-1.82,1.34a6.42,6.42,0,0,1-2.73.92,4.4,4.4,0,0,1-2.47-.51c-.67-.31-1.33-.61-2-.86a4.65,4.65,0,0,0-3-.23A.19.19,0,0,1,9.55,27.43Z"/><path class="cls-3" d="M23.5,29.66v.19c0,.07,0,.16,0,.24,0,.44-.08.87-.11,1.3s-.07.76-.11,1.14c0,.55-.11,1.1-.16,1.66s-.09,1-.14,1.49-.11,1.07-.16,1.61-.09,1-.14,1.51c0,.12,0,.24,0,.36a1.7,1.7,0,0,0,0,.74.58.58,0,0,1-.17.61,2.48,2.48,0,0,1-.83.56,9.35,9.35,0,0,1-1.95.59,17.57,17.57,0,0,1-1.93.27,10.32,10.32,0,0,1-1.47,0,14.22,14.22,0,0,1-3.72-.58,3.93,3.93,0,0,1-1.08-.5,1.06,1.06,0,0,1-.35-.35.55.55,0,0,1-.06-.54.9.9,0,0,0,0-.43c-.12-.85-.24-1.71-.35-2.56l-.27-2.17c-.1-.73-.21-1.46-.29-2.19-.06-.52-.16-1-.19-1.56,0-.3,0-.32.26-.28a4.74,4.74,0,0,1,2.84,1.56c.42.45.8.94,1.24,1.38a3.78,3.78,0,0,0,2.52,1.14,4,4,0,0,0,2.46-.75,10.33,10.33,0,0,0,2.32-2.3c.54-.71,1-1.45,1.58-2.15a.86.86,0,0,1,.13-.14s.07-.07.12,0S23.52,29.61,23.5,29.66Z"/><path class="cls-4" d="M24.88,20.73v.05a4,4,0,0,1-.27,1.38A2.38,2.38,0,0,0,24,22a6.32,6.32,0,0,1-1-.35c-.23-.1-.46-.2-.69-.28h0a1.78,1.78,0,0,0-.29-.12,8.1,8.1,0,0,0-1.3-.38,2.93,2.93,0,0,0-.89,0A5,5,0,0,0,19,21l-.12,0c-.24.07-.48.14-.71.23L18,21.3l-.13.05-.74.29h0l-.69.2h0a9.3,9.3,0,0,1-1.17.23,8.61,8.61,0,0,1-1.24,0,2.62,2.62,0,0,1-.91-.21l-.39-.17h0l-.38-.2h0l-.81-.47c-.29-.17-.59-.31-.88-.47A7,7,0,0,1,8.8,19.39a1.8,1.8,0,0,1-.19-.2L8.44,19h0s0,0,0,0a.57.57,0,0,1,0-.18.49.49,0,0,1,0-.11l0-.08A7,7,0,0,1,9,17.63a1.56,1.56,0,0,1,1.32-.75h.14a.17.17,0,0,0,.19-.15A2.81,2.81,0,0,1,11,16a1.91,1.91,0,0,1,.74-.75,1.44,1.44,0,0,1,1-.15.41.41,0,0,0,.44-.17,1.24,1.24,0,0,1,1-.48,2.16,2.16,0,0,1,1,.06,1.22,1.22,0,0,1,.24.1.36.36,0,0,1,.2.2.48.48,0,0,1,0,.17c-.12.81-.28,1.61-.42,2.42-.09.47,0,.61.46.69a2.73,2.73,0,0,0,1.1.08s0,0,0,0a.31.31,0,0,0,.13,0c.07,0,.14,0,.19,0h.24a.2.2,0,0,0,.19-.23c0-.36.11-.7.16-1a1.45,1.45,0,0,0,0-.62s0,0,0,0a.62.62,0,0,1,0-.33c.08-.37.1-.74.17-1.1,0-.09.06-.12.14-.12h.16a1.42,1.42,0,0,1,.82.36,3.19,3.19,0,0,1,.54.56c.09.13.22.1.34.08a2.89,2.89,0,0,1,1.43.06,1.72,1.72,0,0,1,.66.4c.06.07.14.13.2.21a.66.66,0,0,0,.53.23,1.59,1.59,0,0,1,1.16.62,2.32,2.32,0,0,1,.49,1.11.38.38,0,0,1,0,.15.2.2,0,0,1,0,.07.43.43,0,0,1,0,0,.24.24,0,0,0,0,.2.21.21,0,0,0,.06.1l.05.07.05.06a1.2,1.2,0,0,1,.37.82c0,.26.05.53.06.8A.49.49,0,0,1,24.88,20.73Z"/><path class="cls-5" d="M23.5,29.66l0-.13a1.3,1.3,0,0,0-.36.42c-.42.57-.83,1.16-1.26,1.72-.26.35-.55.68-.82,1a8.54,8.54,0,0,1-1.3,1.25,4.45,4.45,0,0,1-2.08,1A3.65,3.65,0,0,1,15,34.35a4.48,4.48,0,0,1-1.07-1l-.82-.92a5.83,5.83,0,0,0-1-.87,4.42,4.42,0,0,0-1.94-.73c-.1,0-.15,0-.15.12a.49.49,0,0,1,0,.12,1.75,1.75,0,0,1-.08-.51c-.07-.47-.11-.94-.17-1.41s-.13-.95-.19-1.42a1.83,1.83,0,0,1,0-.33,2.46,2.46,0,0,1,.84-.2,4,4,0,0,1,1.47.12,9.9,9.9,0,0,1,1.66.58c.69.28,1.35.65,2.07.89a4,4,0,0,0,.76.16A5.73,5.73,0,0,0,19,28.51a8.21,8.21,0,0,0,1.89-1.18,19.1,19.1,0,0,1,1.94-1.4,3.87,3.87,0,0,1,1.05-.43v.24c0,.08,0,.17,0,.25,0,.45-.08.89-.11,1.34s-.07.76-.1,1.13-.09.76-.1,1.14C23.53,29.62,23.51,29.64,23.5,29.66Z"/><path class="cls-6" d="M19.25,3.86a6.22,6.22,0,0,0-.37,1.53,3.24,3.24,0,0,1-.8.57,10.93,10.93,0,0,1-1,.6c-.3.14-.35.11-.35-.22a.3.3,0,0,1,0-.16L16.79,5c0-.11.15-.13.25-.17a17.41,17.41,0,0,0,1.89-.93C19,3.89,19.12,3.79,19.25,3.86Z"/><path class="cls-6" d="M19.61,1.68a1.77,1.77,0,0,1,0,.23,2.51,2.51,0,0,0,0,.27s0,0,0,.07a.31.31,0,0,0,0,.08l-.19.13a15,15,0,0,1-1.82,1c-.15.08-.3.14-.45.21a.07.07,0,0,1-.06,0c-.08,0-.09,0-.1-.13,0-.26.07-.51.1-.76a.35.35,0,0,1,.13-.14c.08-.07.17-.11.25-.17.61-.47,1.23-.95,1.83-1.44.07-.06.12-.16.24-.09a.41.41,0,0,1,.07.11A1.09,1.09,0,0,1,19.61,1.68Z"/><path class="cls-6" d="M18,12v.3a8.13,8.13,0,0,1-.14,1,.93.93,0,0,1-.4.36c-.48.35-1,.68-1.48,1l-.13.06c-.17.08-.24.08-.26-.05s0-.07,0-.11,0-.08,0-.12a6.69,6.69,0,0,0,.09-.9.15.15,0,0,1,.09-.15h0l1.55-1c.17-.1.33-.22.49-.33A.24.24,0,0,1,18,12Z"/><path class="cls-6" d="M18.48,8,16.91,9c-.12.08-.25.15-.38.22s0-.08,0-.11c.06-.4,0-.8.09-1.19A12.42,12.42,0,0,0,18.44,7a.39.39,0,0,1,.22-.09A10.32,10.32,0,0,1,18.48,8Z"/><path class="cls-6" d="M15.43,16.16l.22-.14a15.09,15.09,0,0,0,1.69-1l.1-.07c.14-.09.12,0,.13.1-.07.3-.1.6-.14.9a.51.51,0,0,1-.22.24l-1.64,1.07c-.08.05-.18.15-.26,0A2.06,2.06,0,0,1,15.43,16.16Z"/><path class="cls-6" d="M18.23,9.6l-.09.85-.4.3h0a1.67,1.67,0,0,1-.16.12c-.5.36-1,.71-1.53,1,0,0,0,0-.07,0h0c-.09-.14,0-.27,0-.41s.09-.45.15-.68v-.05a.14.14,0,0,1,0-.06s0-.05.07-.05l.08-.05,1.45-.85.36-.23C18.19,9.48,18.21,9.53,18.23,9.6Z"/><path class="cls-7" d="M16.84,18.16a.45.45,0,0,1-.28-.09.4.4,0,0,0-.34-.12v0c.32-.26.69-.45,1.06-.72l0,.5a.56.56,0,0,1-.3.43Z"/><path class="cls-8" d="M18.16.54a.66.66,0,0,1-.23.24l-.43.33c-.07-.08,0-.16-.05-.24A.43.43,0,0,1,17.9.54Z"/><path class="cls-2" d="M23.84,26c0-.09,0-.17,0-.25A.31.31,0,0,1,23.84,26Z"/><path class="cls-5" d="M23.46,30.09c0-.08,0-.17,0-.24A.29.29,0,0,1,23.46,30.09Z"/><path class="cls-9" d="M13.16,40.07a.6.6,0,0,1-.52-.22,1.17,1.17,0,0,1-.35-.7.69.69,0,0,1,.78-.64,1,1,0,0,1,.74.6A.68.68,0,0,1,13.16,40.07Z"/><path class="cls-9" d="M21.73,37.84a.64.64,0,0,1-.63.71.81.81,0,0,1-.72-.78.72.72,0,0,1,.73-.65A.66.66,0,0,1,21.73,37.84Z"/><path class="cls-9" d="M16.75,40a.61.61,0,0,1-.64.61.71.71,0,0,1-.75-.67.64.64,0,0,1,.64-.66A.77.77,0,0,1,16.75,40Z"/><path class="cls-9" d="M19,40.1c-.32.06-.7-.34-.69-.66a.78.78,0,0,1,.67-.72.74.74,0,0,1,.67.7A.65.65,0,0,1,19,40.1Z"/><path class="cls-10" d="M17.73,37.72a.63.63,0,1,1-1.26,0c0-.31.23-.67.54-.65S17.76,37.3,17.73,37.72Z"/><path class="cls-10" d="M15.24,38a.43.43,0,0,1-.43.45.37.37,0,0,1-.38-.42.41.41,0,1,1,.81,0Z"/><path class="cls-10" d="M20.75,40.51c-.21,0-.44-.24-.42-.42a.37.37,0,0,1,.39-.35.39.39,0,1,1,0,.77Z"/><path class="cls-11" d="M12.42,37.19a.3.3,0,0,1-.26.31.36.36,0,0,1-.36-.34.31.31,0,1,1,.62,0Z"/><path class="cls-12" d="M19,21a.15.15,0,0,0,0-.07,3.08,3.08,0,0,0-.18-.66.59.59,0,0,0-.37-.37A.3.3,0,0,0,18,20a1.08,1.08,0,0,0-.13.42,4.74,4.74,0,0,0-.05.85l.09,0,0,0c0-.25,0-.49.07-.74a1.31,1.31,0,0,1,.06-.27c.08-.24.23-.28.41-.11a.46.46,0,0,1,.14.22,3.31,3.31,0,0,1,.19.61.13.13,0,0,1,0,.06,1.66,1.66,0,0,1,0,.32.12.12,0,0,0,0,.1A.41.41,0,0,0,19,21.1.59.59,0,0,0,19,21Zm3.05.26c-.63.11-1.26.19-1.9.25s-1.44.14-2.18.14l0-.32v-.07l0,0-.09,0v.06c0,.1,0,.2,0,.3h-1l-.4.12-.4.1h.32c.64,0,1.29,0,1.93,0,.84,0,1.66-.13,2.49-.24.51-.06,1-.14,1.51-.22A1.78,1.78,0,0,0,22,21.23ZM19,21a.15.15,0,0,0,0-.07,3.08,3.08,0,0,0-.18-.66.59.59,0,0,0-.37-.37A.3.3,0,0,0,18,20a1.08,1.08,0,0,0-.13.42,4.74,4.74,0,0,0-.05.85l.09,0,0,0c0-.25,0-.49.07-.74a1.31,1.31,0,0,1,.06-.27c.08-.24.23-.28.41-.11a.46.46,0,0,1,.14.22,3.31,3.31,0,0,1,.19.61.13.13,0,0,1,0,.06,1.66,1.66,0,0,1,0,.32.12.12,0,0,0,0,.1A.41.41,0,0,0,19,21.1.59.59,0,0,0,19,21Zm3.05.26c-.63.11-1.26.19-1.9.25s-1.44.14-2.18.14l0-.32v-.07l0,0-.09,0v.06c0,.1,0,.2,0,.3h-1l-.4.12-.4.1h.32c.64,0,1.29,0,1.93,0,.84,0,1.66-.13,2.49-.24.51-.06,1-.14,1.51-.22A1.78,1.78,0,0,0,22,21.23ZM19,21a.15.15,0,0,0,0-.07,3.08,3.08,0,0,0-.18-.66.59.59,0,0,0-.37-.37A.3.3,0,0,0,18,20a1.08,1.08,0,0,0-.13.42,4.74,4.74,0,0,0-.05.85l.09,0,0,0c0-.25,0-.49.07-.74a1.31,1.31,0,0,1,.06-.27c.08-.24.23-.28.41-.11a.46.46,0,0,1,.14.22,3.31,3.31,0,0,1,.19.61.13.13,0,0,1,0,.06,1.66,1.66,0,0,1,0,.32.12.12,0,0,0,0,.1A.41.41,0,0,0,19,21.1.59.59,0,0,0,19,21Zm3.05.26c-.63.11-1.26.19-1.9.25s-1.44.14-2.18.14l0-.32v-.07l0,0-.09,0v.06c0,.1,0,.2,0,.3h-1l-.4.12-.4.1h.32c.64,0,1.29,0,1.93,0,.84,0,1.66-.13,2.49-.24.51-.06,1-.14,1.51-.22A1.78,1.78,0,0,0,22,21.23ZM19,21a.15.15,0,0,0,0-.07,3.08,3.08,0,0,0-.18-.66.59.59,0,0,0-.37-.37A.3.3,0,0,0,18,20a1.08,1.08,0,0,0-.13.42,4.74,4.74,0,0,0-.05.85l.09,0,0,0c0-.25,0-.49.07-.74a1.31,1.31,0,0,1,.06-.27c.08-.24.23-.28.41-.11a.46.46,0,0,1,.14.22,3.31,3.31,0,0,1,.19.61.13.13,0,0,1,0,.06,1.66,1.66,0,0,1,0,.32.12.12,0,0,0,0,.1A.41.41,0,0,0,19,21.1.59.59,0,0,0,19,21Zm-3.7-.36a1.5,1.5,0,0,0-.14-.5.32.32,0,0,0-.46-.16.49.49,0,0,0-.25.24,2.34,2.34,0,0,0-.23,1.13.29.29,0,0,0,.06.19c.06,0,0-.1,0-.14a2.65,2.65,0,0,1,.19-1,.46.46,0,0,1,.22-.29c.15-.08.24-.06.31.09a2.22,2.22,0,0,1,.12.46,9,9,0,0,0,.13,1c-.77,0-1.52,0-2.27-.08l-.6-.05a4.25,4.25,0,0,0,.43.21,24.9,24.9,0,0,0,3.23.1h0l.4-.1.4-.12q-.77,0-1.53.06A5.52,5.52,0,0,0,15.26,20.61Zm6.75.62c-.63.11-1.26.19-1.9.25s-1.44.14-2.18.14l0-.32v-.07l0,0-.09,0v.06c0,.1,0,.2,0,.3h-1a3,3,0,0,1-.4.12l-.4.1h.32c.64,0,1.29,0,1.93,0,.84,0,1.66-.13,2.49-.24.51-.06,1-.14,1.51-.22A1.78,1.78,0,0,0,22,21.23Zm5.2-1.64a.89.89,0,0,1-.15-.27,2.69,2.69,0,0,1-.09-.8c0-.54-.37-.76-.87-.87-.12,0-.17,0-.19-.17a9.26,9.26,0,0,0-.44-1.56A10.85,10.85,0,0,0,18.73,9.5l-.06,0c-.12,0-.16-.08-.14-.21.18-1.16.35-2.31.52-3.46s.33-2.37.5-3.56c0,0,0,0,0-.07a2.51,2.51,0,0,1,0-.27c0-.34.09-.69.14-1A.49.49,0,0,0,19.55.4a1.72,1.72,0,0,0-.43-.21A5.3,5.3,0,0,0,17.69,0a.51.51,0,0,0-.36.1c-.09.06-.15.14-.1.24a.31.31,0,0,1,0,.23c0,.28-.07.57-.1.85-.13,1-.25,2-.38,3S16.55,6.17,16.44,7c-.09.7-.18,1.4-.26,2.1-.07,0-.15,0-.21,0,.21.12.21.12.13.43a.57.57,0,0,0-.26,0h-.13a1.13,1.13,0,0,0-.66.31.28.28,0,0,0,0,.47,1,1,0,0,0,.32.15l.2.05a3.53,3.53,0,0,0,.54.13h0l.1,0a7.29,7.29,0,0,0,1.31.14H18a1,1,0,0,0,.24,0,1.09,1.09,0,0,0,.36-.06,1.42,1.42,0,0,0,.35-.11.32.32,0,0,0,.12-.56,1.13,1.13,0,0,0-.36-.24l-.14-.07c0,.13.05.16.12.22l.07.05a1,1,0,0,1,.19.17c.09.13.08.2-.06.27a1.48,1.48,0,0,1-.27.1.88.88,0,0,1-.29,0c.07-.38.13-.74.2-1.1a.46.46,0,0,1,.21.05l.1,0a10.49,10.49,0,0,1,4.41,2.94,10.43,10.43,0,0,1,2.56,5,.86.86,0,0,0,.06.23c.09.18.09.18-.09.26l-.18.06a11.07,11.07,0,0,1-1.3.26l-.36.06q-1.21.16-2.46.27c-.91.09-1.83.15-2.75.2S16.92,19,16,19c-1.56,0-3.13,0-4.69-.08-1-.07-1.91-.13-2.86-.27l-.36,0a6.34,6.34,0,0,1-.84-.19c-.09,0-.17-.07-.15-.2-.13.11-.13.15,0,.23a1.31,1.31,0,0,0,.33.12,7,7,0,0,0,1,.19l.57.08c.79.1,1.58.16,2.37.21s1.76.08,2.64.09,1.67,0,2.5,0c.68,0,1.35,0,2,0,.87,0,1.74-.1,2.61-.17,1-.08,2.07-.2,3.09-.36l.43-.07a6.07,6.07,0,0,0,1-.25l.23-.1c.07-.05.13-.11.05-.2s0-.11.06-.11a.52.52,0,0,1,.36.16c.06.05.05.11,0,.16a1,1,0,0,1-.25.14,6.5,6.5,0,0,1-1.37.39l-.49.08a44.2,44.2,0,0,1-4.61.51c-1.83.12-3.65.15-5.48.12-1.18,0-2.37-.07-3.55-.16-.71-.06-1.42-.13-2.12-.24H8.4l-.61-.1a5.29,5.29,0,0,1-1-.28c-.09,0-.22-.07-.21-.19s.12-.16.21-.21a.22.22,0,0,1,.3,0c.09,0,.09-.12.11-.2s.06-.37.1-.56a10.57,10.57,0,0,1,3.2-5.59,9.89,9.89,0,0,1,5.05-2.59.47.47,0,0,0,.16,0l.06,0s0-.05-.06-.05h-.06a6.76,6.76,0,0,0-1,.18,10.1,10.1,0,0,0-4.43,2.56,10.87,10.87,0,0,0-2.89,4.71,7.74,7.74,0,0,0-.25,1.16c0,.07,0,.18-.1.16s-.31.1-.46.16a.77.77,0,0,0-.47.74c0,.15,0,.3,0,.45a1.11,1.11,0,0,1-.19.63c-.1.14-.1.14,0,.24a3.23,3.23,0,0,0,.93.46.32.32,0,0,1,.23.26c.09.39.2.78.32,1.16.06.19.12.38.19.57a1.6,1.6,0,0,0,.21.5.9.9,0,0,1,.18.51c0,.32.07.65.12,1,.16,1.15.33,2.31.49,3.46.2,1.35.39,2.69.59,4l.6,4c.08.52.15,1,.23,1.56.15,1,.31,2.1.46,3.15a.35.35,0,0,0,.08.24.65.65,0,0,1,.15.35,4.59,4.59,0,0,1,.1.82.58.58,0,0,0,.25.49,5.73,5.73,0,0,0,.75.45,7.8,7.8,0,0,0,1.82.55c.57.12,1.16.15,1.74.22A12.25,12.25,0,0,0,17,44a16.94,16.94,0,0,0,2-.19,14.83,14.83,0,0,0,2.18-.46,5.44,5.44,0,0,0,1.23-.55,2.31,2.31,0,0,0,.53-.4.35.35,0,0,0,.12-.25,5.16,5.16,0,0,1,0-.67,1.09,1.09,0,0,1,.15-.61.6.6,0,0,0,.1-.31c0-.28.07-.55.1-.83.13-1.22.27-2.44.4-3.67.13-1.08.26-2.16.38-3.24.17-1.47.32-3,.49-4.42.19-1.65.37-3.3.52-4.95a1.08,1.08,0,0,1,.19-.65.64.64,0,0,0,.08-.19,14.34,14.34,0,0,0,.54-2,.32.32,0,0,1,.23-.27,2.13,2.13,0,0,0,.41-.18,2.55,2.55,0,0,0,.52-.33C27.3,19.72,27.3,19.69,27.21,19.59ZM17.66.16a4.73,4.73,0,0,1,1.49.23,1,1,0,0,1,.32.16c.1.08.09.16,0,.2a.57.57,0,0,1-.26,0A4.26,4.26,0,0,1,18.11.61L17.9.54s0,0,0,0L17.62.46a.37.37,0,0,1-.24-.19A.4.4,0,0,1,17.66.16Zm.73,8.78c-.08.53-.15,1.05-.2,1.58,0,.2,0,.2-.22.22h-.24c-.24,0-.48,0-.71-.05s-.47,0-.71-.09h0l-.12,0h0a2.48,2.48,0,0,1-.54-.12l-.17-.05a.8.8,0,0,1-.29-.15c-.11-.1-.12-.15,0-.25a1.18,1.18,0,0,1,.56-.3l.07,0a1.89,1.89,0,0,0,.36-.09c0,.24-.05.45-.06.66s0,.2,0,.21a.08.08,0,0,0,.06,0h0l0-.08a.28.28,0,0,1,0-.09c.15-.9.24-1.82.35-2.73.05-.39.09-.79.14-1.18v0c.06-.46.12-.93.17-1.39,0,0,0-.1,0-.15,0-.36.08-.71.13-1.07s.08-.69.13-1a1.49,1.49,0,0,1,0-.21c.07-.63.15-1.25.23-1.87,0,0,0,0,0-.09l.22.07L18,.71a3.24,3.24,0,0,0,1.55.17l0,.23-.06.44c0,.3-.09.61-.13.91-.08.46-.14.92-.21,1.38h0c0,.26-.08.5-.11.76,0,0,0,0,0,0-.06.35-.11.71-.16,1.06C18.7,6.77,18.54,7.86,18.39,8.94Zm4.53,32.74a2.69,2.69,0,0,0,0,.4.3.3,0,0,1-.15.3,5,5,0,0,1-1.6.81,12.9,12.9,0,0,1-1.74.4,15.5,15.5,0,0,1-3.6.21,16,16,0,0,1-3.16-.49,5.36,5.36,0,0,1-1.54-.75.29.29,0,0,1-.13-.24,5.88,5.88,0,0,0-.11-1,5.33,5.33,0,0,0,.63.23c.08,0,.09.06.09.14a1,1,0,0,0,.83,1,1.45,1.45,0,0,0-.27-.28,1,1,0,0,1-.31-.32.55.55,0,0,1-.09-.4l.45.11c.45.1.91.23,1.37.3a14.7,14.7,0,0,0,2.39.17l1.57,0a14.82,14.82,0,0,0,2.82-.28A13.81,13.81,0,0,0,22,41.51l.12,0a.72.72,0,0,1-.28.66,1.67,1.67,0,0,0-.33.32c.05.07.09,0,.12,0a1.65,1.65,0,0,0,.41-.28.65.65,0,0,0,.24-.62c0-.13,0-.17.15-.21A1.92,1.92,0,0,0,23,41.1C23,41.31,22.93,41.5,22.92,41.68Zm3-21.1c-.17.63-.33,1.26-.54,1.87a1,1,0,0,1-.74.73c-.07,0-.18,0-.19.18a1.36,1.36,0,0,0,.67-.24,1,1,0,0,1,0,.39c-.12,1-.25,2-.37,3s-.22,1.89-.33,2.84-.19,1.66-.28,2.48-.19,1.69-.28,2.54-.19,1.64-.28,2.46-.19,1.65-.29,2.48c0,.42-.09.84-.13,1.25a.4.4,0,0,1-.23.31,4.7,4.7,0,0,1-1.44.61,12.35,12.35,0,0,1-1.46.34c-.52.06-1,.13-1.56.16a9.69,9.69,0,0,0-1.42.1.49.49,0,0,1-.17,0c-.63-.08-1.27,0-1.9-.06a13.89,13.89,0,0,1-2.65-.39,5.74,5.74,0,0,1-1.41-.55.44.44,0,0,1-.25-.35c-.15-1-.3-2.07-.46-3.1,0-.32-.09-.63-.14-1-.18-1.23-.35-2.45-.53-3.68L9,29.42c-.15-1-.29-2-.44-2.92-.08-.53-.17-1.06-.26-1.59h0l-.18-1.13c0-.1,0-.2,0-.33a2.07,2.07,0,0,0,.5.16l.14,0s.05,0,.05,0,0,0,0,0a1.06,1.06,0,0,0-.25-.09A.85.85,0,0,1,8,23.18a.91.91,0,0,1-.19-.3,8.5,8.5,0,0,1-.35-1h0c-.1-.32-.2-.65-.29-1a1.56,1.56,0,0,1,0-.16c.16,0,.29.09.44.1s.38.18.43.45a7,7,0,0,0,.34,1.19,1,1,0,0,0,.3.44l.19.15a.22.22,0,0,0,.11.05,0,0,0,0,0,.08,0s0,0,0-.06L9,23a1.15,1.15,0,0,1-.47-.53s0,0,0-.05a1.73,1.73,0,0,1-.11-.32,1,1,0,0,1,0-.17,2.17,2.17,0,0,1-.07-.24l-.18-.64s0,0,0-.06l0,0h0l1.36.28c1,.19,2,.31,3.07.41h.05l.17,0a24.9,24.9,0,0,0,3.23.1h.33c.64,0,1.29,0,1.93,0,.84,0,1.66-.13,2.49-.24.51-.06,1-.14,1.51-.22h0l.12,0c.49-.08,1-.18,1.45-.29l1-.25.13,0h0s0,0,0,.05a10.32,10.32,0,0,1-.36,1.43,1.05,1.05,0,0,1-.17.29h0a.57.57,0,0,1-.13.14c-.08.06-.19.11-.23.22s.14,0,.19,0l.05,0a1.09,1.09,0,0,0,.43-.56,9.82,9.82,0,0,0,.31-1.3c0-.19.1-.31.31-.34a3.86,3.86,0,0,0,.48-.16C26,20.5,25.94,20.54,25.94,20.58Zm.55-.54a8.67,8.67,0,0,1-1.62.57c-.27.09-.55.15-.82.22-.63.15-1.26.28-1.9.38l-.14,0c-.63.11-1.26.19-1.9.25s-1.44.14-2.18.14l0-.32v-.07c0-.25,0-.49.07-.74a1.31,1.31,0,0,1,.06-.27c.08-.24.23-.28.41-.11a.46.46,0,0,1,.14.22,3.31,3.31,0,0,1,.19.61.13.13,0,0,1,0,.06,1.66,1.66,0,0,1,0,.32.12.12,0,0,0,0,.1A.41.41,0,0,0,19,21.1.59.59,0,0,0,19,21a.15.15,0,0,0,0-.07,3.08,3.08,0,0,0-.18-.66.59.59,0,0,0-.37-.37A.3.3,0,0,0,18,20a1.08,1.08,0,0,0-.13.42,4.74,4.74,0,0,0-.05.85v.06c0,.1,0,.2,0,.3h-1q-.77,0-1.53.06a5.52,5.52,0,0,0-.06-1.09,1.5,1.5,0,0,0-.14-.5.32.32,0,0,0-.46-.16.49.49,0,0,0-.25.24,2.34,2.34,0,0,0-.23,1.13.29.29,0,0,0,.06.19c.06,0,0-.1,0-.14a2.65,2.65,0,0,1,.19-1,.46.46,0,0,1,.22-.29c.15-.08.24-.06.31.09a2.22,2.22,0,0,1,.12.46,9,9,0,0,0,.13,1c-.77,0-1.52,0-2.27-.08l-.6-.05h-.14c-.62-.05-1.23-.13-1.84-.22-.76-.12-1.52-.26-2.26-.45a11.49,11.49,0,0,1-1.23-.37,4.58,4.58,0,0,1-.78-.36c-.06,0-.1-.06,0-.14a1.5,1.5,0,0,0,.17-.83,1.26,1.26,0,0,1,.08-.58l.08-.14a1.35,1.35,0,0,0,.83.47,10.94,10.94,0,0,0,1.11.23l.26,0,.11,0,.51.06c.82.1,1.63.17,2.45.21s1.82.08,2.74.1c1.43,0,2.86,0,4.28-.08s3-.18,4.47-.38l1.22-.19a12.38,12.38,0,0,0,1.34-.31l.41-.14a.89.89,0,0,0,.49-.37.83.83,0,0,1,.19.58c0,.14,0,.28,0,.42a1.23,1.23,0,0,0,.23.6A2.4,2.4,0,0,1,26.49,20ZM22,21.23c-.63.11-1.26.19-1.9.25s-1.44.14-2.18.14l0-.32v-.07l0,0-.09,0v.06c0,.1,0,.2,0,.3h-1l-.4.12-.4.1h.32c.64,0,1.29,0,1.93,0,.84,0,1.66-.13,2.49-.24.51-.06,1-.14,1.51-.22A1.78,1.78,0,0,0,22,21.23ZM19,21a.15.15,0,0,0,0-.07,3.08,3.08,0,0,0-.18-.66.59.59,0,0,0-.37-.37A.3.3,0,0,0,18,20a1.08,1.08,0,0,0-.13.42,4.74,4.74,0,0,0-.05.85l.09,0,0,0c0-.25,0-.49.07-.74a1.31,1.31,0,0,1,.06-.27c.08-.24.23-.28.41-.11a.46.46,0,0,1,.14.22,3.31,3.31,0,0,1,.19.61.13.13,0,0,1,0,.06,1.66,1.66,0,0,1,0,.32.12.12,0,0,0,0,.1A.41.41,0,0,0,19,21.1.59.59,0,0,0,19,21Zm3.05.26c-.63.11-1.26.19-1.9.25s-1.44.14-2.18.14l0-.32v-.07l0,0-.09,0v.06c0,.1,0,.2,0,.3h-1l-.4.12-.4.1h.32c.64,0,1.29,0,1.93,0,.84,0,1.66-.13,2.49-.24.51-.06,1-.14,1.51-.22A1.78,1.78,0,0,0,22,21.23ZM19,21a.15.15,0,0,0,0-.07,3.08,3.08,0,0,0-.18-.66.59.59,0,0,0-.37-.37A.3.3,0,0,0,18,20a1.08,1.08,0,0,0-.13.42,4.74,4.74,0,0,0-.05.85l.09,0,0,0c0-.25,0-.49.07-.74a1.31,1.31,0,0,1,.06-.27c.08-.24.23-.28.41-.11a.46.46,0,0,1,.14.22,3.31,3.31,0,0,1,.19.61.13.13,0,0,1,0,.06,1.66,1.66,0,0,1,0,.32.12.12,0,0,0,0,.1A.41.41,0,0,0,19,21.1.59.59,0,0,0,19,21Zm3.05.26c-.63.11-1.26.19-1.9.25s-1.44.14-2.18.14l0-.32v-.07l0,0-.09,0v.06c0,.1,0,.2,0,.3h-1l-.4.12-.4.1h.32c.64,0,1.29,0,1.93,0,.84,0,1.66-.13,2.49-.24.51-.06,1-.14,1.51-.22A1.78,1.78,0,0,0,22,21.23ZM19,21a.15.15,0,0,0,0-.07,3.08,3.08,0,0,0-.18-.66.59.59,0,0,0-.37-.37A.3.3,0,0,0,18,20a1.08,1.08,0,0,0-.13.42,4.74,4.74,0,0,0-.05.85l.09,0,0,0c0-.25,0-.49.07-.74a1.31,1.31,0,0,1,.06-.27c.08-.24.23-.28.41-.11a.46.46,0,0,1,.14.22,3.31,3.31,0,0,1,.19.61.13.13,0,0,1,0,.06,1.66,1.66,0,0,1,0,.32.12.12,0,0,0,0,.1A.41.41,0,0,0,19,21.1.59.59,0,0,0,19,21Zm0,0-.12,0a1.66,1.66,0,0,1,0,.32.12.12,0,0,0,0,.1A.41.41,0,0,0,19,21.1.59.59,0,0,0,19,21Zm3.05.26c-.63.11-1.26.19-1.9.25s-1.44.14-2.18.14l0-.32v-.07l0,0-.09,0v.06c0,.1,0,.2,0,.3h-1l-.4.12-.4.1h.32c.64,0,1.29,0,1.93,0,.84,0,1.66-.13,2.49-.24.51-.06,1-.14,1.51-.22A1.78,1.78,0,0,0,22,21.23ZM19,21a.15.15,0,0,0,0-.07,3.08,3.08,0,0,0-.18-.66.59.59,0,0,0-.37-.37A.3.3,0,0,0,18,20a1.08,1.08,0,0,0-.13.42,4.74,4.74,0,0,0-.05.85l.09,0,0,0c0-.25,0-.49.07-.74a1.31,1.31,0,0,1,.06-.27c.08-.24.23-.28.41-.11a.46.46,0,0,1,.14.22,3.31,3.31,0,0,1,.19.61.13.13,0,0,1,0,.06,1.66,1.66,0,0,1,0,.32.12.12,0,0,0,0,.1A.41.41,0,0,0,19,21.1.59.59,0,0,0,19,21Z"/><path class="cls-13" d="M2.34,28.69c1.82-.54,3.83.8,4.48,3s-.3,4.42-2.13,5-3.84-.8-4.49-3S.51,29.23,2.34,28.69Z"/><path class="cls-13" d="M23.91,33c0,.45-.31.79-.82,1.06-1.59.85-5,1.05-5.35,1.78-.52,1,5-.39,4.52,1a1.34,1.34,0,0,1-.61.65A4.48,4.48,0,0,1,20.4,38a15.57,15.57,0,0,1-3.16.39H17c-.61,0-1.24,0-1.86,0l-.57,0c-.52,0-1-.08-1.53-.15-.67-.09-1.38-.21-2.12-.33l-.67-.12-.17,0c-1.88-.33-3.81-.72-5.25-1l-2.25-.49-.95-7.07.2-.13.05,0c1.48-1.08,2.49-3.42,4.49-5.46a7,7,0,0,0,1.1-1.38l.08-.14a8.5,8.5,0,0,0,.35,1,.91.91,0,0,0,.19.3,3.52,3.52,0,0,0,.25,1.72h0a2.89,2.89,0,0,0,.57.8,1.62,1.62,0,0,0,.49.33c2.08.93,7.65-.32,9.94-1.13,2.52-.89,4-1.73,4.15-.09a1.39,1.39,0,0,1-.53,1.06,0,0,0,0,1,0,0l-.23.21s0,0-.06,0-.33.23-.51.35h0l-.5.3c-1.06.58-2.21,1.09-2.4,1.62a.24.24,0,0,0,0,.08.41.41,0,0,0,0,.19c.21.71,3.33-1.41,4.5-.68a.81.81,0,0,1,.33.39c.21.48,0,.85-.47,1.17h0l0,0-.21.12h0l-.11.07c-1.33.71-3.68,1.18-4,2.15-.22.73.85.57,2,.42h.08a6.29,6.29,0,0,1,2-.06A.7.7,0,0,1,23.91,33Z"/></g></g></svg>