<svg xmlns="http://www.w3.org/2000/svg" viewBox="0 0 21.45 43.99"><defs><style>.cls-1{fill:#fff;}.cls-2{fill:#ffc286;}.cls-3{fill:#ed9160;}.cls-4{fill:#ffdaaa;}.cls-5{fill:#fdae75;}.cls-6{fill:#1bee9d;}.cls-7{fill:#2fee9e;}.cls-8{fill:#3befa1;}.cls-9{fill:#a9602f;}.cls-10{fill:#a95f30;}.cls-11{fill:#a85f32;}.cls-12{fill:#784431;}.cls-13{fill:#c4854d;}.cls-14{fill:#a37253;}.cls-15{fill:#a8654b;}</style></defs><g id="Layer_2" data-name="Layer 2"><g id="Layer_1-2" data-name="Layer 1"><path class="cls-1" d="M13.91.88c-.05.34-.1.69-.14,1a2.51,2.51,0,0,0,0,.27s0,0,0,.07c-.17,1.19-.33,2.37-.5,3.56s-.34,2.3-.52,3.46c0,.13,0,.18.14.21l.06,0,0,.13a.46.46,0,0,0-.21-.05c-.07.36-.13.72-.2,1.1a.88.88,0,0,0,.29,0l0,.17a1.09,1.09,0,0,1-.36.06L12,14.77c0-.09.06-.12.14-.12h.16L11.75,19l-3-.36.5-4.13a1.22,1.22,0,0,1,.24.1.36.36,0,0,1,.2.2v-.1s0-.07,0-.11,0-.08,0-.12a6.69,6.69,0,0,0,.09-.9.15.15,0,0,1,.09-.15h0l.22-1.47h0c-.09-.14,0-.27,0-.41s.09-.45.15-.68V10.7h0a3.53,3.53,0,0,1-.54-.13v-.11a2.48,2.48,0,0,0,.54.12v-.13l-.06,0c-.08,0,0-.14,0-.21s0-.42.06-.66a1.89,1.89,0,0,1-.36.09l-.07,0,0-.12H10a.57.57,0,0,1,.26,0c.08-.31.08-.31-.13-.43.06-.05.14,0,.21,0,.08-.7.17-1.4.26-2.1.11-.87.23-1.75.33-2.62s.25-2,.38-3c0-.28.06-.57.1-.85a.31.31,0,0,0,0-.23c-.05-.1,0-.18.1-.24a.51.51,0,0,1,.36-.1,5.3,5.3,0,0,1,1.43.19,1.72,1.72,0,0,1,.43.21A.49.49,0,0,1,13.91.88Z"/><path class="cls-1" d="M10,9.23l-.06,0V9.18S10,9.2,10,9.23Z"/><path class="cls-1" d="M12.71,9.82l.14.07,0,.15C12.76,10,12.75,10,12.71,9.82Z"/><path class="cls-2" d="M3.72,27.43a1.48,1.48,0,0,1-.09-.51c-.07-.49-.11-1-.17-1.46s-.13-1-.2-1.43c0-.08,0-.15,0-.22a.76.76,0,0,0-.16-.43,2.86,2.86,0,0,1-.42-.88c-.06-.18-.11-.36-.17-.54a4.76,4.76,0,0,1-.18-1,3.54,3.54,0,0,1,.05-.73c0-.41.11-.82.17-1.22,0,0,0,0,0-.06s.13.05.17.1a5.72,5.72,0,0,0,2,1.48c.59.3,1.17.64,1.74,1A4.43,4.43,0,0,0,9.29,22a10.68,10.68,0,0,0,2.81-.78,6.68,6.68,0,0,1,2.11-.53,4.13,4.13,0,0,1,1.35.24,17.2,17.2,0,0,1,2,.75,7.07,7.07,0,0,0,1,.31c.09,0,.22,0,.24.14a2.08,2.08,0,0,1-.35.87,1.4,1.4,0,0,0-.2.74c-.05.42-.08.84-.13,1.26a1.07,1.07,0,0,1-.05.47.33.33,0,0,1-.15.11,6.21,6.21,0,0,0-2,1.16c-.61.44-1.19.93-1.83,1.34a6.42,6.42,0,0,1-2.72.92,4.42,4.42,0,0,1-2.48-.51c-.67-.31-1.33-.61-2-.86a4.62,4.62,0,0,0-3-.23A.22.22,0,0,1,3.72,27.43Z"/><path class="cls-3" d="M17.67,29.66v.19c0,.07,0,.16,0,.24,0,.44-.08.87-.11,1.3s-.07.76-.11,1.14c-.05.55-.1,1.1-.16,1.66s-.09,1-.14,1.49L17,37.29c-.05.5-.1,1-.14,1.51a2.2,2.2,0,0,0,0,.36,1.56,1.56,0,0,0,0,.74.6.6,0,0,1-.18.61,2.55,2.55,0,0,1-.82.56,9.62,9.62,0,0,1-2,.59,17.73,17.73,0,0,1-1.92.27,10.46,10.46,0,0,1-1.48,0,14.22,14.22,0,0,1-3.72-.58,4.07,4.07,0,0,1-1.08-.5,1,1,0,0,1-.34-.35A.55.55,0,0,1,5.25,40a.79.79,0,0,0,0-.43c-.11-.85-.23-1.71-.35-2.56l-.27-2.17c-.1-.73-.21-1.46-.29-2.19-.06-.52-.16-1-.18-1.56,0-.3,0-.32.25-.28a4.72,4.72,0,0,1,2.84,1.56c.42.45.8.94,1.24,1.38A3.78,3.78,0,0,0,11,34.9a4.07,4.07,0,0,0,2.47-.75,10.5,10.5,0,0,0,2.31-2.3c.55-.71,1-1.45,1.58-2.15a.86.86,0,0,1,.13-.14s.08-.07.12,0S17.69,29.61,17.67,29.66Z"/><path class="cls-4" d="M19.05,20.73v.05a4,4,0,0,1-.27,1.38,2.38,2.38,0,0,0-.63-.18,6.32,6.32,0,0,1-1-.35c-.23-.1-.46-.2-.69-.28h0a1.78,1.78,0,0,0-.29-.12,8.1,8.1,0,0,0-1.3-.38,2.93,2.93,0,0,0-.89,0,5,5,0,0,0-.86.16L13,21c-.24.07-.48.14-.71.23l-.17.07-.13.05-.74.29h0l-.69.2h0a9.3,9.3,0,0,1-1.17.23,8.61,8.61,0,0,1-1.24,0,2.62,2.62,0,0,1-.91-.21l-.39-.17h0l-.38-.2h0l-.81-.47c-.29-.17-.59-.31-.88-.47A7,7,0,0,1,3,19.39a1.8,1.8,0,0,1-.19-.2L2.61,19h0s0,0,0,0a.57.57,0,0,1,0-.18.49.49,0,0,1,0-.11l0-.08a7,7,0,0,1,.47-.95,1.56,1.56,0,0,1,1.32-.75h.14a.17.17,0,0,0,.19-.15A2.81,2.81,0,0,1,5.15,16a1.91,1.91,0,0,1,.74-.75,1.44,1.44,0,0,1,1-.15.41.41,0,0,0,.44-.17,1.24,1.24,0,0,1,1-.48,2.16,2.16,0,0,1,1,.06,1.22,1.22,0,0,1,.24.1.36.36,0,0,1,.2.2.48.48,0,0,1,0,.17c-.12.81-.28,1.61-.42,2.42-.09.47,0,.61.46.69a2.73,2.73,0,0,0,1.1.08s0,0,0,0a.31.31,0,0,0,.13,0c.07,0,.14,0,.19,0h.24a.2.2,0,0,0,.19-.23c0-.36.11-.7.16-1a1.45,1.45,0,0,0,0-.62s0,0,0,0a.62.62,0,0,1,0-.33c.08-.37.1-.74.17-1.1,0-.09.06-.12.14-.12h.16a1.42,1.42,0,0,1,.82.36,3.19,3.19,0,0,1,.54.56c.09.13.22.1.34.08a2.89,2.89,0,0,1,1.43.06,1.72,1.72,0,0,1,.66.4c.06.07.14.13.2.21a.66.66,0,0,0,.53.23,1.59,1.59,0,0,1,1.16.62,2.32,2.32,0,0,1,.49,1.11.38.38,0,0,1,0,.15.2.2,0,0,1,0,.07.43.43,0,0,1,0,0,.24.24,0,0,0,0,.2.21.21,0,0,0,.06.1l0,.07.05.06a1.2,1.2,0,0,1,.37.82c0,.26.05.53.06.8A.49.49,0,0,1,19.05,20.73Z"/><path class="cls-5" d="M17.67,29.66l0-.13a1.44,1.44,0,0,0-.36.42c-.42.57-.82,1.16-1.25,1.72-.27.35-.55.68-.83,1a9,9,0,0,1-1.29,1.25,4.49,4.49,0,0,1-2.09,1,3.66,3.66,0,0,1-2.67-.56,4.68,4.68,0,0,1-1.07-1c-.26-.31-.54-.61-.82-.92a5.83,5.83,0,0,0-1-.87,4.37,4.37,0,0,0-1.94-.73c-.1,0-.15,0-.15.12v.12a1.27,1.27,0,0,1-.08-.51c-.08-.47-.12-.94-.18-1.41s-.13-.95-.19-1.42a1.83,1.83,0,0,1,0-.33,2.46,2.46,0,0,1,.84-.2A4,4,0,0,1,6,27.35a9.6,9.6,0,0,1,1.66.58c.7.28,1.36.65,2.07.89a4,4,0,0,0,.76.16,5.77,5.77,0,0,0,2.66-.47,8.15,8.15,0,0,0,1.88-1.18A20.29,20.29,0,0,1,17,25.93a4,4,0,0,1,1.05-.43v.24c-.05.08,0,.17,0,.25,0,.45-.08.89-.11,1.34s-.07.76-.1,1.13-.09.76-.1,1.14C17.7,29.62,17.68,29.64,17.67,29.66Z"/><path class="cls-6" d="M13.42,3.86a6.22,6.22,0,0,0-.37,1.53,3.06,3.06,0,0,1-.8.57,9.84,9.84,0,0,1-1.05.6c-.3.14-.34.11-.34-.22,0,0,0-.11,0-.16L11,5c0-.11.15-.13.24-.17a17.41,17.41,0,0,0,1.89-.93C13.19,3.89,13.29,3.79,13.42,3.86Z"/><path class="cls-6" d="M13.78,1.68a1.77,1.77,0,0,1,0,.23,2.51,2.51,0,0,0,0,.27s0,0,0,.07a.31.31,0,0,0,0,.08l-.19.13a15,15,0,0,1-1.82,1l-.45.21a.07.07,0,0,1-.06,0c-.08,0-.09,0-.1-.13,0-.26.07-.51.1-.76a.35.35,0,0,1,.13-.14c.08-.07.17-.11.25-.17.61-.47,1.23-.95,1.83-1.44.07-.06.12-.16.24-.09a.41.41,0,0,1,.07.11A1.09,1.09,0,0,1,13.78,1.68Z"/><path class="cls-6" d="M12.14,12v.3a8.13,8.13,0,0,1-.14,1,.93.93,0,0,1-.4.36c-.48.35-1,.68-1.48,1l-.13.06c-.17.08-.24.08-.26-.05s0-.07,0-.11,0-.08,0-.12a6.69,6.69,0,0,0,.09-.9.15.15,0,0,1,.09-.15h0l1.55-1c.17-.1.33-.22.49-.33A.24.24,0,0,1,12.14,12Z"/><path class="cls-6" d="M12.66,8,11.09,9l-.39.22s0-.08,0-.11c.05-.4,0-.8.08-1.19A12.53,12.53,0,0,0,12.62,7a.33.33,0,0,1,.21-.09C12.79,7.24,12.73,7.61,12.66,8Z"/><path class="cls-6" d="M9.61,16.16A1.64,1.64,0,0,1,9.83,16a15.91,15.91,0,0,0,1.68-1l.1-.07c.14-.09.12,0,.13.1-.06.3-.09.6-.13.9a.59.59,0,0,1-.23.24L9.74,17.25c-.08.05-.17.15-.26,0A2.06,2.06,0,0,1,9.61,16.16Z"/><path class="cls-6" d="M12.4,9.6l-.09.85-.4.3h0a1.67,1.67,0,0,1-.16.12c-.5.36-1,.71-1.53,1,0,0-.05,0-.07,0h0c-.09-.14,0-.27,0-.41s.09-.45.15-.68v-.05a.14.14,0,0,1,0-.06s0-.05.07-.05l.08-.05,1.45-.85.36-.23C12.36,9.48,12.38,9.53,12.4,9.6Z"/><path class="cls-7" d="M11,18.16a.45.45,0,0,1-.28-.09.4.4,0,0,0-.34-.12s0,0,0,0c.32-.26.69-.45,1.06-.72l0,.5a.58.58,0,0,1-.29.43Z"/><path class="cls-8" d="M12.33.54a.66.66,0,0,1-.23.24l-.42.33c-.07-.08,0-.16-.06-.24a.43.43,0,0,1,.45-.33Z"/><path class="cls-2" d="M18,26c0-.09,0-.17,0-.25C18.05,25.83,18.07,25.91,18,26Z"/><path class="cls-5" d="M17.63,30.09c0-.08,0-.17,0-.24A.29.29,0,0,1,17.63,30.09Z"/><path class="cls-9" d="M7.33,40.07a.57.57,0,0,1-.51-.22,1.19,1.19,0,0,1-.36-.7.69.69,0,0,1,.78-.64,1,1,0,0,1,.74.6A.68.68,0,0,1,7.33,40.07Z"/><path class="cls-9" d="M15.9,37.84a.64.64,0,0,1-.63.71.82.82,0,0,1-.72-.78.72.72,0,0,1,.73-.65A.66.66,0,0,1,15.9,37.84Z"/><path class="cls-9" d="M10.92,40a.61.61,0,0,1-.64.61A.69.69,0,0,1,9.54,40a.63.63,0,0,1,.64-.66A.76.76,0,0,1,10.92,40Z"/><path class="cls-9" d="M13.16,40.1c-.32.06-.7-.34-.68-.66a.77.77,0,0,1,.66-.72.73.73,0,0,1,.67.7A.65.65,0,0,1,13.16,40.1Z"/><path class="cls-10" d="M11.9,37.72a.63.63,0,1,1-1.26,0,.6.6,0,0,1,.55-.65C11.51,37.07,11.93,37.3,11.9,37.72Z"/><path class="cls-10" d="M9.42,38a.44.44,0,0,1-.44.45c-.23,0-.37-.16-.37-.42A.43.43,0,0,1,9,37.52.45.45,0,0,1,9.42,38Z"/><path class="cls-10" d="M14.92,40.51c-.21,0-.43-.24-.42-.42a.38.38,0,0,1,.39-.35.39.39,0,0,1,.41.37A.39.39,0,0,1,14.92,40.51Z"/><path class="cls-11" d="M6.59,37.19a.29.29,0,0,1-.25.31A.36.36,0,0,1,6,37.16a.33.33,0,0,1,.29-.31A.35.35,0,0,1,6.59,37.19Z"/><path class="cls-12" d="M13.13,21a.15.15,0,0,0,0-.07,3.08,3.08,0,0,0-.18-.66.59.59,0,0,0-.37-.37.3.3,0,0,0-.39.15,1.08,1.08,0,0,0-.13.42,4.74,4.74,0,0,0-.05.85l.09,0,0,0c0-.25,0-.49.07-.74a1.31,1.31,0,0,1,.06-.27c.08-.24.23-.28.41-.11a.46.46,0,0,1,.14.22,3.31,3.31,0,0,1,.19.61A.13.13,0,0,1,13,21a1.66,1.66,0,0,1,0,.32.12.12,0,0,0,0,.1.41.41,0,0,0,.07-.32A.59.59,0,0,0,13.13,21Zm3,.26c-.63.11-1.26.19-1.9.25s-1.44.14-2.18.14l0-.32v-.07l0,0-.09,0v.06c0,.1,0,.2,0,.3H11l-.4.12-.4.1h.32c.64,0,1.29,0,1.93,0,.84,0,1.66-.13,2.49-.24.51-.06,1-.14,1.51-.22A1.78,1.78,0,0,0,16.18,21.23Zm-3-.26L13,21a1.66,1.66,0,0,1,0,.32.12.12,0,0,0,0,.1.41.41,0,0,0,.07-.32A.59.59,0,0,0,13.13,21Zm0,0a.15.15,0,0,0,0-.07,3.08,3.08,0,0,0-.18-.66.59.59,0,0,0-.37-.37.3.3,0,0,0-.39.15,1.08,1.08,0,0,0-.13.42,4.74,4.74,0,0,0-.05.85l.09,0,0,0c0-.25,0-.49.07-.74a1.31,1.31,0,0,1,.06-.27c.08-.24.23-.28.41-.11a.46.46,0,0,1,.14.22,3.31,3.31,0,0,1,.19.61A.13.13,0,0,1,13,21a1.66,1.66,0,0,1,0,.32.12.12,0,0,0,0,.1.41.41,0,0,0,.07-.32A.59.59,0,0,0,13.13,21Zm3,.26c-.63.11-1.26.19-1.9.25s-1.44.14-2.18.14l0-.32v-.07l0,0-.09,0v.06c0,.1,0,.2,0,.3H11l-.4.12-.4.1h.32c.64,0,1.29,0,1.93,0,.84,0,1.66-.13,2.49-.24.51-.06,1-.14,1.51-.22A1.78,1.78,0,0,0,16.18,21.23Zm-3-.26a.15.15,0,0,0,0-.07,3.08,3.08,0,0,0-.18-.66.59.59,0,0,0-.37-.37.3.3,0,0,0-.39.15,1.08,1.08,0,0,0-.13.42,4.74,4.74,0,0,0-.05.85l.09,0,0,0c0-.25,0-.49.07-.74a1.31,1.31,0,0,1,.06-.27c.08-.24.23-.28.41-.11a.46.46,0,0,1,.14.22,3.31,3.31,0,0,1,.19.61A.13.13,0,0,1,13,21a1.66,1.66,0,0,1,0,.32.12.12,0,0,0,0,.1.41.41,0,0,0,.07-.32A.59.59,0,0,0,13.13,21Zm3,.26c-.63.11-1.26.19-1.9.25s-1.44.14-2.18.14l0-.32v-.07l0,0-.09,0v.06c0,.1,0,.2,0,.3H11l-.4.12-.4.1h.32c.64,0,1.29,0,1.93,0,.84,0,1.66-.13,2.49-.24.51-.06,1-.14,1.51-.22A1.78,1.78,0,0,0,16.18,21.23Zm-3-.26a.15.15,0,0,0,0-.07,3.08,3.08,0,0,0-.18-.66.59.59,0,0,0-.37-.37.3.3,0,0,0-.39.15,1.08,1.08,0,0,0-.13.42,4.74,4.74,0,0,0-.05.85l.09,0,0,0c0-.25,0-.49.07-.74a1.31,1.31,0,0,1,.06-.27c.08-.24.23-.28.41-.11a.46.46,0,0,1,.14.22,3.31,3.31,0,0,1,.19.61A.13.13,0,0,1,13,21a1.66,1.66,0,0,1,0,.32.12.12,0,0,0,0,.1.41.41,0,0,0,.07-.32A.59.59,0,0,0,13.13,21Zm3,.26c-.63.11-1.26.19-1.9.25s-1.44.14-2.18.14l0-.32v-.07l0,0-.09,0v.06c0,.1,0,.2,0,.3H11a3,3,0,0,1-.4.12l-.4.1h.32c.64,0,1.29,0,1.93,0,.84,0,1.66-.13,2.49-.24.51-.06,1-.14,1.51-.22A1.78,1.78,0,0,0,16.18,21.23Zm5.2-1.64a.89.89,0,0,1-.15-.27,2.69,2.69,0,0,1-.09-.8c0-.54-.37-.76-.87-.87-.12,0-.17,0-.19-.17a9.26,9.26,0,0,0-.44-1.56A10.85,10.85,0,0,0,12.9,9.5l-.06,0c-.12,0-.16-.08-.14-.21.18-1.16.35-2.31.52-3.46s.33-2.37.5-3.56c0,0,0,0,0-.07a2.51,2.51,0,0,1,0-.27c0-.34.09-.69.14-1A.49.49,0,0,0,13.72.4a1.72,1.72,0,0,0-.43-.21A5.3,5.3,0,0,0,11.86,0a.51.51,0,0,0-.36.1c-.09.06-.15.14-.1.24a.31.31,0,0,1,0,.23c0,.28-.07.57-.1.85-.13,1-.25,2-.38,3S10.72,6.17,10.61,7c-.09.7-.18,1.4-.26,2.1-.07,0-.15,0-.21,0,.21.12.21.12.13.43a.57.57,0,0,0-.26,0H9.88a1.13,1.13,0,0,0-.66.31.28.28,0,0,0,0,.47,1,1,0,0,0,.32.15l.2.05a3.53,3.53,0,0,0,.54.13h0l.1,0a7.29,7.29,0,0,0,1.31.14h.4a1,1,0,0,0,.24,0,1.09,1.09,0,0,0,.36-.06,1.42,1.42,0,0,0,.35-.11.32.32,0,0,0,.12-.56,1.13,1.13,0,0,0-.36-.24l-.14-.07c0,.13,0,.16.12.22l.07.05a1,1,0,0,1,.19.17c.09.13.08.2-.06.27a1.48,1.48,0,0,1-.27.1.88.88,0,0,1-.29,0c.07-.38.13-.74.2-1.1a.46.46,0,0,1,.21.05l.1,0a10.49,10.49,0,0,1,4.41,2.94,10.43,10.43,0,0,1,2.56,5,.86.86,0,0,0,.06.23c.09.18.09.18-.09.26l-.18.06a11.07,11.07,0,0,1-1.3.26l-.36.06q-1.21.16-2.46.27c-.91.09-1.83.15-2.75.2s-1.78,0-2.67,0c-1.56,0-3.13,0-4.69-.08-1-.07-1.91-.13-2.86-.27l-.36,0a6.34,6.34,0,0,1-.84-.19c-.09,0-.17-.07-.15-.2-.13.11-.13.15,0,.23a1.31,1.31,0,0,0,.33.12,7,7,0,0,0,1,.19l.57.08c.79.1,1.58.16,2.37.21s1.76.08,2.64.09,1.67,0,2.5,0c.68,0,1.35,0,2,0,.87,0,1.74-.1,2.61-.17,1-.08,2.07-.2,3.09-.36l.43-.07a6.07,6.07,0,0,0,1-.25l.23-.1c.07-.05.13-.11,0-.2s0-.11.06-.11a.52.52,0,0,1,.36.16c.06.05.05.11,0,.16a1,1,0,0,1-.25.14,6.5,6.5,0,0,1-1.37.39l-.49.08a44.2,44.2,0,0,1-4.61.51c-1.83.12-3.65.15-5.48.12-1.18,0-2.37-.07-3.55-.16-.71-.06-1.42-.13-2.12-.24H2.57L2,18.87a5.29,5.29,0,0,1-1-.28c-.09,0-.22-.07-.21-.19s.12-.16.21-.21a.22.22,0,0,1,.3,0c.09,0,.09-.12.11-.2s.06-.37.1-.56a10.57,10.57,0,0,1,3.2-5.59A9.89,9.89,0,0,1,9.76,9.29a.47.47,0,0,0,.16,0l.06,0s0-.05-.06-.05H9.86a6.76,6.76,0,0,0-1,.18,10.1,10.1,0,0,0-4.43,2.56,10.87,10.87,0,0,0-2.89,4.71,7.74,7.74,0,0,0-.25,1.16c0,.07,0,.18-.1.16s-.31.1-.46.16a.77.77,0,0,0-.47.74c0,.15,0,.3,0,.45a1.11,1.11,0,0,1-.19.63c-.1.14-.1.14,0,.24a3.23,3.23,0,0,0,.93.46.32.32,0,0,1,.23.26,16.43,16.43,0,0,0,.51,1.73,1.6,1.6,0,0,0,.21.5.9.9,0,0,1,.18.51c0,.32.07.65.12,1,.16,1.15.33,2.31.49,3.46.2,1.35.39,2.69.59,4l.6,4,.69,4.71a.35.35,0,0,0,.08.24.65.65,0,0,1,.15.35,4.59,4.59,0,0,1,.1.82.58.58,0,0,0,.25.49,5.73,5.73,0,0,0,.75.45,7.8,7.8,0,0,0,1.82.55c.57.12,1.16.15,1.74.22a12.25,12.25,0,0,0,1.6.08,16.94,16.94,0,0,0,2-.19,14.83,14.83,0,0,0,2.18-.46,5.44,5.44,0,0,0,1.23-.55,2.31,2.31,0,0,0,.53-.4.35.35,0,0,0,.12-.25,5.16,5.16,0,0,1,.05-.67,1.09,1.09,0,0,1,.15-.61.6.6,0,0,0,.1-.31c0-.28.07-.55.1-.83.13-1.22.27-2.44.4-3.67.13-1.08.26-2.16.38-3.24.17-1.47.32-3,.49-4.42.19-1.65.37-3.3.52-4.95a1.08,1.08,0,0,1,.19-.65.64.64,0,0,0,.08-.19,14.34,14.34,0,0,0,.54-2,.32.32,0,0,1,.23-.27,2.13,2.13,0,0,0,.41-.18,2.55,2.55,0,0,0,.52-.33C21.47,19.72,21.47,19.69,21.38,19.59ZM11.83.16a4.73,4.73,0,0,1,1.49.23,1,1,0,0,1,.32.16c.1.08.09.16,0,.2a.57.57,0,0,1-.26,0A4.26,4.26,0,0,1,12.28.61L12.07.54s0,0,0,0L11.79.46a.37.37,0,0,1-.24-.19A.4.4,0,0,1,11.83.16Zm.73,8.78c-.08.53-.15,1.05-.2,1.58,0,.2,0,.2-.22.22H11.9c-.24,0-.48,0-.71-.05s-.47,0-.71-.09h0l-.12,0h0a2.48,2.48,0,0,1-.54-.12l-.17-.05a.8.8,0,0,1-.29-.15c-.11-.1-.12-.15,0-.25a1.18,1.18,0,0,1,.56-.3l.07,0a1.89,1.89,0,0,0,.36-.09c0,.24,0,.45-.06.66s-.05.2,0,.21l.06,0h0l0-.08a.28.28,0,0,1,0-.09c.15-.9.24-1.82.35-2.73,0-.39.09-.79.14-1.18v0c.06-.46.12-.93.17-1.39,0,0,0-.1,0-.15,0-.36.08-.71.13-1.07s.08-.69.13-1a1.49,1.49,0,0,1,0-.21c.07-.63.15-1.25.23-1.87,0,0,0,0,0-.09l.22.07.36.11a3.24,3.24,0,0,0,1.55.17l0,.23-.06.44c-.05.3-.09.61-.13.91-.08.46-.14.92-.21,1.38h0c0,.26-.08.5-.11.76,0,0,0,0,0,0-.06.35-.11.71-.16,1.06C12.87,6.77,12.71,7.86,12.56,8.94Zm4.53,32.74a2.69,2.69,0,0,0,0,.4.3.3,0,0,1-.15.3,5,5,0,0,1-1.6.81,12.9,12.9,0,0,1-1.74.4,15.5,15.5,0,0,1-3.6.21,16,16,0,0,1-3.16-.49,5.36,5.36,0,0,1-1.54-.75.29.29,0,0,1-.13-.24,5.88,5.88,0,0,0-.11-1,5.33,5.33,0,0,0,.63.23c.08,0,.09.06.09.14a1,1,0,0,0,.83,1,1.45,1.45,0,0,0-.27-.28A1,1,0,0,1,6,42.06a.55.55,0,0,1-.09-.4l.45.11c.45.1.91.23,1.37.3a14.7,14.7,0,0,0,2.39.17l1.57,0a14.82,14.82,0,0,0,2.82-.28,13.81,13.81,0,0,0,1.65-.43l.12,0a.72.72,0,0,1-.28.66,1.67,1.67,0,0,0-.33.32c.05.07.09,0,.12,0a1.65,1.65,0,0,0,.41-.28.65.65,0,0,0,.24-.62c0-.13,0-.17.15-.21a1.92,1.92,0,0,0,.55-.25C17.12,41.31,17.1,41.5,17.09,41.68Zm3-21.1c-.17.63-.33,1.26-.54,1.87a1,1,0,0,1-.74.73c-.07,0-.18,0-.19.18a1.36,1.36,0,0,0,.67-.24,1,1,0,0,1,0,.39c-.12,1-.25,2-.37,3s-.22,1.89-.33,2.84-.19,1.66-.28,2.48-.19,1.69-.28,2.54-.19,1.64-.28,2.46-.19,1.65-.29,2.48c0,.42-.09.84-.13,1.25a.4.4,0,0,1-.23.31,4.7,4.7,0,0,1-1.44.61,12.35,12.35,0,0,1-1.46.34c-.52.06-1,.13-1.56.16a9.69,9.69,0,0,0-1.42.1.49.49,0,0,1-.17,0c-.63-.08-1.27,0-1.9-.06a13.89,13.89,0,0,1-2.65-.39,5.74,5.74,0,0,1-1.41-.55.44.44,0,0,1-.25-.35c-.19-1.35-.4-2.7-.6-4.05S3.88,34.27,3.7,33l-.54-3.62c-.15-1-.29-2-.44-2.92s-.29-1.82-.44-2.73c0-.1,0-.2,0-.33a2.07,2.07,0,0,0,.5.16l.14,0s0,0,0,0,0,0,0,0a1.06,1.06,0,0,0-.25-.09A.89.89,0,0,1,2,22.88a16.93,16.93,0,0,1-.64-1.94,1.56,1.56,0,0,1,0-.16c.16,0,.29.09.44.1s.38.18.43.45a7,7,0,0,0,.34,1.19,1,1,0,0,0,.3.44l.19.15a.22.22,0,0,0,.11.05,0,0,0,0,0,.08,0s0,0,0-.06l-.06,0a1.15,1.15,0,0,1-.47-.53s0,0,0-.05a1.73,1.73,0,0,1-.11-.32,1,1,0,0,1,0-.17,2.17,2.17,0,0,1-.07-.24l-.18-.64s0,0,0-.06l0,0h0l1.36.28c1,.19,2,.31,3.07.41h0l.17,0a24.9,24.9,0,0,0,3.23.1h.33c.64,0,1.29,0,1.93,0,.84,0,1.66-.13,2.49-.24.51-.06,1-.14,1.51-.22h0l.12,0c.49-.08,1-.18,1.45-.29l1-.25.13,0h.05s0,0,0,.05a10.32,10.32,0,0,1-.36,1.43,1.05,1.05,0,0,1-.17.29h0a.57.57,0,0,1-.13.14c-.08.06-.19.11-.23.22s.14,0,.19,0l0,0a1.09,1.09,0,0,0,.43-.56A9.82,9.82,0,0,0,19.3,21c0-.19.1-.31.31-.34a3.86,3.86,0,0,0,.48-.16C20.13,20.5,20.11,20.54,20.11,20.58Zm.55-.54a8.67,8.67,0,0,1-1.62.57c-.27.09-.55.15-.82.22-.63.15-1.26.28-1.9.38l-.14,0c-.63.11-1.26.19-1.9.25s-1.44.14-2.18.14l0-.32v-.07c0-.25,0-.49.07-.74a1.31,1.31,0,0,1,.06-.27c.08-.24.23-.28.41-.11a.46.46,0,0,1,.14.22,3.31,3.31,0,0,1,.19.61A.13.13,0,0,1,13,21a1.66,1.66,0,0,1,0,.32.12.12,0,0,0,0,.1.41.41,0,0,0,.07-.32.59.59,0,0,0,0-.13.15.15,0,0,0,0-.07,3.08,3.08,0,0,0-.18-.66.59.59,0,0,0-.37-.37.3.3,0,0,0-.39.15,1.08,1.08,0,0,0-.13.42,4.74,4.74,0,0,0-.05.85v.06c0,.1,0,.2,0,.3H11q-.77,0-1.53.06a5.52,5.52,0,0,0-.06-1.09,1.5,1.5,0,0,0-.14-.5A.32.32,0,0,0,8.83,20a.49.49,0,0,0-.25.24,2.34,2.34,0,0,0-.23,1.13.29.29,0,0,0,.06.19c.06,0,0-.1,0-.14a2.65,2.65,0,0,1,.19-1,.46.46,0,0,1,.22-.29c.15-.08.24-.06.31.09a2.22,2.22,0,0,1,.12.46,9,9,0,0,0,.13,1c-.77,0-1.52,0-2.27-.08l-.6-.05H6.41c-.62-.05-1.23-.13-1.84-.22-.76-.12-1.52-.26-2.26-.45a11.49,11.49,0,0,1-1.23-.37,4.58,4.58,0,0,1-.78-.36c-.06,0-.1-.06,0-.14a1.5,1.5,0,0,0,.17-.83,1.26,1.26,0,0,1,.08-.58l.08-.14a1.35,1.35,0,0,0,.83.47,10.94,10.94,0,0,0,1.11.23l.26,0,.11,0,.51.06c.82.1,1.63.17,2.45.21s1.82.08,2.74.1c1.43,0,2.86,0,4.28-.08s3-.18,4.47-.38l1.22-.19a12.38,12.38,0,0,0,1.34-.31l.41-.14a.89.89,0,0,0,.49-.37.83.83,0,0,1,.19.58c0,.14,0,.28,0,.42a1.23,1.23,0,0,0,.23.6A2.4,2.4,0,0,1,20.66,20Zm-4.48,1.19c-.63.11-1.26.19-1.9.25s-1.44.14-2.18.14l0-.32v-.07l0,0-.09,0v.06c0,.1,0,.2,0,.3H11l-.4.12-.4.1h.32c.64,0,1.29,0,1.93,0,.84,0,1.66-.13,2.49-.24.51-.06,1-.14,1.51-.22A1.78,1.78,0,0,0,16.18,21.23Zm-3-.26a.15.15,0,0,0,0-.07,3.08,3.08,0,0,0-.18-.66.59.59,0,0,0-.37-.37.3.3,0,0,0-.39.15,1.08,1.08,0,0,0-.13.42,4.74,4.74,0,0,0-.05.85l.09,0,0,0c0-.25,0-.49.07-.74a1.31,1.31,0,0,1,.06-.27c.08-.24.23-.28.41-.11a.46.46,0,0,1,.14.22,3.31,3.31,0,0,1,.19.61A.13.13,0,0,1,13,21a1.66,1.66,0,0,1,0,.32.12.12,0,0,0,0,.1.41.41,0,0,0,.07-.32A.59.59,0,0,0,13.13,21Zm3,.26c-.63.11-1.26.19-1.9.25s-1.44.14-2.18.14l0-.32v-.07l0,0-.09,0v.06c0,.1,0,.2,0,.3H11l-.4.12-.4.1h.32c.64,0,1.29,0,1.93,0,.84,0,1.66-.13,2.49-.24.51-.06,1-.14,1.51-.22A1.78,1.78,0,0,0,16.18,21.23Zm-3-.26a.15.15,0,0,0,0-.07,3.08,3.08,0,0,0-.18-.66.59.59,0,0,0-.37-.37.3.3,0,0,0-.39.15,1.08,1.08,0,0,0-.13.42,4.74,4.74,0,0,0-.05.85l.09,0,0,0c0-.25,0-.49.07-.74a1.31,1.31,0,0,1,.06-.27c.08-.24.23-.28.41-.11a.46.46,0,0,1,.14.22,3.31,3.31,0,0,1,.19.61A.13.13,0,0,1,13,21a1.66,1.66,0,0,1,0,.32.12.12,0,0,0,0,.1.41.41,0,0,0,.07-.32A.59.59,0,0,0,13.13,21Zm3,.26c-.63.11-1.26.19-1.9.25s-1.44.14-2.18.14l0-.32v-.07l0,0-.09,0v.06c0,.1,0,.2,0,.3H11l-.4.12-.4.1h.32c.64,0,1.29,0,1.93,0,.84,0,1.66-.13,2.49-.24.51-.06,1-.14,1.51-.22A1.78,1.78,0,0,0,16.18,21.23Zm-3-.26a.15.15,0,0,0,0-.07,3.08,3.08,0,0,0-.18-.66.59.59,0,0,0-.37-.37.3.3,0,0,0-.39.15,1.08,1.08,0,0,0-.13.42,4.74,4.74,0,0,0-.05.85l.09,0,0,0c0-.25,0-.49.07-.74a1.31,1.31,0,0,1,.06-.27c.08-.24.23-.28.41-.11a.46.46,0,0,1,.14.22,3.31,3.31,0,0,1,.19.61A.13.13,0,0,1,13,21a1.66,1.66,0,0,1,0,.32.12.12,0,0,0,0,.1.41.41,0,0,0,.07-.32A.59.59,0,0,0,13.13,21Z"/><path class="cls-13" d="M4,38a4.56,4.56,0,0,1-2.24-6.34c1.51-3.55,2.48-5.9,3.82-4.81s.52,3.16-.83,5.63A9.85,9.85,0,0,0,4,38Z"/><path class="cls-14" d="M15.92,37.07c-.73,1.4.14,2.29,1,2.21a2.78,2.78,0,0,0,2.15-1.35c.36-1-.08-1.87-.83-1.92A2.08,2.08,0,0,0,15.92,37.07Z"/><path class="cls-15" d="M16.65,38.19c-.48-.62-.13-1.44.4-2.12a1.76,1.76,0,0,0-1.13,1c-.73,1.4.14,2.29,1,2.21A3,3,0,0,0,19,38.11C18.25,38.68,17.32,38.94,16.65,38.19Z"/><path class="cls-14" d="M17.81,26.14c-.69,1.42.23,2.58,1.13,2.53a1.37,1.37,0,0,0,1.42-1.32c.12-1.41-.74-2.13-1.3-2.13A1.28,1.28,0,0,0,17.81,26.14Z"/><path class="cls-15" d="M18.38,27.52a2.72,2.72,0,0,1,.52-2.28c-.62.05-.86.43-1.09.9-.69,1.42.23,2.58,1.13,2.53h.15A1.77,1.77,0,0,1,18.38,27.52Z"/><path class="cls-14" d="M16,34.3a1.51,1.51,0,0,0,1.24,2.37c.91-.08,2.76-.27,3.29-1.45s-.17-2.41-.91-2.45S16.67,33.08,16,34.3Z"/><path class="cls-15" d="M17.36,36.12a1.51,1.51,0,0,1-.87-2,2.64,2.64,0,0,1,.31-.63,2.1,2.1,0,0,0-.76.78,1.51,1.51,0,0,0,1.24,2.37c.89-.08,2.68-.27,3.25-1.37A3.54,3.54,0,0,1,17.36,36.12Z"/><path class="cls-14" d="M16.51,30.82a1.51,1.51,0,0,0,1.25,2.37c.9-.09,2.76-.28,3.29-1.45s-.17-2.41-.91-2.45S17.14,29.6,16.51,30.82Z"/><path class="cls-15" d="M16.91,32a3,3,0,0,1,.34-2,2.17,2.17,0,0,0-.74.77,1.51,1.51,0,0,0,1.25,2.37c.86-.09,2.59-.26,3.21-1.3a6.33,6.33,0,0,1-2.59.92A1.26,1.26,0,0,1,16.91,32Z"/></g></g></svg>