<svg xmlns="http://www.w3.org/2000/svg" viewBox="0 0 1539.76 745.77"><defs><style>.cls-1{fill:#2389c4;}.cls-2{fill:#62abd4;}</style></defs><g id="Layer_2" data-name="Layer 2"><g id="Layer_1-2" data-name="Layer 1"><path class="cls-1" d="M1536.72,367.8c-.88-.8-1.88-1.42-2.82-2.14-111.5-84.27-226.52-161-346.36-226.95C1088.89,84.38,987.06,40.85,880.46,14.46,846.85,6.14,812.94.35,778.52,0,730.32-.45,683,7.74,636.13,20.65,551,44.12,468.64,78.27,388.38,119.1,254,187.46,127,272.6,3.62,365.65c-1.34,1-3.16,1.5-3.62,3.69,0,2.09,1.46,2.82,2.49,3.78,10.75,10.07,21.29,20.5,32.36,30q146.34,126,311.32,213c111.94,58.88,227.76,102,349.16,122.17,11.35,1.89,22.72,3.56,34.13,4.86l4.77.53h0q3.68.39,7.36.7l1.59.14,3.14.24c3.79.29,7.59.54,11.39.72,4.4.21,8.8.28,13.19.25l2.72,0a372.69,372.69,0,0,0,80.86-8.83c55.76-9.08,110.54-23.79,164.56-42.82,94.06-33.15,184.1-78.1,271.13-131.88,77.09-47.64,152-99.53,221.47-162,8.46-7.61,16.93-15.22,25.2-23.13C1540.86,373.26,1540.63,371.38,1536.72,367.8ZM232.77,488.65c-50.86-33.3-100.45-69.1-147.84-109.14-1.14-1-2.33-1.84-3.43-2.85-2.45-2.23-2.21-4.32.32-6.2,1-.71,1.88-1.44,2.83-2.13C176.9,302.14,271,240.11,369.25,187.42q63.33-34,128.66-61.79a371.38,371.38,0,0,0,7.39,505.51C410.59,594.66,320.19,545.88,232.77,488.65Zm812.9,138.55a371.37,371.37,0,0,0,7.85-496.87,1558.37,1558.37,0,0,1,167.74,86q118,69.72,230.61,151.47c2.85,2.08,5.63,4.28,8.41,6.49.42.34.63,1.07,2,3.46C1331.65,482.1,1194.28,568.36,1045.67,627.2Z"/><path class="cls-2" d="M769.93,62.57q122.84-.3,216.07,79.79c55.8,48,90.66,108.67,102.69,181.32,14.86,89.74-7.14,170.72-64.21,241.26-47.79,59.09-110,96.58-184.43,111.11-93.51,18.26-180.77,2.18-258.5-55.22-52.46-38.74-91.62-87.84-112.8-150.17-13.54-39.84-19.43-80.92-16.59-122.9,3.84-57,24.22-108,57.88-153.95,52.46-71.62,123.33-113,210.1-128.16C736.57,62.77,753.25,62.54,769.93,62.57ZM696.5,109.19c-2,.94-3,1.15-3.7,1.77-22.73,21.48-37.63,47.39-42.66,78.38-1.28,7.89-4.15,13.38-10.64,18a193.93,193.93,0,0,0-45.31,44.77C560.4,299.26,547.3,351.34,557.12,409c5.6,32.9,18.75,62.33,38.8,88.77,3.57,4.7,5.1,9.2,3,14.75-5.37,14.22-5.33,27.87,3.49,41,2.72,4.06,1.57,6.84-2.91,7.11-13.22.8-26.35,4.43-39.72,1.35-2.61-.6-5.65-1.9-9,1.42a42,42,0,0,0,14.07,7.85c21,7.62,42.86,9.63,64.93,7.44,14.86-1.46,29.91-3.41,42.07-13.66,3.89-3.28,7.5-1,11.16.49,22.92,9.48,46.71,15.73,71.46,17.32,40,2.58,78.18-5.28,114.3-22.58,42.69-20.45,74.13-52.53,95.46-94.56,4.36-8.6,9.87-14.26,19.58-16.63,12.71-3.1,21.46-11.4,26.44-23.73,3.15-7.81,4.1-7.9,10-2.23,8.91,8.58,16.24,18.49,23.45,28.5,1.62,2.24,2.52,5.74,6.71,5,.23-.91.85-1.94.63-2.74-1.49-5.45-2.89-11-4.81-16.25-10-27.64-26.11-50.87-50.16-68.11-7.9-5.67-12.34-12.71-12.3-22.61a57.41,57.41,0,0,0-1.4-12.87c-18.15-80.44-67.61-132.62-144.92-158.71-34.32-11.59-69.82-12.87-105.54-7-4,.66-8,1.31-11.64-.9-10.94-6.61-22.29-10.15-35.19-6.35-3.75,1.1-5.59-1-4.3-5.13,3.52-11.43,6-23.2,12.07-33.75C694.87,118.55,697.86,115,696.5,109.19Z"/><path class="cls-1" d="M696.5,109.19c1.36,5.82-1.63,9.36-3.67,12.9-6.09,10.55-8.55,22.32-12.07,33.75-1.29,4.17.55,6.23,4.3,5.13,12.9-3.8,24.25-.26,35.19,6.35,3.66,2.21,7.61,1.56,11.64.9,35.72-5.85,71.22-4.57,105.54,7C914.74,201.33,964.2,253.51,982.35,334a57.41,57.41,0,0,1,1.4,12.87c0,9.9,4.4,16.94,12.3,22.61,24.05,17.24,40.17,40.47,50.16,68.11,1.92,5.3,3.32,10.8,4.81,16.25.22.8-.4,1.83-.63,2.74-4.19.77-5.09-2.73-6.71-5-7.21-10-14.54-19.92-23.45-28.5-5.89-5.67-6.84-5.58-10,2.23-5,12.33-13.73,20.63-26.44,23.73-9.71,2.37-15.22,8-19.58,16.63-21.33,42-52.77,74.11-95.46,94.56-36.12,17.3-74.28,25.16-114.3,22.58C729.71,581.2,705.92,575,683,565.47c-3.66-1.52-7.27-3.77-11.16-.49-12.16,10.25-27.21,12.2-42.07,13.66-22.07,2.19-43.88.18-64.93-7.44a42,42,0,0,1-14.07-7.85c3.36-3.32,6.4-2,9-1.42,13.37,3.08,26.5-.55,39.72-1.35,4.48-.27,5.63-3.05,2.91-7.11-8.82-13.12-8.86-26.77-3.49-41,2.1-5.55.57-10.05-3-14.75-20-26.44-33.2-55.87-38.8-88.77-9.82-57.62,3.28-109.7,37.07-156.83a193.93,193.93,0,0,1,45.31-44.77c6.49-4.64,9.36-10.13,10.64-18,5-31,19.93-56.9,42.66-78.38C693.46,110.34,694.49,110.13,696.5,109.19ZM564.94,373.47c-.83,39.32,10.78,74.88,31.89,107.55,8.9,13.77,9.57,16,24.63,7.4,17.45-10,35-6.11,50.21,6.18,15,12.12,20.12,31.51,14.18,49.64-3,9-2.57,10,5.94,13.47a204,204,0,0,0,68.85,15c35.53,1.57,69.44-6,101.6-21,40-18.7,69.53-48.49,90.87-86.84,6.46-11.6,6.56-11.62-5.25-17.46a46.08,46.08,0,0,1-16.3-69.58c9.1-12,21.54-17.19,36.09-18.53,6.77-.62,7.76-1.87,7-7.85-6.95-53.42-31.59-97.14-73.58-130.51-44.76-35.58-96-50.35-153-44.24-13.39,1.43-13.4,1.33-9.18,14.09,9.7,29.32-11.61,59.81-42.26,60.61-21.77.58-36.69-9.56-45.91-28.88-3.25-6.82-4.15-7.08-10.08-3-.82.57-1.59,1.21-2.35,1.85C591,261.14,565.44,311.27,564.94,373.47Z"/><path class="cls-2" d="M564.94,373.47c.5-62.2,26.08-112.33,73.31-152,.76-.64,1.53-1.28,2.35-1.85,5.93-4.12,6.83-3.86,10.08,3,9.22,19.32,24.14,29.46,45.91,28.88,30.65-.8,52-31.29,42.26-60.61-4.22-12.76-4.21-12.66,9.18-14.09,57.05-6.11,108.27,8.66,153,44.24,42,33.37,66.63,77.09,73.58,130.51.77,6-.22,7.23-7,7.85-14.55,1.34-27,6.51-36.09,18.53a46.08,46.08,0,0,0,16.3,69.58c11.81,5.84,11.71,5.86,5.25,17.46-21.34,38.35-50.87,68.14-90.87,86.84-32.16,15-66.07,22.6-101.6,21a204,204,0,0,1-68.85-15c-8.51-3.49-8.89-4.48-5.94-13.47,5.94-18.13.85-37.52-14.18-49.64-15.22-12.29-32.76-16.17-50.21-6.18-15.06,8.62-15.73,6.37-24.63-7.4C575.72,448.35,564.11,412.79,564.94,373.47Zm138.65.11a73.42,73.42,0,0,0,.94,11.9c7.55,40.88,54.88,66.75,96.69,45.51C824.71,419,837,398.81,836.61,372.82c-.67-41.51-40.4-71.06-81.17-61.81C725,317.91,703.66,343.71,703.59,373.58Z"/><path class="cls-1" d="M703.59,373.58c.07-29.87,21.45-55.67,51.85-62.57,40.77-9.25,80.5,20.3,81.17,61.81.42,26-11.9,46.22-35.39,58.17-41.81,21.24-89.14-4.63-96.69-45.51A73.42,73.42,0,0,1,703.59,373.58Z"/></g></g></svg>