<svg xmlns="http://www.w3.org/2000/svg" viewBox="0 0 105.4 135.19"><defs><style>.cls-1{fill:#2178bc;}.cls-2{fill:#f7ae22;}.cls-3{fill:#5494ce;}.cls-4{fill:#fcc725;}.cls-5{fill:none;stroke:#f7ae23;stroke-miterlimit:10;stroke-width:3px;}</style></defs><g id="Layer_2" data-name="Layer 2"><g id="Layer_1-2" data-name="Layer 1"><polygon class="cls-1" points="39.01 39.01 66.39 39.01 105.4 0 67.15 0 39.01 39.01"/><path class="cls-2" d="M71.89,34.41H33.51a2.84,2.84,0,0,0-2.84,2.84V66.57a2.84,2.84,0,0,0,2.84,2.84H71.89a2.84,2.84,0,0,0,2.84-2.84V37.25A2.84,2.84,0,0,0,71.89,34.41Zm-4.22,8.7H37.73a2.05,2.05,0,0,1,0-4.1H67.67a2.05,2.05,0,0,1,0,4.1Z"/><polygon class="cls-3" points="66.39 39.01 39.01 39.01 0 0 38.25 0 66.39 39.01"/><circle class="cls-4" cx="52.7" cy="92.64" r="42.55"/><circle class="cls-5" cx="52.7" cy="92.64" r="31.97"/></g></g></svg>